<?xml version="1.0" standalone="no"?>
<!DOCTYPE svg PUBLIC "-//W3C//DTD SVG 1.1//EN" "http://www.w3.org/Graphics/SVG/1.1/DTD/svg11.dtd" >
<svg xmlns="http://www.w3.org/2000/svg" xmlns:xlink="http://www.w3.org/1999/xlink" version="1.1">
<metadata>
Created by FontForge 20170731 at Wed Aug 19 12:27:14 2020
 By Aleksey,,,
Exclusively designed for Red Bull TV. Copyright (C) 2015 by Red Bull Media House GmbH. All rights reserved.
</metadata>
<defs>
<font id="Bull-Regular" horiz-adv-x="0" >
  <font-face 
    font-family="Bull"
    font-weight="400"
    font-stretch="normal"
    units-per-em="2048"
    panose-1="2 11 5 4 4 0 0 0 0 0"
    ascent="1638"
    descent="-410"
    x-height="997"
    cap-height="1378"
    bbox="-401 -442 2499 1952"
    underline-thickness="143"
    underline-position="-367"
    unicode-range="U+0020-FB02"
  />
<missing-glyph horiz-adv-x="1464" 
d="M195 1378h1077v-1378h-1077v1378zM1151 104v1166h-844z" />
    <glyph glyph-name="fi" unicode="fi" horiz-adv-x="1110" 
d="M641 1239h-113q-92 0 -136 -44.5t-44 -135.5v-62h252v-141h-252v-856h-158v856h-143v141h143v72q0 152 83 230.5t243 78.5h125v-139zM862 1233q-46 0 -77 31t-31 75q0 47 31 78t77 31q47 0 78 -31t31 -78q0 -45 -31 -75.5t-78 -30.5zM782 0v997h158v-997h-158z" />
    <glyph glyph-name="fl" unicode="fl" horiz-adv-x="1110" 
d="M641 1239h-113q-92 0 -136 -44.5t-44 -135.5v-62h252v-141h-252v-856h-158v856h-143v141h143v72q0 152 83 230.5t243 78.5h125v-139zM782 0v1378h158v-1378h-158z" />
    <glyph glyph-name=".notdef" horiz-adv-x="1464" 
d="M195 1378h1077v-1378h-1077v1378zM1151 104v1166h-844z" />
    <glyph glyph-name=".null" 
 />
    <glyph glyph-name="nonmarkingreturn" horiz-adv-x="682" 
 />
    <glyph glyph-name="space" unicode=" " horiz-adv-x="561" 
 />
    <glyph glyph-name="exclam" unicode="!" horiz-adv-x="567" 
d="M215 422l-20 956h180l-21 -956h-139zM283 -23q-47 0 -82 34t-35 81q0 49 34.5 82t82.5 33q50 0 84 -33t34 -82q0 -47 -34.5 -81t-83.5 -34z" />
    <glyph glyph-name="quotedbl" unicode="&#x22;" horiz-adv-x="823" 
d="M174 848l-18 530h157v-530h-139zM508 848v530h158l-19 -530h-139z" />
    <glyph glyph-name="numbersign" unicode="#" horiz-adv-x="1193" 
d="M1159 848h-198l-46 -336h195v-139h-213l-51 -373h-156l51 373h-372l-50 -373h-155l49 373h-176v139h196l46 336h-193v139h211l49 371h156l-49 -371h372l49 371h156l-51 -371h180v-139zM387 514h375l45 334h-375z" />
    <glyph glyph-name="dollar" unicode="$" horiz-adv-x="1067" 
d="M975 383q0 -138 -98.5 -228.5t-266.5 -107.5v-240h-159v242q-165 20 -266.5 119t-108.5 252h162q8 -107 89.5 -173.5t207.5 -66.5q132 0 206 51.5t74 145.5q0 84 -41 126.5t-160 82.5l-184 63q-160 56 -231.5 134t-71.5 196q0 127 88.5 211.5t235.5 103.5v242h159v-244
q146 -19 233.5 -104.5t96.5 -220.5h-162q-12 94 -77.5 145t-174.5 51q-115 0 -177 -47t-62 -135q0 -71 45 -114.5t162 -84.5l190 -67q161 -60 226 -134t65 -198z" />
    <glyph glyph-name="percent" unicode="%" horiz-adv-x="1730" 
d="M426 709q-148 0 -248 100t-100 246t100 245t248 99q147 0 247.5 -99t100.5 -245q0 -145 -101 -245.5t-247 -100.5zM381 0l811 1378h158l-813 -1378h-156zM424 846q91 0 150 59.5t59 151.5q0 91 -59 151t-150 60q-89 0 -147 -59.5t-58 -151.5t58.5 -151.5t146.5 -59.5z
M1305 -23q-148 0 -248.5 100.5t-100.5 246.5t100 245t249 99q148 0 248 -99t100 -245q0 -145 -101 -246t-247 -101zM1305 113q89 0 147.5 60.5t58.5 152.5q0 91 -58.5 150t-149.5 59q-90 0 -147.5 -58.5t-57.5 -150.5q0 -93 58.5 -153t148.5 -60z" />
    <glyph glyph-name="ampersand" unicode="&#x26;" horiz-adv-x="1259" 
d="M1219 745l-258 -448l258 -297h-197l-145 172q-82 -100 -177 -147.5t-215 -47.5q-181 0 -291 98t-110 257q0 117 70 217.5t221 198.5q-87 101 -122.5 174.5t-35.5 156.5q0 144 89.5 233t232.5 89q139 0 228 -81.5t89 -209.5q0 -100 -63 -193.5t-197 -193.5l-2 -2l262 -305
l186 329h177zM541 1257q-75 0 -120.5 -49t-45.5 -129q0 -58 27.5 -113t101.5 -143l6 4q186 141 186 277q0 68 -42.5 110.5t-112.5 42.5zM494 125q160 0 282 162l-307 352q-121 -92 -169 -159t-48 -144q0 -94 66 -152.5t176 -58.5z" />
    <glyph glyph-name="quotesingle" unicode="'" horiz-adv-x="485" 
d="M174 848l-18 530h172l-19 -530h-135z" />
    <glyph glyph-name="parenleft" unicode="(" horiz-adv-x="714" 
d="M696 -162h-192q-158 169 -242 388.5t-84 465.5q0 244 84.5 465.5t241.5 388.5h192q-170 -153 -266 -380.5t-96 -473.5t96 -472.5t266 -381.5z" />
    <glyph glyph-name="parenright" unicode=")" horiz-adv-x="714" 
d="M211 -162h-193q170 155 266.5 381.5t96.5 472.5t-96.5 473t-266.5 381h193q157 -167 241.5 -388.5t84.5 -465.5q0 -246 -84 -465.5t-242 -388.5z" />
    <glyph glyph-name="asterisk" unicode="*" horiz-adv-x="808" 
d="M733 1190l-221 -119l221 -123l-59 -104l-213 131l6 -252h-121l6 256l-219 -135l-59 104l223 123l-223 119l59 104l219 -131l-6 252h121l-6 -250l213 129z" />
    <glyph glyph-name="plus" unicode="+" horiz-adv-x="1187" 
d="M518 238v407h-403v146h403v409h156v-409h397v-146h-397v-407h-156z" />
    <glyph glyph-name="comma" unicode="," horiz-adv-x="524" 
d="M164 -334l31 531h174l-72 -531h-133z" />
    <glyph glyph-name="hyphen" unicode="-" horiz-adv-x="663" 
d="M92 561v146h477v-146h-477z" />
    <glyph glyph-name="period" unicode="." horiz-adv-x="542" 
d="M270 -23q-50 0 -84 34t-34 83q0 50 34.5 84.5t83.5 34.5q51 0 86 -34.5t35 -84.5q0 -49 -35 -83t-86 -34z" />
    <glyph glyph-name="slash" unicode="/" horiz-adv-x="1011" 
d="M121 -61l616 1501h156l-617 -1501h-155z" />
    <glyph glyph-name="zero" unicode="0" horiz-adv-x="1601" 
d="M801 -23q-195 0 -354.5 93t-251 256.5t-91.5 363.5t91 363t250.5 255.5t355.5 92.5q147 0 275.5 -54.5t220.5 -148.5t145 -226t53 -282q0 -200 -90.5 -363.5t-249.5 -256.5t-354 -93zM801 127q150 0 271 73t189 202t68 290q0 241 -150.5 400t-377.5 159
q-112 0 -210.5 -42.5t-169 -116t-111 -177.5t-40.5 -223q0 -244 151 -404.5t380 -160.5z" />
    <glyph glyph-name="one" unicode="1" horiz-adv-x="718" 
d="M375 1378h137v-1378h-160v1214l-262 -81l-39 139z" />
    <glyph glyph-name="two" unicode="2" horiz-adv-x="1095" 
d="M276 145h730v-145h-897v82q0 81 24.5 155t60 127t89.5 104t98.5 82.5t101.5 65.5q73 44 109.5 67t82.5 56t66.5 55.5t41 54t27.5 64t7 74.5q0 128 -71 196t-181 68q-121 0 -196.5 -79t-75.5 -207h-164q0 197 119.5 316.5t314.5 119.5q188 0 304 -110t116 -298
q0 -51 -10.5 -95.5t-25 -79.5t-45 -71t-55.5 -60.5t-72.5 -58.5t-79 -54.5t-91.5 -57.5q-157 -98 -232.5 -177.5t-95.5 -193.5z" />
    <glyph glyph-name="three" unicode="3" horiz-adv-x="1122" 
d="M791 727q104 -43 160.5 -128.5t56.5 -203.5q0 -181 -131.5 -299.5t-331.5 -118.5q-198 0 -320 117t-129 318h162q5 -129 82 -207t201 -78q134 0 217.5 74t83.5 192q0 120 -80.5 188t-222.5 68h-138v144h136q123 0 189.5 59.5t66.5 171.5q0 106 -66 166.5t-184 60.5
q-115 0 -189.5 -64t-79.5 -167h-159q6 166 128.5 273.5t305.5 107.5q184 0 296.5 -101.5t112.5 -267.5q0 -102 -43.5 -180.5t-123.5 -124.5z" />
    <glyph glyph-name="four" unicode="4" horiz-adv-x="1142" 
d="M1073 401v-147h-199v-254h-159v254h-654v139l627 985h186v-977h199zM715 1167l-482 -766h482v766z" />
    <glyph glyph-name="five" unicode="5" horiz-adv-x="1167" 
d="M635 891q188 0 311 -127t123 -320q0 -206 -130.5 -336.5t-336.5 -130.5q-185 0 -309 112t-139 292h159q11 -109 93.5 -183.5t195.5 -74.5q131 0 218 91t87 230q0 132 -84 216.5t-215 84.5q-81 0 -152.5 -35t-121.5 -98h-146v766h789v-145h-637v-451q121 109 295 109z" />
    <glyph glyph-name="six" unicode="6" horiz-adv-x="1148" 
d="M592 887q189 0 318.5 -131t129.5 -322q0 -195 -134.5 -326t-334.5 -131t-331 129.5t-131 325.5q0 90 36.5 178.5t133.5 233.5l356 534h188l-340 -504q57 13 109 13zM573 123q131 0 218.5 88.5t87.5 220.5q0 133 -87 221t-219 88q-129 0 -216 -88.5t-87 -220.5
q0 -133 86 -221t217 -88z" />
    <glyph glyph-name="seven" unicode="7" horiz-adv-x="1007" 
d="M66 1378h866v-141l-574 -1237h-172l582 1233h-702v145z" />
    <glyph glyph-name="eight" unicode="8" horiz-adv-x="1124" 
d="M786 727q106 -46 165 -137.5t59 -214.5q0 -177 -124.5 -287.5t-324.5 -110.5q-198 0 -323 109.5t-125 282.5q0 124 60.5 217t168.5 141q-91 45 -141.5 124.5t-50.5 182.5q0 158 117.5 262.5t297.5 104.5t296 -103t116 -262q0 -103 -50.5 -183.5t-140.5 -125.5zM565 1255
q-114 0 -185 -63t-71 -164q0 -103 72 -169t182 -66q112 0 182 66t70 171q0 100 -69 162.5t-181 62.5zM561 123q130 0 209.5 70t79.5 186q0 121 -78.5 195.5t-204.5 74.5q-132 0 -213.5 -76t-81.5 -198q0 -114 80 -183t209 -69z" />
    <glyph glyph-name="nine" unicode="9" horiz-adv-x="1148" 
d="M557 492q-189 0 -318.5 130.5t-129.5 321.5q0 195 134.5 326t334.5 131t331 -129.5t131 -325.5q0 -90 -36.5 -178t-133.5 -233l-356 -535h-188l340 504q-53 -12 -109 -12zM575 1255q-130 0 -217.5 -88.5t-87.5 -220.5q0 -134 86.5 -221.5t218.5 -87.5q129 0 216.5 88.5
t87.5 220.5q0 133 -86.5 221t-217.5 88z" />
    <glyph glyph-name="colon" unicode=":" horiz-adv-x="583" 
d="M291 690q-50 0 -84.5 34t-34.5 83t35 84t84 35q51 0 86 -34.5t35 -84.5q0 -49 -35 -83t-86 -34zM291 -23q-50 0 -84.5 34t-34.5 83q0 50 35 84.5t84 34.5q51 0 86 -34.5t35 -84.5q0 -49 -35 -83t-86 -34z" />
    <glyph glyph-name="semicolon" unicode=";" horiz-adv-x="583" 
d="M291 690q-50 0 -84.5 34t-34.5 83t35 84t84 35q51 0 86 -34.5t35 -84.5q0 -49 -35 -83t-86 -34zM184 -334l31 531h174l-72 -531h-133z" />
    <glyph glyph-name="less" unicode="&#x3c;" horiz-adv-x="1187" 
d="M1063 1128v-161l-727 -273l727 -272v-162l-932 369v131z" />
    <glyph glyph-name="equal" unicode="=" horiz-adv-x="1187" 
d="M133 844v145h920v-145h-920zM133 414v145h920v-145h-920z" />
    <glyph glyph-name="greater" unicode="&#x3e;" horiz-adv-x="1187" 
d="M125 1128l932 -368v-131l-932 -369v162l727 272l-727 273v161z" />
    <glyph glyph-name="question" unicode="?" horiz-adv-x="802" 
d="M111 1378h251q171 0 264 -81.5t93 -231.5q0 -74 -25.5 -131.5t-95 -132.5t-211.5 -195v-184h-145v260q140 117 204.5 179.5t87.5 104t23 89.5q0 92 -53.5 135t-167.5 43h-225v145zM319 207q50 0 84.5 -33t34.5 -82q0 -47 -35 -81t-84 -34q-47 0 -81.5 34t-34.5 81
q0 49 34 82t82 33z" />
    <glyph glyph-name="at" unicode="@" horiz-adv-x="1898" 
d="M985 1348q170 0 320.5 -55t257.5 -150t169 -229t62 -287q0 -240 -143 -383.5t-371 -143.5h-70v123q-46 -67 -124.5 -106t-172.5 -39q-172 0 -287.5 123t-115.5 307q0 185 115 305.5t293 120.5q93 0 168.5 -36t121.5 -101v118h140v-675q141 15 220 115t79 268
q0 171 -84.5 304.5t-234.5 207t-341 73.5q-210 0 -377.5 -90t-261.5 -251.5t-94 -364.5q0 -204 95.5 -362t267.5 -245.5t393 -87.5h202v-135l-208 -2q-196 -2 -364.5 59t-285.5 170t-183.5 262t-66.5 331q0 243 116 439.5t317.5 306.5t447.5 110zM936 217q121 0 194.5 80
t73.5 209q0 130 -73 208.5t-195 78.5q-120 0 -196 -80t-76 -207q0 -128 76 -208.5t196 -80.5z" />
    <glyph glyph-name="A" unicode="A" horiz-adv-x="1366" 
d="M1126 0l-131 350h-622l-131 -350h-170l526 1378h172l524 -1378h-168zM684 1200l-258 -708h518z" />
    <glyph glyph-name="B" unicode="B" horiz-adv-x="1265" 
d="M948 739q105 -45 161 -135.5t56 -218.5q0 -179 -121.5 -282t-332.5 -103h-516v1378h495q191 0 300.5 -90.5t109.5 -249.5q0 -207 -152 -299zM354 143h344q145 0 223 67.5t78 192.5q0 118 -83.5 185t-229.5 67h-332v-512zM686 1235h-332v-436h324q124 0 191 58t67 163
q0 215 -250 215z" />
    <glyph glyph-name="C" unicode="C" horiz-adv-x="1593" 
d="M817 -23q-151 0 -283.5 54.5t-226.5 148.5t-148.5 226.5t-54.5 283.5q0 149 54.5 281t149 226t227 149t282.5 55q258 0 442 -141.5t228 -374.5h-172q-43 167 -178 266.5t-318 99.5q-152 0 -278 -73.5t-198.5 -202.5t-72.5 -285q0 -239 158 -401t391 -162q183 0 317.5 100
t178.5 269h172q-44 -235 -228 -377t-442 -142z" />
    <glyph glyph-name="D" unicode="D" horiz-adv-x="1472" 
d="M195 0v1378h419q341 0 547.5 -188t206.5 -498t-208 -501t-546 -191h-419zM354 145h260q264 0 426 150.5t162 396.5q0 244 -161 392.5t-427 148.5h-260v-1088z" />
    <glyph glyph-name="E" unicode="E" horiz-adv-x="1107" 
d="M195 0v1378h794v-145h-635v-440h615v-146h-615v-502h658v-145h-817z" />
    <glyph glyph-name="F" unicode="F" horiz-adv-x="1050" 
d="M195 0v1378h784v-145h-625v-477h607v-146h-607v-610h-159z" />
    <glyph glyph-name="G" unicode="G" horiz-adv-x="1609" 
d="M836 678h622v-369q-95 -163 -255 -247.5t-359 -84.5q-160 0 -297.5 54t-234.5 149t-152.5 228t-55.5 286q0 201 93 363t257.5 253t368.5 91q229 0 395 -115.5t226 -316.5h-176q-57 135 -174.5 208.5t-274.5 73.5q-238 0 -393.5 -157t-155.5 -400q0 -248 161 -407.5
t415 -159.5q296 0 452 217v188h-462v146z" />
    <glyph glyph-name="H" unicode="H" horiz-adv-x="1409" 
d="M195 0v1378h159v-567h703v567h160v-1378h-160v666h-703v-666h-159z" />
    <glyph glyph-name="I" unicode="I" horiz-adv-x="546" 
d="M195 0v1378h159v-1378h-159z" />
    <glyph glyph-name="J" unicode="J" horiz-adv-x="731" 
d="M33 0v145h137q106 0 157.5 47.5t51.5 145.5v1040h160v-1052q0 -158 -89.5 -242t-256.5 -84h-160z" />
    <glyph glyph-name="K" unicode="K" horiz-adv-x="1173" 
d="M1159 0h-201l-604 686v-686h-159v1378h159v-606l574 606h194l-610 -643z" />
    <glyph glyph-name="L" unicode="L" horiz-adv-x="974" 
d="M195 0v1378h159v-1233h572v-145h-731z" />
    <glyph glyph-name="M" unicode="M" horiz-adv-x="1728" 
d="M1307 1378h229v-1378h-160v1128l-436 -1128h-149l-437 1128v-1128h-157l-2 1378h227l444 -1161z" />
    <glyph glyph-name="N" unicode="N" horiz-adv-x="1411" 
d="M1057 1378h162v-1378h-175l-690 1120v-1120h-159v1378h184l678 -1097v1097z" />
    <glyph glyph-name="O" unicode="O" horiz-adv-x="1634" 
d="M817 -23q-149 0 -281 55t-227 150t-150 227t-55 281t54.5 281t149 226t227 149t282.5 55q149 0 281 -55t226 -149t149 -226t55 -281t-55 -281t-149 -227t-226 -150t-281 -55zM817 127q154 0 279.5 73t196.5 202.5t71 289.5q0 239 -157 399t-390 160t-390 -160t-157 -399
q0 -160 71 -289.5t196.5 -202.5t279.5 -73z" />
    <glyph glyph-name="P" unicode="P" horiz-adv-x="1132" 
d="M195 0v1378h428q201 0 317.5 -108t116.5 -293q0 -188 -117.5 -300t-316.5 -112h-269v-565h-159zM352 713h260q130 0 203.5 69t73.5 193q0 122 -72.5 190t-204.5 68h-260v-520z" />
    <glyph glyph-name="Q" unicode="Q" horiz-adv-x="1634" 
d="M1014 27l569 -160v-141l-952 274q-241 69 -384 255t-143 431q0 148 56 280.5t151 228t228 151t282 55.5q197 0 361.5 -94t259 -256.5t94.5 -358.5q0 -244 -144 -425t-378 -240zM270 692q0 -159 72 -288.5t198.5 -203t280.5 -73.5q153 0 279 74t198 204t72 287
q0 156 -72 284.5t-198 201.5t-279 73q-154 0 -280.5 -73t-198.5 -201.5t-72 -284.5z" />
    <glyph glyph-name="R" unicode="R" horiz-adv-x="1214" 
d="M195 0v1378h428q201 0 317.5 -108t116.5 -293q0 -154 -81 -258.5t-224 -138.5l391 -580h-191l-374 565h-224v-565h-159zM352 713h260q130 0 203.5 69t73.5 193q0 122 -72.5 190t-204.5 68h-260v-520z" />
    <glyph glyph-name="S" unicode="S" horiz-adv-x="1110" 
d="M559 -23q-207 0 -334.5 116.5t-136.5 314.5h162q8 -129 92.5 -209t214.5 -80q135 0 215 64t80 173q0 85 -46 137.5t-159 96.5l-198 76q-159 61 -231.5 153t-72.5 230q0 157 117 254.5t305 97.5q190 0 304 -101t126 -278h-161q-8 111 -78.5 174.5t-190.5 63.5
q-117 0 -188.5 -56.5t-71.5 -150.5q0 -90 48.5 -148t160.5 -102l203 -78q156 -60 225.5 -145.5t69.5 -217.5q0 -177 -123.5 -281t-331.5 -104z" />
    <glyph glyph-name="T" unicode="T" horiz-adv-x="1132" 
d="M479 0v1233h-407v145h987v-145h-420v-1233h-160z" />
    <glyph glyph-name="U" unicode="U" horiz-adv-x="1382" 
d="M690 -23q-235 0 -374.5 151t-139.5 407v843h160v-850q0 -186 95.5 -295.5t258.5 -109.5q166 0 260 108t94 297v850h160v-843q0 -257 -138.5 -407.5t-375.5 -150.5z" />
    <glyph glyph-name="V" unicode="V" horiz-adv-x="1304" 
d="M1061 1378h172l-496 -1378h-172l-493 1378h174l407 -1171z" />
    <glyph glyph-name="W" unicode="W" horiz-adv-x="2017" 
d="M1726 1378h172l-403 -1378h-182l-305 1137l-303 -1137h-185l-403 1378h174l323 -1161l301 1161h185l301 -1165z" />
    <glyph glyph-name="X" unicode="X" horiz-adv-x="1263" 
d="M1194 0h-186l-375 590l-375 -590h-186l460 711l-432 667h185l348 -544l344 544h186l-430 -667z" />
    <glyph glyph-name="Y" unicode="Y" horiz-adv-x="1241" 
d="M1161 1378l-461 -786v-592h-159v596l-461 782h184l359 -633l356 633h182z" />
    <glyph glyph-name="Z" unicode="Z" horiz-adv-x="1169" 
d="M289 145h784v-145h-971v139l772 1094h-731v145h922v-141z" />
    <glyph glyph-name="bracketleft" unicode="[" horiz-adv-x="700" 
d="M182 -186v1757h410v-139h-250v-1479h250v-139h-410z" />
    <glyph glyph-name="backslash" unicode="\" horiz-adv-x="1011" 
d="M891 -61h-156l-616 1501h155z" />
    <glyph glyph-name="bracketright" unicode="]" horiz-adv-x="700" 
d="M518 -186h-409v139h249v1479h-249v139h409v-1757z" />
    <glyph glyph-name="asciicircum" unicode="^" horiz-adv-x="950" 
d="M887 588h-164l-250 590l-244 -590h-166l340 790h140z" />
    <glyph glyph-name="underscore" unicode="_" horiz-adv-x="991" 
d="M72 -297v147h846v-147h-846z" />
    <glyph glyph-name="grave" unicode="`" horiz-adv-x="493" 
d="M281 1147l-228 348h189l194 -348h-155z" />
    <glyph glyph-name="a" unicode="a" horiz-adv-x="1085" 
d="M535 1020q182 0 287.5 -102t105.5 -281v-637h-150v121q-56 -69 -142.5 -106.5t-193.5 -37.5q-160 0 -253 79t-93 214q0 136 94.5 212.5t262.5 76.5h319v78q0 113 -64.5 175t-179.5 62q-95 0 -153 -42t-70 -117h-158q12 138 118 221.5t270 83.5zM457 111q134 0 224.5 78
t90.5 198v43h-291q-223 0 -223 -158q0 -78 51.5 -119.5t147.5 -41.5z" />
    <glyph glyph-name="b" unicode="b" horiz-adv-x="1288" 
d="M696 1020q211 0 349.5 -148t138.5 -374t-139 -373.5t-351 -147.5q-121 0 -222 50.5t-157 136.5v-164h-147v1378h158v-536q59 83 156 130.5t214 47.5zM672 123q155 0 252.5 105t97.5 272t-97.5 270.5t-254.5 103.5t-252.5 -103.5t-95.5 -272.5t96.5 -272t253.5 -103z" />
    <glyph glyph-name="c" unicode="c" horiz-adv-x="1193" 
d="M621 -23q-147 0 -267.5 68.5t-189 188t-68.5 264.5q0 223 150.5 372.5t374.5 149.5q182 0 312.5 -97.5t164.5 -258.5h-160q-31 97 -117.5 153.5t-202.5 56.5q-157 0 -258.5 -106.5t-101.5 -269.5t101.5 -269t258.5 -106q117 0 202.5 56t117.5 153h160
q-34 -160 -165 -257.5t-312 -97.5z" />
    <glyph glyph-name="d" unicode="d" horiz-adv-x="1288" 
d="M961 1378h157v-1378h-147v164q-56 -86 -157 -136.5t-222 -50.5q-212 0 -351 147.5t-139 373.5t138.5 374t349.5 148q117 0 214.5 -47.5t156.5 -130.5v536zM616 123q157 0 253 103t96 272t-95 272.5t-252 103.5q-158 0 -256 -103.5t-98 -270.5t97.5 -272t254.5 -105z" />
    <glyph glyph-name="e" unicode="e" horiz-adv-x="1189" 
d="M600 1020q151 0 267 -73.5t175 -203.5t48 -292h-830q15 -150 111 -239t243 -89q200 0 283 149h168q-56 -141 -174 -218t-279 -77q-144 0 -262.5 68t-186 187.5t-67.5 265.5q0 145 66 265t182 188.5t256 68.5zM598 874q-125 0 -216 -79.5t-116 -206.5h656
q-9 129 -98 207.5t-226 78.5z" />
    <glyph glyph-name="f" unicode="f" horiz-adv-x="614" 
d="M641 1239h-113q-92 0 -136 -44.5t-44 -135.5v-62h252v-141h-252v-856h-158v856h-143v141h143v72q0 152 83 230.5t243 78.5h125v-139z" />
    <glyph glyph-name="g" unicode="g" horiz-adv-x="1286" 
d="M969 997h147v-886q0 -226 -138.5 -346.5t-371.5 -120.5q-197 0 -321.5 83.5t-157.5 227.5h160q32 -80 114.5 -126t206.5 -46q164 0 257 82t93 246v82q-58 -84 -155.5 -133.5t-212.5 -49.5q-135 0 -247.5 67t-177.5 184t-65 257q0 214 141.5 358t350.5 144
q121 0 221.5 -52t155.5 -139v168zM616 156q152 0 248.5 101t96.5 261q0 158 -96 257t-249 99q-156 0 -257 -100t-101 -254q0 -157 102 -260.5t256 -103.5z" />
    <glyph glyph-name="h" unicode="h" horiz-adv-x="1144" 
d="M625 1020q164 0 263 -107.5t99 -285.5v-627h-156v608q0 121 -66.5 193.5t-178.5 72.5q-113 0 -186.5 -74.5t-73.5 -191.5v-608h-158v1378h158v-483q106 125 299 125z" />
    <glyph glyph-name="i" unicode="i" horiz-adv-x="495" 
d="M248 1233q-46 0 -77.5 31t-31.5 75q0 47 31.5 78t77.5 31q47 0 77.5 -31t30.5 -78q0 -45 -30.5 -75.5t-77.5 -30.5zM168 0v997h158v-997h-158z" />
    <glyph glyph-name="j" unicode="j" horiz-adv-x="495" 
d="M250 1233q-46 0 -77.5 31t-31.5 75q0 47 31.5 78t77.5 31q47 0 77.5 -31t30.5 -78q0 -45 -30.5 -75.5t-77.5 -30.5zM-84 -334v139h72q95 0 137.5 44t42.5 141v1007h158v-1026q0 -149 -78 -227t-228 -78h-104z" />
    <glyph glyph-name="k" unicode="k" horiz-adv-x="956" 
d="M973 0h-203l-444 461v-461h-158v1378h158v-833l405 452h193l-437 -491z" />
    <glyph glyph-name="l" unicode="l" horiz-adv-x="495" 
d="M168 0v1378h158v-1378h-158z" />
    <glyph glyph-name="m" unicode="m" horiz-adv-x="1771" 
d="M1237 1020q180 0 278.5 -102.5t98.5 -290.5v-627h-158v608q0 122 -62.5 194t-168.5 72q-108 0 -182 -72t-74 -179v-623h-156v608q0 122 -63.5 194t-171.5 72q-110 0 -181 -74.5t-71 -191.5v-608h-158v997h147v-106q107 129 297 129q103 0 180.5 -43t120.5 -125
q51 79 136.5 123.5t187.5 44.5z" />
    <glyph glyph-name="n" unicode="n" horiz-adv-x="1146" 
d="M623 1020q167 0 266.5 -107t99.5 -286v-627h-158v608q0 121 -66.5 193.5t-178.5 72.5q-113 0 -186.5 -74.5t-73.5 -191.5v-608h-158v997h147v-110q108 133 308 133z" />
    <glyph glyph-name="o" unicode="o" horiz-adv-x="1236" 
d="M618 -23q-144 0 -264 69t-189 189.5t-69 264.5q0 220 150.5 370t371.5 150q143 0 263 -68.5t189 -188t69 -263.5t-69 -264.5t-189 -189.5t-263 -69zM618 123q155 0 257 107.5t102 269.5q0 161 -102 267.5t-257 106.5t-257.5 -106.5t-102.5 -267.5q0 -162 102.5 -269.5
t257.5 -107.5z" />
    <glyph glyph-name="p" unicode="p" horiz-adv-x="1290" 
d="M692 1020q214 0 354 -148t140 -374t-138.5 -373.5t-349.5 -147.5q-118 0 -215 48t-157 131v-490h-158v1331h147v-166q56 87 156 138t221 51zM670 123q155 0 254.5 105.5t99.5 269.5q0 166 -99.5 271t-254.5 105t-250.5 -102.5t-95.5 -271.5t95.5 -273t250.5 -104z" />
    <glyph glyph-name="q" unicode="q" horiz-adv-x="1290" 
d="M598 1020q121 0 221 -51t156 -138v166h147v-1331h-157v490q-60 -83 -157.5 -131t-215.5 -48q-211 0 -349.5 147.5t-138.5 373.5t140 374t354 148zM621 123q155 0 250.5 104t95.5 273t-95.5 271.5t-250.5 102.5q-156 0 -255.5 -105.5t-99.5 -270.5q0 -164 100 -269.5
t255 -105.5z" />
    <glyph glyph-name="r" unicode="r" horiz-adv-x="722" 
d="M625 997h71v-147h-73q-135 0 -216 -81t-81 -216v-553h-158v997h147v-139q102 139 310 139z" />
    <glyph glyph-name="s" unicode="s" horiz-adv-x="907" 
d="M467 -23q-163 0 -269 87t-118 231h158q9 -78 71.5 -125t157.5 -47q92 0 148.5 40.5t56.5 106.5q0 57 -26.5 83.5t-108.5 52.5l-177 53q-245 74 -245 280q0 126 95 203.5t249 77.5q148 0 243 -76t107 -205h-158q-11 63 -62 99t-132 36q-82 0 -131.5 -35.5t-49.5 -95.5
q0 -54 29.5 -85t104.5 -54l176 -53q248 -75 248 -279q0 -132 -101 -213.5t-266 -81.5z" />
    <glyph glyph-name="t" unicode="t" horiz-adv-x="737" 
d="M553 139h137v-139h-158q-164 0 -243.5 73t-79.5 222v561h-168v141h168v267h158v-267h297v-141h-297v-541q0 -92 44 -134t142 -42z" />
    <glyph glyph-name="u" unicode="u" horiz-adv-x="1146" 
d="M819 997h158v-997h-148v109q-107 -132 -307 -132q-167 0 -266.5 107.5t-99.5 286.5v626h157v-610q0 -119 67 -191.5t179 -72.5q114 0 187 74t73 190v610z" />
    <glyph glyph-name="v" unicode="v" horiz-adv-x="1019" 
d="M805 997h168l-377 -997h-172l-379 997h168l299 -817z" />
    <glyph glyph-name="w" unicode="w" horiz-adv-x="1691" 
d="M1454 997h170l-336 -997h-174l-268 809l-271 -809h-174l-335 997h167l259 -809l264 809h178l262 -809z" />
    <glyph glyph-name="x" unicode="x" horiz-adv-x="1038" 
d="M1004 0h-181l-307 412l-301 -412h-180l387 520l-356 477h180l272 -370l275 370h180l-359 -479z" />
    <glyph glyph-name="y" unicode="y" horiz-adv-x="1021" 
d="M805 997h170l-506 -1331h-174l129 336l-379 995h168l299 -819z" />
    <glyph glyph-name="z" unicode="z" horiz-adv-x="944" 
d="M250 135h614v-135h-790v131l598 729h-568v137h746v-133z" />
    <glyph glyph-name="braceleft" unicode="{" horiz-adv-x="825" 
d="M709 1432h-99q-91 0 -132.5 -39.5t-41.5 -124.5q0 -58 28 -202.5t28 -199.5q0 -73 -31 -115t-99 -59q67 -15 98.5 -56.5t31.5 -115.5q0 -55 -28 -198.5t-28 -202.5q0 -85 42.5 -125.5t131.5 -40.5h99v-139h-131q-297 0 -297 276q0 72 27.5 217t27.5 191q0 66 -32 96.5
t-101 30.5h-97v135h97q133 0 133 129q0 43 -27.5 190.5t-27.5 218.5q0 273 297 273h131v-139z" />
    <glyph glyph-name="bar" unicode="|" horiz-adv-x="704" 
d="M276 -248v1845h152v-1845h-152z" />
    <glyph glyph-name="braceright" unicode="}" horiz-adv-x="825" 
d="M215 1432h-98v139h131q297 0 297 -273q0 -71 -28 -218.5t-28 -190.5q0 -129 134 -129h96v-135h-96q-69 0 -101.5 -30.5t-32.5 -96.5q0 -46 28 -191t28 -217q0 -276 -297 -276h-131v139h98q89 0 131.5 40.5t42.5 125.5q0 59 -27.5 202.5t-27.5 198.5q0 74 31 115.5
t98 56.5q-67 17 -98 58.5t-31 115.5q0 55 27.5 199.5t27.5 202.5q0 85 -41.5 124.5t-132.5 39.5z" />
    <glyph glyph-name="asciitilde" unicode="~" horiz-adv-x="1187" 
d="M825 557q-50 0 -104 16t-146 58q-103 46 -148.5 61t-82.5 15q-90 0 -227 -86v159q73 49 126 67.5t119 18.5q51 0 105 -16t145 -57q101 -46 147 -61t83 -15q88 0 227 84v-160q-74 -47 -127 -65.5t-117 -18.5z" />
    <glyph glyph-name="uni00A0" unicode="&#xa0;" horiz-adv-x="561" 
 />
    <glyph glyph-name="exclamdown" unicode="&#xa1;" horiz-adv-x="589" 
d="M215 623h139l21 -957h-180zM283 1067q49 0 83.5 -34t34.5 -81q0 -49 -34 -81.5t-84 -32.5q-48 0 -82.5 32.5t-34.5 81.5q0 47 35 81t82 34z" />
    <glyph glyph-name="cent" unicode="&#xa2;" horiz-adv-x="1193" 
d="M532 -193v349q-191 31 -312.5 174t-121.5 340q0 199 121.5 342t312.5 172v352h160v-348q156 -19 266.5 -113.5t141.5 -238.5h-160q-31 97 -117 154t-202 57q-157 0 -259 -107t-102 -270t102 -269t259 -106q117 0 202 56t117 153h160q-31 -144 -141 -237.5t-267 -112.5
v-347h-160z" />
    <glyph glyph-name="sterling" unicode="&#xa3;" horiz-adv-x="1046" 
d="M516 446q0 -90 -40 -170.5t-111 -136.5h612v-139h-875v115q132 63 195 142t63 183q0 61 -20 129h-217v140h162q-33 73 -48 108t-32 100.5t-17 124.5q0 162 110 260.5t294 98.5q186 0 296.5 -106.5t110.5 -286.5h-157q0 110 -67.5 179.5t-176.5 69.5q-117 0 -180.5 -61
t-63.5 -172q0 -37 11 -80.5t21.5 -71.5t35 -84.5t33.5 -78.5h368v-140h-321q14 -68 14 -123z" />
    <glyph glyph-name="currency" unicode="&#xa4;" horiz-adv-x="1333" 
d="M1300 133l-100 -100l-260 264q-127 -94 -285 -94q-151 0 -276 88l-244 -258l-100 100l244 256q-95 129 -95 287q0 156 95 282l-244 252l98 103l246 -254q123 90 278 90q158 0 285 -94l256 258l100 -103l-258 -256q90 -123 90 -278q0 -156 -90 -279zM657 348
q135 0 224.5 93.5t89.5 234.5q0 142 -88.5 235t-223.5 93q-138 0 -225.5 -92.5t-87.5 -235.5q0 -145 87 -236.5t224 -91.5z" />
    <glyph glyph-name="yen" unicode="&#xa5;" horiz-adv-x="1241" 
d="M1161 1378l-385 -655h324v-139h-400v-207h400v-139h-400v-238h-159v238h-400v139h400v207h-400v139h324l-385 655h184l359 -633l356 633h182z" />
    <glyph glyph-name="brokenbar" unicode="&#xa6;" horiz-adv-x="704" 
d="M276 942v655h152v-655h-152zM276 -248v656h152v-656h-152z" />
    <glyph glyph-name="section" unicode="&#xa7;" horiz-adv-x="1058" 
d="M987 453q0 -86 -45.5 -151t-140.5 -116q35 -65 35 -133q0 -124 -93.5 -202t-238.5 -78h-242v145h240q73 0 118.5 37t45.5 96q0 51 -32 91t-112 91l-229 150q-120 77 -170.5 148.5t-50.5 166.5q0 88 46.5 152t141.5 115q-37 64 -37 135q0 123 93 200.5t239 77.5h240v-143
h-238q-73 0 -118.5 -37t-45.5 -96q0 -52 31.5 -91t112.5 -93l229 -148q120 -78 170.5 -150t50.5 -167zM723 281q94 73 94 168q0 58 -30 98t-115 94l-252 166q-54 35 -82 63q-96 -72 -96 -168q0 -57 30.5 -97.5t114.5 -94.5l252 -164q45 -29 84 -65z" />
    <glyph glyph-name="dieresis" unicode="&#xa8;" horiz-adv-x="700" 
d="M160 1233q-43 0 -74 30.5t-31 73.5q0 41 31 72t74 31q46 0 76 -30t30 -73t-30.5 -73.5t-75.5 -30.5zM539 1233q-43 0 -74 30.5t-31 73.5q0 42 30.5 72.5t74.5 30.5q47 0 76.5 -30t29.5 -73t-30.5 -73.5t-75.5 -30.5z" />
    <glyph glyph-name="copyright" unicode="&#xa9;" horiz-adv-x="1566" 
d="M803 -23q-146 0 -277.5 56t-226.5 151t-151 226.5t-56 277.5q0 195 95 359t259 259t359 95q147 0 279.5 -56.5t228 -151.5t151.5 -227t56 -278t-56 -277.5t-151.5 -226.5t-228.5 -151t-281 -56zM805 88q125 0 235.5 46.5t189.5 126t125 191.5t46 238q0 168 -78.5 306
t-215 216t-302.5 78t-301.5 -78t-213 -216t-77.5 -306q0 -127 45.5 -239t123.5 -191.5t188 -125.5t235 -46zM805 287q-169 0 -282 113t-113 280q0 166 114 278.5t281 112.5q141 0 239.5 -81t124.5 -216h-135q-23 86 -82.5 131t-150.5 45q-114 0 -184 -75t-70 -195
q0 -122 69.5 -196t184.5 -74q91 0 150.5 44.5t82.5 129.5h135q-26 -135 -125.5 -216t-238.5 -81z" />
    <glyph glyph-name="ordfeminine" unicode="&#xaa;" horiz-adv-x="862" 
d="M428 1393q152 0 239 -84t87 -230v-528h-138v94q-88 -108 -262 -108q-132 0 -209 64.5t-77 176.5q0 113 78.5 176.5t215.5 63.5h248v61q0 89 -49 137t-141 48q-74 0 -119.5 -31.5t-54.5 -89.5h-140q11 114 98.5 182t223.5 68zM369 664q108 0 174.5 59.5t66.5 155.5v20
h-225q-170 0 -170 -117q0 -118 154 -118z" />
    <glyph glyph-name="guillemotleft" unicode="&#xab;" horiz-adv-x="886" 
d="M459 225h-174l-232 414l228 412h178l-228 -412zM836 225h-174l-232 414l227 412h179l-228 -412z" />
    <glyph glyph-name="logicalnot" unicode="&#xac;" horiz-adv-x="1187" 
d="M819 266v383h-715v146h875v-529h-160z" />
    <glyph glyph-name="uni00AD" unicode="&#xad;" horiz-adv-x="663" 
d="M92 561v146h477v-146h-477z" />
    <glyph glyph-name="registered" unicode="&#xae;" horiz-adv-x="974" 
d="M487 1401q175 0 294.5 -119.5t119.5 -294.5q0 -174 -120 -294t-294 -120q-172 0 -292.5 121t-120.5 293q0 173 120 293.5t293 120.5zM489 666q138 0 228 90t90 231t-90 232.5t-228 91.5q-140 0 -230.5 -92t-90.5 -232t90 -230.5t231 -90.5zM668 1063q0 -44 -23 -76.5
t-63 -50.5l118 -164h-112l-111 152h-47v-152h-102v428h182q71 0 114.5 -38t43.5 -99zM428 1006h72q61 0 61 55q0 26 -16.5 40.5t-44.5 14.5h-72v-110z" />
    <glyph glyph-name="macron" unicode="&#xaf;" horiz-adv-x="643" 
d="M53 1217v126h533v-126h-533z" />
    <glyph glyph-name="degree" unicode="&#xb0;" horiz-adv-x="851" 
d="M426 676q-157 0 -263 103.5t-106 258.5q0 154 106 258.5t263 104.5q156 0 261.5 -104t105.5 -259t-105.5 -258.5t-261.5 -103.5zM426 805q102 0 167.5 65.5t65.5 167.5t-65.5 167t-167.5 65q-100 0 -165.5 -65.5t-65.5 -166.5q0 -100 65.5 -166.5t165.5 -66.5z" />
    <glyph glyph-name="plusminus" unicode="&#xb1;" horiz-adv-x="1187" 
d="M518 416v372h-401v146h401v371h156v-371h397v-146h-397v-372h-156zM137 131v145h916v-145h-916z" />
    <glyph glyph-name="uni00B2" unicode="&#xb2;" horiz-adv-x="684" 
d="M223 961h398v-113h-547v45q0 75 54 142.5t175 142.5q103 63 139.5 102t36.5 86q0 58 -35.5 91.5t-95.5 33.5q-56 0 -92.5 -39t-36.5 -100h-129q0 108 74 181t184 73q117 0 191.5 -67t74.5 -171q0 -74 -49.5 -133t-187.5 -148q-71 -46 -105.5 -73.5t-48.5 -52.5z" />
    <glyph glyph-name="uni00B3" unicode="&#xb3;" horiz-adv-x="684" 
d="M504 1239q100 -52 100 -164q0 -100 -74.5 -167.5t-183.5 -67.5q-123 0 -198 65.5t-80 175.5h129q3 -55 44 -91t101 -36q57 0 92 31.5t35 81.5q0 54 -34.5 84.5t-98.5 30.5h-72v106h70q52 0 79 26.5t27 74.5q0 49 -30 75.5t-84 26.5q-48 0 -83 -29t-38 -73h-127
q3 92 75 154.5t175 62.5q110 0 180 -61t70 -156t-74 -150z" />
    <glyph glyph-name="acute" unicode="&#xb4;" horiz-adv-x="491" 
d="M55 1147l197 348h184l-223 -348h-158z" />
    <glyph glyph-name="uni00B5" unicode="&#xb5;" horiz-adv-x="1200" 
d="M1102 139h59v-139h-94q-145 0 -199 111q-99 -129 -288 -129q-167 0 -261 94v-410h-151v1331h158v-606q0 -122 67.5 -193t184.5 -71q110 0 181.5 74t71.5 188v608h158v-729q0 -129 113 -129z" />
    <glyph glyph-name="paragraph" unicode="&#xb6;" horiz-adv-x="1120" 
d="M672 510h-121q-215 0 -352.5 122t-137.5 314t136 312t354 120h121v-868zM446 -334v146h136q107 0 158 50.5t51 157.5v1358h159v-1374q0 -164 -87 -251t-251 -87h-166z" />
    <glyph glyph-name="periodcentered" unicode="&#xb7;" horiz-adv-x="542" 
d="M270 598q-50 0 -84 34t-34 83q0 50 34.5 84.5t83.5 34.5q51 0 86 -34.5t35 -84.5q0 -49 -35 -83t-86 -34z" />
    <glyph glyph-name="cedilla" unicode="&#xb8;" horiz-adv-x="514" 
d="M203 -391q-119 0 -146 4v115h125q68 0 106 33.5t38 95.5q0 75 -80 161l73 35q69 -35 105.5 -90.5t36.5 -122.5q0 -106 -70 -168.5t-188 -62.5z" />
    <glyph glyph-name="uni00B9" unicode="&#xb9;" horiz-adv-x="536" 
d="M262 1583h117v-735h-129v608l-168 -51l-31 113z" />
    <glyph glyph-name="ordmasculine" unicode="&#xba;" horiz-adv-x="1009" 
d="M504 537q-189 0 -312.5 121.5t-123.5 306.5t123.5 306.5t312.5 121.5q188 0 312 -122t124 -306t-124 -306t-312 -122zM502 668q126 0 208.5 85t82.5 214q0 126 -82.5 210.5t-208.5 84.5q-123 0 -206 -84t-83 -211q0 -129 82 -214t207 -85z" />
    <glyph glyph-name="guillemotright" unicode="&#xbb;" horiz-adv-x="886" 
d="M51 225l228 414l-228 412h178l228 -412l-232 -414h-174zM428 225l227 414l-227 412h178l228 -412l-232 -414h-174z" />
    <glyph glyph-name="onequarter" unicode="&#xbc;" horiz-adv-x="1439" 
d="M195 0l800 1378h156l-801 -1378h-155zM266 1378h117v-735h-129v608l-168 -51l-31 113zM1391 246v-111h-95v-135h-129v135h-379v86l353 522h155v-497h95zM1167 580l-225 -334h225v334z" />
    <glyph glyph-name="onehalf" unicode="&#xbd;" horiz-adv-x="1486" 
d="M197 0l800 1378h156l-801 -1378h-155zM266 1378h117v-735h-129v608l-168 -51l-31 113zM1028 113h397v-113h-546v45q0 75 54 142.5t175 142.5q103 63 139.5 102t36.5 86q0 58 -35.5 91.5t-95.5 33.5q-56 0 -92.5 -39t-36.5 -100h-129q0 108 74 181t184 73q117 0 191.5 -67
t74.5 -171q0 -74 -49.5 -132.5t-187.5 -147.5q-69 -45 -104.5 -73.5t-49.5 -53.5z" />
    <glyph glyph-name="threequarters" unicode="&#xbe;" horiz-adv-x="1574" 
d="M358 0l801 1378h156l-801 -1378h-156zM506 1034q100 -52 100 -164q0 -100 -74.5 -167.5t-183.5 -67.5q-123 0 -198 66t-80 176h129q3 -55 44 -91t101 -36q57 0 92 31t35 81q0 54 -34.5 84.5t-98.5 30.5h-72v106h70q52 0 79 26.5t27 74.5q0 49 -30 75.5t-84 26.5
q-48 0 -83 -29t-38 -73h-127q3 92 75 154.5t175 62.5q110 0 180 -61t70 -156t-74 -150zM1526 246v-111h-94v-135h-129v135h-379v86l352 522h156v-497h94zM1303 580l-226 -334h226v334z" />
    <glyph glyph-name="questiondown" unicode="&#xbf;" horiz-adv-x="772" 
d="M692 -334h-252q-170 0 -263 81.5t-93 232.5q0 74 25.5 131.5t95 132t211.5 194.5v185h145v-261q-141 -118 -204.5 -179.5t-87 -103t-23.5 -89.5q0 -92 53.5 -135t167.5 -43h225v-146zM483 838q-50 0 -84 32.5t-34 81.5q0 47 34.5 81t83.5 34q47 0 82 -34t35 -81
q0 -49 -34.5 -81.5t-82.5 -32.5z" />
    <glyph glyph-name="Agrave" unicode="&#xc0;" horiz-adv-x="1366" 
d="M1126 0l-131 350h-622l-131 -350h-170l526 1378h172l524 -1378h-168zM684 1200l-258 -708h518zM614 1503l-227 344h191l192 -344h-156z" />
    <glyph glyph-name="Aacute" unicode="&#xc1;" horiz-adv-x="1366" 
d="M1126 0l-131 350h-622l-131 -350h-170l526 1378h172l524 -1378h-168zM684 1200l-258 -708h518zM600 1503l193 344h192l-229 -344h-156z" />
    <glyph glyph-name="Acircumflex" unicode="&#xc2;" horiz-adv-x="1366" 
d="M1126 0l-131 350h-622l-131 -350h-170l526 1378h172l524 -1378h-168zM684 1200l-258 -708h518zM989 1503h-151l-154 213l-152 -213h-151l235 344h138z" />
    <glyph glyph-name="Atilde" unicode="&#xc3;" horiz-adv-x="1366" 
d="M1126 0l-131 350h-622l-131 -350h-170l526 1378h172l524 -1378h-168zM684 1200l-258 -708h518zM829 1509q-70 0 -155 50q-86 47 -131 47q-72 0 -170 -68v139q84 67 170 70q60 0 155 -49q58 -29 82.5 -38t46.5 -9q72 0 170 65v-137q-84 -67 -168 -70z" />
    <glyph glyph-name="Adieresis" unicode="&#xc4;" horiz-adv-x="1366" 
d="M1126 0l-131 350h-622l-131 -350h-170l526 1378h172l524 -1378h-168zM684 1200l-258 -708h518zM889 1544q-46 0 -79.5 32.5t-33.5 76.5q0 45 33 77.5t80 32.5q49 0 80.5 -32t31.5 -78t-32.5 -77.5t-79.5 -31.5zM477 1544q-47 0 -79.5 31.5t-32.5 77.5q0 45 32.5 76.5
t79.5 31.5q49 0 81 -31t32 -77t-33 -77.5t-80 -31.5z" />
    <glyph glyph-name="Aring" unicode="&#xc5;" horiz-adv-x="1366" 
d="M1126 0l-131 350h-622l-131 -350h-170l526 1378h172l524 -1378h-168zM684 1200l-258 -708h518zM682 1507q-97 0 -162 64.5t-65 159.5q0 94 65 157.5t162 63.5q95 0 161 -63.5t66 -157.5q0 -95 -65.5 -159.5t-161.5 -64.5zM686 1618q44 0 75.5 33t31.5 80q0 45 -31.5 76.5
t-75.5 31.5q-49 0 -80 -30.5t-31 -77.5q0 -49 31.5 -81t79.5 -32z" />
    <glyph glyph-name="AE" unicode="&#xc6;" horiz-adv-x="1710" 
d="M1126 145h488v-145h-617l-59 344h-569l-172 -344h-168l682 1378h880v-143h-651l76 -440h557v-146h-533zM788 1231l-352 -746h477z" />
    <glyph glyph-name="Ccedilla" unicode="&#xc7;" horiz-adv-x="1593" 
d="M737 -391q-118 0 -145 4v115h125q68 0 105.5 33.5t37.5 95.5q0 59 -45 120q-201 1 -364 93.5t-255 255.5t-92 364q0 149 54.5 281t149 226t227 149t282.5 55q258 0 442 -141.5t228 -374.5h-172q-43 167 -178 266.5t-318 99.5q-152 0 -278 -73.5t-198.5 -202.5t-72.5 -285
q0 -239 158 -401t391 -162q183 0 317.5 100t178.5 269h172q-40 -205 -186 -341t-359 -167q53 -65 53 -148q0 -106 -70 -168.5t-188 -62.5z" />
    <glyph glyph-name="Egrave" unicode="&#xc8;" horiz-adv-x="1107" 
d="M195 0v1378h794v-145h-635v-440h615v-146h-615v-502h658v-145h-817zM547 1503l-228 344h191l192 -344h-155z" />
    <glyph glyph-name="Eacute" unicode="&#xc9;" horiz-adv-x="1107" 
d="M195 0v1378h794v-145h-635v-440h615v-146h-615v-502h658v-145h-817zM532 1503l193 344h193l-230 -344h-156z" />
    <glyph glyph-name="Ecircumflex" unicode="&#xca;" horiz-adv-x="1107" 
d="M195 0v1378h794v-145h-635v-440h615v-146h-615v-502h658v-145h-817zM922 1503h-152l-154 213l-151 -213h-152l236 344h137z" />
    <glyph glyph-name="Edieresis" unicode="&#xcb;" horiz-adv-x="1107" 
d="M195 0v1378h794v-145h-635v-440h615v-146h-615v-502h658v-145h-817zM821 1544q-46 0 -79 32.5t-33 76.5q0 45 32.5 77.5t79.5 32.5q49 0 81 -32t32 -78t-33 -77.5t-80 -31.5zM410 1544q-47 0 -80 31.5t-33 77.5q0 44 33 76t80 32q49 0 80.5 -31t31.5 -77t-32.5 -77.5
t-79.5 -31.5z" />
    <glyph glyph-name="Igrave" unicode="&#xcc;" horiz-adv-x="546" 
d="M195 0v1378h159v-1378h-159zM205 1503l-228 344h191l192 -344h-155z" />
    <glyph glyph-name="Iacute" unicode="&#xcd;" horiz-adv-x="546" 
d="M195 0v1378h159v-1378h-159zM190 1503l193 344h192l-229 -344h-156z" />
    <glyph glyph-name="Icircumflex" unicode="&#xce;" horiz-adv-x="546" 
d="M195 0v1378h159v-1378h-159zM580 1503h-152l-154 213l-151 -213h-152l236 344h137z" />
    <glyph glyph-name="Idieresis" unicode="&#xcf;" horiz-adv-x="546" 
d="M195 0v1378h159v-1378h-159zM479 1544q-46 0 -79 32.5t-33 76.5q0 45 32.5 77.5t79.5 32.5q49 0 81 -32t32 -78t-33 -77.5t-80 -31.5zM68 1544q-47 0 -80 31.5t-33 77.5q0 44 33 76t80 32q49 0 80.5 -31t31.5 -77t-32.5 -77.5t-79.5 -31.5z" />
    <glyph glyph-name="Eth" unicode="&#xd0;" horiz-adv-x="1513" 
d="M236 1378h419q341 0 547.5 -188t206.5 -498t-208 -501t-546 -191h-419v649h-197v146h197v583zM395 145h260q264 0 426 150.5t162 396.5q0 244 -161 392.5t-427 148.5h-260v-438h287v-146h-287v-504z" />
    <glyph glyph-name="Ntilde" unicode="&#xd1;" horiz-adv-x="1411" 
d="M1057 1378h162v-1378h-175l-690 1120v-1120h-159v1378h184l678 -1097v1097zM852 1509q-71 0 -156 50q-86 47 -131 47q-72 0 -170 -68v139q84 67 170 70q61 0 156 -49q58 -29 82.5 -38t46.5 -9q72 0 170 65v-137q-84 -67 -168 -70z" />
    <glyph glyph-name="Ograve" unicode="&#xd2;" horiz-adv-x="1634" 
d="M817 -23q-149 0 -281 55t-227 150t-150 227t-55 281t54.5 281t149 226t227 149t282.5 55q149 0 281 -55t226 -149t149 -226t55 -281t-55 -281t-149 -227t-226 -150t-281 -55zM817 127q154 0 279.5 73t196.5 202.5t71 289.5q0 239 -157 399t-390 160t-390 -160t-157 -399
q0 -160 71 -289.5t196.5 -202.5t279.5 -73zM748 1503l-228 344h191l192 -344h-155z" />
    <glyph glyph-name="Oacute" unicode="&#xd3;" horiz-adv-x="1634" 
d="M817 -23q-149 0 -281 55t-227 150t-150 227t-55 281t54.5 281t149 226t227 149t282.5 55q149 0 281 -55t226 -149t149 -226t55 -281t-55 -281t-149 -227t-226 -150t-281 -55zM817 127q154 0 279.5 73t196.5 202.5t71 289.5q0 239 -157 399t-390 160t-390 -160t-157 -399
q0 -160 71 -289.5t196.5 -202.5t279.5 -73zM733 1503l193 344h192l-229 -344h-156z" />
    <glyph glyph-name="Ocircumflex" unicode="&#xd4;" horiz-adv-x="1634" 
d="M817 -23q-149 0 -281 55t-227 150t-150 227t-55 281t54.5 281t149 226t227 149t282.5 55q149 0 281 -55t226 -149t149 -226t55 -281t-55 -281t-149 -227t-226 -150t-281 -55zM817 127q154 0 279.5 73t196.5 202.5t71 289.5q0 239 -157 399t-390 160t-390 -160t-157 -399
q0 -160 71 -289.5t196.5 -202.5t279.5 -73zM1122 1503h-151l-154 213l-151 -213h-152l236 344h137z" />
    <glyph glyph-name="Otilde" unicode="&#xd5;" horiz-adv-x="1634" 
d="M817 -23q-149 0 -281 55t-227 150t-150 227t-55 281t54.5 281t149 226t227 149t282.5 55q149 0 281 -55t226 -149t149 -226t55 -281t-55 -281t-149 -227t-226 -150t-281 -55zM817 127q154 0 279.5 73t196.5 202.5t71 289.5q0 239 -157 399t-390 160t-390 -160t-157 -399
q0 -160 71 -289.5t196.5 -202.5t279.5 -73zM963 1509q-71 0 -156 50q-86 47 -131 47q-72 0 -170 -68v139q84 67 170 70q60 0 155 -49q58 -29 83 -38t47 -9q71 0 169 65v-137q-84 -67 -167 -70z" />
    <glyph glyph-name="Odieresis" unicode="&#xd6;" horiz-adv-x="1634" 
d="M817 -23q-149 0 -281 55t-227 150t-150 227t-55 281t54.5 281t149 226t227 149t282.5 55q149 0 281 -55t226 -149t149 -226t55 -281t-55 -281t-149 -227t-226 -150t-281 -55zM817 127q154 0 279.5 73t196.5 202.5t71 289.5q0 239 -157 399t-390 160t-390 -160t-157 -399
q0 -160 71 -289.5t196.5 -202.5t279.5 -73zM1022 1544q-46 0 -79.5 32.5t-33.5 76.5q0 45 33 77.5t80 32.5q49 0 81 -32t32 -78t-33 -77.5t-80 -31.5zM610 1544q-47 0 -79.5 31.5t-32.5 77.5q0 45 32.5 76.5t79.5 31.5q49 0 81 -31t32 -77t-33 -77.5t-80 -31.5z" />
    <glyph glyph-name="multiply" unicode="&#xd7;" horiz-adv-x="1187" 
d="M279 272l-105 103l315 317l-315 316l102 104l318 -315l317 315l103 -104l-316 -316l316 -315l-101 -105l-319 316z" />
    <glyph glyph-name="Oslash" unicode="&#xd8;" horiz-adv-x="1677" 
d="M1604 1438l-236 -271q84 -93 130 -216t46 -261q0 -199 -93 -362.5t-256 -257t-361 -93.5q-230 0 -416 127l-144 -163h-198l229 264q-88 95 -136 220t-48 265q0 149 54.5 281t149 226t227 149t282.5 55q236 0 421 -133l150 170h199zM834 1251q-233 0 -390 -160t-157 -399
q0 -214 127 -370l743 827q-139 102 -323 102zM834 127q154 0 279 73t196 202.5t71 289.5q0 211 -120 359l-742 -828q138 -96 316 -96z" />
    <glyph glyph-name="Ugrave" unicode="&#xd9;" horiz-adv-x="1382" 
d="M690 -23q-235 0 -374.5 151t-139.5 407v843h160v-850q0 -186 95.5 -295.5t258.5 -109.5q166 0 260 108t94 297v850h160v-843q0 -257 -138.5 -407.5t-375.5 -150.5zM625 1503l-228 344h191l192 -344h-155z" />
    <glyph glyph-name="Uacute" unicode="&#xda;" horiz-adv-x="1382" 
d="M690 -23q-235 0 -374.5 151t-139.5 407v843h160v-850q0 -186 95.5 -295.5t258.5 -109.5q166 0 260 108t94 297v850h160v-843q0 -257 -138.5 -407.5t-375.5 -150.5zM610 1503l193 344h192l-229 -344h-156z" />
    <glyph glyph-name="Ucircumflex" unicode="&#xdb;" horiz-adv-x="1382" 
d="M690 -23q-235 0 -374.5 151t-139.5 407v843h160v-850q0 -186 95.5 -295.5t258.5 -109.5q166 0 260 108t94 297v850h160v-843q0 -257 -138.5 -407.5t-375.5 -150.5zM999 1503h-151l-154 213l-151 -213h-152l236 344h137z" />
    <glyph glyph-name="Udieresis" unicode="&#xdc;" horiz-adv-x="1382" 
d="M690 -23q-235 0 -374.5 151t-139.5 407v843h160v-850q0 -186 95.5 -295.5t258.5 -109.5q166 0 260 108t94 297v850h160v-843q0 -257 -138.5 -407.5t-375.5 -150.5zM899 1544q-46 0 -79.5 32.5t-33.5 76.5q0 45 33 77.5t80 32.5q49 0 81 -32t32 -78t-33 -77.5t-80 -31.5z
M487 1544q-47 0 -79.5 31.5t-32.5 77.5q0 45 32.5 76.5t79.5 31.5q49 0 81 -31t32 -77t-33 -77.5t-80 -31.5z" />
    <glyph glyph-name="Yacute" unicode="&#xdd;" horiz-adv-x="1241" 
d="M1161 1378l-461 -786v-592h-159v596l-461 782h184l359 -633l356 633h182zM539 1503l192 344h193l-230 -344h-155z" />
    <glyph glyph-name="Thorn" unicode="&#xde;" horiz-adv-x="1200" 
d="M195 0v1378h159v-266h330q203 0 321.5 -109t118.5 -298q0 -188 -119 -299t-321 -111h-330v-295h-159zM354 440h324q131 0 204.5 69.5t73.5 192.5q0 124 -73.5 194.5t-204.5 70.5h-324v-527z" />
    <glyph glyph-name="germandbls" unicode="&#xdf;" horiz-adv-x="1105" 
d="M168 0v991q0 200 104 305t303 105q158 0 256.5 -77.5t98.5 -205.5q0 -68 -20 -123.5t-66 -117.5q-64 -81 -78 -105.5t-14 -52.5q0 -30 23.5 -60t105.5 -102q98 -89 132 -144.5t34 -127.5q0 -129 -96 -207t-257 -78h-149v139h141q96 0 146.5 37.5t50.5 108.5
q0 36 -21.5 63.5t-126.5 126.5q-78 72 -109.5 122.5t-31.5 104.5q0 51 20.5 97t71.5 112q78 102 78 183q0 161 -199 161q-123 0 -181 -65t-58 -203v-987h-158z" />
    <glyph glyph-name="agrave" unicode="&#xe0;" horiz-adv-x="1085" 
d="M535 1020q182 0 287.5 -102t105.5 -281v-637h-150v121q-56 -69 -142.5 -106.5t-193.5 -37.5q-160 0 -253 79t-93 214q0 136 94.5 212.5t262.5 76.5h319v78q0 113 -64.5 175t-179.5 62q-95 0 -153 -42t-70 -117h-158q12 138 118 221.5t270 83.5zM457 111q134 0 224.5 78
t90.5 198v43h-291q-223 0 -223 -158q0 -78 51.5 -119.5t147.5 -41.5zM471 1147l-227 348h188l195 -348h-156z" />
    <glyph glyph-name="aacute" unicode="&#xe1;" horiz-adv-x="1085" 
d="M535 1020q182 0 287.5 -102t105.5 -281v-637h-150v121q-56 -69 -142.5 -106.5t-193.5 -37.5q-160 0 -253 79t-93 214q0 136 94.5 212.5t262.5 76.5h319v78q0 113 -64.5 175t-179.5 62q-95 0 -153 -42t-70 -117h-158q12 138 118 221.5t270 83.5zM457 111q134 0 224.5 78
t90.5 198v43h-291q-223 0 -223 -158q0 -78 51.5 -119.5t147.5 -41.5zM449 1147l196 348h184l-223 -348h-157z" />
    <glyph glyph-name="acircumflex" unicode="&#xe2;" horiz-adv-x="1085" 
d="M535 1020q182 0 287.5 -102t105.5 -281v-637h-150v121q-56 -69 -142.5 -106.5t-193.5 -37.5q-160 0 -253 79t-93 214q0 136 94.5 212.5t262.5 76.5h319v78q0 113 -64.5 175t-179.5 62q-95 0 -153 -42t-70 -117h-158q12 138 118 221.5t270 83.5zM457 111q134 0 224.5 78
t90.5 198v43h-291q-223 0 -223 -158q0 -78 51.5 -119.5t147.5 -41.5zM836 1147h-152l-147 215l-146 -215h-151l231 348h133z" />
    <glyph glyph-name="atilde" unicode="&#xe3;" horiz-adv-x="1085" 
d="M535 1020q182 0 287.5 -102t105.5 -281v-637h-150v121q-56 -69 -142.5 -106.5t-193.5 -37.5q-160 0 -253 79t-93 214q0 136 94.5 212.5t262.5 76.5h319v78q0 113 -64.5 175t-179.5 62q-95 0 -153 -42t-70 -117h-158q12 138 118 221.5t270 83.5zM457 111q134 0 224.5 78
t90.5 198v43h-291q-223 0 -223 -158q0 -78 51.5 -119.5t147.5 -41.5zM651 1161q-53 0 -127 47q-46 31 -70 41.5t-48 10.5q-49 -2 -152 -74v137q62 42 95.5 57t70.5 15q50 0 129 -47q47 -32 70.5 -42t50.5 -10q49 2 149 74v-137q-57 -40 -93 -56t-75 -16z" />
    <glyph glyph-name="adieresis" unicode="&#xe4;" horiz-adv-x="1085" 
d="M535 1020q182 0 287.5 -102t105.5 -281v-637h-150v121q-56 -69 -142.5 -106.5t-193.5 -37.5q-160 0 -253 79t-93 214q0 136 94.5 212.5t262.5 76.5h319v78q0 113 -64.5 175t-179.5 62q-95 0 -153 -42t-70 -117h-158q12 138 118 221.5t270 83.5zM457 111q134 0 224.5 78
t90.5 198v43h-291q-223 0 -223 -158q0 -78 51.5 -119.5t147.5 -41.5zM346 1233q-43 0 -73.5 30.5t-30.5 73.5q0 41 31 72t73 31q47 0 77 -30t30 -73t-31 -73.5t-76 -30.5zM725 1233q-43 0 -73.5 30.5t-30.5 73.5q0 42 30 72.5t74 30.5q47 0 76.5 -30t29.5 -73t-30.5 -73.5
t-75.5 -30.5z" />
    <glyph glyph-name="aring" unicode="&#xe5;" horiz-adv-x="1085" 
d="M535 1020q182 0 287.5 -102t105.5 -281v-637h-150v121q-56 -69 -142.5 -106.5t-193.5 -37.5q-160 0 -253 79t-93 214q0 136 94.5 212.5t262.5 76.5h319v78q0 113 -64.5 175t-179.5 62q-95 0 -153 -42t-70 -117h-158q12 138 118 221.5t270 83.5zM457 111q134 0 224.5 78
t90.5 198v43h-291q-223 0 -223 -158q0 -78 51.5 -119.5t147.5 -41.5zM537 1112q-97 0 -162.5 64t-65.5 159q0 94 65.5 157.5t162.5 63.5q95 0 161 -63.5t66 -157.5q0 -95 -65.5 -159t-161.5 -64zM541 1223q44 0 75 32.5t31 79.5q0 46 -31 77.5t-75 31.5q-49 0 -80 -30.5
t-31 -78.5q0 -49 31.5 -80.5t79.5 -31.5z" />
    <glyph glyph-name="ae" unicode="&#xe6;" horiz-adv-x="1861" 
d="M1276 1020q150 0 265.5 -75t174 -208t47.5 -299h-829q17 -147 112 -231t244 -84q104 0 171.5 35.5t111.5 113.5h168q-60 -144 -176.5 -219.5t-278.5 -75.5q-141 0 -254 61.5t-178 170.5q-50 -110 -157 -171t-255 -61q-160 0 -253 77.5t-93 209.5q0 142 97.5 223.5
t263.5 81.5h303v56q0 117 -63 183t-173 66q-95 0 -151 -40.5t-68 -118.5h-158q12 141 114.5 223t264.5 82q128 0 217 -53t129 -150q67 95 172 149t232 54zM1274 874q-134 0 -227 -84t-113 -221h665q-5 139 -93 222t-232 83zM463 111q129 0 213 74.5t84 191.5v61h-281
q-108 0 -164.5 -40t-56.5 -117q0 -170 205 -170z" />
    <glyph glyph-name="ccedilla" unicode="&#xe7;" horiz-adv-x="1193" 
d="M621 -23q-147 0 -267.5 68.5t-189 188t-68.5 264.5q0 223 150.5 372.5t374.5 149.5q182 0 312.5 -97.5t164.5 -258.5h-160q-31 97 -117.5 153.5t-202.5 56.5q-157 0 -258.5 -106.5t-101.5 -269.5t101.5 -269t258.5 -106q117 0 202.5 56t117.5 153h160
q-27 -131 -122 -220.5t-231 -119.5q58 -67 58 -152q0 -106 -70 -168.5t-188 -62.5q-119 0 -146 4v115h125q68 0 106 33.5t38 95.5q0 59 -45 120h-2z" />
    <glyph glyph-name="egrave" unicode="&#xe8;" horiz-adv-x="1189" 
d="M600 1020q151 0 267 -73.5t175 -203.5t48 -292h-830q15 -150 111 -239t243 -89q200 0 283 149h168q-56 -141 -174 -218t-279 -77q-144 0 -262.5 68t-186 187.5t-67.5 265.5q0 145 66 265t182 188.5t256 68.5zM598 874q-125 0 -216 -79.5t-116 -206.5h656
q-9 129 -98 207.5t-226 78.5zM537 1147l-228 348h189l194 -348h-155z" />
    <glyph glyph-name="eacute" unicode="&#xe9;" horiz-adv-x="1189" 
d="M600 1020q151 0 267 -73.5t175 -203.5t48 -292h-830q15 -150 111 -239t243 -89q200 0 283 149h168q-56 -141 -174 -218t-279 -77q-144 0 -262.5 68t-186 187.5t-67.5 265.5q0 145 66 265t182 188.5t256 68.5zM598 874q-125 0 -216 -79.5t-116 -206.5h656
q-9 129 -98 207.5t-226 78.5zM514 1147l197 348h184l-223 -348h-158z" />
    <glyph glyph-name="ecircumflex" unicode="&#xea;" horiz-adv-x="1189" 
d="M600 1020q151 0 267 -73.5t175 -203.5t48 -292h-830q15 -150 111 -239t243 -89q200 0 283 149h168q-56 -141 -174 -218t-279 -77q-144 0 -262.5 68t-186 187.5t-67.5 265.5q0 145 66 265t182 188.5t256 68.5zM598 874q-125 0 -216 -79.5t-116 -206.5h656
q-9 129 -98 207.5t-226 78.5zM901 1147h-151l-148 215l-145 -215h-152l232 348h133z" />
    <glyph glyph-name="edieresis" unicode="&#xeb;" horiz-adv-x="1189" 
d="M600 1020q151 0 267 -73.5t175 -203.5t48 -292h-830q15 -150 111 -239t243 -89q200 0 283 149h168q-56 -141 -174 -218t-279 -77q-144 0 -262.5 68t-186 187.5t-67.5 265.5q0 145 66 265t182 188.5t256 68.5zM598 874q-125 0 -216 -79.5t-116 -206.5h656
q-9 129 -98 207.5t-226 78.5zM412 1233q-43 0 -74 30.5t-31 73.5q0 41 31 72t74 31q46 0 76 -30t30 -73t-30.5 -73.5t-75.5 -30.5zM791 1233q-43 0 -74 30.5t-31 73.5q0 42 30.5 72.5t74.5 30.5q47 0 76.5 -30t29.5 -73t-30.5 -73.5t-75.5 -30.5z" />
    <glyph glyph-name="igrave" unicode="&#xec;" horiz-adv-x="495" 
d="M168 0v997h158v-997h-158zM182 1147l-227 348h188l195 -348h-156z" />
    <glyph glyph-name="iacute" unicode="&#xed;" horiz-adv-x="495" 
d="M168 0v997h158v-997h-158zM160 1147l196 348h185l-224 -348h-157z" />
    <glyph glyph-name="icircumflex" unicode="&#xee;" horiz-adv-x="495" 
d="M168 0v997h158v-997h-158zM547 1147h-152l-147 215l-146 -215h-151l231 348h133z" />
    <glyph glyph-name="idieresis" unicode="&#xef;" horiz-adv-x="495" 
d="M168 0v997h158v-997h-158zM57 1233q-43 0 -73.5 30.5t-30.5 73.5q0 41 30.5 72t73.5 31q47 0 77 -30t30 -73t-31 -73.5t-76 -30.5zM436 1233q-43 0 -73.5 30.5t-30.5 73.5q0 42 30 72.5t74 30.5q47 0 77 -30t30 -73t-31 -73.5t-76 -30.5z" />
    <glyph glyph-name="eth" unicode="&#xf0;" horiz-adv-x="1183" 
d="M700 1155l187 -242q107 -139 152.5 -243.5t45.5 -212.5q0 -211 -138 -345.5t-355 -134.5q-218 0 -357 133.5t-139 340.5q0 202 132.5 337.5t330.5 135.5q73 0 150 -23l-156 205l-326 -111v131l244 84l-127 168h184l90 -116l330 112v-135zM590 123q144 0 239 94.5
t95 237.5q0 140 -94 231.5t-240 91.5q-145 0 -238.5 -92t-93.5 -233q0 -142 94.5 -236t237.5 -94z" />
    <glyph glyph-name="ntilde" unicode="&#xf1;" horiz-adv-x="1146" 
d="M623 1020q167 0 266.5 -107t99.5 -286v-627h-158v608q0 121 -66.5 193.5t-178.5 72.5q-113 0 -186.5 -74.5t-73.5 -191.5v-608h-158v997h147v-110q108 133 308 133zM702 1161q-53 0 -127 47q-46 31 -70 41.5t-48 10.5q-49 -2 -152 -74v137q62 42 95.5 57t70.5 15
q50 0 129 -47q47 -32 70.5 -42t50.5 -10q49 2 149 74v-137q-57 -40 -93 -56t-75 -16z" />
    <glyph glyph-name="ograve" unicode="&#xf2;" horiz-adv-x="1236" 
d="M618 -23q-144 0 -264 69t-189 189.5t-69 264.5q0 220 150.5 370t371.5 150q143 0 263 -68.5t189 -188t69 -263.5t-69 -264.5t-189 -189.5t-263 -69zM618 123q155 0 257 107.5t102 269.5q0 161 -102 267.5t-257 106.5t-257.5 -106.5t-102.5 -267.5q0 -162 102.5 -269.5
t257.5 -107.5zM557 1147l-227 348h188l195 -348h-156z" />
    <glyph glyph-name="oacute" unicode="&#xf3;" horiz-adv-x="1236" 
d="M618 -23q-144 0 -264 69t-189 189.5t-69 264.5q0 220 150.5 370t371.5 150q143 0 263 -68.5t189 -188t69 -263.5t-69 -264.5t-189 -189.5t-263 -69zM618 123q155 0 257 107.5t102 269.5q0 161 -102 267.5t-257 106.5t-257.5 -106.5t-102.5 -267.5q0 -162 102.5 -269.5
t257.5 -107.5zM535 1147l196 348h184l-223 -348h-157z" />
    <glyph glyph-name="ocircumflex" unicode="&#xf4;" horiz-adv-x="1236" 
d="M618 -23q-144 0 -264 69t-189 189.5t-69 264.5q0 220 150.5 370t371.5 150q143 0 263 -68.5t189 -188t69 -263.5t-69 -264.5t-189 -189.5t-263 -69zM618 123q155 0 257 107.5t102 269.5q0 161 -102 267.5t-257 106.5t-257.5 -106.5t-102.5 -267.5q0 -162 102.5 -269.5
t257.5 -107.5zM922 1147h-152l-147 215l-146 -215h-151l231 348h133z" />
    <glyph glyph-name="otilde" unicode="&#xf5;" horiz-adv-x="1236" 
d="M618 -23q-144 0 -264 69t-189 189.5t-69 264.5q0 220 150.5 370t371.5 150q143 0 263 -68.5t189 -188t69 -263.5t-69 -264.5t-189 -189.5t-263 -69zM618 123q155 0 257 107.5t102 269.5q0 161 -102 267.5t-257 106.5t-257.5 -106.5t-102.5 -267.5q0 -162 102.5 -269.5
t257.5 -107.5zM737 1161q-53 0 -127 47q-46 31 -70 41.5t-48 10.5q-49 -2 -152 -74v137q62 42 95.5 57t70.5 15q50 0 129 -47q47 -32 70.5 -42t50.5 -10q49 2 149 74v-137q-57 -40 -93 -56t-75 -16z" />
    <glyph glyph-name="odieresis" unicode="&#xf6;" horiz-adv-x="1236" 
d="M618 -23q-144 0 -264 69t-189 189.5t-69 264.5q0 220 150.5 370t371.5 150q143 0 263 -68.5t189 -188t69 -263.5t-69 -264.5t-189 -189.5t-263 -69zM618 123q155 0 257 107.5t102 269.5q0 161 -102 267.5t-257 106.5t-257.5 -106.5t-102.5 -267.5q0 -162 102.5 -269.5
t257.5 -107.5zM432 1233q-43 0 -73.5 30.5t-30.5 73.5q0 41 31 72t73 31q47 0 77 -30t30 -73t-31 -73.5t-76 -30.5zM811 1233q-43 0 -73.5 30.5t-30.5 73.5q0 42 30 72.5t74 30.5q47 0 77 -30t30 -73t-31 -73.5t-76 -30.5z" />
    <glyph glyph-name="divide" unicode="&#xf7;" horiz-adv-x="1187" 
d="M594 952q-46 0 -79.5 32.5t-33.5 78.5q0 45 33.5 76.5t79.5 31.5q47 0 80 -31t33 -77t-33 -78.5t-80 -32.5zM117 616v146h950v-146h-950zM594 207q-46 0 -79.5 31.5t-33.5 76.5q0 46 33.5 78.5t79.5 32.5q47 0 80 -32.5t33 -78.5t-33 -77t-80 -31z" />
    <glyph glyph-name="oslash" unicode="&#xf8;" horiz-adv-x="1302" 
d="M1227 1102l-203 -244q144 -147 141 -358q-3 -145 -71.5 -264.5t-187.5 -189t-263 -69.5q-155 0 -287 82l-104 -125h-174l176 213q-134 147 -131 353q3 145 71 264t186.5 187.5t262.5 68.5q150 0 277 -78l133 160h174zM285 500q-3 -135 71 -234l469 559q-79 49 -180 49
q-154 0 -254.5 -106t-105.5 -268zM645 123q154 0 256.5 108t102.5 269q0 140 -80 239l-471 -561q86 -55 192 -55z" />
    <glyph glyph-name="ugrave" unicode="&#xf9;" horiz-adv-x="1146" 
d="M819 997h158v-997h-148v109q-107 -132 -307 -132q-167 0 -266.5 107.5t-99.5 286.5v626h157v-610q0 -119 67 -191.5t179 -72.5q114 0 187 74t73 190v610zM504 1147l-228 348h189l194 -348h-155z" />
    <glyph glyph-name="uacute" unicode="&#xfa;" horiz-adv-x="1146" 
d="M819 997h158v-997h-148v109q-107 -132 -307 -132q-167 0 -266.5 107.5t-99.5 286.5v626h157v-610q0 -119 67 -191.5t179 -72.5q114 0 187 74t73 190v610zM481 1147l197 348h184l-223 -348h-158z" />
    <glyph glyph-name="ucircumflex" unicode="&#xfb;" horiz-adv-x="1146" 
d="M819 997h158v-997h-148v109q-107 -132 -307 -132q-167 0 -266.5 107.5t-99.5 286.5v626h157v-610q0 -119 67 -191.5t179 -72.5q114 0 187 74t73 190v610zM868 1147h-151l-148 215l-145 -215h-152l232 348h133z" />
    <glyph glyph-name="udieresis" unicode="&#xfc;" horiz-adv-x="1146" 
d="M819 997h158v-997h-148v109q-107 -132 -307 -132q-167 0 -266.5 107.5t-99.5 286.5v626h157v-610q0 -119 67 -191.5t179 -72.5q114 0 187 74t73 190v610zM379 1233q-43 0 -74 30.5t-31 73.5q0 41 31 72t74 31q47 0 76.5 -30t29.5 -73t-30.5 -73.5t-75.5 -30.5zM758 1233
q-43 0 -74 30.5t-31 73.5q0 42 30.5 72.5t74.5 30.5q46 0 76 -30t30 -73t-30.5 -73.5t-75.5 -30.5z" />
    <glyph glyph-name="yacute" unicode="&#xfd;" horiz-adv-x="1021" 
d="M805 997h170l-506 -1331h-174l129 336l-379 995h168l299 -819zM422 1147l196 348h185l-223 -348h-158z" />
    <glyph glyph-name="thorn" unicode="&#xfe;" horiz-adv-x="1290" 
d="M692 1020q214 0 354 -148t140 -374q0 -224 -139.5 -372.5t-350.5 -148.5q-117 0 -213.5 48t-156.5 131v-490h-158v1712h147v-547q56 87 156 138t221 51zM670 123q156 0 255 105t99 270q0 166 -99.5 271t-254.5 105q-156 0 -252 -103t-96 -271q0 -169 95.5 -273
t252.5 -104z" />
    <glyph glyph-name="ydieresis" unicode="&#xff;" horiz-adv-x="1021" 
d="M805 997h170l-506 -1331h-174l129 336l-379 995h168l299 -819zM319 1233q-43 0 -73.5 30.5t-30.5 73.5q0 41 30.5 72t73.5 31q47 0 77 -30t30 -73t-31 -73.5t-76 -30.5zM698 1233q-43 0 -73.5 30.5t-30.5 73.5q0 42 30 72.5t74 30.5q47 0 77 -30t30 -73t-31 -73.5
t-76 -30.5z" />
    <glyph glyph-name="Amacron" unicode="&#x100;" horiz-adv-x="1366" 
d="M1126 0l-131 350h-622l-131 -350h-170l526 1378h172l524 -1378h-168zM684 1200l-258 -708h518zM395 1575v129h574v-129h-574z" />
    <glyph glyph-name="amacron" unicode="&#x101;" horiz-adv-x="1085" 
d="M535 1020q182 0 287.5 -102t105.5 -281v-637h-150v121q-56 -69 -142.5 -106.5t-193.5 -37.5q-160 0 -253 79t-93 214q0 136 94.5 212.5t262.5 76.5h319v78q0 113 -64.5 175t-179.5 62q-95 0 -153 -42t-70 -117h-158q12 138 118 221.5t270 83.5zM457 111q134 0 224.5 78
t90.5 198v43h-291q-223 0 -223 -158q0 -78 51.5 -119.5t147.5 -41.5zM270 1217v126h533v-126h-533z" />
    <glyph glyph-name="Abreve" unicode="&#x102;" horiz-adv-x="1366" 
d="M1126 0l-131 350h-622l-131 -350h-170l526 1378h172l524 -1378h-168zM684 1200l-258 -708h518zM684 1507q-149 0 -251.5 95.5t-102.5 228.5h133q0 -82 64 -140.5t157 -58.5t156 58t63 141h135q0 -133 -102.5 -228.5t-251.5 -95.5z" />
    <glyph glyph-name="abreve" unicode="&#x103;" horiz-adv-x="1085" 
d="M535 1020q182 0 287.5 -102t105.5 -281v-637h-150v121q-56 -69 -142.5 -106.5t-193.5 -37.5q-160 0 -253 79t-93 214q0 136 94.5 212.5t262.5 76.5h319v78q0 113 -64.5 175t-179.5 62q-95 0 -153 -42t-70 -117h-158q12 138 118 221.5t270 83.5zM457 111q134 0 224.5 78
t90.5 198v43h-291q-223 0 -223 -158q0 -78 51.5 -119.5t147.5 -41.5zM537 1151q-133 0 -211 88t-78 238h133q0 -98 40 -149.5t116 -51.5q75 0 114 51.5t39 149.5h135q0 -149 -78 -237.5t-210 -88.5z" />
    <glyph glyph-name="Aogonek" unicode="&#x104;" horiz-adv-x="1366" 
d="M1169 -387q-111 0 -174 45t-63 121q0 64 43 121.5t143 117.5l-123 332h-622l-131 -350h-170l526 1378h172l522 -1372l4 -6l-100 -61q-69 -44 -93 -71.5t-24 -62.5q0 -75 125 -75h92v-111q-70 -6 -127 -6zM684 1200l-258 -708h518z" />
    <glyph glyph-name="aogonek" unicode="&#x105;" horiz-adv-x="1085" 
d="M805 -387q-111 0 -174.5 45t-63.5 121q0 138 211 254v88q-56 -69 -142.5 -106.5t-193.5 -37.5q-160 0 -253 79t-93 214q0 136 94.5 212.5t262.5 76.5h319v78q0 113 -64.5 175t-179.5 62q-95 0 -153 -42t-70 -117h-158q12 138 118 221.5t270 83.5q182 0 287.5 -102
t105.5 -281v-631l4 -6l-101 -61q-69 -44 -92.5 -71.5t-23.5 -62.5q0 -75 125 -75h92v-111q-70 -6 -127 -6zM457 111q134 0 224.5 78t90.5 198v43h-291q-223 0 -223 -158q0 -78 51.5 -119.5t147.5 -41.5z" />
    <glyph glyph-name="Cacute" unicode="&#x106;" horiz-adv-x="1593" 
d="M817 -23q-151 0 -283.5 54.5t-226.5 148.5t-148.5 226.5t-54.5 283.5q0 149 54.5 281t149 226t227 149t282.5 55q258 0 442 -141.5t228 -374.5h-172q-43 167 -178 266.5t-318 99.5q-152 0 -278 -73.5t-198.5 -202.5t-72.5 -285q0 -239 158 -401t391 -162q183 0 317.5 100
t178.5 269h172q-44 -235 -228 -377t-442 -142zM735 1503l193 344h192l-229 -344h-156z" />
    <glyph glyph-name="cacute" unicode="&#x107;" horiz-adv-x="1193" 
d="M621 -23q-147 0 -267.5 68.5t-189 188t-68.5 264.5q0 223 150.5 372.5t374.5 149.5q182 0 312.5 -97.5t164.5 -258.5h-160q-31 97 -117.5 153.5t-202.5 56.5q-157 0 -258.5 -106.5t-101.5 -269.5t101.5 -269t258.5 -106q117 0 202.5 56t117.5 153h160
q-34 -160 -165 -257.5t-312 -97.5zM539 1147l196 348h185l-224 -348h-157z" />
    <glyph glyph-name="Ccaron" unicode="&#x10c;" horiz-adv-x="1593" 
d="M817 -23q-151 0 -283.5 54.5t-226.5 148.5t-148.5 226.5t-54.5 283.5q0 149 54.5 281t149 226t227 149t282.5 55q258 0 442 -141.5t228 -374.5h-172q-43 167 -178 266.5t-318 99.5q-152 0 -278 -73.5t-198.5 -202.5t-72.5 -285q0 -239 158 -401t391 -162q183 0 317.5 100
t178.5 269h172q-44 -235 -228 -377t-442 -142zM973 1847h151l-235 -344h-137l-236 344h152l151 -213z" />
    <glyph glyph-name="ccaron" unicode="&#x10d;" horiz-adv-x="1193" 
d="M621 -23q-147 0 -267.5 68.5t-189 188t-68.5 264.5q0 223 150.5 372.5t374.5 149.5q182 0 312.5 -97.5t164.5 -258.5h-160q-31 97 -117.5 153.5t-202.5 56.5q-157 0 -258.5 -106.5t-101.5 -269.5t101.5 -269t258.5 -106q117 0 202.5 56t117.5 153h160
q-34 -160 -165 -257.5t-312 -97.5zM774 1495h152l-232 -348h-133l-231 348h151l146 -215z" />
    <glyph glyph-name="Dcaron" unicode="&#x10e;" horiz-adv-x="1472" 
d="M195 0v1378h419q341 0 547.5 -188t206.5 -498t-208 -501t-546 -191h-419zM354 145h260q264 0 426 150.5t162 396.5q0 244 -161 392.5t-427 148.5h-260v-1088zM760 1847h151l-235 -344h-137l-236 344h152l151 -213z" />
    <glyph glyph-name="dcaron" unicode="&#x10f;" horiz-adv-x="1581" 
d="M961 1378h157v-1378h-147v164q-56 -86 -157 -136.5t-222 -50.5q-212 0 -351 147.5t-139 373.5t138.5 374t349.5 148q117 0 214.5 -47.5t156.5 -130.5v536zM616 123q157 0 253 103t96 272t-95 272.5t-252 103.5q-158 0 -256 -103.5t-98 -270.5t97.5 -272t254.5 -105z
M1311 983l30 395h177l-84 -395h-123z" />
    <glyph glyph-name="Dcroat" unicode="&#x110;" horiz-adv-x="1513" 
d="M236 1378h419q341 0 547.5 -188t206.5 -498t-208 -501t-546 -191h-419v649h-197v146h197v583zM395 145h260q264 0 426 150.5t162 396.5q0 244 -161 392.5t-427 148.5h-260v-438h287v-146h-287v-504z" />
    <glyph glyph-name="dcroat" unicode="&#x111;" horiz-adv-x="1300" 
d="M1294 1255v-133h-170v-1122h-147v156q-54 -85 -154 -132t-231 -47q-209 0 -349.5 143.5t-140.5 356.5q0 140 64.5 256.5t176.5 183t247 66.5q120 0 219 -48t158 -132v319h-381v133h381v123h157v-123h170zM618 123q159 0 256 97t97 259q0 163 -97 261t-256 98
q-154 0 -254 -101t-100 -258q0 -154 100 -255t254 -101z" />
    <glyph glyph-name="Emacron" unicode="&#x112;" horiz-adv-x="1107" 
d="M195 0v1378h794v-145h-635v-440h615v-146h-615v-502h658v-145h-817zM328 1575v129h573v-129h-573z" />
    <glyph glyph-name="emacron" unicode="&#x113;" horiz-adv-x="1189" 
d="M600 1020q151 0 267 -73.5t175 -203.5t48 -292h-830q15 -150 111 -239t243 -89q200 0 283 149h168q-56 -141 -174 -218t-279 -77q-144 0 -262.5 68t-186 187.5t-67.5 265.5q0 145 66 265t182 188.5t256 68.5zM598 874q-125 0 -216 -79.5t-116 -206.5h656
q-9 129 -98 207.5t-226 78.5zM336 1217v126h532v-126h-532z" />
    <glyph glyph-name="Edotaccent" unicode="&#x116;" horiz-adv-x="1107" 
d="M195 0v1378h794v-145h-635v-440h615v-146h-615v-502h658v-145h-817zM616 1538q-50 0 -84 33t-34 82q0 47 34.5 80.5t83.5 33.5q50 0 83.5 -33t33.5 -81q0 -50 -33 -82.5t-84 -32.5z" />
    <glyph glyph-name="edotaccent" unicode="&#x117;" horiz-adv-x="1189" 
d="M600 1020q151 0 267 -73.5t175 -203.5t48 -292h-830q15 -150 111 -239t243 -89q200 0 283 149h168q-56 -141 -174 -218t-279 -77q-144 0 -262.5 68t-186 187.5t-67.5 265.5q0 145 66 265t182 188.5t256 68.5zM598 874q-125 0 -216 -79.5t-116 -206.5h656
q-9 129 -98 207.5t-226 78.5zM602 1233q-46 0 -77 31t-31 75q0 47 31 78t77 31q47 0 78 -31t31 -78q0 -45 -31 -75.5t-78 -30.5z" />
    <glyph glyph-name="Eogonek" unicode="&#x118;" horiz-adv-x="1107" 
d="M195 0v1378h794v-145h-635v-440h615v-146h-615v-502h658v-143l2 -2l-101 -61q-69 -44 -92.5 -71.5t-23.5 -62.5q0 -75 125 -75h92v-111q-70 -6 -127 -6q-111 0 -174.5 45t-63.5 121q0 119 156 221h-610z" />
    <glyph glyph-name="eogonek" unicode="&#x119;" horiz-adv-x="1189" 
d="M760 -387q-111 0 -175.5 45t-64.5 123q0 52 25 98.5t84 97.5h-17q-144 0 -262.5 68t-186 187.5t-67.5 265.5q0 145 66 265t182 188.5t256 68.5q151 0 267 -73.5t175 -203.5t48 -292h-830q15 -150 111 -239t243 -89q200 0 283 149h168q-55 -137 -168 -215l-154 -133
q-47 -44 -61 -65.5t-14 -51.5q0 -83 127 -83h90v-105q-37 -6 -125 -6zM598 874q-125 0 -216 -79.5t-116 -206.5h656q-9 129 -98 207.5t-226 78.5z" />
    <glyph glyph-name="Ecaron" unicode="&#x11a;" horiz-adv-x="1107" 
d="M195 0v1378h794v-145h-635v-440h615v-146h-615v-502h658v-145h-817zM770 1847h152l-236 -344h-137l-236 344h152l151 -213z" />
    <glyph glyph-name="ecaron" unicode="&#x11b;" horiz-adv-x="1189" 
d="M600 1020q151 0 267 -73.5t175 -203.5t48 -292h-830q15 -150 111 -239t243 -89q200 0 283 149h168q-56 -141 -174 -218t-279 -77q-144 0 -262.5 68t-186 187.5t-67.5 265.5q0 145 66 265t182 188.5t256 68.5zM598 874q-125 0 -216 -79.5t-116 -206.5h656
q-9 129 -98 207.5t-226 78.5zM750 1495h151l-231 -348h-133l-232 348h152l145 -215z" />
    <glyph glyph-name="Gbreve" unicode="&#x11e;" horiz-adv-x="1609" 
d="M836 678h622v-369q-95 -163 -255 -247.5t-359 -84.5q-160 0 -297.5 54t-234.5 149t-152.5 228t-55.5 286q0 201 93 363t257.5 253t368.5 91q229 0 395 -115.5t226 -316.5h-176q-57 135 -174.5 208.5t-274.5 73.5q-238 0 -393.5 -157t-155.5 -400q0 -248 161 -407.5
t415 -159.5q296 0 452 217v188h-462v146zM815 1507q-149 0 -251.5 95.5t-102.5 228.5h133q0 -82 64 -140.5t157 -58.5t156 58t63 141h135q0 -133 -102.5 -228.5t-251.5 -95.5z" />
    <glyph glyph-name="gbreve" unicode="&#x11f;" horiz-adv-x="1286" 
d="M969 997h147v-886q0 -226 -138.5 -346.5t-371.5 -120.5q-197 0 -321.5 83.5t-157.5 227.5h160q32 -80 114.5 -126t206.5 -46q164 0 257 82t93 246v82q-58 -84 -155.5 -133.5t-212.5 -49.5q-135 0 -247.5 67t-177.5 184t-65 257q0 214 141.5 358t350.5 144
q121 0 221.5 -52t155.5 -139v168zM616 156q152 0 248.5 101t96.5 261q0 158 -96 257t-249 99q-156 0 -257 -100t-101 -254q0 -157 102 -260.5t256 -103.5zM627 1151q-133 0 -211 88t-78 238h133q0 -98 40 -149.5t116 -51.5q75 0 114 51.5t39 149.5h135q0 -149 -78 -237.5
t-210 -88.5z" />
    <glyph glyph-name="Gcommaaccent" unicode="&#x122;" horiz-adv-x="1609" 
d="M836 678h622v-369q-95 -163 -255 -247.5t-359 -84.5q-160 0 -297.5 54t-234.5 149t-152.5 228t-55.5 286q0 201 93 363t257.5 253t368.5 91q229 0 395 -115.5t226 -316.5h-176q-57 135 -174.5 208.5t-274.5 73.5q-238 0 -393.5 -157t-155.5 -400q0 -248 161 -407.5
t415 -159.5q296 0 452 217v188h-462v146zM705 -442l30 342h152l-45 -342h-137z" />
    <glyph glyph-name="gcommaaccent" unicode="&#x123;" horiz-adv-x="1286" 
d="M969 997h147v-886q0 -226 -138.5 -346.5t-371.5 -120.5q-197 0 -321.5 83.5t-157.5 227.5h160q32 -80 114.5 -126t206.5 -46q164 0 257 82t93 246v82q-58 -84 -155.5 -133.5t-212.5 -49.5q-135 0 -247.5 67t-177.5 184t-65 257q0 214 141.5 358t350.5 144
q121 0 221.5 -52t155.5 -139v168zM616 156q152 0 248.5 101t96.5 261q0 158 -96 257t-249 99q-156 0 -257 -100t-101 -254q0 -157 102 -260.5t256 -103.5zM541 1147l47 348h141l-33 -348h-155z" />
    <glyph glyph-name="Imacron" unicode="&#x12a;" horiz-adv-x="546" 
d="M195 0v1378h159v-1378h-159zM-14 1575v129h573v-129h-573z" />
    <glyph glyph-name="imacron" unicode="&#x12b;" horiz-adv-x="495" 
d="M168 0v997h158v-997h-158zM20 1217v126h453v-126h-453z" />
    <glyph glyph-name="Iogonek" unicode="&#x12e;" horiz-adv-x="546" 
d="M229 -387q-111 0 -174 45t-63 121q0 134 203 250v1349h159v-1376l2 -2l-100 -61q-69 -44 -93 -71.5t-24 -62.5q0 -75 125 -75h92v-111q-70 -6 -127 -6z" />
    <glyph glyph-name="iogonek" unicode="&#x12f;" horiz-adv-x="495" 
d="M201 -387q-111 0 -174.5 45t-63.5 121q0 137 205 250v968h158v-995l2 -2l-101 -61q-69 -44 -92.5 -71.5t-23.5 -62.5q0 -75 125 -75h92v-111q-70 -6 -127 -6zM248 1233q-46 0 -77.5 31t-31.5 75q0 47 31.5 78t77.5 31q47 0 77.5 -31t30.5 -78q0 -45 -30.5 -75.5
t-77.5 -30.5z" />
    <glyph glyph-name="Idotaccent" unicode="&#x130;" horiz-adv-x="546" 
d="M195 0v1378h159v-1378h-159zM274 1538q-50 0 -84 33t-34 82q0 47 34.5 80.5t83.5 33.5q50 0 83.5 -33t33.5 -81q0 -50 -33 -82.5t-84 -32.5z" />
    <glyph glyph-name="dotlessi" unicode="&#x131;" horiz-adv-x="495" 
d="M168 0v997h158v-997h-158z" />
    <glyph glyph-name="Kcommaaccent" unicode="&#x136;" horiz-adv-x="1173" 
d="M1159 0h-201l-604 686v-686h-159v1378h159v-606l574 606h194l-610 -643zM532 -442l31 342h152l-45 -342h-138z" />
    <glyph glyph-name="kcommaaccent" unicode="&#x137;" horiz-adv-x="956" 
d="M973 0h-203l-444 461v-461h-158v1378h158v-833l405 452h193l-437 -491zM397 -442l31 342h152l-45 -342h-138z" />
    <glyph glyph-name="Lacute" unicode="&#x139;" horiz-adv-x="974" 
d="M195 0v1378h159v-1233h572v-145h-731zM193 1503l192 344h193l-230 -344h-155z" />
    <glyph glyph-name="lacute" unicode="&#x13a;" horiz-adv-x="495" 
d="M168 0v1378h158v-1378h-158zM164 1503l192 344h193l-230 -344h-155z" />
    <glyph glyph-name="Lcommaaccent" unicode="&#x13b;" horiz-adv-x="974" 
d="M195 0v1378h159v-1233h572v-145h-731zM481 -442l31 342h152l-46 -342h-137z" />
    <glyph glyph-name="lcommaaccent" unicode="&#x13c;" horiz-adv-x="495" 
d="M168 0v1378h158v-1378h-158zM137 -442l31 342h151l-45 -342h-137z" />
    <glyph glyph-name="Lcaron" unicode="&#x13d;" horiz-adv-x="974" 
d="M195 0v1378h159v-1233h572v-145h-731zM600 983l31 395h176l-84 -395h-123z" />
    <glyph glyph-name="lcaron" unicode="&#x13e;" horiz-adv-x="798" 
d="M168 0v1378h158v-1378h-158zM528 983l31 395h176l-84 -395h-123z" />
    <glyph glyph-name="Ldot" unicode="&#x13f;" horiz-adv-x="1011" 
d="M195 0v1378h159v-1233h572v-145h-731zM766 721q-50 0 -84.5 34t-34.5 83t34.5 83.5t84.5 34.5q51 0 86 -34t35 -84q0 -49 -35 -83t-86 -34z" />
    <glyph glyph-name="ldot" unicode="&#x140;" horiz-adv-x="616" 
d="M168 0v1378h158v-1378h-158zM565 559q-50 0 -84.5 34t-34.5 83q0 50 35 84.5t84 34.5q51 0 86 -34.5t35 -84.5q0 -49 -35 -83t-86 -34z" />
    <glyph glyph-name="Lslash" unicode="&#x141;" horiz-adv-x="983" 
d="M203 0v553l-164 -72v150l164 74v673h159v-612l410 186v-151l-410 -185v-471h572v-145h-731z" />
    <glyph glyph-name="lslash" unicode="&#x142;" horiz-adv-x="575" 
d="M39 569v150l168 76v583h158v-520l172 80v-152l-172 -79v-707h-158v645z" />
    <glyph glyph-name="Nacute" unicode="&#x143;" horiz-adv-x="1411" 
d="M1057 1378h162v-1378h-175l-690 1120v-1120h-159v1378h184l678 -1097v1097zM623 1503l192 344h193l-230 -344h-155z" />
    <glyph glyph-name="nacute" unicode="&#x144;" horiz-adv-x="1146" 
d="M623 1020q167 0 266.5 -107t99.5 -286v-627h-158v608q0 121 -66.5 193.5t-178.5 72.5q-113 0 -186.5 -74.5t-73.5 -191.5v-608h-158v997h147v-110q108 133 308 133zM500 1147l196 348h185l-224 -348h-157z" />
    <glyph glyph-name="Ncommaaccent" unicode="&#x145;" horiz-adv-x="1411" 
d="M1057 1378h162v-1378h-175l-690 1120v-1120h-159v1378h184l678 -1097v1097zM596 -442l31 342h151l-45 -342h-137z" />
    <glyph glyph-name="ncommaaccent" unicode="&#x146;" horiz-adv-x="1146" 
d="M623 1020q167 0 266.5 -107t99.5 -286v-627h-158v608q0 121 -66.5 193.5t-178.5 72.5q-113 0 -186.5 -74.5t-73.5 -191.5v-608h-158v997h147v-110q108 133 308 133zM471 -442l31 342h151l-45 -342h-137z" />
    <glyph glyph-name="Ncaron" unicode="&#x147;" horiz-adv-x="1411" 
d="M1057 1378h162v-1378h-175l-690 1120v-1120h-159v1378h184l678 -1097v1097zM860 1847h152l-236 -344h-137l-236 344h152l152 -213z" />
    <glyph glyph-name="ncaron" unicode="&#x148;" horiz-adv-x="1146" 
d="M623 1020q167 0 266.5 -107t99.5 -286v-627h-158v608q0 121 -66.5 193.5t-178.5 72.5q-113 0 -186.5 -74.5t-73.5 -191.5v-608h-158v997h147v-110q108 133 308 133zM735 1495h152l-232 -348h-133l-231 348h151l146 -215z" />
    <glyph glyph-name="Omacron" unicode="&#x14c;" horiz-adv-x="1634" 
d="M817 -23q-149 0 -281 55t-227 150t-150 227t-55 281t54.5 281t149 226t227 149t282.5 55q149 0 281 -55t226 -149t149 -226t55 -281t-55 -281t-149 -227t-226 -150t-281 -55zM817 127q154 0 279.5 73t196.5 202.5t71 289.5q0 239 -157 399t-390 160t-390 -160t-157 -399
q0 -160 71 -289.5t196.5 -202.5t279.5 -73zM528 1575v129h574v-129h-574z" />
    <glyph glyph-name="omacron" unicode="&#x14d;" horiz-adv-x="1236" 
d="M618 -23q-144 0 -264 69t-189 189.5t-69 264.5q0 220 150.5 370t371.5 150q143 0 263 -68.5t189 -188t69 -263.5t-69 -264.5t-189 -189.5t-263 -69zM618 123q155 0 257 107.5t102 269.5q0 161 -102 267.5t-257 106.5t-257.5 -106.5t-102.5 -267.5q0 -162 102.5 -269.5
t257.5 -107.5zM356 1217v126h533v-126h-533z" />
    <glyph glyph-name="Ohungarumlaut" unicode="&#x150;" horiz-adv-x="1634" 
d="M817 -23q-149 0 -281 55t-227 150t-150 227t-55 281t54.5 281t149 226t227 149t282.5 55q149 0 281 -55t226 -149t149 -226t55 -281t-55 -281t-149 -227t-226 -150t-281 -55zM817 127q154 0 279.5 73t196.5 202.5t71 289.5q0 239 -157 399t-390 160t-390 -160t-157 -399
q0 -160 71 -289.5t196.5 -202.5t279.5 -73zM586 1503l231 344h156l-238 -344h-149zM903 1503l238 344h168l-265 -344h-141z" />
    <glyph glyph-name="ohungarumlaut" unicode="&#x151;" horiz-adv-x="1236" 
d="M618 -23q-144 0 -264 69t-189 189.5t-69 264.5q0 220 150.5 370t371.5 150q143 0 263 -68.5t189 -188t69 -263.5t-69 -264.5t-189 -189.5t-263 -69zM618 123q155 0 257 107.5t102 269.5q0 161 -102 267.5t-257 106.5t-257.5 -106.5t-102.5 -267.5q0 -162 102.5 -269.5
t257.5 -107.5zM385 1147l238 348h157l-248 -348h-147zM700 1147l244 348h164l-266 -348h-142z" />
    <glyph glyph-name="OE" unicode="&#x152;" horiz-adv-x="2271" 
d="M1526 145h651v-145h-811v260q-80 -130 -227.5 -206.5t-323.5 -76.5q-148 0 -280 55t-226.5 150t-149.5 227t-55 281t55 281t150 226t227 149t281 55q175 0 320.5 -75.5t228.5 -205.5v258h788v-145h-628v-440h608v-146h-608v-502zM819 127q233 0 390 162t157 401
q0 156 -71.5 285t-197 202.5t-278.5 73.5q-233 0 -391 -161t-158 -400t158 -401t391 -162z" />
    <glyph glyph-name="oe" unicode="&#x153;" horiz-adv-x="2064" 
d="M1479 1018q232 0 368 -158.5t117 -408.5h-827q14 -150 110 -239t246 -89q199 0 281 149h168q-54 -139 -173 -217t-278 -78q-148 0 -262 66t-176 184q-65 -117 -180.5 -183.5t-258.5 -66.5q-216 0 -367 152t-151 369q0 144 69 264t188.5 189t262.5 69t258 -66.5
t179 -183.5q62 117 173.5 182.5t252.5 65.5zM621 123q155 0 253.5 105t98.5 270q0 166 -97.5 271t-252.5 105q-158 0 -261.5 -106.5t-103.5 -269.5q0 -161 104 -268t259 -107zM1477 874q-133 0 -222 -76.5t-112 -209.5h659q-15 134 -100.5 210t-224.5 76z" />
    <glyph glyph-name="Racute" unicode="&#x154;" horiz-adv-x="1214" 
d="M195 0v1378h428q201 0 317.5 -108t116.5 -293q0 -154 -81 -258.5t-224 -138.5l391 -580h-191l-374 565h-224v-565h-159zM352 713h260q130 0 203.5 69t73.5 193q0 122 -72.5 190t-204.5 68h-260v-520zM473 1503l193 344h192l-229 -344h-156z" />
    <glyph glyph-name="racute" unicode="&#x155;" horiz-adv-x="722" 
d="M625 997h71v-147h-73q-135 0 -216 -81t-81 -216v-553h-158v997h147v-139q102 139 310 139zM252 1147l197 348h184l-223 -348h-158z" />
    <glyph glyph-name="Rcommaaccent" unicode="&#x156;" horiz-adv-x="1214" 
d="M195 0v1378h428q201 0 317.5 -108t116.5 -293q0 -154 -81 -258.5t-224 -138.5l391 -580h-191l-374 565h-224v-565h-159zM352 713h260q130 0 203.5 69t73.5 193q0 122 -72.5 190t-204.5 68h-260v-520zM498 -442l30 342h152l-45 -342h-137z" />
    <glyph glyph-name="rcommaaccent" unicode="&#x157;" horiz-adv-x="722" 
d="M625 997h71v-147h-73q-135 0 -216 -81t-81 -216v-553h-158v997h147v-139q102 139 310 139zM135 -442l31 342h151l-45 -342h-137z" />
    <glyph glyph-name="Rcaron" unicode="&#x158;" horiz-adv-x="1214" 
d="M195 0v1378h428q201 0 317.5 -108t116.5 -293q0 -154 -81 -258.5t-224 -138.5l391 -580h-191l-374 565h-224v-565h-159zM352 713h260q130 0 203.5 69t73.5 193q0 122 -72.5 190t-204.5 68h-260v-520zM711 1847h151l-235 -344h-138l-235 344h152l151 -213z" />
    <glyph glyph-name="rcaron" unicode="&#x159;" horiz-adv-x="722" 
d="M625 997h71v-147h-73q-135 0 -216 -81t-81 -216v-553h-158v997h147v-139q102 139 310 139zM487 1495h152l-231 -348h-134l-231 348h152l145 -215z" />
    <glyph glyph-name="Sacute" unicode="&#x15a;" horiz-adv-x="1110" 
d="M559 -23q-207 0 -334.5 116.5t-136.5 314.5h162q8 -129 92.5 -209t214.5 -80q135 0 215 64t80 173q0 85 -46 137.5t-159 96.5l-198 76q-159 61 -231.5 153t-72.5 230q0 157 117 254.5t305 97.5q190 0 304 -101t126 -278h-161q-8 111 -78.5 174.5t-190.5 63.5
q-117 0 -188.5 -56.5t-71.5 -150.5q0 -90 48.5 -148t160.5 -102l203 -78q156 -60 225.5 -145.5t69.5 -217.5q0 -177 -123.5 -281t-331.5 -104zM471 1503l193 344h192l-229 -344h-156z" />
    <glyph glyph-name="sacute" unicode="&#x15b;" horiz-adv-x="907" 
d="M467 -23q-163 0 -269 87t-118 231h158q9 -78 71.5 -125t157.5 -47q92 0 148.5 40.5t56.5 106.5q0 57 -26.5 83.5t-108.5 52.5l-177 53q-245 74 -245 280q0 126 95 203.5t249 77.5q148 0 243 -76t107 -205h-158q-11 63 -62 99t-132 36q-82 0 -131.5 -35.5t-49.5 -95.5
q0 -54 29.5 -85t104.5 -54l176 -53q248 -75 248 -279q0 -132 -101 -213.5t-266 -81.5zM379 1147l196 348h185l-223 -348h-158z" />
    <glyph glyph-name="Scedilla" unicode="&#x15e;" horiz-adv-x="1110" 
d="M473 -391q-118 0 -145 4v115h125q68 0 105.5 33.5t37.5 95.5q0 59 -45 120q-204 3 -329 119t-134 312h162q8 -129 92.5 -209t214.5 -80q135 0 215 64t80 173q0 85 -46 137.5t-159 96.5l-198 76q-159 61 -231.5 153t-72.5 230q0 157 117 254.5t305 97.5q190 0 304 -101
t126 -278h-161q-8 111 -78.5 174.5t-190.5 63.5q-117 0 -188.5 -56.5t-71.5 -150.5q0 -90 48.5 -148t160.5 -102l203 -78q156 -60 225.5 -145.5t69.5 -217.5q0 -150 -90 -248t-248 -126q55 -61 55 -148q0 -106 -70 -168.5t-188 -62.5z" />
    <glyph glyph-name="scedilla" unicode="&#x15f;" horiz-adv-x="907" 
d="M385 -391q-118 0 -145 4v115h125q68 0 105.5 33.5t37.5 95.5q0 59 -45 120q-162 2 -266.5 88t-116.5 230h158q9 -78 71.5 -125t157.5 -47q92 0 148.5 40.5t56.5 106.5q0 57 -26.5 83.5t-108.5 52.5l-177 53q-245 74 -245 280q0 126 95 203.5t249 77.5q148 0 243 -76
t107 -205h-158q-11 63 -62 99t-132 36q-82 0 -131.5 -35.5t-49.5 -95.5q0 -54 29.5 -85t104.5 -54l176 -53q248 -75 248 -279q0 -107 -66 -181.5t-182 -100.5q57 -60 57 -150q0 -106 -70 -168.5t-188 -62.5z" />
    <glyph glyph-name="Scaron" unicode="&#x160;" horiz-adv-x="1110" 
d="M559 -23q-207 0 -334.5 116.5t-136.5 314.5h162q8 -129 92.5 -209t214.5 -80q135 0 215 64t80 173q0 85 -46 137.5t-159 96.5l-198 76q-159 61 -231.5 153t-72.5 230q0 157 117 254.5t305 97.5q190 0 304 -101t126 -278h-161q-8 111 -78.5 174.5t-190.5 63.5
q-117 0 -188.5 -56.5t-71.5 -150.5q0 -90 48.5 -148t160.5 -102l203 -78q156 -60 225.5 -145.5t69.5 -217.5q0 -177 -123.5 -281t-331.5 -104zM709 1847h151l-235 -344h-138l-235 344h151l152 -213z" />
    <glyph glyph-name="scaron" unicode="&#x161;" horiz-adv-x="907" 
d="M467 -23q-163 0 -269 87t-118 231h158q9 -78 71.5 -125t157.5 -47q92 0 148.5 40.5t56.5 106.5q0 57 -26.5 83.5t-108.5 52.5l-177 53q-245 74 -245 280q0 126 95 203.5t249 77.5q148 0 243 -76t107 -205h-158q-11 63 -62 99t-132 36q-82 0 -131.5 -35.5t-49.5 -95.5
q0 -54 29.5 -85t104.5 -54l176 -53q248 -75 248 -279q0 -132 -101 -213.5t-266 -81.5zM614 1495h152l-231 -348h-134l-231 348h152l145 -215z" />
    <glyph glyph-name="uni0162" unicode="&#x162;" horiz-adv-x="1132" 
d="M479 0v1233h-407v145h987v-145h-420v-1202q104 -70 104 -191q0 -106 -70 -168.5t-188 -62.5t-145 4v115h125q68 0 105.5 33.5t37.5 95.5q0 71 -63 143h-66z" />
    <glyph glyph-name="uni0163" unicode="&#x163;" horiz-adv-x="737" 
d="M553 139h137v-139h-145q73 -67 73 -160q0 -106 -70 -168.5t-188 -62.5t-145 4v115h125q69 0 107 33t38 96q0 78 -69 153q-207 46 -207 285v561h-168v141h168v267h158v-267h297v-141h-297v-541q0 -92 44 -134t142 -42z" />
    <glyph glyph-name="Tcaron" unicode="&#x164;" horiz-adv-x="1132" 
d="M479 0v1233h-407v145h987v-145h-420v-1233h-160zM721 1847h151l-235 -344h-137l-236 344h152l151 -213z" />
    <glyph glyph-name="tcaron" unicode="&#x165;" horiz-adv-x="749" 
d="M553 139h137v-139h-158q-164 0 -243.5 73t-79.5 222v561h-168v141h168v267h158v-267h297v-141h-297v-541q0 -92 44 -134t142 -42zM594 1165l31 396h176l-84 -396h-123z" />
    <glyph glyph-name="Umacron" unicode="&#x16a;" horiz-adv-x="1382" 
d="M690 -23q-235 0 -374.5 151t-139.5 407v843h160v-850q0 -186 95.5 -295.5t258.5 -109.5q166 0 260 108t94 297v850h160v-843q0 -257 -138.5 -407.5t-375.5 -150.5zM406 1575v129h573v-129h-573z" />
    <glyph glyph-name="umacron" unicode="&#x16b;" horiz-adv-x="1146" 
d="M819 997h158v-997h-148v109q-107 -132 -307 -132q-167 0 -266.5 107.5t-99.5 286.5v626h157v-610q0 -119 67 -191.5t179 -72.5q114 0 187 74t73 190v610zM303 1217v126h533v-126h-533z" />
    <glyph glyph-name="Uring" unicode="&#x16e;" horiz-adv-x="1382" 
d="M690 -23q-235 0 -374.5 151t-139.5 407v843h160v-850q0 -186 95.5 -295.5t258.5 -109.5q166 0 260 108t94 297v850h160v-843q0 -257 -138.5 -407.5t-375.5 -150.5zM692 1415q-97 0 -162 64t-65 159q0 94 65 158t162 64q95 0 161.5 -64t66.5 -158q0 -95 -66 -159t-162 -64
zM696 1526q44 0 75.5 32.5t31.5 79.5q0 46 -31.5 77.5t-75.5 31.5q-49 0 -79.5 -30.5t-30.5 -78.5q0 -49 31 -80.5t79 -31.5z" />
    <glyph glyph-name="uring" unicode="&#x16f;" horiz-adv-x="1146" 
d="M819 997h158v-997h-148v109q-107 -132 -307 -132q-167 0 -266.5 107.5t-99.5 286.5v626h157v-610q0 -119 67 -191.5t179 -72.5q114 0 187 74t73 190v610zM569 1112q-97 0 -162 64t-65 159q0 94 65 157.5t162 63.5q96 0 162 -64t66 -157q0 -95 -66 -159t-162 -64z
M573 1223q44 0 75.5 32.5t31.5 79.5q0 46 -31.5 77.5t-75.5 31.5q-49 0 -79.5 -30.5t-30.5 -78.5q0 -49 31 -80.5t79 -31.5z" />
    <glyph glyph-name="Uhungarumlaut" unicode="&#x170;" horiz-adv-x="1382" 
d="M690 -23q-235 0 -374.5 151t-139.5 407v843h160v-850q0 -186 95.5 -295.5t258.5 -109.5q166 0 260 108t94 297v850h160v-843q0 -257 -138.5 -407.5t-375.5 -150.5zM463 1503l231 344h156l-238 -344h-149zM780 1503l238 344h168l-264 -344h-142z" />
    <glyph glyph-name="uhungarumlaut" unicode="&#x171;" horiz-adv-x="1146" 
d="M819 997h158v-997h-148v109q-107 -132 -307 -132q-167 0 -266.5 107.5t-99.5 286.5v626h157v-610q0 -119 67 -191.5t179 -72.5q114 0 187 74t73 190v610zM332 1147l237 348h158l-248 -348h-147zM647 1147l244 348h164l-267 -348h-141z" />
    <glyph glyph-name="Uogonek" unicode="&#x172;" horiz-adv-x="1382" 
d="M852 -387q-111 0 -175.5 45t-64.5 123q0 51 25.5 98t83.5 101q-5 0 -15.5 -1.5t-15.5 -1.5q-235 0 -374.5 151t-139.5 407v843h160v-850q0 -186 95.5 -295.5t258.5 -109.5q166 0 260 108t94 297v850h160v-843q0 -154 -50.5 -272t-145.5 -189l-172 -150
q-47 -44 -61.5 -65.5t-14.5 -51.5q0 -83 127 -83h90v-105q-38 -6 -125 -6z" />
    <glyph glyph-name="uogonek" unicode="&#x173;" horiz-adv-x="1146" 
d="M854 -387q-111 0 -174.5 45t-63.5 121q0 68 49.5 130t163.5 126v74q-107 -132 -307 -132q-167 0 -266.5 107.5t-99.5 286.5v626h157v-610q0 -119 67 -191.5t179 -72.5q114 0 187 74t73 190v610h158v-991l4 -6l-100 -61q-69 -44 -93 -71.5t-24 -62.5q0 -75 125 -75h92
v-111q-70 -6 -127 -6z" />
    <glyph glyph-name="Ydieresis" unicode="&#x178;" horiz-adv-x="1241" 
d="M1161 1378l-461 -786v-592h-159v596l-461 782h184l359 -633l356 633h182zM827 1544q-46 0 -79 32.5t-33 76.5q0 45 32.5 77.5t79.5 32.5q49 0 81 -32t32 -78t-33 -77.5t-80 -31.5zM416 1544q-47 0 -80 31.5t-33 77.5q0 44 33 76t80 32q49 0 80.5 -31t31.5 -77
t-32.5 -77.5t-79.5 -31.5z" />
    <glyph glyph-name="Zacute" unicode="&#x179;" horiz-adv-x="1169" 
d="M289 145h784v-145h-971v139l772 1094h-731v145h922v-141zM502 1503l192 344h193l-230 -344h-155z" />
    <glyph glyph-name="zacute" unicode="&#x17a;" horiz-adv-x="944" 
d="M250 135h614v-135h-790v131l598 729h-568v137h746v-133zM385 1147l197 348h184l-223 -348h-158z" />
    <glyph glyph-name="Zdotaccent" unicode="&#x17b;" horiz-adv-x="1169" 
d="M289 145h784v-145h-971v139l772 1094h-731v145h922v-141zM586 1538q-50 0 -84.5 33t-34.5 82q0 47 35 80.5t84 33.5q50 0 83 -33t33 -81q0 -50 -32.5 -82.5t-83.5 -32.5z" />
    <glyph glyph-name="zdotaccent" unicode="&#x17c;" horiz-adv-x="944" 
d="M250 135h614v-135h-790v131l598 729h-568v137h746v-133zM473 1233q-46 0 -77 31t-31 75q0 47 31 78t77 31q47 0 78 -31t31 -78q0 -45 -31 -75.5t-78 -30.5z" />
    <glyph glyph-name="Zcaron" unicode="&#x17d;" horiz-adv-x="1169" 
d="M289 145h784v-145h-971v139l772 1094h-731v145h922v-141zM739 1847h152l-236 -344h-137l-235 344h151l152 -213z" />
    <glyph glyph-name="zcaron" unicode="&#x17e;" horiz-adv-x="944" 
d="M250 135h614v-135h-790v131l598 729h-568v137h746v-133zM621 1495h151l-231 -348h-133l-232 348h152l145 -215z" />
    <glyph glyph-name="florin" unicode="&#x192;" horiz-adv-x="954" 
d="M786 1378h117v-145h-96q-96 0 -144.5 -44t-60.5 -145l-29 -229h211v-145h-229l-78 -621q-40 -321 -340 -321h-119v145h91q99 0 148 43.5t62 144.5l76 609h-157v145h174l30 242q40 321 344 321z" />
    <glyph glyph-name="Scommaaccent" unicode="&#x218;" horiz-adv-x="1110" 
d="M559 -23q-207 0 -334.5 116.5t-136.5 314.5h162q8 -129 92.5 -209t214.5 -80q135 0 215 64t80 173q0 85 -46 137.5t-159 96.5l-198 76q-159 61 -231.5 153t-72.5 230q0 157 117 254.5t305 97.5q190 0 304 -101t126 -278h-161q-8 111 -78.5 174.5t-190.5 63.5
q-117 0 -188.5 -56.5t-71.5 -150.5q0 -90 48.5 -148t160.5 -102l203 -78q156 -60 225.5 -145.5t69.5 -217.5q0 -177 -123.5 -281t-331.5 -104zM444 -442l31 342h152l-45 -342h-138z" />
    <glyph glyph-name="scommaaccent" unicode="&#x219;" horiz-adv-x="907" 
d="M467 -23q-163 0 -269 87t-118 231h158q9 -78 71.5 -125t157.5 -47q92 0 148.5 40.5t56.5 106.5q0 57 -26.5 83.5t-108.5 52.5l-177 53q-245 74 -245 280q0 126 95 203.5t249 77.5q148 0 243 -76t107 -205h-158q-11 63 -62 99t-132 36q-82 0 -131.5 -35.5t-49.5 -95.5
q0 -54 29.5 -85t104.5 -54l176 -53q248 -75 248 -279q0 -132 -101 -213.5t-266 -81.5zM356 -442l31 342h152l-45 -342h-138z" />
    <glyph glyph-name="uni021A" unicode="&#x21a;" horiz-adv-x="1132" 
d="M479 0v1233h-407v145h987v-145h-420v-1233h-160zM457 -442l30 342h152l-45 -342h-137z" />
    <glyph glyph-name="uni021B" unicode="&#x21b;" horiz-adv-x="737" 
d="M553 139h137v-139h-158q-164 0 -243.5 73t-79.5 222v561h-168v141h168v267h158v-267h297v-141h-297v-541q0 -92 44 -134t142 -42zM338 -442l31 342h151l-45 -342h-137z" />
    <glyph glyph-name="uni0237" unicode="&#x237;" horiz-adv-x="495" 
d="M-84 -334v139h72q95 0 137.5 44t42.5 141v1007h158v-1026q0 -149 -78 -227t-228 -78h-104z" />
    <glyph glyph-name="circumflex" unicode="&#x2c6;" horiz-adv-x="708" 
d="M653 1147h-151l-148 215l-145 -215h-152l232 348h133z" />
    <glyph glyph-name="caron" unicode="&#x2c7;" horiz-adv-x="708" 
d="M502 1495h151l-231 -348h-133l-232 348h152l145 -215z" />
    <glyph glyph-name="breve" unicode="&#x2d8;" horiz-adv-x="690" 
d="M344 1151q-133 0 -211 88t-78 238h133q0 -98 40 -149.5t116 -51.5q75 0 114.5 51.5t39.5 149.5h135q0 -149 -78.5 -237.5t-210.5 -88.5z" />
    <glyph glyph-name="dotaccent" unicode="&#x2d9;" horiz-adv-x="327" 
d="M164 1233q-46 0 -77.5 31t-31.5 75q0 47 31.5 78t77.5 31q47 0 77.5 -31t30.5 -78q0 -45 -30.5 -75.5t-77.5 -30.5z" />
    <glyph glyph-name="ring" unicode="&#x2da;" horiz-adv-x="565" 
d="M281 1112q-97 0 -162.5 64t-65.5 159q0 94 65.5 157.5t162.5 63.5q95 0 161 -63.5t66 -157.5q0 -95 -65.5 -159t-161.5 -64zM285 1223q44 0 75 32.5t31 79.5q0 46 -31 77.5t-75 31.5q-49 0 -80 -30.5t-31 -78.5q0 -49 31.5 -80.5t79.5 -31.5z" />
    <glyph glyph-name="ogonek" unicode="&#x2db;" horiz-adv-x="475" 
d="M295 -387q-111 0 -174.5 45t-63.5 121q0 79 70.5 153t234.5 150l60 -82l-100 -61q-69 -44 -93 -71.5t-24 -62.5q0 -75 125 -75h92v-111q-70 -6 -127 -6z" />
    <glyph glyph-name="tilde" unicode="&#x2dc;" horiz-adv-x="675" 
d="M453 1161q-53 0 -127 47q-46 31 -70.5 41.5t-48.5 10.5q-49 -2 -152 -74v137q62 42 95.5 57t70.5 15q50 0 129 -47q47 -32 70.5 -42t50.5 -10q50 3 150 74v-137q-57 -40 -93 -56t-75 -16z" />
    <glyph glyph-name="hungarumlaut" unicode="&#x2dd;" horiz-adv-x="833" 
d="M57 1147l238 348h158l-248 -348h-148zM373 1147l243 348h164l-266 -348h-141z" />
    <glyph glyph-name="gravecomb" unicode="&#x300;" 
d="M-72 1147l-227 348h188l195 -348h-156z" />
    <glyph glyph-name="acutecomb" unicode="&#x301;" 
d="M-94 1147l196 348h185l-224 -348h-157z" />
    <glyph glyph-name="uni0302" unicode="&#x302;" 
d="M293 1147h-152l-147 215l-146 -215h-151l231 348h133z" />
    <glyph glyph-name="tildecomb" unicode="&#x303;" 
d="M109 1161q-53 0 -127 47q-46 31 -70.5 41.5t-48.5 10.5q-49 -2 -152 -74v137q62 42 95.5 57t70.5 15q50 0 129 -47q47 -32 70.5 -42t50.5 -10q49 2 149 74v-137q-57 -41 -92.5 -56.5t-74.5 -15.5z" />
    <glyph glyph-name="uni0304" unicode="&#x304;" 
d="M-274 1217v126h532v-126h-532z" />
    <glyph glyph-name="uni0306" unicode="&#x306;" 
d="M-6 1151q-133 0 -211 88t-78 238h133q0 -98 40 -149.5t116 -51.5q75 0 114 51.5t39 149.5h136q0 -149 -78.5 -237.5t-210.5 -88.5z" />
    <glyph glyph-name="uni0307" unicode="&#x307;" 
d="M-6 1233q-46 0 -77.5 31t-31.5 75q0 47 31.5 78t77.5 31q47 0 77.5 -31t30.5 -78q0 -45 -30.5 -75.5t-77.5 -30.5z" />
    <glyph glyph-name="uni0308" unicode="&#x308;" 
d="M-199 1233q-43 0 -73.5 30.5t-30.5 73.5q0 41 30.5 72t73.5 31q47 0 77 -30t30 -73t-31 -73.5t-76 -30.5zM180 1233q-43 0 -73.5 30.5t-30.5 73.5q0 42 30 72.5t74 30.5q47 0 77 -30t30 -73t-31 -73.5t-76 -30.5z" />
    <glyph glyph-name="uni030A" unicode="&#x30a;" 
d="M-6 1112q-97 0 -162 64t-65 159q0 94 65 157.5t162 63.5q95 0 161 -63.5t66 -157.5q0 -95 -65.5 -159t-161.5 -64zM-2 1223q44 0 75 32.5t31 79.5q0 46 -31 77.5t-75 31.5q-49 0 -80 -30.5t-31 -78.5q0 -49 31.5 -80.5t79.5 -31.5z" />
    <glyph glyph-name="uni030B" unicode="&#x30b;" 
d="M-244 1147l238 348h158l-248 -348h-148zM72 1147l243 348h164l-266 -348h-141z" />
    <glyph glyph-name="uni030C" unicode="&#x30c;" 
d="M141 1495h152l-232 -348h-133l-231 348h151l146 -215z" />
    <glyph glyph-name="uni0312" unicode="&#x312;" 
d="M-92 1147l47 348h141l-33 -348h-155z" />
    <glyph glyph-name="uni0326" unicode="&#x326;" 
d="M-117 -442l31 342h152l-46 -342h-137z" />
    <glyph glyph-name="uni0327" unicode="&#x327;" 
d="M-88 -391q-118 0 -145 4v115h124q68 0 106 33.5t38 95.5q0 75 -80 161l74 35q69 -35 105 -90.5t36 -122.5q0 -106 -70 -168.5t-188 -62.5z" />
    <glyph glyph-name="uni0328" unicode="&#x328;" 
d="M-131 -387q-111 0 -174.5 45t-63.5 121q0 79 71 153t235 150l59 -82l-100 -61q-69 -44 -93 -71.5t-24 -62.5q0 -75 125 -75h92v-111q-70 -6 -127 -6z" />
    <glyph glyph-name="tonos" unicode="&#x384;" horiz-adv-x="399" 
d="M55 1147l121 348h168l-151 -348h-138z" />
    <glyph glyph-name="dieresistonos" unicode="&#x385;" horiz-adv-x="870" 
d="M301 1147l121 348h168l-152 -348h-137zM158 1219q-42 0 -72.5 29.5t-30.5 70.5t30.5 70.5t72.5 29.5q45 0 74.5 -28.5t29.5 -71.5t-30 -71.5t-74 -28.5zM709 1219q-42 0 -72.5 29t-30.5 71q0 41 30.5 70.5t72.5 29.5q45 0 74.5 -28.5t29.5 -71.5t-29.5 -71.5t-74.5 -28.5
z" />
    <glyph glyph-name="Alphatonos" unicode="&#x386;" horiz-adv-x="1468" 
d="M129 983l31 395h176l-84 -395h-123zM1229 0l-131 350h-623l-131 -350h-170l526 1378h172l525 -1378h-168zM786 1200l-258 -708h519z" />
    <glyph glyph-name="Epsilontonos" unicode="&#x388;" horiz-adv-x="1517" 
d="M129 983l31 395h176l-84 -395h-123zM604 0v1378h795v-145h-635v-440h614v-146h-614v-502h657v-145h-817z" />
    <glyph glyph-name="Etatonos" unicode="&#x389;" horiz-adv-x="1798" 
d="M129 983l31 395h176l-84 -395h-123zM584 0v1378h159v-567h703v567h160v-1378h-160v666h-703v-666h-159z" />
    <glyph glyph-name="Iotatonos" unicode="&#x38a;" horiz-adv-x="935" 
d="M129 983l31 395h176l-84 -395h-123zM584 0v1378h159v-1378h-159z" />
    <glyph glyph-name="Omicrontonos" unicode="&#x38c;" horiz-adv-x="1900" 
d="M129 983l31 395h176l-84 -395h-123zM1083 -23q-199 0 -362 93.5t-256.5 257t-93.5 362.5q0 149 54.5 281t149 226t226.5 149t282 55q149 0 281 -55t226 -149t149 -226t55 -281t-55 -281t-149 -227t-226 -150t-281 -55zM1083 127q154 0 279.5 73t196.5 202.5t71 289.5
q0 239 -157 399t-390 160t-389.5 -160t-156.5 -399q0 -160 71 -289.5t196 -202.5t279 -73z" />
    <glyph glyph-name="Upsilontonos" unicode="&#x38e;" horiz-adv-x="1626" 
d="M129 983l31 395h176l-84 -395h-123zM1546 1378l-461 -786v-592h-159v596l-461 782h184l359 -633l356 633h182z" />
    <glyph glyph-name="Omegatonos" unicode="&#x38f;" horiz-adv-x="1947" 
d="M1815 723q0 -348 -328 -578h313v-145h-573v145q422 193 422 562q0 235 -154.5 389.5t-386.5 154.5q-234 0 -387.5 -153.5t-153.5 -390.5q0 -370 420 -562v-145h-571v145h307q-322 227 -322 578q0 143 54.5 269.5t148 216t224 141t278.5 51.5t279.5 -52t225.5 -141.5
t149 -215.5t55 -269zM129 983l31 395h176l-84 -395h-123z" />
    <glyph glyph-name="iotadieresistonos" unicode="&#x390;" horiz-adv-x="534" 
d="M494 0h-99q-111 0 -169 62t-58 182v753h158v-729q0 -66 27 -97.5t85 -31.5h56v-139zM176 1147l121 348h168l-152 -348h-137zM33 1219q-42 0 -72.5 29.5t-30.5 70.5t30.5 70.5t72.5 29.5q45 0 74.5 -28.5t29.5 -71.5t-30 -71.5t-74 -28.5zM584 1219q-42 0 -72.5 29
t-30.5 71q0 41 30.5 70.5t72.5 29.5q45 0 74.5 -28.5t29.5 -71.5t-29.5 -71.5t-74.5 -28.5z" />
    <glyph glyph-name="Alpha" unicode="&#x391;" horiz-adv-x="1366" 
d="M1126 0l-131 350h-622l-131 -350h-170l526 1378h172l524 -1378h-168zM684 1200l-258 -708h518z" />
    <glyph glyph-name="Beta" unicode="&#x392;" horiz-adv-x="1265" 
d="M948 739q105 -45 161 -135.5t56 -218.5q0 -179 -121.5 -282t-332.5 -103h-516v1378h495q191 0 300.5 -90.5t109.5 -249.5q0 -207 -152 -299zM354 143h344q145 0 223 67.5t78 192.5q0 118 -83.5 185t-229.5 67h-332v-512zM686 1235h-332v-436h324q124 0 191 58t67 163
q0 215 -250 215z" />
    <glyph glyph-name="Gamma" unicode="&#x393;" horiz-adv-x="974" 
d="M195 1378h731v-145h-572v-1233h-159v1378z" />
    <glyph glyph-name="uni0394" unicode="&#x394;" horiz-adv-x="1359" 
d="M770 1378l473 -1239v-139h-1126l2 139l479 1239h172zM684 1204l-391 -1059h782z" />
    <glyph glyph-name="Epsilon" unicode="&#x395;" horiz-adv-x="1107" 
d="M195 0v1378h794v-145h-635v-440h615v-146h-615v-502h658v-145h-817z" />
    <glyph glyph-name="Zeta" unicode="&#x396;" horiz-adv-x="1169" 
d="M289 145h784v-145h-971v139l772 1094h-731v145h922v-141z" />
    <glyph glyph-name="Eta" unicode="&#x397;" horiz-adv-x="1409" 
d="M195 0v1378h159v-567h703v567h160v-1378h-160v666h-703v-666h-159z" />
    <glyph glyph-name="Theta" unicode="&#x398;" horiz-adv-x="1634" 
d="M817 -23q-149 0 -281 55t-227 150t-150 227t-55 281t54.5 281t149 226t227 149t282.5 55q149 0 281 -55t226 -149t149 -226t55 -281t-55 -281t-149 -227t-226 -150t-281 -55zM817 127q154 0 279.5 73t196.5 202.5t71 289.5q0 239 -157 399t-390 160t-390 -160t-157 -399
q0 -160 71 -289.5t196.5 -202.5t279.5 -73zM438 625v145h760v-145h-760z" />
    <glyph glyph-name="Iota" unicode="&#x399;" horiz-adv-x="546" 
d="M195 0v1378h159v-1378h-159z" />
    <glyph glyph-name="Kappa" unicode="&#x39a;" horiz-adv-x="1173" 
d="M1159 0h-201l-604 686v-686h-159v1378h159v-606l574 606h194l-610 -643z" />
    <glyph glyph-name="Lambda" unicode="&#x39b;" horiz-adv-x="1325" 
d="M1255 0h-174l-417 1165l-418 -1165h-174l506 1378h172z" />
    <glyph glyph-name="Mu" unicode="&#x39c;" horiz-adv-x="1728" 
d="M1307 1378h229v-1378h-160v1128l-436 -1128h-149l-437 1128v-1128h-157l-2 1378h227l444 -1161z" />
    <glyph glyph-name="Nu" unicode="&#x39d;" horiz-adv-x="1411" 
d="M1057 1378h162v-1378h-175l-690 1120v-1120h-159v1378h184l678 -1097v1097z" />
    <glyph glyph-name="Xi" unicode="&#x39e;" horiz-adv-x="1210" 
d="M96 1233v145h1020v-145h-1020zM178 647v146h852v-146h-852zM96 0v145h1020v-145h-1020z" />
    <glyph glyph-name="Omicron" unicode="&#x39f;" horiz-adv-x="1634" 
d="M817 -23q-149 0 -281 55t-227 150t-150 227t-55 281t54.5 281t149 226t227 149t282.5 55q149 0 281 -55t226 -149t149 -226t55 -281t-55 -281t-149 -227t-226 -150t-281 -55zM817 127q154 0 279.5 73t196.5 202.5t71 289.5q0 239 -157 399t-390 160t-390 -160t-157 -399
q0 -160 71 -289.5t196.5 -202.5t279.5 -73z" />
    <glyph glyph-name="Pi" unicode="&#x3a0;" horiz-adv-x="1357" 
d="M195 0v1378h970v-1378h-159v1233h-654v-1233h-157z" />
    <glyph glyph-name="Rho" unicode="&#x3a1;" horiz-adv-x="1132" 
d="M195 0v1378h428q201 0 317.5 -108t116.5 -293q0 -188 -117.5 -300t-316.5 -112h-269v-565h-159zM352 713h260q130 0 203.5 69t73.5 193q0 122 -72.5 190t-204.5 68h-260v-520z" />
    <glyph glyph-name="Sigma" unicode="&#x3a3;" horiz-adv-x="1077" 
d="M285 145h714v-145h-901v139l373 555l-373 545v139h877v-145h-690l368 -541z" />
    <glyph glyph-name="Tau" unicode="&#x3a4;" horiz-adv-x="1132" 
d="M479 0v1233h-407v145h987v-145h-420v-1233h-160z" />
    <glyph glyph-name="Upsilon" unicode="&#x3a5;" horiz-adv-x="1241" 
d="M1161 1378l-461 -786v-592h-159v596l-461 782h184l359 -633l356 633h182z" />
    <glyph glyph-name="Phi" unicode="&#x3a6;" horiz-adv-x="1640" 
d="M1536 690q0 -122 -39 -233.5t-115 -203.5t-200.5 -151.5t-282.5 -70.5v-174h-160v174q-126 8 -232 49t-179.5 104.5t-124.5 146t-75 173t-24 186.5t23.5 186.5t74.5 173t124.5 145.5t179.5 104t233 49v174h160v-174q158 -10 282.5 -70t200.5 -152.5t115 -203.5t39 -232z
M899 1198v-1018q118 11 210.5 57.5t148.5 118t85 156.5t29 178t-28.5 178t-85 155.5t-149 117t-210.5 57.5zM268 690q0 -93 28.5 -178t84 -156.5t148 -118t210.5 -57.5v1018q-95 -8 -174 -40.5t-133 -81.5t-91.5 -112t-55 -132t-17.5 -142z" />
    <glyph glyph-name="Chi" unicode="&#x3a7;" horiz-adv-x="1263" 
d="M1194 0h-186l-375 590l-375 -590h-186l460 711l-432 667h185l348 -544l344 544h186l-430 -667z" />
    <glyph glyph-name="Psi" unicode="&#x3a8;" horiz-adv-x="1460" 
d="M651 0v315q-268 0 -416.5 141t-148.5 396v526h160v-524q0 -389 405 -389v958h160v-958q200 0 301.5 98t101.5 291v524h160v-526q0 -255 -147.5 -396t-415.5 -141v-315h-160z" />
    <glyph glyph-name="uni03A9" unicode="&#x3a9;" horiz-adv-x="1679" 
d="M1546 723q0 -349 -327 -578h313v-145h-574v145q422 193 422 562q0 236 -154 390t-386 154q-234 0 -387.5 -153.5t-153.5 -390.5q0 -370 420 -562v-145h-572v145h308q-322 227 -322 578q0 143 54.5 269.5t148 216t224 141t278.5 51.5q198 0 360 -88t255 -243.5t93 -346.5z
" />
    <glyph glyph-name="Iotadieresis" unicode="&#x3aa;" horiz-adv-x="546" 
d="M479 1544q-46 0 -79 32.5t-33 76.5q0 45 32.5 77.5t79.5 32.5q49 0 81 -32t32 -78t-33 -77.5t-80 -31.5zM68 1544q-47 0 -80 31.5t-33 77.5q0 44 33 76t80 32q49 0 80.5 -31t31.5 -77t-32.5 -77.5t-79.5 -31.5zM195 0v1378h159v-1378h-159z" />
    <glyph glyph-name="Upsilondieresis" unicode="&#x3ab;" horiz-adv-x="1241" 
d="M825 1544q-46 0 -79 32.5t-33 76.5q0 45 32.5 77.5t79.5 32.5q49 0 81 -32t32 -78t-33 -77.5t-80 -31.5zM414 1544q-47 0 -80 31.5t-33 77.5q0 44 33 76t80 32q49 0 80.5 -31t31.5 -77t-32.5 -77.5t-79.5 -31.5zM1161 1378l-461 -786v-592h-159v596l-461 782h184
l359 -633l356 633h182z" />
    <glyph glyph-name="alphatonos" unicode="&#x3ac;" horiz-adv-x="1298" 
d="M1200 145h57v-145h-100q-172 0 -207 152q-57 -81 -150.5 -128t-207.5 -47q-207 0 -348.5 148.5t-141.5 372.5q0 221 139.5 371.5t340.5 150.5q117 0 211 -49t149 -135v161h148v-723q0 -66 26.5 -97.5t83.5 -31.5zM604 123q144 0 237 105t93 272t-93 270.5t-237 103.5
q-146 0 -243 -106t-97 -270q0 -163 97 -269t243 -106zM586 1147l121 348h167l-151 -348h-137z" />
    <glyph glyph-name="epsilontonos" unicode="&#x3ad;" horiz-adv-x="995" 
d="M258 530q-54 36 -86.5 93.5t-32.5 124.5t29.5 120.5t79.5 85.5t112.5 49t131.5 17q70 0 135 -17t120 -50t90 -87.5t40 -124.5h-156q-14 64 -78.5 100t-144.5 36t-137.5 -37t-57.5 -105q0 -62 45 -102.5t139 -40.5h164v-139h-164q-116 0 -175.5 -43.5t-59.5 -116.5
q0 -83 71.5 -127.5t168.5 -44.5q56 0 105.5 14.5t91 55t52.5 102.5h158q-5 -79 -42 -141t-95 -99.5t-127.5 -56.5t-145.5 -19q-75 0 -145 19t-127.5 56t-92 98t-34.5 139q0 172 168 241zM436 1147l121 348h168l-152 -348h-137z" />
    <glyph glyph-name="etatonos" unicode="&#x3ae;" horiz-adv-x="1187" 
d="M635 1020q187 0 292 -105.5t105 -287.5v-961h-158v942q0 120 -67.5 193t-177.5 73q-115 0 -189.5 -75t-74.5 -191v-608h-158v727q0 129 -113 129h-55v141h102q145 0 193 -108q54 63 132 97t169 34zM559 1147l121 348h168l-152 -348h-137z" />
    <glyph glyph-name="iotatonos" unicode="&#x3af;" horiz-adv-x="534" 
d="M494 0h-99q-111 0 -169 62t-58 182v753h158v-729q0 -66 27 -97.5t85 -31.5h56v-139zM180 1147l121 348h168l-152 -348h-137z" />
    <glyph glyph-name="upsilondieresistonos" unicode="&#x3b0;" horiz-adv-x="1142" 
d="M573 -23q-211 0 -314 113.5t-103 345.5v561h157v-569q0 -158 72.5 -231.5t202.5 -73.5q137 0 213 86t76 252q0 127 -35 271.5t-84 264.5h157q119 -275 119 -526q0 -236 -122 -365t-339 -129zM469 1147l121 348h168l-152 -348h-137zM326 1219q-42 0 -72.5 29.5t-30.5 70.5
t30.5 70.5t72.5 29.5q45 0 74.5 -28.5t29.5 -71.5t-30 -71.5t-74 -28.5zM877 1219q-42 0 -72.5 29t-30.5 71q0 41 30.5 70.5t72.5 29.5q45 0 74.5 -28.5t29.5 -71.5t-29.5 -71.5t-74.5 -28.5z" />
    <glyph glyph-name="alpha" unicode="&#x3b1;" horiz-adv-x="1298" 
d="M1200 145h57v-145h-100q-172 0 -207 152q-57 -81 -150.5 -128t-207.5 -47q-207 0 -348.5 148.5t-141.5 372.5q0 221 139.5 371.5t340.5 150.5q117 0 211 -49t149 -135v161h148v-723q0 -66 26.5 -97.5t83.5 -31.5zM604 123q144 0 237 105t93 272t-93 270.5t-237 103.5
q-146 0 -243 -106t-97 -270q0 -163 97 -269t243 -106z" />
    <glyph glyph-name="beta" unicode="&#x3b2;" horiz-adv-x="1185" 
d="M856 739q110 -48 170.5 -138.5t60.5 -211.5q0 -181 -123.5 -296.5t-320.5 -115.5q-182 0 -317 99v-410h-158l2 1274q0 214 116.5 337.5t315.5 123.5q185 0 301.5 -104.5t116.5 -266.5q0 -91 -43.5 -167t-120.5 -124zM639 123q128 0 207.5 75t79.5 191q0 121 -91.5 195.5
t-244.5 74.5h-72v140h62q130 0 204 63t74 166q0 99 -72.5 163t-187.5 64q-126 0 -200 -82t-74 -223l2 -710q135 -117 313 -117z" />
    <glyph glyph-name="gamma" unicode="&#x3b3;" horiz-adv-x="1038" 
d="M795 997h157q0 -135 -37 -267.5t-131 -328.5l-196 -417v-318h-158v320l-385 1011h168l303 -827l137 297q82 174 112 287.5t30 242.5z" />
    <glyph glyph-name="delta" unicode="&#x3b4;" horiz-adv-x="1183" 
d="M420 1239l428 -348q122 -98 179.5 -201.5t57.5 -232.5q0 -212 -137 -346t-354 -134q-216 0 -357 134t-141 342q0 109 42 201t109.5 150t149 90t164.5 32h17l-390 319v133h816v-139h-584zM596 123q137 0 232.5 97.5t95.5 238.5q0 138 -94 229.5t-234 91.5
q-141 0 -239.5 -92.5t-98.5 -234.5q0 -139 94 -234.5t244 -95.5z" />
    <glyph glyph-name="epsilon" unicode="&#x3b5;" horiz-adv-x="995" 
d="M258 530q-54 36 -86.5 93.5t-32.5 124.5t29.5 120.5t79.5 85.5t112.5 49t131.5 17q70 0 135 -17t120 -50t90 -87.5t40 -124.5h-156q-14 64 -78.5 100t-144.5 36t-137.5 -37t-57.5 -105q0 -62 45 -102.5t139 -40.5h164v-139h-164q-116 0 -175.5 -43.5t-59.5 -116.5
q0 -83 71.5 -127.5t168.5 -44.5q56 0 105.5 14.5t91 55t52.5 102.5h158q-5 -79 -42 -141t-95 -99.5t-127.5 -56.5t-145.5 -19q-75 0 -145 19t-127.5 56t-92 98t-34.5 139q0 172 168 241z" />
    <glyph glyph-name="zeta" unicode="&#x3b6;" horiz-adv-x="874" 
d="M831 1237l-276 -295q-167 -178 -235 -295.5t-68 -230.5q0 -115 90 -191.5t252 -99.5l235 -37v-422h-157v303l-78 11q-237 35 -367.5 149t-130.5 287q0 126 79 265t271 351l183 201h-459v145h661v-141z" />
    <glyph glyph-name="eta" unicode="&#x3b7;" horiz-adv-x="1187" 
d="M635 1020q187 0 292 -105.5t105 -287.5v-961h-158v942q0 120 -67.5 193t-177.5 73q-115 0 -189.5 -75t-74.5 -191v-608h-158v727q0 129 -113 129h-55v141h102q145 0 193 -108q54 63 132 97t169 34z" />
    <glyph glyph-name="theta" unicode="&#x3b8;" horiz-adv-x="1251" 
d="M625 1401q233 0 357 -182.5t124 -526.5q0 -345 -124.5 -530t-356.5 -185q-231 0 -356.5 185t-125.5 530q0 343 125 526t357 183zM625 1255q-140 0 -222.5 -122.5t-95.5 -352.5h635q-13 230 -95 352.5t-222 122.5zM625 123q145 0 228.5 133.5t90.5 384.5h-639
q7 -251 90.5 -384.5t229.5 -133.5z" />
    <glyph glyph-name="iota" unicode="&#x3b9;" horiz-adv-x="534" 
d="M494 0h-99q-111 0 -169 62t-58 182v753h158v-729q0 -66 27 -97.5t85 -31.5h56v-139z" />
    <glyph glyph-name="kappa" unicode="&#x3ba;" horiz-adv-x="956" 
d="M973 0h-205l-442 496v-496h-158v997h158v-422l405 422h199l-445 -462z" />
    <glyph glyph-name="lambda" unicode="&#x3bb;" horiz-adv-x="1067" 
d="M979 139h39v-139h-78q-74 0 -124.5 41t-82.5 129l-203 535l-286 -705h-168l375 920l-72 186q-27 71 -68.5 102t-105.5 31h-33v139h61q105 0 173 -48t110 -159l356 -948q19 -47 43 -65.5t64 -18.5z" />
    <glyph glyph-name="uni03BC" unicode="&#x3bc;" horiz-adv-x="1200" 
d="M1102 139h59v-139h-94q-145 0 -199 111q-99 -129 -288 -129q-167 0 -261 94v-410h-151v1331h158v-606q0 -122 67.5 -193t184.5 -71q110 0 181.5 74t71.5 188v608h158v-729q0 -129 113 -129z" />
    <glyph glyph-name="nu" unicode="&#x3bd;" horiz-adv-x="1038" 
d="M795 997h157q0 -139 -37.5 -272t-130.5 -324l-188 -401h-172l-379 997h168l303 -829l137 299q83 179 112.5 290.5t29.5 239.5z" />
    <glyph glyph-name="xi" unicode="&#x3be;" horiz-adv-x="997" 
d="M252 399q0 -124 91.5 -187t281.5 -91l243 -33v-422h-157v301l-111 15q-510 69 -510 413q0 112 64 200t178 140q-89 44 -138 122.5t-49 176.5q0 155 117.5 261t288.5 106q160 0 269.5 -85.5t135.5 -230.5h-159q-28 84 -90.5 129.5t-151.5 45.5q-106 0 -177 -64.5
t-71 -161.5q0 -106 80.5 -176t204.5 -70h188v-139h-200q-158 0 -243 -66.5t-85 -183.5z" />
    <glyph glyph-name="omicron" unicode="&#x3bf;" horiz-adv-x="1236" 
d="M618 -23q-144 0 -264 69t-189 189.5t-69 264.5q0 220 150.5 370t371.5 150q143 0 263 -68.5t189 -188t69 -263.5t-69 -264.5t-189 -189.5t-263 -69zM618 123q155 0 257 107.5t102 269.5q0 161 -102 267.5t-257 106.5t-257.5 -106.5t-102.5 -267.5q0 -162 102.5 -269.5
t257.5 -107.5z" />
    <glyph glyph-name="pi" unicode="&#x3c0;" horiz-adv-x="1275" 
d="M227 0v856h-192v141h1182v-141h-195v-586q0 -131 113 -131h57v-139h-94q-113 0 -173.5 63t-60.5 181v612h-479v-856h-158z" />
    <glyph glyph-name="rho" unicode="&#x3c1;" horiz-adv-x="1300" 
d="M674 1020q226 0 375 -148t149 -372q0 -221 -144 -372t-358 -151q-116 0 -216.5 43.5t-166.5 118.5v-473h-157v813q0 239 146.5 390t371.5 151zM678 123q153 0 255.5 107.5t102.5 269.5q0 161 -102 267.5t-256 106.5t-259.5 -105t-105.5 -269q0 -165 106 -271t259 -106z
" />
    <glyph glyph-name="uni03C2" unicode="&#x3c2;" horiz-adv-x="1150" 
d="M258 506q0 -82 27 -147t69.5 -106t104.5 -71t121.5 -44.5t132.5 -24.5l225 -31v-416h-158v293l-86 12q-98 14 -178.5 36t-161 62.5t-135.5 96t-89 139.5t-34 189q0 144 63.5 264.5t178 191t256.5 70.5q182 0 304.5 -102.5t156.5 -274.5h-160q-31 114 -110.5 172.5
t-190.5 58.5q-149 0 -242.5 -106.5t-93.5 -261.5z" />
    <glyph glyph-name="sigma" unicode="&#x3c3;" horiz-adv-x="1294" 
d="M1274 997v-141h-309q84 -64 131 -157t47 -201q0 -146 -69 -265.5t-190 -187.5t-268 -68q-221 0 -370.5 148.5t-149.5 368.5q0 222 152.5 362.5t406.5 140.5h619zM618 123q157 0 260 107t103 268q0 151 -102.5 252.5t-257.5 101.5t-259 -102t-104 -254q0 -160 103 -266.5
t257 -106.5z" />
    <glyph glyph-name="tau" unicode="&#x3c4;" horiz-adv-x="917" 
d="M870 856h-387v-541q0 -92 44.5 -134t142.5 -42h137v-139h-158q-164 0 -243.5 73t-79.5 222v561h-330v141h874v-141z" />
    <glyph glyph-name="upsilon" unicode="&#x3c5;" horiz-adv-x="1142" 
d="M573 -23q-211 0 -314 113.5t-103 345.5v561h157v-569q0 -158 72.5 -231.5t202.5 -73.5q137 0 213 86t76 252q0 127 -35 271.5t-84 264.5h157q119 -275 119 -526q0 -236 -122 -365t-339 -129z" />
    <glyph glyph-name="phi" unicode="&#x3c6;" horiz-adv-x="1447" 
d="M645 -334v320q-243 0 -396 143.5t-153 370.5q0 224 154.5 368t394.5 144v366h158v-366q242 0 395.5 -143t153.5 -369q0 -227 -153 -370.5t-396 -143.5v-320h-158zM645 119v758q-182 -6 -285.5 -106.5t-103.5 -270.5q0 -172 104 -274.5t285 -106.5zM803 877v-758
q180 4 284.5 106.5t104.5 274.5q0 169 -104.5 270t-284.5 107z" />
    <glyph glyph-name="chi" unicode="&#x3c7;" horiz-adv-x="1019" 
d="M971 -195h41v-139h-82q-80 0 -127 28t-84 97l-213 395l-318 -520h-168l406 670l-231 455q-19 36 -45 50.5t-72 14.5h-49v141h92q78 0 124.5 -28.5t78.5 -94.5l194 -397l313 520h168l-399 -663l246 -457q23 -42 49.5 -57t75.5 -15z" />
    <glyph glyph-name="psi" unicode="&#x3c8;" horiz-adv-x="1513" 
d="M692 -334v311q-249 0 -392.5 135.5t-143.5 368.5v516h157v-505q0 -172 101 -271.5t278 -99.5v1186h158v-1186q190 0 293.5 97t103.5 276q0 220 -119 503h158q119 -272 119 -495q0 -249 -146 -387t-409 -138v-311h-158z" />
    <glyph glyph-name="omega" unicode="&#x3c9;" horiz-adv-x="1581" 
d="M1112 997h180q88 -93 135.5 -227t47.5 -293q0 -235 -99.5 -367.5t-279.5 -132.5q-109 0 -187 48t-118 139q-41 -91 -120 -139t-188 -48q-178 0 -277.5 132.5t-99.5 367.5q0 155 48 290t137 230h182q-98 -104 -152.5 -241.5t-54.5 -282.5q0 -165 60.5 -257.5t167.5 -92.5
q98 0 157.5 76.5t59.5 201.5v400h157v-400q0 -125 60.5 -201.5t158.5 -76.5q107 0 167.5 92.5t60.5 257.5q0 152 -53 289t-150 235z" />
    <glyph glyph-name="iotadieresis" unicode="&#x3ca;" horiz-adv-x="534" 
d="M494 0h-99q-111 0 -169 62t-58 182v753h158v-729q0 -66 27 -97.5t85 -31.5h56v-139zM57 1233q-43 0 -73.5 30.5t-30.5 73.5q0 41 30.5 72t73.5 31q47 0 77 -30t30 -73t-31 -73.5t-76 -30.5zM436 1233q-43 0 -73.5 30.5t-30.5 73.5q0 42 30 72.5t74 30.5q47 0 77 -30
t30 -73t-31 -73.5t-76 -30.5z" />
    <glyph glyph-name="upsilondieresis" unicode="&#x3cb;" horiz-adv-x="1142" 
d="M573 -23q-211 0 -314 113.5t-103 345.5v561h157v-569q0 -158 72.5 -231.5t202.5 -73.5q137 0 213 86t76 252q0 127 -35 271.5t-84 264.5h157q119 -275 119 -526q0 -236 -122 -365t-339 -129zM350 1233q-43 0 -73.5 30.5t-30.5 73.5q0 41 31 72t73 31q47 0 77 -30t30 -73
t-31 -73.5t-76 -30.5zM729 1233q-43 0 -73.5 30.5t-30.5 73.5q0 42 30 72.5t74 30.5q47 0 77 -30t30 -73t-31 -73.5t-76 -30.5z" />
    <glyph glyph-name="omicrontonos" unicode="&#x3cc;" horiz-adv-x="1236" 
d="M545 1147l121 348h168l-152 -348h-137zM618 -23q-144 0 -264 69t-189 189.5t-69 264.5q0 220 150.5 370t371.5 150q143 0 263 -68.5t189 -188t69 -263.5t-69 -264.5t-189 -189.5t-263 -69zM618 123q155 0 257 107.5t102 269.5q0 161 -102 267.5t-257 106.5t-257.5 -106.5
t-102.5 -267.5q0 -162 102.5 -269.5t257.5 -107.5z" />
    <glyph glyph-name="upsilontonos" unicode="&#x3cd;" horiz-adv-x="1142" 
d="M573 -23q-211 0 -314 113.5t-103 345.5v561h157v-569q0 -158 72.5 -231.5t202.5 -73.5q137 0 213 86t76 252q0 127 -35 271.5t-84 264.5h157q119 -275 119 -526q0 -236 -122 -365t-339 -129zM473 1147l121 348h168l-152 -348h-137z" />
    <glyph glyph-name="omegatonos" unicode="&#x3ce;" horiz-adv-x="1581" 
d="M1112 997h180q88 -93 135.5 -227t47.5 -293q0 -235 -99.5 -367.5t-279.5 -132.5q-109 0 -187 48t-118 139q-41 -91 -120 -139t-188 -48q-178 0 -277.5 132.5t-99.5 367.5q0 155 48 290t137 230h182q-98 -104 -152.5 -241.5t-54.5 -282.5q0 -165 60.5 -257.5t167.5 -92.5
q98 0 157.5 76.5t59.5 201.5v400h157v-400q0 -125 60.5 -201.5t158.5 -76.5q107 0 167.5 92.5t60.5 257.5q0 152 -53 289t-150 235zM725 1147l121 348h168l-152 -348h-137z" />
    <glyph glyph-name="uni0400" unicode="&#x400;" horiz-adv-x="1107" 
d="M195 0v1378h794v-145h-635v-440h615v-146h-615v-502h658v-145h-817zM547 1503l-228 344h191l192 -344h-155z" />
    <glyph glyph-name="uni0401" unicode="&#x401;" horiz-adv-x="1107" 
d="M195 0v1378h794v-145h-635v-440h615v-146h-615v-502h658v-145h-817zM821 1544q-46 0 -79 32.5t-33 76.5q0 45 32.5 77.5t79.5 32.5q49 0 81 -32t32 -78t-33 -77.5t-80 -31.5zM410 1544q-47 0 -80 31.5t-33 77.5q0 44 33 76t80 32q49 0 80.5 -31t31.5 -77t-32.5 -77.5
t-79.5 -31.5z" />
    <glyph glyph-name="uni0402" unicode="&#x402;" horiz-adv-x="1400" 
d="M823 844q222 0 352 -115.5t130 -312.5q0 -209 -142 -320t-405 -108v147q381 0 381 281q0 133 -84.5 205.5t-239.5 72.5q-147 0 -295 -59v-635h-160v1233h-288v145h850v-145h-402v-445q148 56 303 56z" />
    <glyph glyph-name="uni0403" unicode="&#x403;" horiz-adv-x="974" 
d="M195 1378h731v-145h-572v-1233h-159v1378zM434 1503l193 344h192l-229 -344h-156z" />
    <glyph glyph-name="uni0404" unicode="&#x404;" horiz-adv-x="1593" 
d="M815 127q187 0 321.5 99.5t178.5 269.5h172q-44 -236 -228.5 -377.5t-445.5 -141.5q-152 0 -283.5 54t-225 147.5t-147 225.5t-53.5 284t54 284.5t147.5 226.5t225 148t282.5 54q261 0 445.5 -141t228.5 -375h-172q-43 168 -178.5 267t-323.5 99q-208 0 -358 -132.5
t-179 -338.5h748v-145h-752q19 -221 171.5 -364.5t371.5 -143.5z" />
    <glyph glyph-name="uni0405" unicode="&#x405;" horiz-adv-x="1110" 
d="M559 -23q-207 0 -334.5 116.5t-136.5 314.5h162q8 -129 92.5 -209t214.5 -80q135 0 215 64t80 173q0 85 -46 137.5t-159 96.5l-198 76q-159 61 -231.5 153t-72.5 230q0 157 117 254.5t305 97.5q190 0 304 -101t126 -278h-161q-8 111 -78.5 174.5t-190.5 63.5
q-117 0 -188.5 -56.5t-71.5 -150.5q0 -90 48.5 -148t160.5 -102l203 -78q156 -60 225.5 -145.5t69.5 -217.5q0 -177 -123.5 -281t-331.5 -104z" />
    <glyph glyph-name="uni0406" unicode="&#x406;" horiz-adv-x="546" 
d="M195 0v1378h159v-1378h-159z" />
    <glyph glyph-name="uni0407" unicode="&#x407;" horiz-adv-x="546" 
d="M463 1544q-46 0 -79.5 32.5t-33.5 76.5q0 45 33 77.5t80 32.5q49 0 80.5 -32t31.5 -78t-32.5 -77.5t-79.5 -31.5zM51 1544q-47 0 -79.5 31.5t-32.5 77.5q0 45 32.5 76.5t79.5 31.5q49 0 81 -31t32 -77t-33 -77.5t-80 -31.5zM195 0v1378h159v-1378h-159z" />
    <glyph glyph-name="uni0408" unicode="&#x408;" horiz-adv-x="731" 
d="M33 0v145h137q106 0 157.5 47.5t51.5 145.5v1040h160v-1052q0 -158 -89.5 -242t-256.5 -84h-160z" />
    <glyph glyph-name="uni0409" unicode="&#x409;" horiz-adv-x="1841" 
d="M-14 -8v153q71 0 122.5 29.5t84.5 83t52.5 139.5t27.5 187t8 237v557h743v-540h295q196 0 311 -113t115 -305t-115.5 -306t-310.5 -114h-455v1233h-424v-414q0 -203 -23 -351t-75 -257.5t-140.5 -164t-215.5 -54.5zM1022 145h287q125 0 197.5 73.5t72.5 199.5
q0 129 -72 201.5t-198 72.5h-287v-547z" />
    <glyph glyph-name="uni040A" unicode="&#x40a;" horiz-adv-x="2058" 
d="M195 0v1378h159v-547h666v547h162v-547h354q196 0 311 -112t115 -301q0 -195 -113.5 -306.5t-312.5 -111.5h-516v686h-666v-686h-159zM1180 145h344q130 0 201 71t71 200q0 127 -72 198.5t-200 71.5h-344v-541z" />
    <glyph glyph-name="uni040B" unicode="&#x40b;" horiz-adv-x="1409" 
d="M799 844q237 0 365 -127.5t128 -360.5v-356h-159v348q0 346 -334 346q-137 0 -279 -53v-641h-160v1233h-288v145h850v-145h-402v-438q134 49 279 49z" />
    <glyph glyph-name="uni040C" unicode="&#x40c;" horiz-adv-x="1173" 
d="M518 1503l193 344h192l-229 -344h-156zM1159 0h-201l-604 686v-686h-159v1378h159v-606l574 606h194l-610 -643z" />
    <glyph glyph-name="uni040D" unicode="&#x40d;" horiz-adv-x="1411" 
d="M1051 1378h168v-1378h-160v1135l-709 -1135h-155v1378h159v-1110zM635 1503l-227 344h190l193 -344h-156z" />
    <glyph glyph-name="uni040E" unicode="&#x40e;" horiz-adv-x="1230" 
d="M1012 1378h170l-641 -1378h-170l202 426l-516 952h185l413 -780zM637 1507q-149 0 -251.5 95.5t-102.5 228.5h133q0 -82 64 -140.5t157 -58.5t156 58t63 141h135q0 -133 -102.5 -228.5t-251.5 -95.5z" />
    <glyph glyph-name="uni040F" unicode="&#x40f;" horiz-adv-x="1363" 
d="M1169 1378v-1378h-411v-256h-150v256h-413v1378h159v-1233h656v1233h159z" />
    <glyph glyph-name="uni0410" unicode="&#x410;" horiz-adv-x="1366" 
d="M1126 0l-131 350h-622l-131 -350h-170l526 1378h172l524 -1378h-168zM684 1200l-258 -708h518z" />
    <glyph glyph-name="uni0411" unicode="&#x411;" horiz-adv-x="1236" 
d="M195 0v1378h843v-145h-684v-373h355q196 0 313 -116.5t117 -315.5q0 -192 -120 -310t-310 -118h-514zM354 145h346q130 0 201.5 73t71.5 210q0 142 -70 214.5t-203 72.5h-346v-570z" />
    <glyph glyph-name="uni0412" unicode="&#x412;" horiz-adv-x="1265" 
d="M948 739q105 -45 161 -135.5t56 -218.5q0 -179 -121.5 -282t-332.5 -103h-516v1378h495q191 0 300.5 -90.5t109.5 -249.5q0 -207 -152 -299zM354 143h344q145 0 223 67.5t78 192.5q0 118 -83.5 185t-229.5 67h-332v-512zM686 1235h-332v-436h324q124 0 191 58t67 163
q0 215 -250 215z" />
    <glyph glyph-name="uni0413" unicode="&#x413;" horiz-adv-x="974" 
d="M195 1378h731v-145h-572v-1233h-159v1378z" />
    <glyph glyph-name="uni0414" unicode="&#x414;" horiz-adv-x="1370" 
d="M1143 145h174v-401h-150v256h-972v-256h-150v401h23q128 0 201 175.5t73 506.5v551h801v-1233zM502 1233v-406q0 -507 -172 -682h653v1088h-481z" />
    <glyph glyph-name="uni0415" unicode="&#x415;" horiz-adv-x="1107" 
d="M195 0v1378h794v-145h-635v-440h615v-146h-615v-502h658v-145h-817z" />
    <glyph glyph-name="uni0416" unicode="&#x416;" horiz-adv-x="1703" 
d="M1692 0h-199l-559 696v-696h-160v700l-561 -700h-199l598 731l-563 647h197l528 -618v618h160v-614l528 614h197l-565 -643z" />
    <glyph glyph-name="uni0417" unicode="&#x417;" horiz-adv-x="1120" 
d="M805 735q115 -49 171 -143t56 -219q0 -79 -30.5 -150t-87.5 -126t-145.5 -87.5t-197.5 -32.5q-210 0 -331.5 115.5t-130.5 315.5h161q9 -135 89 -212t214 -77q136 0 217.5 74t81.5 184q0 50 -18 97t-54.5 88t-101 66t-147.5 25h-141v146h139q69 0 121.5 20t82 53.5t44 72
t14.5 79.5q0 97 -71 166.5t-195 69.5q-115 0 -184.5 -63.5t-77.5 -174.5h-162q12 177 126 278t300 101q102 0 184.5 -32t133.5 -84.5t78.5 -117.5t27.5 -135q0 -96 -42.5 -173t-123.5 -124z" />
    <glyph glyph-name="uni0418" unicode="&#x418;" horiz-adv-x="1411" 
d="M1051 1378h168v-1378h-160v1135l-709 -1135h-155v1378h159v-1110z" />
    <glyph glyph-name="uni0419" unicode="&#x419;" horiz-adv-x="1411" 
d="M1051 1378h168v-1378h-160v1135l-709 -1135h-155v1378h159v-1110zM705 1507q-167 0 -268 85.5t-101 238.5h133q0 -91 64.5 -145t171.5 -54t170 54t63 145h135q0 -154 -100.5 -239t-267.5 -85z" />
    <glyph glyph-name="uni041A" unicode="&#x41a;" horiz-adv-x="1173" 
d="M1159 0h-201l-604 686v-686h-159v1378h159v-606l574 606h194l-610 -643z" />
    <glyph glyph-name="uni041B" unicode="&#x41b;" horiz-adv-x="1261" 
d="M-14 -8v153q59 0 103.5 19.5t74.5 61.5t49 95.5t29.5 134.5t14 164t3.5 199v559h809v-1376h-160v1231h-489v-416q0 -162 -12 -285t-42 -227.5t-78.5 -171.5t-124 -104t-177.5 -37z" />
    <glyph glyph-name="uni041C" unicode="&#x41c;" horiz-adv-x="1728" 
d="M1307 1378h229v-1378h-160v1128l-436 -1128h-149l-437 1128v-1128h-157l-2 1378h227l444 -1161z" />
    <glyph glyph-name="uni041D" unicode="&#x41d;" horiz-adv-x="1409" 
d="M195 0v1378h159v-567h703v567h160v-1378h-160v666h-703v-666h-159z" />
    <glyph glyph-name="uni041E" unicode="&#x41e;" horiz-adv-x="1634" 
d="M817 -23q-149 0 -281 55t-227 150t-150 227t-55 281t54.5 281t149 226t227 149t282.5 55q149 0 281 -55t226 -149t149 -226t55 -281t-55 -281t-149 -227t-226 -150t-281 -55zM817 127q154 0 279.5 73t196.5 202.5t71 289.5q0 239 -157 399t-390 160t-390 -160t-157 -399
q0 -160 71 -289.5t196.5 -202.5t279.5 -73z" />
    <glyph glyph-name="uni041F" unicode="&#x41f;" horiz-adv-x="1357" 
d="M195 0v1378h970v-1378h-161v1233h-646v-1233h-163z" />
    <glyph glyph-name="uni0420" unicode="&#x420;" horiz-adv-x="1132" 
d="M195 0v1378h428q201 0 317.5 -108t116.5 -293q0 -188 -117.5 -300t-316.5 -112h-269v-565h-159zM352 713h260q130 0 203.5 69t73.5 193q0 122 -72.5 190t-204.5 68h-260v-520z" />
    <glyph glyph-name="uni0421" unicode="&#x421;" horiz-adv-x="1593" 
d="M817 -23q-151 0 -283.5 54.5t-226.5 148.5t-148.5 226.5t-54.5 283.5q0 149 54.5 281t149 226t227 149t282.5 55q258 0 442 -141.5t228 -374.5h-172q-43 167 -178 266.5t-318 99.5q-152 0 -278 -73.5t-198.5 -202.5t-72.5 -285q0 -239 158 -401t391 -162q183 0 317.5 100
t178.5 269h172q-44 -235 -228 -377t-442 -142z" />
    <glyph glyph-name="uni0422" unicode="&#x422;" horiz-adv-x="1132" 
d="M479 0v1233h-407v145h987v-145h-420v-1233h-160z" />
    <glyph glyph-name="uni0423" unicode="&#x423;" horiz-adv-x="1230" 
d="M1012 1378h170l-641 -1378h-170l202 426l-516 952h185l413 -780z" />
    <glyph glyph-name="uni0424" unicode="&#x424;" horiz-adv-x="1644" 
d="M1538 719q0 -257 -171 -409t-466 -156v-154h-160v154q-293 3 -465 155.5t-172 409.5q0 252 172.5 403t464.5 154v102h160v-102q295 -5 466 -154.5t171 -402.5zM270 715q0 -194 123.5 -303.5t347.5 -112.5v831q-222 -3 -346.5 -113t-124.5 -302zM901 1130v-831
q224 4 347.5 113t123.5 303q0 193 -123.5 301.5t-347.5 113.5z" />
    <glyph glyph-name="uni0425" unicode="&#x425;" horiz-adv-x="1263" 
d="M1194 0h-186l-375 590l-375 -590h-186l460 711l-432 667h185l348 -544l344 544h186l-430 -667z" />
    <glyph glyph-name="uni0426" unicode="&#x426;" horiz-adv-x="1376" 
d="M1174 -256v256h-979v1378h159v-1233h637v1233h160v-1233h172v-401h-149z" />
    <glyph glyph-name="uni0427" unicode="&#x427;" horiz-adv-x="1241" 
d="M889 1378h160v-1378h-160v565q-133 -49 -281 -49q-493 0 -493 506v356h159v-348q0 -188 86 -276t269 -88q136 0 260 51v661z" />
    <glyph glyph-name="uni0428" unicode="&#x428;" horiz-adv-x="1873" 
d="M195 0v1378h163v-1233h500v1233h164v-1233h498v1233h161v-1378h-1486z" />
    <glyph glyph-name="uni0429" unicode="&#x429;" horiz-adv-x="1908" 
d="M1698 -256v256h-1503v1378h163v-1233h500v1233h164v-1233h498v1233h161v-1233h174v-401h-157z" />
    <glyph glyph-name="uni042A" unicode="&#x42a;" horiz-adv-x="1275" 
d="M279 0v1233h-308v145h467v-540h305q197 0 317 -114.5t120 -303.5q0 -190 -120 -305t-317 -115h-464zM436 145h297q129 0 205 74t76 199q0 127 -76 200.5t-205 73.5h-297v-547z" />
    <glyph glyph-name="uni042B" unicode="&#x42b;" horiz-adv-x="1624" 
d="M195 0v1378h159v-540h308q198 0 317 -114.5t119 -303.5q0 -191 -119 -305.5t-317 -114.5h-467zM352 145h299q129 0 205 74t76 199q0 127 -76 200.5t-205 73.5h-299v-547zM1272 0v1378h160v-1378h-160z" />
    <glyph glyph-name="uni042C" unicode="&#x42c;" horiz-adv-x="1193" 
d="M195 0v1378h159v-540h308q198 0 317 -114.5t119 -303.5q0 -191 -119 -305.5t-317 -114.5h-467zM352 145h299q129 0 205 74t76 199q0 127 -76 200.5t-205 73.5h-299v-547z" />
    <glyph glyph-name="uni042D" unicode="&#x42d;" horiz-adv-x="1593" 
d="M778 127q219 0 371.5 143.5t171.5 364.5h-752v145h748q-29 206 -179 338.5t-358 132.5q-188 0 -323 -98.5t-178 -267.5h-173q44 234 228.5 375t445.5 141q151 0 282.5 -54t225 -148t147.5 -226.5t54 -284.5t-53.5 -284t-147 -225.5t-225 -147.5t-283.5 -54
q-261 0 -445.5 141.5t-228.5 377.5h173q44 -171 178 -270t321 -99z" />
    <glyph glyph-name="uni042E" unicode="&#x42e;" horiz-adv-x="2158" 
d="M1339 -23q-141 0 -267 49t-219 134.5t-152.5 205.5t-71.5 257h-275v-623h-159v1378h159v-610h277q18 181 114 325t251.5 226t342.5 82q149 0 281 -55t226 -149t149 -226t55 -281t-55 -281t-149 -227t-226 -150t-281 -55zM1339 127q154 0 279.5 73t196.5 202.5t71 289.5
q0 239 -157 399t-390 160t-389.5 -160t-156.5 -399q0 -160 71 -289.5t196 -202.5t279 -73z" />
    <glyph glyph-name="uni042F" unicode="&#x42f;" horiz-adv-x="1216" 
d="M541 1378h481v-1378h-160v547h-200l-398 -547h-192l399 551q-179 19 -277 129.5t-98 284.5q0 192 119 302.5t326 110.5zM864 690v545h-317q-135 0 -209 -71t-74 -201q0 -129 74 -201t209 -72h317z" />
    <glyph glyph-name="uni0430" unicode="&#x430;" horiz-adv-x="1085" 
d="M535 1020q182 0 287.5 -102t105.5 -281v-637h-150v121q-56 -69 -142.5 -106.5t-193.5 -37.5q-160 0 -253 79t-93 214q0 136 94.5 212.5t262.5 76.5h319v78q0 113 -64.5 175t-179.5 62q-95 0 -153 -42t-70 -117h-158q12 138 118 221.5t270 83.5zM457 111q134 0 224.5 78
t90.5 198v43h-291q-223 0 -223 -158q0 -78 51.5 -119.5t147.5 -41.5z" />
    <glyph glyph-name="uni0431" unicode="&#x431;" horiz-adv-x="1210" 
d="M647 926q196 0 330.5 -132.5t134.5 -332.5q0 -206 -143 -345t-353 -139q-219 0 -360 151t-141 392v96q0 139 20 242t59.5 179t106.5 131.5t152 93.5t206 71l371 103v-150l-348 -94q-105 -28 -175 -61t-124 -83.5t-82 -121.5t-37 -172q70 80 171 126t212 46zM621 123
q142 0 235.5 102t93.5 240q0 136 -92.5 225.5t-230.5 89.5q-143 0 -247 -92.5t-104 -230.5q0 -137 102.5 -235.5t242.5 -98.5z" />
    <glyph glyph-name="uni0432" unicode="&#x432;" horiz-adv-x="1105" 
d="M829 532q82 -32 125 -94t43 -145q0 -131 -95 -212t-249 -81h-471v997h430q145 0 231.5 -70t86.5 -188q0 -132 -101 -207zM340 856v-266h274q78 0 121 35.5t43 99.5t-42 97.5t-122 33.5h-274zM340 139h313q95 0 145 42t50 120q0 150 -195 150h-313v-312z" />
    <glyph glyph-name="uni0433" unicode="&#x433;" horiz-adv-x="817" 
d="M182 0v997h627v-143h-469v-854h-158z" />
    <glyph glyph-name="uni0434" unicode="&#x434;" horiz-adv-x="1198" 
d="M963 135h163v-391h-147v256h-793v-256h-147v391h37q112 0 152 107t40 362v393h695v-862zM426 856v-258q0 -183 -22 -293t-80 -170h481v721h-379z" />
    <glyph glyph-name="uni0435" unicode="&#x435;" horiz-adv-x="1189" 
d="M600 1020q151 0 267 -73.5t175 -203.5t48 -292h-830q15 -150 111 -239t243 -89q200 0 283 149h168q-56 -141 -174 -218t-279 -77q-144 0 -262.5 68t-186 187.5t-67.5 265.5q0 145 66 265t182 188.5t256 68.5zM598 874q-125 0 -216 -79.5t-116 -206.5h656
q-9 129 -98 207.5t-226 78.5z" />
    <glyph glyph-name="uni0436" unicode="&#x436;" horiz-adv-x="1363" 
d="M1380 0h-188l-430 479v-479h-158v479l-430 -479h-188l469 518l-437 479h185l401 -448v448h158v-448l403 448h187l-441 -477z" />
    <glyph glyph-name="uni0437" unicode="&#x437;" horiz-adv-x="995" 
d="M737 530q168 -69 168 -241q0 -78 -34.5 -139t-92 -98t-127.5 -56t-145 -19q-76 0 -145.5 19t-127.5 56.5t-95 99.5t-42 141h158q11 -62 53 -102.5t91.5 -55t105.5 -14.5q97 0 168 44.5t71 127.5q0 73 -59.5 116.5t-175.5 43.5h-164v139h164q94 0 139 40.5t45 102.5
q0 68 -57 105t-137 37t-145 -36t-79 -100h-155q5 70 40 124.5t90 87.5t120 50t135 17q94 0 171.5 -28t129 -91.5t51.5 -152.5q0 -67 -32.5 -124.5t-86.5 -93.5z" />
    <glyph glyph-name="uni0438" unicode="&#x438;" horiz-adv-x="1214" 
d="M881 1012h149v-1012h-158v772l-542 -786h-148v1011h158v-770z" />
    <glyph glyph-name="uni0439" unicode="&#x439;" horiz-adv-x="1214" 
d="M881 1012h149v-1012h-158v772l-542 -786h-148v1011h158v-770zM608 1151q-146 0 -227.5 86.5t-81.5 239.5h133q0 -201 176 -201q174 0 174 201h136q0 -152 -82.5 -239t-227.5 -87z" />
    <glyph glyph-name="uni043A" unicode="&#x43a;" horiz-adv-x="956" 
d="M973 0h-205l-428 453v-453h-158v997h158v-458l397 458h197l-440 -493z" />
    <glyph glyph-name="uni043B" unicode="&#x43b;" horiz-adv-x="1099" 
d="M20 -4v141q55 0 93 19.5t62.5 56.5t38.5 101t19 141.5t5 189.5v352h680v-997h-158v860h-365v-233q0 -331 -83.5 -481t-291.5 -150z" />
    <glyph glyph-name="uni043C" unicode="&#x43c;" horiz-adv-x="1472" 
d="M1090 997h198v-997h-151v752l-340 -752h-125l-340 752v-752h-150v997h197l356 -796z" />
    <glyph glyph-name="uni043D" unicode="&#x43d;" horiz-adv-x="1189" 
d="M182 0v997h158v-397h508v397h158v-997h-158v461h-508v-461h-158z" />
    <glyph glyph-name="uni043E" unicode="&#x43e;" horiz-adv-x="1236" 
d="M618 -23q-144 0 -264 69t-189 189.5t-69 264.5q0 220 150.5 370t371.5 150q143 0 263 -68.5t189 -188t69 -263.5t-69 -264.5t-189 -189.5t-263 -69zM618 123q155 0 257 107.5t102 269.5q0 161 -102 267.5t-257 106.5t-257.5 -106.5t-102.5 -267.5q0 -162 102.5 -269.5
t257.5 -107.5z" />
    <glyph glyph-name="uni043F" unicode="&#x43f;" horiz-adv-x="1167" 
d="M182 0v997h801v-997h-158v856h-485v-856h-158z" />
    <glyph glyph-name="uni0440" unicode="&#x440;" horiz-adv-x="1290" 
d="M692 1020q214 0 354 -148t140 -374t-138.5 -373.5t-349.5 -147.5q-118 0 -215 48t-157 131v-490h-158v1331h147v-166q56 87 156 138t221 51zM670 123q155 0 254.5 105.5t99.5 269.5q0 166 -99.5 271t-254.5 105t-250.5 -102.5t-95.5 -271.5t95.5 -273t250.5 -104z" />
    <glyph glyph-name="uni0441" unicode="&#x441;" horiz-adv-x="1193" 
d="M621 -23q-147 0 -267.5 68.5t-189 188t-68.5 264.5q0 223 150.5 372.5t374.5 149.5q182 0 312.5 -97.5t164.5 -258.5h-160q-31 97 -117.5 153.5t-202.5 56.5q-157 0 -258.5 -106.5t-101.5 -269.5t101.5 -269t258.5 -106q117 0 202.5 56t117.5 153h160
q-34 -160 -165 -257.5t-312 -97.5z" />
    <glyph glyph-name="uni0442" unicode="&#x442;" horiz-adv-x="917" 
d="M379 0v858h-354v141h864v-141h-352v-858h-158z" />
    <glyph glyph-name="uni0443" unicode="&#x443;" horiz-adv-x="1021" 
d="M805 997h170l-506 -1331h-174l129 336l-379 995h168l299 -819z" />
    <glyph glyph-name="uni0444" unicode="&#x444;" horiz-adv-x="1447" 
d="M645 -334v320q-243 0 -396 143.5t-153 370.5q0 224 154.5 368t394.5 144v366h158v-366q242 0 395.5 -143t153.5 -369q0 -227 -153 -370.5t-396 -143.5v-320h-158zM645 119v758q-182 -6 -285.5 -106.5t-103.5 -270.5q0 -172 104 -274.5t285 -106.5zM803 877v-758
q180 4 284.5 106.5t104.5 274.5q0 169 -104.5 270t-284.5 107z" />
    <glyph glyph-name="uni0445" unicode="&#x445;" horiz-adv-x="1038" 
d="M1004 0h-181l-307 412l-301 -412h-180l387 520l-356 477h180l272 -370l275 370h180l-359 -479z" />
    <glyph glyph-name="uni0446" unicode="&#x446;" horiz-adv-x="1222" 
d="M999 -256v256h-817v997h158v-858h485v858h158v-858h166v-395h-150z" />
    <glyph glyph-name="uni0447" unicode="&#x447;" horiz-adv-x="1083" 
d="M741 997h158v-997h-158v371q-106 -37 -211 -37q-193 0 -303 114t-110 324v225h164v-213q0 -150 69 -226.5t197 -76.5q105 0 194 39v477z" />
    <glyph glyph-name="uni0448" unicode="&#x448;" horiz-adv-x="1554" 
d="M182 0v997h158v-862h358v862h156v-862h358v862h158v-997h-1188z" />
    <glyph glyph-name="uni0449" unicode="&#x449;" horiz-adv-x="1607" 
d="M1382 -256v256h-1200v997h158v-862h358v862h156v-862h358v862h158v-862h164v-391h-152z" />
    <glyph glyph-name="uni044A" unicode="&#x44a;" horiz-adv-x="1064" 
d="M229 0v856h-252v141h410v-317h215q175 0 280 -92.5t105 -247.5t-105 -247.5t-280 -92.5h-373zM385 139h203q235 0 235 199q0 98 -60 149.5t-175 51.5h-203v-400z" />
    <glyph glyph-name="uni044B" unicode="&#x44b;" horiz-adv-x="1437" 
d="M182 0v997h158v-317h207q177 0 282 -92.5t105 -247.5t-105 -247.5t-282 -92.5h-365zM340 139h197q235 0 235 199q0 98 -60.5 149.5t-174.5 51.5h-197v-400zM1096 0v997h157v-997h-157z" />
    <glyph glyph-name="uni044C" unicode="&#x44c;" horiz-adv-x="1011" 
d="M182 0v997h158v-317h207q177 0 282 -92.5t105 -247.5t-105 -247.5t-282 -92.5h-365zM340 139h197q235 0 235 199q0 98 -60.5 149.5t-174.5 51.5h-197v-400z" />
    <glyph glyph-name="uni044D" unicode="&#x44d;" horiz-adv-x="1193" 
d="M571 123q144 0 244 89.5t117 229.5h-473v140h469q-26 131 -124 211.5t-233 80.5q-112 0 -198 -57.5t-117 -152.5h-160q34 160 164 258t309 98q225 0 377 -150t152 -372q0 -221 -152.5 -371t-376.5 -150q-178 0 -308.5 98t-164.5 257h160q32 -96 117 -152.5t198 -56.5z
" />
    <glyph glyph-name="uni044E" unicode="&#x44e;" horiz-adv-x="1699" 
d="M1081 -23q-206 0 -354.5 136.5t-165.5 339.5h-221v-453h-158v999h158v-401h227q34 185 176.5 303.5t337.5 118.5q143 0 263 -68.5t189 -188t69 -263.5t-69 -264.5t-189 -189.5t-263 -69zM1081 123q155 0 257 107.5t102 269.5q0 161 -102 267.5t-257 106.5t-257.5 -106.5
t-102.5 -267.5q0 -162 102.5 -269.5t257.5 -107.5z" />
    <glyph glyph-name="uni044F" unicode="&#x44f;" horiz-adv-x="1073" 
d="M539 997h352v-997h-158v317h-211l-241 -317h-187l275 346q-99 36 -154 115t-55 190q0 162 101.5 254t277.5 92zM733 457v399h-186q-110 0 -167.5 -51.5t-57.5 -151.5q0 -95 58.5 -145.5t166.5 -50.5h186z" />
    <glyph glyph-name="uni0450" unicode="&#x450;" horiz-adv-x="1189" 
d="M600 1020q151 0 267 -73.5t175 -203.5t48 -292h-830q15 -150 111 -239t243 -89q200 0 283 149h168q-56 -141 -174 -218t-279 -77q-144 0 -262.5 68t-186 187.5t-67.5 265.5q0 145 66 265t182 188.5t256 68.5zM598 874q-125 0 -216 -79.5t-116 -206.5h656
q-9 129 -98 207.5t-226 78.5zM537 1147l-228 348h189l194 -348h-155z" />
    <glyph glyph-name="uni0451" unicode="&#x451;" horiz-adv-x="1189" 
d="M600 1020q151 0 267 -73.5t175 -203.5t48 -292h-830q15 -150 111 -239t243 -89q200 0 283 149h168q-56 -141 -174 -218t-279 -77q-144 0 -262.5 68t-186 187.5t-67.5 265.5q0 145 66 265t182 188.5t256 68.5zM598 874q-125 0 -216 -79.5t-116 -206.5h656
q-9 129 -98 207.5t-226 78.5zM412 1233q-43 0 -74 30.5t-31 73.5q0 41 31 72t74 31q46 0 76 -30t30 -73t-30.5 -73.5t-75.5 -30.5zM791 1233q-43 0 -74 30.5t-31 73.5q0 42 30.5 72.5t74.5 30.5q47 0 76.5 -30t29.5 -73t-30.5 -73.5t-75.5 -30.5z" />
    <glyph glyph-name="uni0452" unicode="&#x452;" horiz-adv-x="1159" 
d="M639 940q165 0 263.5 -107t98.5 -284v-586q0 -154 -78.5 -233.5t-232.5 -79.5h-98v145h65q97 0 142 46.5t45 144.5v544q0 121 -66 193t-178 72q-114 0 -187 -74t-73 -191v-530h-158v1081h-168v133h168v164h158v-164h440v-133h-440v-266q106 125 299 125z" />
    <glyph glyph-name="uni0453" unicode="&#x453;" horiz-adv-x="817" 
d="M182 0v997h627v-143h-469v-854h-158zM438 1147l197 348h184l-223 -348h-158z" />
    <glyph glyph-name="uni0454" unicode="&#x454;" horiz-adv-x="1193" 
d="M623 123q113 0 198 56.5t117 152.5h160q-34 -159 -164.5 -257t-308.5 -98q-224 0 -376.5 150t-152.5 371q0 222 152 372t377 150q179 0 309 -98t164 -258h-160q-31 95 -117 152.5t-198 57.5q-135 0 -233 -80.5t-124 -211.5h469v-140h-473q17 -140 117 -229.5t244 -89.5z
" />
    <glyph glyph-name="uni0455" unicode="&#x455;" horiz-adv-x="907" 
d="M467 -23q-163 0 -269 87t-118 231h158q9 -78 71.5 -125t157.5 -47q92 0 148.5 40.5t56.5 106.5q0 57 -26.5 83.5t-108.5 52.5l-177 53q-245 74 -245 280q0 126 95 203.5t249 77.5q148 0 243 -76t107 -205h-158q-11 63 -62 99t-132 36q-82 0 -131.5 -35.5t-49.5 -95.5
q0 -54 29.5 -85t104.5 -54l176 -53q248 -75 248 -279q0 -132 -101 -213.5t-266 -81.5z" />
    <glyph glyph-name="uni0456" unicode="&#x456;" horiz-adv-x="495" 
d="M248 1233q-46 0 -77.5 31t-31.5 75q0 47 31.5 78t77.5 31q47 0 77.5 -31t30.5 -78q0 -45 -30.5 -75.5t-77.5 -30.5zM168 0v997h158v-997h-158z" />
    <glyph glyph-name="uni0457" unicode="&#x457;" horiz-adv-x="495" 
d="M168 0v997h158v-997h-158zM57 1233q-43 0 -73.5 30.5t-30.5 73.5q0 41 30.5 72t73.5 31q47 0 77 -30t30 -73t-31 -73.5t-76 -30.5zM436 1233q-43 0 -73.5 30.5t-30.5 73.5q0 42 30 72.5t74 30.5q47 0 77 -30t30 -73t-31 -73.5t-76 -30.5z" />
    <glyph glyph-name="uni0458" unicode="&#x458;" horiz-adv-x="495" 
d="M250 1233q-46 0 -77.5 31t-31.5 75q0 47 31.5 78t77.5 31q47 0 77.5 -31t30.5 -78q0 -45 -30.5 -75.5t-77.5 -30.5zM-84 -334v139h72q95 0 137.5 44t42.5 141v1007h158v-1026q0 -149 -78 -227t-228 -78h-104z" />
    <glyph glyph-name="uni0459" unicode="&#x459;" horiz-adv-x="1632" 
d="M20 -4v141q132 0 184 111.5t52 357.5v391h696v-325h215q176 0 281.5 -91t105.5 -241q0 -155 -105 -247.5t-282 -92.5h-372v860h-381v-272q0 -299 -92.5 -445.5t-301.5 -146.5zM954 139h203q236 0 236 199q0 93 -60.5 142.5t-175.5 49.5h-203v-391z" />
    <glyph glyph-name="uni045A" unicode="&#x45a;" horiz-adv-x="1669" 
d="M182 0v997h158v-370h491v370h158v-370h230q172 0 272 -83.5t100 -226.5q0 -146 -100.5 -231.5t-271.5 -85.5h-388v487h-491v-487h-158zM991 139h217q222 0 222 176q0 85 -56.5 128.5t-165.5 43.5h-217v-348z" />
    <glyph glyph-name="uni045B" unicode="&#x45b;" horiz-adv-x="1161" 
d="M639 961q166 0 265.5 -107.5t99.5 -286.5v-567h-158v551q0 120 -67 192t-179 72q-114 0 -187 -74t-73 -190v-551h-158v1081h-168v133h168v164h158v-164h440v-133h-440v-247q105 127 299 127z" />
    <glyph glyph-name="uni045C" unicode="&#x45c;" horiz-adv-x="956" 
d="M973 0h-205l-428 453v-453h-158v997h158v-458l397 458h197l-440 -493zM436 1147l197 348h184l-223 -348h-158z" />
    <glyph glyph-name="uni045D" unicode="&#x45d;" horiz-adv-x="1214" 
d="M881 1012h149v-1012h-158v772l-542 -786h-148v1011h158v-770zM543 1147l-228 348h189l194 -348h-155z" />
    <glyph glyph-name="uni045E" unicode="&#x45e;" horiz-adv-x="1021" 
d="M805 997h170l-506 -1331h-174l129 336l-379 995h168l299 -819zM510 1151q-146 0 -227.5 86.5t-81.5 239.5h133q0 -201 176 -201q174 0 174 201h135q0 -152 -82 -239t-227 -87z" />
    <glyph glyph-name="uni045F" unicode="&#x45f;" horiz-adv-x="1167" 
d="M983 997v-997h-324v-256h-149v256h-328v997h158v-858h485v858h158z" />
    <glyph glyph-name="uni0462" unicode="&#x462;" horiz-adv-x="1345" 
d="M295 0v1022h-270v145h270v211h160v-211h520v-145h-520v-184h348q198 0 317 -114.5t119 -303.5q0 -190 -119.5 -305t-316.5 -115h-508zM453 145h340q129 0 204.5 74t75.5 199q0 127 -75.5 200.5t-204.5 73.5h-340v-547z" />
    <glyph glyph-name="uni0463" unicode="&#x463;" horiz-adv-x="1089" 
d="M225 0v909h-211v133h211v336h158v-336h375v-133h-375v-229h235q177 0 281.5 -92.5t104.5 -247.5t-104.5 -247.5t-281.5 -92.5h-393zM381 139h225q236 0 236 199q0 98 -61 149.5t-175 51.5h-225v-400z" />
    <glyph glyph-name="uni0472" unicode="&#x472;" horiz-adv-x="1634" 
d="M817 1401q149 0 281 -55t226 -149t149 -226t55 -281t-55 -281t-149 -227t-226 -150t-281 -55t-281 55t-227 150t-150 227t-55 281t54.5 281t149 226t227 149t282.5 55zM817 1251q-215 0 -366.5 -136t-176.5 -349q147 65 283 65q99 0 260 -48t260 -48q127 0 279 60
q-34 201 -183.5 328.5t-355.5 127.5zM817 127q223 0 376.5 146.5t168.5 371.5q-144 -65 -285 -65q-85 0 -175.5 24t-178.5 48t-166 24q-128 0 -283 -64q26 -213 177.5 -349t365.5 -136z" />
    <glyph glyph-name="uni0473" unicode="&#x473;" horiz-adv-x="1236" 
d="M618 1020q143 0 263 -68.5t189 -188t69 -263.5t-69 -264.5t-189 -189.5t-263 -69q-144 0 -264 69t-189 189.5t-69 264.5q0 220 150.5 370t371.5 150zM618 874q-136 0 -233.5 -84.5t-120.5 -218.5q83 35 166 35q70 0 185.5 -34.5t183.5 -34.5q82 0 172 34
q-22 135 -119 219t-234 84zM618 123q141 0 239.5 90.5t115.5 232.5q-88 -36 -174 -36q-73 0 -188 34.5t-181 34.5q-83 0 -168 -33q17 -142 116 -232.5t240 -90.5z" />
    <glyph glyph-name="uni0474" unicode="&#x474;" horiz-adv-x="1363" 
d="M1253 1378h109v-145h-70q-56 0 -91.5 -32.5t-63.5 -110.5l-394 -1090h-172l-499 1378h174l413 -1183l340 968q41 116 100 165.5t154 49.5z" />
    <glyph glyph-name="uni0475" unicode="&#x475;" horiz-adv-x="1069" 
d="M963 997h88v-145h-64q-41 0 -63.5 -16.5t-36.5 -55.5l-291 -780h-172l-379 997h168l297 -825l242 659q34 91 81.5 128.5t129.5 37.5z" />
    <glyph glyph-name="uni0490" unicode="&#x490;" horiz-adv-x="966" 
d="M195 0v1378h565v254h160v-399h-566v-1233h-159z" />
    <glyph glyph-name="uni0491" unicode="&#x491;" horiz-adv-x="872" 
d="M182 0v997h533v256h149v-399h-524v-854h-158z" />
    <glyph glyph-name="uni0492" unicode="&#x492;" horiz-adv-x="1042" 
d="M971 1233h-576v-475h482v-146h-482v-612h-159v612h-197v146h197v620h735v-145z" />
    <glyph glyph-name="uni0493" unicode="&#x493;" horiz-adv-x="958" 
d="M854 852h-487v-307h485v-146h-485v-399h-158v399h-170v146h170v452h645v-145z" />
    <glyph glyph-name="uni0496" unicode="&#x496;" horiz-adv-x="1800" 
d="M1597 -256v256h-104l-559 696v-696h-160v700l-561 -700h-199l598 731l-563 647h197l528 -618v618h160v-614l528 614h197l-565 -643l479 -590h174v-401h-150z" />
    <glyph glyph-name="uni0497" unicode="&#x497;" horiz-adv-x="1495" 
d="M1274 -256v256h-82l-430 479v-479h-158v479l-430 -479h-188l469 518l-437 479h185l401 -448v448h158v-448l403 448h187l-441 -477l346 -385h164v-391h-147z" />
    <glyph glyph-name="uni0498" unicode="&#x498;" horiz-adv-x="1120" 
d="M805 735q115 -49 171 -143t56 -219q0 -147 -97.5 -256t-272.5 -133v-240h-156v238q-182 17 -285.5 129.5t-111.5 296.5h161q9 -135 89 -212t214 -77q136 0 217.5 74t81.5 184q0 50 -18 97t-54.5 88t-101 66t-147.5 25h-141v146h139q69 0 121.5 20t82 53.5t44 72
t14.5 79.5q0 97 -71 166.5t-195 69.5q-115 0 -184.5 -63.5t-77.5 -174.5h-162q12 177 126 278t300 101q102 0 184.5 -32t133.5 -84.5t78.5 -117.5t27.5 -135q0 -96 -42.5 -173t-123.5 -124z" />
    <glyph glyph-name="uni0499" unicode="&#x499;" horiz-adv-x="995" 
d="M737 530q168 -69 168 -241q0 -131 -91.5 -208.5t-227.5 -96.5v-240h-156v238q-138 16 -231.5 95t-102.5 216h158q11 -62 53 -102.5t91.5 -55t105.5 -14.5q97 0 168 44.5t71 127.5q0 73 -59.5 116.5t-175.5 43.5h-164v139h164q94 0 139 40.5t45 102.5q0 68 -57 105
t-137 37t-145 -36t-79 -100h-155q5 70 40 124.5t90 87.5t120 50t135 17q94 0 171.5 -28t129 -91.5t51.5 -152.5q0 -67 -32.5 -124.5t-86.5 -93.5z" />
    <glyph glyph-name="uni049A" unicode="&#x49a;" horiz-adv-x="1257" 
d="M1053 -256v256h-95l-604 686v-686h-159v1378h159v-606l574 606h194l-610 -643l518 -590h172v-401h-149z" />
    <glyph glyph-name="uni049B" unicode="&#x49b;" horiz-adv-x="1081" 
d="M860 -256v256h-92l-428 453v-453h-158v997h158v-458l397 458h197l-440 -493l350 -369h164v-391h-148z" />
    <glyph glyph-name="uni04A0" unicode="&#x4a0;" horiz-adv-x="1232" 
d="M-29 1233v145h443v-606l573 606h195l-611 -643l648 -735h-201l-604 686v-686h-160v1233h-283z" />
    <glyph glyph-name="uni04A1" unicode="&#x4a1;" horiz-adv-x="976" 
d="M993 0h-198l-437 471v-471h-157v856h-224v141h381v-438l412 438h195l-449 -473z" />
    <glyph glyph-name="uni04A2" unicode="&#x4a2;" horiz-adv-x="1443" 
d="M1219 145h172v-401h-150v256h-182v664h-705v-664h-159v1378h159v-569h705v569h160v-1233z" />
    <glyph glyph-name="uni04A3" unicode="&#x4a3;" horiz-adv-x="1245" 
d="M1022 -256v256h-174v459h-508v-459h-158v997h158v-393h508v393h158v-858h165v-395h-149z" />
    <glyph glyph-name="uni04AA" unicode="&#x4aa;" horiz-adv-x="1593" 
d="M897 -256h-156v238q-183 17 -328 112.5t-227 251t-82 344.5q0 149 54.5 281t149 226t227 149t282.5 55q258 0 442 -141.5t228 -374.5h-172q-43 167 -178 266.5t-318 99.5q-152 0 -278 -73.5t-198.5 -202.5t-72.5 -285q0 -239 158 -401t391 -162q183 0 317.5 100
t178.5 269h172q-41 -216 -200.5 -354t-389.5 -160v-238z" />
    <glyph glyph-name="uni04AB" unicode="&#x4ab;" horiz-adv-x="1193" 
d="M705 -256h-156v240q-197 23 -325 167.5t-128 346.5q0 223 150.5 372.5t374.5 149.5q182 0 312.5 -97.5t164.5 -258.5h-160q-31 97 -117.5 153.5t-202.5 56.5q-157 0 -258.5 -106.5t-101.5 -269.5t101.5 -269t258.5 -106q117 0 202.5 56t117.5 153h160
q-31 -140 -136.5 -233t-256.5 -115v-240z" />
    <glyph glyph-name="uni04AE" unicode="&#x4ae;" horiz-adv-x="1241" 
d="M1161 1378l-461 -786v-592h-159v596l-461 782h184l359 -633l356 633h182z" />
    <glyph glyph-name="uni04AF" unicode="&#x4af;" horiz-adv-x="1019" 
d="M973 997l-385 -991v-375h-158v375l-385 991h172l293 -800l291 800h172z" />
    <glyph glyph-name="uni04B0" unicode="&#x4b0;" horiz-adv-x="1290" 
d="M1186 1378l-441 -751h355v-146h-375v-481h-160v481h-383v146h365l-443 751h185l358 -633l357 633h182z" />
    <glyph glyph-name="uni04B1" unicode="&#x4b1;" horiz-adv-x="1081" 
d="M618 6v-6h322v-141h-322v-228h-157v228h-318v141h318v6l-385 991h172l293 -800l290 800h173z" />
    <glyph glyph-name="uni04B2" unicode="&#x4b2;" horiz-adv-x="1327" 
d="M1122 -256v256h-114l-375 590l-375 -590h-186l460 711l-432 667h185l348 -544l344 544h186l-430 -667l367 -566h174v-401h-152z" />
    <glyph glyph-name="uni04B3" unicode="&#x4b3;" horiz-adv-x="1142" 
d="M905 135h168v-391h-149v256h-101l-307 412l-301 -412h-180l387 520l-356 477h180l272 -370l275 370h180l-359 -479z" />
    <glyph glyph-name="uni04B6" unicode="&#x4b6;" horiz-adv-x="1275" 
d="M1049 145h174v-401h-150v256h-184v565q-133 -49 -281 -49q-493 0 -493 506v356h159v-348q0 -188 86 -276t269 -88q136 0 260 51v661h160v-1233z" />
    <glyph glyph-name="uni04B7" unicode="&#x4b7;" horiz-adv-x="1179" 
d="M940 139h170v-395h-149v256h-179v373q-112 -39 -231 -39q-211 0 -322.5 111.5t-111.5 324.5v227h157v-217q0 -301 293 -301q112 0 215 41v477h158v-858z" />
    <glyph glyph-name="uni04BA" unicode="&#x4ba;" horiz-adv-x="1241" 
d="M352 0h-159v1378h159v-565q133 49 281 49q493 0 493 -506v-356h-159v348q0 188 -86 276.5t-269 88.5q-136 0 -260 -51v-662z" />
    <glyph glyph-name="uni04BB" unicode="&#x4bb;" horiz-adv-x="1144" 
d="M625 1020q164 0 263 -107.5t99 -285.5v-627h-156v608q0 121 -66.5 193.5t-178.5 72.5q-113 0 -186.5 -74.5t-73.5 -191.5v-608h-158v1378h158v-483q106 125 299 125z" />
    <glyph glyph-name="uni04C0" unicode="&#x4c0;" horiz-adv-x="546" 
d="M195 0v1378h159v-1378h-159z" />
    <glyph glyph-name="uni04CF" unicode="&#x4cf;" horiz-adv-x="524" 
d="M182 0v1378h158v-1378h-158z" />
    <glyph glyph-name="uni04D4" unicode="&#x4d4;" horiz-adv-x="1710" 
d="M1126 145h488v-145h-617l-59 344h-569l-172 -344h-168l682 1378h880v-143h-651l76 -440h557v-146h-533zM788 1231l-352 -746h477z" />
    <glyph glyph-name="uni04D5" unicode="&#x4d5;" horiz-adv-x="1861" 
d="M1276 1020q150 0 265.5 -75t174 -208t47.5 -299h-829q17 -147 112 -231t244 -84q104 0 171.5 35.5t111.5 113.5h168q-60 -144 -176.5 -219.5t-278.5 -75.5q-141 0 -254 61.5t-178 170.5q-50 -110 -157 -171t-255 -61q-160 0 -253 77.5t-93 209.5q0 142 97.5 223.5
t263.5 81.5h303v56q0 117 -63 183t-173 66q-95 0 -151 -40.5t-68 -118.5h-158q12 141 114.5 223t264.5 82q128 0 217 -53t129 -150q67 95 172 149t232 54zM1274 874q-134 0 -227 -84t-113 -221h665q-5 139 -93 222t-232 83zM463 111q129 0 213 74.5t84 191.5v61h-281
q-108 0 -164.5 -40t-56.5 -117q0 -170 205 -170z" />
    <glyph glyph-name="uni04D8" unicode="&#x4d8;" horiz-adv-x="1605" 
d="M797 1401q203 0 363.5 -91t250.5 -254t90 -368q0 -201 -91 -364t-251.5 -255t-359.5 -92q-158 0 -292.5 58t-226 159t-137.5 243t-34 304h1224q-17 232 -162.5 371t-375.5 139q-153 0 -268.5 -62t-178.5 -179h-176q74 183 239.5 287t385.5 104zM801 127q204 0 351.5 132
t176.5 337h-1050q14 -202 161 -335.5t361 -133.5z" />
    <glyph glyph-name="uni04D9" unicode="&#x4d9;" horiz-adv-x="1189" 
d="M590 -23q-150 0 -266.5 73.5t-175.5 204t-48 292.5h830q-15 149 -111 238t-244 89q-103 0 -171 -36t-111 -113h-168q56 141 174 218t279 77q220 0 368 -149t148 -371q0 -145 -66 -265t-182 -189t-256 -69zM592 123q125 0 216 80t116 207h-656q9 -129 98 -208t226 -79z
" />
    <glyph glyph-name="uni04E2" unicode="&#x4e2;" horiz-adv-x="1411" 
d="M1051 1378h168v-1378h-160v1135l-709 -1135h-155v1378h159v-1110zM416 1575v129h573v-129h-573z" />
    <glyph glyph-name="uni04E3" unicode="&#x4e3;" horiz-adv-x="1214" 
d="M881 1012h149v-1012h-158v772l-542 -786h-148v1011h158v-770zM342 1217v126h532v-126h-532z" />
    <glyph glyph-name="uni04E6" unicode="&#x4e6;" horiz-adv-x="1634" 
d="M1012 1544q-46 0 -79.5 32.5t-33.5 76.5q0 45 33 77.5t80 32.5q49 0 80.5 -32t31.5 -78t-32.5 -77.5t-79.5 -31.5zM600 1544q-47 0 -80 31.5t-33 77.5q0 44 33 76t80 32q49 0 81 -31t32 -77t-33 -77.5t-80 -31.5zM817 -23q-149 0 -281 55t-227 150t-150 227t-55 281
t54.5 281t149 226t227 149t282.5 55q149 0 281 -55t226 -149t149 -226t55 -281t-55 -281t-149 -227t-226 -150t-281 -55zM817 127q154 0 279.5 73t196.5 202.5t71 289.5q0 239 -157 399t-390 160t-390 -160t-157 -399q0 -160 71 -289.5t196.5 -202.5t279.5 -73z" />
    <glyph glyph-name="uni04E7" unicode="&#x4e7;" horiz-adv-x="1236" 
d="M430 1233q-43 0 -73.5 30.5t-30.5 73.5q0 41 31 72t73 31q47 0 77 -30t30 -73t-31 -73.5t-76 -30.5zM809 1233q-43 0 -73.5 30.5t-30.5 73.5q0 42 30 72.5t74 30.5q47 0 76.5 -30t29.5 -73t-30.5 -73.5t-75.5 -30.5zM618 -23q-144 0 -264 69t-189 189.5t-69 264.5
q0 220 150.5 370t371.5 150q143 0 263 -68.5t189 -188t69 -263.5t-69 -264.5t-189 -189.5t-263 -69zM618 123q155 0 257 107.5t102 269.5q0 161 -102 267.5t-257 106.5t-257.5 -106.5t-102.5 -267.5q0 -162 102.5 -269.5t257.5 -107.5z" />
    <glyph glyph-name="uni04E8" unicode="&#x4e8;" horiz-adv-x="1634" 
d="M817 1401q149 0 281 -55t226 -149t149 -226t55 -281t-55 -281t-149 -227t-226 -150t-281 -55t-281 55t-227 150t-150 227t-55 281t54.5 281t149 226t227 149t282.5 55zM817 1251q-205 0 -353.5 -125.5t-182.5 -324.5h1073q-34 199 -183 324.5t-354 125.5zM817 127
q225 0 379 149.5t168 378.5h-1094q14 -229 168 -378.5t379 -149.5z" />
    <glyph glyph-name="uni04E9" unicode="&#x4e9;" horiz-adv-x="1236" 
d="M618 1020q143 0 263 -68.5t189 -188t69 -263.5t-69 -264.5t-189 -189.5t-263 -69q-144 0 -264 69t-189 189.5t-69 264.5q0 220 150.5 370t371.5 150zM618 874q-134 0 -230.5 -81t-121.5 -211h703q-25 130 -121 211t-230 81zM618 123q140 0 238 89t117 230h-711
q19 -140 117.5 -229.5t238.5 -89.5z" />
    <glyph glyph-name="uni04EE" unicode="&#x4ee;" horiz-adv-x="1230" 
d="M1012 1378h170l-641 -1378h-170l202 426l-516 952h185l413 -780zM348 1575v129h574v-129h-574z" />
    <glyph glyph-name="uni04EF" unicode="&#x4ef;" horiz-adv-x="1021" 
d="M240 1217v126h532v-126h-532zM805 997h170l-506 -1331h-174l129 336l-379 995h168l299 -819z" />
    <glyph glyph-name="uni04F2" unicode="&#x4f2;" horiz-adv-x="1230" 
d="M1012 1378h170l-641 -1378h-170l202 426l-516 952h185l413 -780zM406 1503l231 344h156l-238 -344h-149zM723 1503l238 344h167l-264 -344h-141z" />
    <glyph glyph-name="uni04F3" unicode="&#x4f3;" horiz-adv-x="1021" 
d="M268 1147l238 348h158l-248 -348h-148zM584 1147l243 348h164l-266 -348h-141zM805 997h170l-506 -1331h-174l129 336l-379 995h168l299 -819z" />
    <glyph glyph-name="endash" unicode="&#x2013;" horiz-adv-x="1011" 
d="M82 561v146h846v-146h-846z" />
    <glyph glyph-name="emdash" unicode="&#x2014;" horiz-adv-x="2035" 
d="M96 559v148h1843v-148h-1843z" />
    <glyph glyph-name="quoteleft" unicode="&#x2018;" horiz-adv-x="534" 
d="M160 848l71 530h140l-31 -530h-180z" />
    <glyph glyph-name="quoteright" unicode="&#x2019;" horiz-adv-x="534" 
d="M164 846l31 532h180l-72 -532h-139z" />
    <glyph glyph-name="quotesinglbase" unicode="&#x201a;" horiz-adv-x="534" 
d="M164 -342l31 532h180l-72 -532h-139z" />
    <glyph glyph-name="quotedblleft" unicode="&#x201c;" horiz-adv-x="872" 
d="M709 1378l-31 -532h-170l59 532h142zM377 1378l-55 -532h-164l71 532h148z" />
    <glyph glyph-name="quotedblright" unicode="&#x201d;" horiz-adv-x="872" 
d="M164 846l31 532h170l-60 -532h-141zM496 846l55 532h164l-72 -532h-147z" />
    <glyph glyph-name="quotedblbase" unicode="&#x201e;" horiz-adv-x="872" 
d="M164 -342l31 532h170l-60 -532h-141zM496 -342l55 532h164l-72 -532h-147z" />
    <glyph glyph-name="dagger" unicode="&#x2020;" horiz-adv-x="933" 
d="M381 397v535h-305v139h305v307h151v-307h322v-139h-322v-535h-151z" />
    <glyph glyph-name="daggerdbl" unicode="&#x2021;" horiz-adv-x="968" 
d="M381 227v293h-305v139h305v289h-305v139h305v291h151v-291h322v-139h-322v-289h322v-139h-322v-293h-151z" />
    <glyph glyph-name="bullet" unicode="&#x2022;" horiz-adv-x="737" 
d="M369 406q-109 0 -190 74t-81 190q0 115 81.5 189.5t189.5 74.5t188 -74.5t80 -189.5q0 -116 -80 -190t-188 -74z" />
    <glyph glyph-name="ellipsis" unicode="&#x2026;" horiz-adv-x="1615" 
d="M807 -23q-50 0 -84.5 34t-34.5 83q0 50 35 84.5t84 34.5q51 0 86 -34.5t35 -84.5q0 -49 -35 -83t-86 -34zM283 -23q-50 0 -84.5 34t-34.5 83q0 50 35 84.5t84 34.5q51 0 85.5 -34.5t34.5 -84.5t-34.5 -83.5t-85.5 -33.5zM1329 -23q-50 0 -84.5 34t-34.5 83q0 50 35 84.5
t84 34.5q51 0 86 -34.5t35 -84.5q0 -49 -35 -83t-86 -34z" />
    <glyph glyph-name="perthousand" unicode="&#x2030;" horiz-adv-x="2576" 
d="M2150 -23q-148 0 -248 100.5t-100 246.5q0 147 99.5 245.5t248.5 98.5q148 0 248.5 -99t100.5 -245q0 -145 -101.5 -246t-247.5 -101zM2152 113q89 0 148 60.5t59 152.5q0 91 -59 150t-150 59q-89 0 -146.5 -58.5t-57.5 -150.5q0 -93 58 -153t148 -60zM426 709
q-148 0 -248 100t-100 246t100 245t248 99q147 0 247.5 -99t100.5 -245q0 -145 -101 -245.5t-247 -100.5zM381 0l811 1378h158l-813 -1378h-156zM424 846q91 0 150 59.5t59 151.5q0 91 -59 151t-150 60q-89 0 -147 -59.5t-58 -151.5t58.5 -151.5t146.5 -59.5zM1305 -23
q-148 0 -248.5 100.5t-100.5 246.5t100 245t249 99q148 0 248 -99t100 -245q0 -145 -101 -246t-247 -101zM1305 113q89 0 147.5 60.5t58.5 152.5q0 91 -58.5 150t-149.5 59q-90 0 -147.5 -58.5t-57.5 -150.5q0 -93 58.5 -153t148.5 -60z" />
    <glyph glyph-name="minute" unicode="&#x2032;" horiz-adv-x="534" 
d="M141 743l92 635h183l-131 -635h-144z" />
    <glyph glyph-name="second" unicode="&#x2033;" horiz-adv-x="880" 
d="M141 743l92 635h181l-127 -635h-146zM483 743l103 635h178l-131 -635h-150z" />
    <glyph glyph-name="guilsinglleft" unicode="&#x2039;" horiz-adv-x="509" 
d="M459 225h-174l-232 414l228 412h178l-228 -412z" />
    <glyph glyph-name="guilsinglright" unicode="&#x203a;" horiz-adv-x="509" 
d="M51 225l228 414l-228 412h178l228 -412l-232 -414h-174z" />
    <glyph glyph-name="fraction" unicode="&#x2044;" horiz-adv-x="458" 
d="M-240 0l801 1378h156l-801 -1378h-156z" />
    <glyph glyph-name="uni2074" unicode="&#x2074;" horiz-adv-x="696" 
d="M645 1094v-111h-94v-135h-129v135h-379v86l352 522h156v-497h94zM422 1427l-225 -333h225v333z" />
    <glyph glyph-name="Euro" unicode="&#x20ac;" horiz-adv-x="1705" 
d="M918 129q190 0 329 110.5t183 295.5h172q-44 -252 -232.5 -405t-454.5 -153q-235 0 -415.5 126.5t-253.5 334.5h-232v142h197q-8 49 -8 110q0 46 6 90h-191v142h222q70 216 252.5 347.5t422.5 131.5q266 0 454.5 -152.5t232.5 -404.5h-172q-44 185 -183 295t-329 110
q-169 0 -302.5 -89t-195.5 -238h696l-35 -142h-700q-6 -44 -6 -90q0 -52 10 -110h643l-35 -142h-565q65 -141 195.5 -225t294.5 -84z" />
    <glyph glyph-name="uni20AE" unicode="&#x20ae;" horiz-adv-x="1255" 
d="M1182 1233h-473v-387l368 121v-148l-368 -123v-207l368 121v-147l-368 -121v-342h-160v299l-367 -125v150l367 122v207l-367 -123v150l367 123v430h-477v145h1110v-145z" />
    <glyph glyph-name="uni20B4" unicode="&#x20b4;" horiz-adv-x="1157" 
d="M1090 453h-766q-19 -46 -19 -97q0 -109 80.5 -174t214.5 -65q119 0 203.5 54t107.5 144h158q-25 -157 -150 -247.5t-321 -90.5q-207 0 -327.5 102t-120.5 279q0 47 10 95h-94v141h182q66 63 194 115l193 82l24 10h-591v139h755q25 52 25 113q0 92 -71.5 150.5
t-182.5 58.5q-107 0 -177 -49t-89 -136h-160q22 149 136.5 236.5t289.5 87.5q182 0 294.5 -96.5t112.5 -253.5q0 -65 -14 -111h100v-139h-192q-72 -66 -195 -117l-188 -82l-18 -8h596v-141z" />
    <glyph glyph-name="uni20B8" unicode="&#x20b8;" horiz-adv-x="1255" 
d="M72 1233v145h1110v-145h-1110zM549 0v885h-477v145h1110v-145h-473v-885h-160z" />
    <glyph glyph-name="uni20BA" unicode="&#x20ba;" horiz-adv-x="1064" 
d="M856 594h150v-105q0 -239 -155.5 -364t-449.5 -125h-137v522l-198 -76v148l198 76v207l-198 -76v149l198 76v352h160v-303l385 144v-148l-385 -145v-207l385 145v-147l-385 -146v-430q212 3 322 96t110 267v90z" />
    <glyph glyph-name="uni20BD" unicode="&#x20bd;" horiz-adv-x="1179" 
d="M233 0v279h-167v139h167v203h-167v139h167v618h457q188 0 301 -101.5t113 -270.5q0 -170 -114.5 -277.5t-297.5 -107.5h-297v-203h535v-139h-535v-279h-162zM393 760h279q125 0 196.5 65t71.5 179q0 110 -71 172.5t-197 62.5h-279v-479z" />
    <glyph glyph-name="uni2113" unicode="&#x2113;" horiz-adv-x="796" 
d="M322 387v-16q0 -121 51 -176.5t164 -55.5h157v-139h-178q-292 0 -336 270q-49 -39 -155 -118v178q134 104 149 116v584q0 180 76 275.5t219 95.5q129 0 200.5 -79.5t71.5 -225.5q0 -170 -102 -344.5t-317 -364.5zM322 1038v-460q141 137 207.5 258t66.5 239
q0 180 -125 180q-149 0 -149 -217z" />
    <glyph glyph-name="uni2116" unicode="&#x2116;" horiz-adv-x="2254" 
d="M1790 676q-157 0 -263 103.5t-106 258.5q0 154 106 258.5t263 104.5q156 0 261.5 -104t105.5 -259t-105.5 -258.5t-261.5 -103.5zM1057 281v1097h162v-1378h-175l-690 1120v-1120h-159v1378h184zM1790 1270q-100 0 -165.5 -65.5t-65.5 -166.5q0 -100 65.5 -166.5
t165.5 -66.5q102 0 167.5 65.5t65.5 167.5t-65.5 167t-167.5 65zM1489 377v129h602v-129h-602z" />
    <glyph glyph-name="trademark" unicode="&#x2122;" horiz-adv-x="1282" 
d="M41 1276v102h436v-102h-162v-438h-112v438h-162zM997 1378h158v-540h-113v391l-153 -391h-88l-158 393v-393h-113v540h166l150 -397z" />
    <glyph glyph-name="uni2126" unicode="&#x2126;" horiz-adv-x="1679" 
d="M1546 723q0 -349 -327 -578h313v-145h-574v145q422 193 422 562q0 236 -154 390t-386 154q-234 0 -387.5 -153.5t-153.5 -390.5q0 -370 420 -562v-145h-572v145h308q-322 227 -322 578q0 143 54.5 269.5t148 216t224 141t278.5 51.5q198 0 360 -88t255 -243.5t93 -346.5z
" />
    <glyph glyph-name="estimated" unicode="&#x212e;" horiz-adv-x="1744" 
d="M903 -23q-161 0 -306.5 56.5t-250.5 152t-167 228t-62 278.5q0 191 101.5 354.5t276 259t379.5 95.5q204 0 378 -95.5t275 -259t101 -354.5v-22h-1175q-27 0 -27 -25v-409q0 -24 16 -35q205 -160 465 -160q159 0 297.5 59.5t241.5 171.5h82q-113 -141 -275.5 -218
t-349.5 -77zM453 731h843q10 0 17.5 7.5t7.5 17.5v395q0 17 -3 24.5t-13 14.5q-184 147 -431 147q-257 0 -432 -143q-10 -7 -13 -14.5t-3 -26.5v-397q0 -11 7.5 -18t19.5 -7z" />
    <glyph glyph-name="uni2153" unicode="&#x2153;" horiz-adv-x="1517" 
d="M197 0l800 1378h156l-801 -1378h-155zM266 1378h117v-735h-129v608l-168 -51l-31 113zM1339 391q101 -53 101 -164q0 -100 -74.5 -167.5t-183.5 -67.5q-123 0 -199 65.5t-80 175.5h129q3 -55 44.5 -91t101.5 -36q57 0 92 31.5t35 81.5q0 54 -35 84.5t-99 30.5h-71v106h69
q52 0 79.5 26.5t27.5 74.5q0 49 -30.5 75.5t-84.5 26.5q-48 0 -83 -29t-38 -73h-127q3 92 75 154.5t175 62.5q110 0 180 -61t70 -156t-74 -150z" />
    <glyph glyph-name="uni2154" unicode="&#x2154;" horiz-adv-x="1761" 
d="M442 0l801 1378h156l-801 -1378h-156zM225 756h398v-113h-547v45q0 75 54 142.5t175 142.5q103 63 139.5 102t36.5 86q0 58 -35.5 91.5t-95.5 33.5q-56 0 -92.5 -39t-36.5 -100h-129q0 108 74 181t184 73q117 0 191.5 -67t74.5 -171q0 -74 -49.5 -132.5t-187.5 -147.5
q-69 -45 -104.5 -73.5t-49.5 -53.5zM1581 391q100 -52 100 -164q0 -100 -74.5 -167.5t-183.5 -67.5q-123 0 -198 65.5t-80 175.5h129q3 -55 44 -91t101 -36q57 0 92 31.5t35 81.5q0 54 -34.5 84.5t-98.5 30.5h-72v106h70q52 0 79.5 26.5t27.5 74.5q0 49 -30.5 75.5
t-84.5 26.5q-48 0 -83 -29t-38 -73h-127q3 92 75 154.5t175 62.5q110 0 180 -61t70 -156t-74 -150z" />
    <glyph glyph-name="partialdiff" unicode="&#x2202;" horiz-adv-x="1146" 
d="M569 1401q238 0 363 -163t125 -472q0 -365 -150.5 -579t-408.5 -214q-189 0 -307.5 113.5t-118.5 294.5q0 218 130.5 339.5t366.5 121.5q182 0 324 -43q-9 456 -330 456q-97 0 -167 -52t-85 -136h-159q17 146 134.5 240t282.5 94zM504 119q164 0 265 143t120 397
q-140 43 -303 43q-170 0 -261.5 -80t-91.5 -231q0 -127 72.5 -199.5t198.5 -72.5z" />
    <glyph glyph-name="uni2206" unicode="&#x2206;" horiz-adv-x="1359" 
d="M770 1378l473 -1239v-139h-1126l2 139l479 1239h172zM684 1204l-391 -1059h782z" />
    <glyph glyph-name="product" unicode="&#x220f;" horiz-adv-x="1409" 
d="M195 -252v1630h1022v-1630h-160v1485h-703v-1485h-159z" />
    <glyph glyph-name="summation" unicode="&#x2211;" horiz-adv-x="1034" 
d="M285 -106h690v-146h-893v109l473 723l-473 690v108h868v-145h-659l422 -600v-98z" />
    <glyph glyph-name="minus" unicode="&#x2212;" horiz-adv-x="1187" 
d="M119 623v145h948v-145h-948z" />
    <glyph glyph-name="uni2219" unicode="&#x2219;" horiz-adv-x="538" 
d="M268 598q-50 0 -84 34t-34 83q0 50 34.5 84.5t83.5 34.5q51 0 86 -34.5t35 -84.5q0 -49 -35 -83t-86 -34z" />
    <glyph glyph-name="radical" unicode="&#x221a;" horiz-adv-x="1468" 
d="M1305 1536h174l-1045 -1808h-121v706h-268v146h422v-504z" />
    <glyph glyph-name="infinity" unicode="&#x221e;" horiz-adv-x="1679" 
d="M1243 1026q164 0 267.5 -101.5t103.5 -262.5q0 -162 -101.5 -262.5t-265.5 -100.5q-70 0 -130.5 19t-110.5 56.5t-86.5 76t-77.5 92.5q-42 -55 -79 -93t-87.5 -75.5t-111.5 -56.5t-132 -19q-165 0 -267 100.5t-102 262.5t103 263t268 101q132 0 226.5 -63.5t179.5 -176.5
q41 54 78 92t86 74.5t109.5 55t129.5 18.5zM444 444q93 0 162.5 57t145.5 165q-36 50 -65.5 84t-67.5 66.5t-82 48.5t-93 16q-99 0 -162 -60t-63 -157q0 -99 63 -159.5t162 -60.5zM1237 444q99 0 161 60.5t62 159.5q0 98 -62.5 157.5t-162.5 59.5q-49 0 -92 -16t-81.5 -49
t-67 -66t-66.5 -84q81 -110 149.5 -166t159.5 -56z" />
    <glyph glyph-name="integral" unicode="&#x222b;" horiz-adv-x="632" 
d="M6 -256v145h100q104 0 160 54.5t56 160.5q0 109 -43 342t-86 470.5t-43 355.5q0 161 89 247.5t255 86.5h133v-146h-99q-111 0 -164 -52t-53 -165q2 -102 45 -335t85 -471.5t42 -358.5q0 -156 -91 -245t-253 -89h-133z" />
    <glyph glyph-name="approxequal" unicode="&#x2248;" horiz-adv-x="1187" 
d="M815 766q-49 0 -101 16t-139 58q-99 45 -143 60t-80 15q-86 0 -217 -86v160q70 49 121 67.5t115 18.5q48 0 98.5 -16t140.5 -58q95 -45 140 -60t81 -15q85 0 218 84v-160q-71 -47 -122 -65.5t-112 -18.5zM815 334q-49 0 -101 16t-139 58q-99 45 -143 60t-80 15
q-86 0 -217 -86v160q70 49 121 67.5t115 18.5q48 0 98.5 -16t140.5 -58q95 -45 140 -60t81 -15q85 0 218 84v-160q-71 -47 -122 -65.5t-112 -18.5z" />
    <glyph glyph-name="notequal" unicode="&#x2260;" horiz-adv-x="1187" 
d="M133 844v145h520l129 228h158l-129 -228h242v-145h-324l-160 -285h484v-145h-566l-120 -217h-158l121 217h-197v145h279l159 285h-438z" />
    <glyph glyph-name="lessequal" unicode="&#x2264;" horiz-adv-x="1187" 
d="M1051 1272v-158l-709 -246l709 -243v-158l-922 340v123zM1051 115h-906v145h906v-145z" />
    <glyph glyph-name="greaterequal" unicode="&#x2265;" horiz-adv-x="1187" 
d="M137 1272l922 -342v-123l-922 -340v158l709 243l-709 246v158zM137 115v145h905v-145h-905z" />
    <glyph glyph-name="lozenge" unicode="&#x25ca;" horiz-adv-x="1050" 
d="M565 1378l457 -698l-457 -680h-84l-454 680l454 698h84zM528 199l308 481l-312 498l-309 -498z" />
    <glyph glyph-name="uniF8FF" unicode="&#xf8ff;" horiz-adv-x="2469" 
d="M1395 -158l22 6l-24 -4q151 35 252 133q1 0 6 5v2q14 14 41.5 47t27.5 41q-17 -12 -40.5 -43t-37.5 -43q15 17 15 20h-4v2l-8 -4q-96 -83 -183.5 -120.5t-206.5 -37.5q-54 0 -91 10.5t-117 45.5q4 -1 36.5 -13t49.5 -16q17 -3 22 -2q-14 4 -86 33q62 -11 92 -4
q-116 3 -182 69q29 -18 45 -20q-45 28 -84 67q85 -71 215 -71q98 0 201 41q-91 -5 -232 37l47 -29q0 -3 -19 1.5t-43 13t-38 16.5l-16 10l-2 2q21 11 59 16q2 -2 4 -2h31q9 0 17 2t12 4.5t10.5 6.5t9.5 6l6 2q4 0 4 -2q41 -35 94 -35q14 2 22 6.5t9 9t0 8.5q0 3 2 7t4 4
q8 0 16.5 6t8.5 12q100 23 145 94q-18 -12 -26 -12q-6 0 -6 4q0 9 43 35q26 15 43.5 36t24.5 34.5t19.5 48t18.5 49.5q-23 4 -57 4q-39 1 -88.5 -9.5t-98.5 -25.5t-65 -18q0 -6 -15 -6q-3 0 -6 -3h-20v3q0 12 14 14l58 20h6q0 4 4 4l8 2q3 0 8 5l6 4l15 4h4q4 1 22 10
q1 0 5 1t6 1l40 4h3q10 0 16 2q3 3 6 0h2q2 2 4 2q2 2 6 2l2 -2q2 2 4 2h15q4 0 6 4h10q2 0 17 5q20 8 28 14q5 0 6 4q1 1 -2 2q-3 0 -9.5 1t-10.5 1h-19q-10 0 -14 -2q-2 0 -5 -1t-5 -1h-6q-5 1 -9.5 3t-8 4t-9.5 6t-10 7q-12 7 -14 7l-9 -2q-3 0 -6 -3l-22 -6l-29 -4h-4
q-4 0 -10.5 2t-10.5 2q-2 0 -13.5 -5t-14.5 -5t-8.5 -2t-8.5 -2t-17.5 -4t-16.5 -4q-1 1 -3 2q-1 0 -1.5 0.5t-0.5 1.5q4 11 63.5 34t74.5 21q4 -1 -5 -6q-18 -10 -18 -12h4q4 0 23 4.5t30 5.5q27 0 37 -2h13q21 0 28 14q0 2 -6 2h-8q-2 -2 -6 -2l-10 -2q-13 0 -17 2
q-4 4 -37 4q-2 0 -2 2t41 2l27 7l20 2q2 2 10 2t9 -2q7 -2 17.5 -0.5t10.5 4.5t-16 8q-2 2 -43 2q-1 0 -2 -1t-2 -1h-4q-51 -1 -53 -6q-2 0 -2 2q0 3 19 7.5t24 2.5q-4 4 -27 4q-164 0 -303 -71l-2 -3l-12 13q-43 49 -80 86q-32 32 -73 58.5t-63 29.5q75 71 174.5 112
t196.5 41q157 0 273 -73q-84 49 -203 49q-76 0 -125 -19q46 9 102 9q89 0 166.5 -26.5t130.5 -74.5q-36 22 -54 29t-58 18q116 -38 176.5 -142t60.5 -228q0 -182 -108 -314q-57 -67 -119.5 -108t-159.5 -64l8 4q-20 -4 -24 -4zM205 -18l-39 6q3 33 16 49q13 0 21 8
q9 9 16 23q36 15 47 34l25 48l2 2l33 2l28 10q0 2 8 10q7 12 5 16l-15 41l-4 60q0 4 -4 4q-37 -9 -68 -6q-39 5 -63.5 30t-24.5 64q0 25 14.5 48t31.5 37t32.5 27t16.5 19q0 6 -9 10q-13 3 -26.5 3t-20.5 3q-20 6 -34 23t-17 39q0 20 8 31l54 -27q63 -15 79 -31
q11 -18 11 -35q0 -18 -16 -36.5t-35.5 -33t-35.5 -35t-16 -40.5q0 -61 64 -61q33 0 88 32q77 57 90 60q12 4 35.5 6t34.5 6q12 2 22 8.5t39 32.5q27 24 72 27q22 2 74 35t83 42l64 35q24 8 39 8q19 0 31 -6q50 -18 121.5 -87t111.5 -134q9 -17 12 -41q9 -81 39 -155l21 -23
l67 -74q2 0 2 -2l-4 -4q-34 -6 -71 37q-18 40 -46 49q-2 0 -2 -2q1 -3 6.5 -9t6.5 -9q18 -35 20 -43q3 -19 37 -37l21 -10q5 -6 2 -9l-5 -2q-53 0 -88 35q-6 12 -20 12q-25 -25 -49 -28q-6 2 -27 2t-49 -10.5t-39 -10.5q-19 0 -22 13v41l10 14q0 4 -4 4q-12 6 -15 6
q0 8 31 39q6 23 21 41l-5 4q-29 -9 -49 -6q-23 -15 -47 -8q-2 2 -2 8q25 39 19 84q-2 4 -7 4q-2 0 -6 -4q-8 -52 -22 -74q-2 -2 -1 -3l-5 -2l-35 -9q-8 -4 -8 -10l10 -25l33 -57q0 -10 -11 -49q3 -4 7 0q13 10 24 38q0 15 -4 21l-33 63l11 7l22 -7q10 -32 29 -57q4 -6 4 -20
q0 -13 -4 -17q-17 -30 -25 -41q-8 -8 -33 -8h-10q-41 -23 -92 -35q-4 -2 -14 -2q-19 0 -27 8q-6 5 -23 33q-4 6 -16 6q-10 0 -16 2l-25 43q0 3 4 11q20 4 35 4h8q14 0 23 -9q4 -5 11.5 -19t14.5 -21.5t17 -12.5h6q23 0 43 10q18 13 18 25q-3 29 -32 51q-32 14 -56 41
q-4 6 -8 18t-4 13q-6 6 -10 2q-4 0 -2 -8.5t2 -9.5q2 -4 -2 -17q-4 -4 -17 -4h-98q-7 0 -23.5 -2t-23.5 -2q-20 0 -31 8l-8 8q-4 8 -4 27q0 21 8 57q0 4 -8 4q-4 4 -10 -2q-3 -14 -7.5 -42t-7.5 -42q-16 -36 -51 -53q-28 -15 -72 -18q-84 0 -118 -51q-6 -12 -6 -19h6
q47 50 121 47q51 0 73 9t45 38l19 27q2 2 12 -8l-14 -33q-12 -28 -27 -37q-9 -2 -41 -20q-17 -7 -31 -7q-10 0 -16 3q-29 4 -35 4q-15 0 -33 -7q-5 -3 -14 -11t-14 -11q-38 -18 -39 -17q0 1 -2 1q-23 5 -27 5t-8 -5l-31 -39q-8 -4 -18 -4zM1350 877v501h170q159 0 159 -129
q0 -56 -43 -102q46 -22 66 -51t20 -76q0 -60 -44 -101.5t-107 -41.5h-221zM1012 872q-63 0 -106.5 47.5t-43.5 116.5q0 68 43.5 116t106.5 48q57 0 98 -41v248h102v-533h-100v41q-43 -43 -100 -43zM125 877v501h192q63 0 106.5 -43t43.5 -106q0 -51 -33 -92.5t-82 -51.5
l148 -208h-125l-107 163v121h25q29 0 49 19t20 47q0 27 -19 45t-48 18h-64v-413h-106zM651 864q-68 0 -117 49.5t-49 118.5t49 118.5t117 49.5q73 0 117.5 -46.5t44.5 -121.5v-20h-223q0 -1 1 -2t1 -2q0 -26 19.5 -45t47.5 -19q20 0 38.5 11t25.5 28l80 -39
q-22 -37 -62.5 -58.5t-89.5 -21.5zM1921 215v410h-176v82h440v-82h-178v-410h-86zM2101 215v371h84v-246l111 166q41 62 41 121q0 53 -43 80q41 0 76.5 -33.5t39.5 -77.5q3 -63 -45 -133l-155 -234q-11 -14 -27 -14h-82zM1917 860q-72 0 -115 34.5t-43 94.5v195h99v-180
q0 -28 15.5 -43t43.5 -15q55 0 55 58v180h101v-195q0 -58 -42.5 -93.5t-113.5 -35.5zM2296 874v529h102v-529h-102zM2128 874v529h100v-529h-100zM1456 963h96q29 1 45.5 18.5t18.5 46.5q0 28 -19 47t-45 19h-63v90h35q51 0 51 55q0 22 -14.5 37.5t-36.5 15.5h-68v-329z
M1040 952q30 0 51 24t21 58q0 32 -21.5 55t-50.5 23q-31 0 -53 -23t-22 -55q0 -34 21.5 -58t53.5 -24zM592 1069h123q0 25 -19 42t-45 17q-25 0 -42 -17t-17 -42zM1550 178q10 5 19 0q6 7 23.5 21.5t25.5 27.5q18 29 31 82l-2 -2q0 -4 -6 -15t-15 -11q-12 0 -12 6
q-5 -18 -27.5 -42t-27.5 -36q4 -4 4 -6q0 -3 -6.5 -12t-6.5 -13zM1186 227q2 -2 4 0q3 0 6 6l2 3v4q2 4 2 14q0 23 -20 43l-6 6l-5 8q-4 7 -12 13q-9 6 -16 -7l-2 -6v-2l-4 -8l-5 -8l-6 -6q0 -2 -1 -6.5t-1 -6.5q0 -4 2 -6v-2q6 0 6 2l5 6l6 5q2 4 10 8q7 0 12 -8q6 -7 8 -7
l5 -8q6 -3 6 -14l2 -14v-5q0 -2 2 -4zM805 70q-4 4 -8.5 15.5t-8.5 16.5q-1 4 -7 8t-5 7l4 4q27 0 41 2q6 0 9 -4.5t4.5 -12t3.5 -10.5q1 -2 3 -5.5t2 -5t-1 -5.5q-21 -12 -37 -10zM145 -14l-28 8v8q5 5 6.5 9.5t2.5 15t1 12.5q3 9 14 16q10 -3 19 -16v-4q-3 -7 -7.5 -24.5
t-7.5 -24.5zM977 406h6v2q4 16 4 28q0 20 -6 35q-9 13 -18 18q-7 4 -13 -2q-3 -5 2 -16l4 -4v-2l5 -8q5 -9 10 -28t6 -23zM170 57q-6 6 -6 11q0 12 2 14q22 13 29 22h10q8 -8 10 -14q-19 -28 -29 -33q-8 -3 -16 0zM1386 395q-1 0 -2 0.5t-2 2.5t0 5q2 2 25 13q17 7 53 10
l-4 -2q-9 -4 -18 -9t-14.5 -7.5t-10.5 -5l-8 -4t-6 -2.5t-5 -1h-4h-4zM1114 123h14q13 0 19 2q6 4 6 18v7q0 2 -4 6h-4l-33 -27q0 -1 1 -3t1 -3z" />
    <glyph glyph-name="CR" horiz-adv-x="561" 
 />
    <glyph glyph-name="Iacute_J.loclNLD" horiz-adv-x="1277" 
d="M580 0v145h137q106 0 157.5 47.5t51.5 145.5v1040h159v-1052q0 -158 -89.5 -242t-256.5 -84h-159zM918 1503l192 344h193l-230 -344h-155zM195 0v1378h159v-1378h-159zM190 1503l193 344h192l-229 -344h-156z" />
    <glyph glyph-name="Idotaccent.loclTRK" horiz-adv-x="546" 
d="M195 0v1378h159v-1378h-159zM274 1538q-50 0 -84 33t-34 82q0 47 34.5 80.5t83.5 33.5q50 0 83.5 -33t33.5 -81q0 -50 -33 -82.5t-84 -32.5z" />
    <glyph glyph-name="A.ordn" horiz-adv-x="862" 
d="M666 551l-66 190h-336l-69 -190h-150l307 827h156l309 -827h-151zM432 1241l-127 -379h254z" />
    <glyph glyph-name="C.ordn" horiz-adv-x="991" 
d="M506 537q-189 0 -312.5 122.5t-123.5 307.5t123.5 305.5t312.5 120.5q165 0 280.5 -94.5t135.5 -243.5h-146q-23 94 -98.5 151.5t-173.5 57.5q-123 0 -207 -85t-84 -212t84 -212t207 -85q99 0 174 57.5t98 153.5h146q-23 -154 -138 -249t-278 -95z" />
    <glyph glyph-name="D.ordn" horiz-adv-x="927" 
d="M125 551v827h281q203 0 327.5 -113.5t124.5 -297.5q0 -185 -125.5 -300.5t-326.5 -115.5h-281zM268 678h140q138 0 220.5 79t82.5 210q0 129 -82.5 206.5t-220.5 77.5h-140v-573z" />
    <glyph glyph-name="E.ordn" horiz-adv-x="694" 
d="M125 551v827h491v-125h-350v-215h338v-118h-338v-242h365v-127h-506z" />
    <glyph glyph-name="G.ordn" horiz-adv-x="995" 
d="M514 993h383v-245q-57 -100 -158 -155.5t-227 -55.5q-194 0 -319 122.5t-125 309.5q0 184 123.5 304t314.5 120q148 0 252.5 -75.5t136.5 -205.5h-152q-28 75 -89.5 112.5t-143.5 37.5q-133 0 -215 -82t-82 -213q0 -132 84.5 -215.5t216.5 -83.5q76 0 139.5 29.5
t102.5 80.5v86h-242v129z" />
    <glyph glyph-name="H.ordn" horiz-adv-x="894" 
d="M125 551v827h141v-327h361v327h141v-827h-141v373h-361v-373h-141z" />
    <glyph glyph-name="I.ordn" horiz-adv-x="393" 
d="M125 551v827h141v-827h-141z" />
    <glyph glyph-name="J.ordn" horiz-adv-x="479" 
d="M20 551v127h93q102 0 102 100v600h139v-614q0 -105 -57.5 -159t-171.5 -54h-105z" />
    <glyph glyph-name="K.ordn" horiz-adv-x="770" 
d="M760 551h-170l-324 403v-403h-141v827h141v-358l301 358h170l-329 -389z" />
    <glyph glyph-name="M.ordn" horiz-adv-x="1091" 
d="M778 1378h189v-827h-140v600l-223 -600h-117l-225 612v-612h-137v827h188l234 -639z" />
    <glyph glyph-name="N.ordn" horiz-adv-x="894" 
d="M627 1378h141v-827h-154l-348 596v-596h-141v827h154l348 -596v596z" />
    <glyph glyph-name="P.ordn" horiz-adv-x="727" 
d="M125 551v827h272q130 0 205.5 -68.5t75.5 -185.5t-75.5 -185.5t-205.5 -68.5h-131v-319h-141zM268 995h127q67 0 103.5 32.5t36.5 96.5q0 62 -36.5 95.5t-103.5 33.5h-127v-258z" />
    <glyph glyph-name="R.ordn" horiz-adv-x="780" 
d="M733 551h-166l-198 319h-103v-319h-141v827h272q130 0 205.5 -68.5t75.5 -185.5q0 -87 -42.5 -148t-119.5 -87zM268 1253v-258h127q67 0 103.5 32.5t36.5 96.5q0 62 -36.5 95.5t-103.5 33.5h-127z" />
    <glyph glyph-name="S.ordn" horiz-adv-x="700" 
d="M352 537q-134 0 -213.5 72t-83.5 200h138q3 -76 44 -116t113 -40q67 0 105.5 31.5t38.5 87.5q0 40 -24 65t-87 50l-104 41q-193 75 -193 235q0 105 74 167.5t194 62.5q119 0 189.5 -64t77.5 -182h-138q-6 129 -129 129q-60 0 -93.5 -28t-33.5 -81q0 -41 25.5 -68.5
t83.5 -51.5l108 -41q102 -38 146.5 -94t44.5 -134q0 -110 -77 -175.5t-206 -65.5z" />
    <glyph glyph-name="T.ordn" horiz-adv-x="704" 
d="M276 551v700h-231v127h610v-127h-237v-700h-142z" />
    <glyph glyph-name="U.ordn" horiz-adv-x="876" 
d="M438 537q-148 0 -235.5 91.5t-87.5 245.5v504h141v-506q0 -94 48.5 -148t133.5 -54q84 0 132 53.5t48 148.5v506h142v-504q0 -155 -87 -246t-235 -91z" />
    <glyph glyph-name="Z.ordn" horiz-adv-x="714" 
d="M231 678h420v-127h-583v119l407 581h-389v127h561v-118z" />
    <glyph glyph-name="iacute_j.loclNLD" horiz-adv-x="991" 
d="M168 0v997h158v-997h-158zM160 1147l196 348h185l-224 -348h-157zM412 -334v139h71q95 0 138 44t43 141v1007h157v-1026q0 -150 -77.5 -227.5t-227.5 -77.5h-104zM657 1147l197 348h184l-223 -348h-158z" />
    <glyph glyph-name="i.loclTRK.loclTRK" horiz-adv-x="495" 
d="M168 0v997h158v-997h-158zM248 1233q-46 0 -77.5 31t-31.5 75q0 47 31.5 78t77.5 31q47 0 77.5 -31t30.5 -78q0 -45 -30.5 -75.5t-77.5 -30.5z" />
    <glyph glyph-name="uni0414.loclBGR" horiz-adv-x="1492" 
d="M1303 145h135v-401h-150v256h-1085v-256h-150v401h144l460 1233h177zM748 1171l-377 -1026h759z" />
    <glyph glyph-name="uni041B.loclBGR" horiz-adv-x="1304" 
d="M1233 0h-172l-402 1171l-413 -1171h-174l499 1378h172z" />
    <glyph glyph-name="uni0413.ordn" horiz-adv-x="620" 
d="M125 1378h461v-127h-320v-700h-141v827z" />
    <glyph glyph-name="uni0415.ordn" horiz-adv-x="694" 
d="M125 551v827h491v-125h-350v-215h338v-118h-338v-242h365v-127h-506z" />
    <glyph glyph-name="uni0419.ordn" horiz-adv-x="894" 
d="M446 1448q-106 0 -169.5 56.5t-63.5 152.5h111q0 -53 32 -82t90 -29q60 0 92.5 29t32.5 82h111q0 -97 -63.5 -153t-172.5 -56zM623 1378h145v-827h-141v610l-359 -610h-143v827h141v-602z" />
    <glyph glyph-name="uni041C.ordn" horiz-adv-x="1091" 
d="M778 1378h189v-827h-140v600l-223 -600h-117l-225 612v-612h-137v827h188l234 -639z" />
    <glyph glyph-name="uni041E.ordn" horiz-adv-x="1009" 
d="M504 537q-189 0 -312.5 121.5t-123.5 306.5t123.5 306.5t312.5 121.5q188 0 312 -122t124 -306t-124 -306t-312 -122zM502 668q126 0 208.5 85t82.5 214q0 126 -82.5 210.5t-208.5 84.5q-123 0 -206 -84t-83 -211q0 -129 82 -214t207 -85z" />
    <glyph glyph-name="uni0425.ordn" horiz-adv-x="808" 
d="M762 551h-162l-197 323l-196 -323h-162l268 426l-252 401h160l182 -297l179 297h161l-249 -401z" />
    <glyph glyph-name="uni042F.ordn" horiz-adv-x="778" 
d="M371 1378h282v-827h-141v307h-106l-195 -307h-166l213 323q-83 26 -127.5 89t-44.5 153q0 120 76.5 191t208.5 71zM510 977v276h-135q-71 0 -108.5 -36t-37.5 -103q0 -65 37.5 -101t108.5 -36h135z" />
    <glyph glyph-name="uni0432.loclBGR" horiz-adv-x="1161" 
d="M817 752q118 -41 182 -134.5t64 -226.5q0 -183 -129 -298.5t-332 -115.5q-207 0 -326.5 122t-119.5 333v533q0 203 111 319.5t304 116.5q175 0 285.5 -97t110.5 -253q0 -99 -39.5 -176t-110.5 -123zM561 1255q-120 0 -184 -74.5t-64 -211.5v-170h222q130 0 200 61.5
t70 175.5q0 102 -65 160.5t-179 58.5zM598 123q139 0 221 73.5t82 196.5t-89 194.5t-243 71.5h-256v-227q0 -149 74 -229t211 -80z" />
    <glyph glyph-name="uni0433.loclBGR" horiz-adv-x="907" 
d="M436 -23q-167 0 -264.5 77t-97.5 208q0 210 245 287l185 57q67 20 96 52t29 85q0 59 -47.5 95t-126.5 36t-133 -37.5t-62 -97.5h-158q10 127 105.5 204t243.5 77q152 0 246 -78t94 -201q0 -207 -236 -280l-184 -58q-71 -23 -103 -56.5t-32 -84.5q0 -66 52 -102.5
t148 -36.5q98 0 162.5 47t71.5 125h157q-10 -145 -117 -231.5t-274 -86.5z" />
    <glyph glyph-name="uni0453.loclBGR" horiz-adv-x="907" 
d="M436 -23q-167 0 -264.5 77t-97.5 208q0 210 245 287l185 57q67 20 96 52t29 85q0 59 -47.5 95t-126.5 36t-133 -37.5t-62 -97.5h-158q10 127 105.5 204t243.5 77q152 0 246 -78t94 -201q0 -207 -236 -280l-184 -58q-71 -23 -103 -56.5t-32 -84.5q0 -66 52 -102.5
t148 -36.5q98 0 162.5 47t71.5 125h157q-10 -145 -117 -231.5t-274 -86.5zM362 1147l197 348h184l-223 -348h-158z" />
    <glyph glyph-name="uni0491.loclBGR" horiz-adv-x="907" 
d="M436 -23q-167 0 -264.5 77t-97.5 208q0 210 245 287l185 57q67 20 96 52t29 85q0 59 -47.5 95t-126.5 36t-133 -37.5t-62 -97.5h-158q9 107 79.5 180t183.5 93v235h157v-233q122 -17 195.5 -91.5t73.5 -181.5q0 -207 -236 -280l-184 -58q-71 -23 -103 -56.5t-32 -84.5
q0 -66 52 -102.5t148 -36.5q98 0 162.5 47t71.5 125h157q-10 -145 -117 -231.5t-274 -86.5z" />
    <glyph glyph-name="uni0434.loclBGR" horiz-adv-x="1286" 
d="M969 997h147v-886q0 -226 -138.5 -346.5t-371.5 -120.5q-197 0 -321.5 83.5t-157.5 227.5h160q32 -80 114.5 -126t206.5 -46q164 0 257 82t93 246v82q-58 -84 -155.5 -133.5t-212.5 -49.5q-135 0 -247.5 67t-177.5 184t-65 257q0 214 141.5 358t350.5 144
q121 0 221.5 -52t155.5 -139v168zM616 156q152 0 248.5 101t96.5 261q0 158 -96 257t-249 99q-156 0 -257 -100t-101 -254q0 -157 102 -260.5t256 -103.5z" />
    <glyph glyph-name="uni0436.loclBGR" horiz-adv-x="1363" 
d="M1380 0h-188l-430 479v-479h-158v479l-430 -479h-188l465 520l-433 477h185l401 -448v829h158v-829l403 448h187l-437 -477z" />
    <glyph glyph-name="uni0437.loclBGR" horiz-adv-x="987" 
d="M668 371q108 -42 167.5 -128t59.5 -208q0 -177 -117 -284t-309 -107q-179 0 -289 94.5t-123 261.5h160q8 -99 74 -155t176 -56q123 0 194.5 69.5t71.5 188.5q0 113 -80 180.5t-215 67.5h-121v139h119q115 0 185.5 61t70.5 160q0 104 -60 160.5t-169 56.5
q-105 0 -164 -51.5t-68 -152.5h-159q12 161 119.5 256.5t277.5 95.5q172 0 278.5 -96.5t106.5 -251.5q0 -101 -49 -179.5t-137 -121.5z" />
    <glyph glyph-name="uni0438.loclBGR" horiz-adv-x="1146" 
d="M819 997h158v-997h-148v109q-107 -132 -307 -132q-167 0 -266.5 107.5t-99.5 286.5v626h157v-610q0 -119 67 -191.5t179 -72.5q114 0 187 74t73 190v610z" />
    <glyph glyph-name="uni0439.loclBGR" horiz-adv-x="1146" 
d="M819 997h158v-997h-148v109q-107 -132 -307 -132q-167 0 -266.5 107.5t-99.5 286.5v626h157v-610q0 -119 67 -191.5t179 -72.5q114 0 187 74t73 190v610zM569 1151q-146 0 -227.5 86.5t-81.5 239.5h133q0 -201 176 -201q174 0 174 201h136q0 -152 -82.5 -239t-227.5 -87z
" />
    <glyph glyph-name="uni045D.loclBGR" horiz-adv-x="1146" 
d="M492 1147l-228 348h189l194 -348h-155zM819 997h158v-997h-148v109q-107 -132 -307 -132q-167 0 -266.5 107.5t-99.5 286.5v626h157v-610q0 -119 67 -191.5t179 -72.5q114 0 187 74t73 190v610z" />
    <glyph glyph-name="uni043A.loclBGR" horiz-adv-x="956" 
d="M973 0h-203l-444 461v-461h-158v1378h158v-833l405 452h193l-437 -491z" />
    <glyph glyph-name="uni045C.loclBGR" horiz-adv-x="956" 
d="M485 1147l197 348h184l-223 -348h-158zM973 0h-203l-444 461v-461h-158v1378h158v-833l405 452h193l-437 -491z" />
    <glyph glyph-name="uni043B.loclBGR" horiz-adv-x="1019" 
d="M805 0l-293 817l-299 -817h-168l379 997h172l377 -997h-168z" />
    <glyph glyph-name="uni043F.loclBGR" horiz-adv-x="1146" 
d="M623 1020q167 0 266.5 -107t99.5 -286v-627h-158v608q0 121 -66.5 193.5t-178.5 72.5q-113 0 -186.5 -74.5t-73.5 -191.5v-608h-158v997h147v-110q108 133 308 133z" />
    <glyph glyph-name="uni0442.loclBGR" horiz-adv-x="1771" 
d="M1237 1020q180 0 278.5 -102.5t98.5 -290.5v-627h-158v608q0 122 -62.5 194t-168.5 72q-108 0 -182 -72t-74 -179v-623h-156v608q0 122 -63.5 194t-171.5 72q-110 0 -181 -74.5t-71 -191.5v-608h-158v997h147v-106q107 129 297 129q103 0 180.5 -43t120.5 -125
q51 79 136.5 123.5t187.5 44.5z" />
    <glyph glyph-name="uni0447.loclBGR" horiz-adv-x="1118" 
d="M778 997h158v-997h-158v350q-109 -41 -229 -41q-207 0 -319.5 114.5t-112.5 326.5v247h157v-237q0 -150 73.5 -227.5t215.5 -77.5q119 0 215 41v501z" />
    <glyph glyph-name="uni0446.loclBGR" horiz-adv-x="1218" 
d="M1090 139h55v-395h-148v260q-104 15 -147 100q-115 -127 -324 -127q-167 0 -268.5 108t-101.5 286v626h157v-610q0 -120 66 -192t178 -72q114 0 187 74t73 190v610h158v-718q0 -73 27.5 -106.5t87.5 -33.5z" />
    <glyph glyph-name="uni0448.loclBGR" horiz-adv-x="1785" 
d="M535 -23q-180 0 -278.5 103t-98.5 291v626h157v-608q0 -121 63 -193.5t169 -72.5q108 0 182 72.5t74 179.5v622h155v-608q0 -122 63.5 -194t172.5 -72q110 0 181 74.5t71 191.5v608h158v-997h-148v106q-107 -129 -297 -129q-103 0 -180.5 43t-120.5 125
q-51 -79 -136 -123.5t-187 -44.5z" />
    <glyph glyph-name="uni0449.loclBGR" horiz-adv-x="1845" 
d="M1716 139h58v-395h-152v260q-103 15 -147 98q-103 -125 -285 -125q-113 0 -197.5 45t-128.5 130q-55 -83 -145.5 -129t-204.5 -46q-164 0 -261 106.5t-97 287.5v626h157v-610q0 -120 62.5 -192t169.5 -72q108 0 181 72t73 178v624h157v-610q0 -121 64 -192.5t172 -71.5
q112 0 182 74t70 190v610h158v-718q0 -74 27.5 -107t86.5 -33z" />
    <glyph glyph-name="uni044C.loclBGR" horiz-adv-x="1015" 
d="M313 682h222q182 0 292.5 -93.5t110.5 -248.5q0 -162 -103 -262.5t-278 -100.5q-188 0 -294.5 112t-106.5 302v606h157v-315zM557 123q106 0 162.5 56.5t56.5 154.5t-66.5 152.5t-183.5 54.5h-213v-154q0 -126 61 -195t183 -69z" />
    <glyph glyph-name="uni044A.loclBGR" horiz-adv-x="1089" 
d="M633 -23q-190 0 -296 112t-106 302v465h-254v141h412v-315h219q183 0 293.5 -93.5t110.5 -248.5q0 -162 -103 -262.5t-276 -100.5zM631 123q106 0 162.5 56.5t56.5 154.5t-66.5 152.5t-183.5 54.5h-213v-154q0 -126 61 -195t183 -69z" />
    <glyph glyph-name="uni044B.loclBGR" horiz-adv-x="1427" 
d="M313 682h222q182 0 292.5 -93.5t110.5 -248.5q0 -162 -103 -262.5t-278 -100.5q-188 0 -294.5 112t-106.5 302v606h157v-315zM557 123q106 0 162.5 56.5t56.5 154.5t-66.5 152.5t-183.5 54.5h-213v-154q0 -126 61 -195t183 -69zM1085 0v997h158v-997h-158z" />
    <glyph glyph-name="uni044E.loclBGR" horiz-adv-x="1697" 
d="M1079 -23q-208 0 -356.5 138.5t-163.5 343.5h-219v-459h-158v1378h158v-780h225q34 185 176.5 303.5t337.5 118.5q143 0 262.5 -68.5t188.5 -188t69 -263.5t-69 -264.5t-188.5 -189.5t-262.5 -69zM1079 123q155 0 257 107.5t102 269.5q0 161 -102 267.5t-257 106.5
t-257.5 -106.5t-102.5 -267.5q0 -162 102.5 -269.5t257.5 -107.5z" />
    <glyph glyph-name="uni0431.loclSRB" horiz-adv-x="1183" 
d="M487 1067l275 -145q323 -172 323 -467q0 -210 -137.5 -344t-353.5 -134t-357 134t-141 342q0 97 33.5 180t89.5 139.5t123 93t139 49.5l-86 43q-96 45 -142 98t-46 132q0 78 67 134t177 56h536v-139h-502q-25 0 -40.5 -1.5t-34.5 -7t-28 -19t-9 -35.5q0 -37 37 -63
q15 -11 77 -46zM596 123q137 0 232.5 97.5t95.5 238.5q0 138 -94 229.5t-234 91.5q-141 0 -239.5 -92.5t-98.5 -234.5q0 -139 94 -234.5t244 -95.5z" />
    <glyph glyph-name="uni0438.loclSRB" horiz-adv-x="1185" 
d="M846 997h158v-997h-158v647l-506 -506v-141h-158v997h158v-653l506 502v151z" />
    <glyph glyph-name="Eta.ordn" horiz-adv-x="894" 
d="M125 551v827h141v-327h361v327h141v-827h-141v373h-361v-373h-141z" />
    <glyph glyph-name="Nu.ordn" horiz-adv-x="894" 
d="M627 1378h141v-827h-154l-348 596v-596h-141v827h154l348 -596v596z" />
    <glyph glyph-name="Omicron.ordn" horiz-adv-x="1009" 
d="M504 537q-189 0 -312.5 121.5t-123.5 306.5t123.5 306.5t312.5 121.5q188 0 312 -122t124 -306t-124 -306t-312 -122zM502 668q126 0 208.5 85t82.5 214q0 126 -82.5 210.5t-208.5 84.5q-123 0 -206 -84t-83 -211q0 -129 82 -214t207 -85z" />
    <glyph glyph-name="Sigma.ordn" horiz-adv-x="679" 
d="M227 678h402v-127h-563v123l196 295l-196 286v123h548v-127h-385l197 -282z" />
    <glyph glyph-name="zero.tf" horiz-adv-x="1187" 
d="M594 -23q-218 0 -345.5 139t-127.5 376v395q0 238 127.5 376t345.5 138t344.5 -138t126.5 -376v-395q0 -237 -126.5 -376t-344.5 -139zM594 123q146 0 228.5 96.5t82.5 265.5v408q0 170 -82.5 266t-228.5 96t-229.5 -97t-83.5 -265v-408q0 -168 83.5 -265t229.5 -97z" />
    <glyph glyph-name="one.tf" horiz-adv-x="1187" 
d="M739 145h324v-145h-848v145h365v1069l-347 -110l-38 141l407 133h137v-1233z" />
    <glyph glyph-name="two.tf" horiz-adv-x="1187" 
d="M326 145h729v-145h-897v82q0 81 24.5 155t60 127t89.5 104t98.5 82.5t101.5 65.5q73 44 109.5 67t82.5 56t66.5 55.5t41 54t27.5 64t7 74.5q0 128 -71 196t-181 68q-121 0 -196.5 -79t-75.5 -207h-164q0 197 119 316.5t315 119.5q188 0 304 -110t116 -298
q0 -51 -10.5 -95.5t-25 -79.5t-45 -71t-55.5 -60.5t-72.5 -58.5t-79 -54.5t-91.5 -57.5q-157 -98 -232 -177.5t-95 -193.5z" />
    <glyph glyph-name="three.tf" horiz-adv-x="1187" 
d="M834 727q104 -43 160.5 -128.5t56.5 -203.5q0 -181 -131.5 -299.5t-331.5 -118.5q-198 0 -320 117t-129 318h162q5 -129 82 -207t201 -78q134 0 217.5 74t83.5 192q0 120 -80.5 188t-222.5 68h-138v144h136q123 0 189.5 59.5t66.5 171.5q0 106 -66 166.5t-184 60.5
q-115 0 -189.5 -64t-79.5 -167h-159q6 166 128.5 273.5t305.5 107.5q184 0 296.5 -101.5t112.5 -267.5q0 -102 -43.5 -180.5t-123.5 -124.5z" />
    <glyph glyph-name="four.tf" horiz-adv-x="1187" 
d="M1102 401v-147h-197v-254h-160v254h-655v139l627 985h188v-977h197zM745 1169l-483 -768h483v768z" />
    <glyph glyph-name="five.tf" horiz-adv-x="1187" 
d="M649 891q188 0 311 -127t123 -320q0 -206 -130.5 -336.5t-336.5 -130.5q-185 0 -309 112t-139 292h160q11 -109 93 -183.5t195 -74.5q131 0 218.5 91t87.5 230q0 132 -84 216.5t-215 84.5q-82 0 -153.5 -35t-121.5 -98h-145v766h788v-145h-637v-451q121 109 295 109z" />
    <glyph glyph-name="six.tf" horiz-adv-x="1187" 
d="M614 887q189 0 319 -131t130 -322q0 -195 -134.5 -326t-334.5 -131t-331.5 129.5t-131.5 325.5q0 90 36.5 178.5t133.5 233.5l356 534h189l-340 -504q57 13 108 13zM596 123q130 0 217.5 88.5t87.5 220.5q0 134 -86.5 221.5t-218.5 87.5q-129 0 -216 -88.5t-87 -220.5
q0 -133 86 -221t217 -88z" />
    <glyph glyph-name="seven.tf" horiz-adv-x="1187" 
d="M133 1378h887v-141l-574 -1237h-172l582 1233h-723v145z" />
    <glyph glyph-name="eight.tf" horiz-adv-x="1187" 
d="M817 727q105 -46 164 -137.5t59 -214.5q0 -177 -124.5 -287.5t-323.5 -110.5q-198 0 -323.5 109.5t-125.5 282.5q0 123 61 216.5t169 141.5q-91 45 -142 124.5t-51 182.5q0 158 118 262.5t298 104.5t296 -103t116 -262q0 -103 -50.5 -183.5t-140.5 -125.5zM596 1255
q-114 0 -185 -63t-71 -164q0 -103 72 -169t182 -66q112 0 182 66t70 171q0 100 -69 162.5t-181 62.5zM592 123q130 0 209.5 70t79.5 186q0 121 -78.5 195.5t-204.5 74.5q-132 0 -213.5 -76t-81.5 -198q0 -114 80 -183t209 -69z" />
    <glyph glyph-name="nine.tf" horiz-adv-x="1187" 
d="M573 492q-189 0 -318.5 130.5t-129.5 321.5q0 195 134.5 326t334.5 131t331.5 -129.5t131.5 -325.5q0 -90 -36.5 -178t-133.5 -233l-357 -535h-188l340 504q-53 -12 -109 -12zM592 1255q-130 0 -217.5 -88.5t-87.5 -220.5q0 -134 86.5 -221.5t218.5 -87.5q129 0 216 88.5
t87 220.5q0 133 -86 221t-217 88z" />
    <glyph glyph-name="zero.zero" horiz-adv-x="1601" 
d="M801 1401q147 0 275.5 -54.5t220.5 -148.5t145 -226t53 -282q0 -200 -90.5 -363.5t-249.5 -256.5t-354 -93t-354.5 93t-251 256.5t-91.5 363.5t91 363t250.5 255.5t355.5 92.5zM801 1251q-112 0 -210.5 -42.5t-169 -116t-111 -177.5t-40.5 -223q0 -187 99 -340l774 774
q-141 125 -342 125zM801 127q150 0 271 73t189 202t68 290q0 187 -96 332l-774 -774q145 -123 342 -123z" />
    <glyph glyph-name="exclamdown.case" horiz-adv-x="567" 
d="M215 956h139l21 -956h-180zM283 1401q49 0 83.5 -34t34.5 -81q0 -49 -34 -82t-84 -33q-48 0 -82.5 33t-34.5 82q0 47 35 81t82 34z" />
    <glyph glyph-name="questiondown.case" horiz-adv-x="802" 
d="M692 0h-252q-171 0 -263.5 81.5t-92.5 231.5q0 74 25.5 131.5t95 132.5t211.5 195v184h145v-260q-141 -118 -204.5 -179.5t-87 -103t-23.5 -89.5q0 -92 53.5 -135.5t167.5 -43.5h225v-145zM483 1171q-50 0 -84 33t-34 82q0 47 34.5 81t83.5 34q47 0 82 -34t35 -81
q0 -49 -34.5 -82t-82.5 -33z" />
    <glyph glyph-name="emdash.down" horiz-adv-x="2035" 
d="M96 477v148h1843v-148h-1843z" />
    <glyph glyph-name="endash.down" horiz-adv-x="1011" 
d="M82 479v146h846v-146h-846z" />
    <glyph glyph-name="hyphen.down" horiz-adv-x="663" 
d="M92 479v146h477v-146h-477z" />
    <glyph glyph-name="uni0308.case" 
d="M201 1544q-46 0 -79.5 32.5t-33.5 76.5q0 45 33 77.5t80 32.5q49 0 80.5 -32t31.5 -78t-32.5 -77.5t-79.5 -31.5zM-211 1544q-47 0 -80 31.5t-33 77.5q0 44 33 76t80 32q49 0 81 -31t32 -77t-33 -77.5t-80 -31.5z" />
    <glyph glyph-name="uni0307.case" 
d="M-4 1538q-50 0 -84.5 33t-34.5 82q0 47 35 80.5t84 33.5q50 0 83.5 -33t33.5 -81q0 -50 -33 -82.5t-84 -32.5z" />
    <glyph glyph-name="gravecomb.case" 
d="M-76 1503l-227 344h190l193 -344h-156z" />
    <glyph glyph-name="acutecomb.case" 
d="M-90 1503l192 344h193l-229 -344h-156z" />
    <glyph glyph-name="uni030B.case" 
d="M-240 1503l232 344h155l-237 -344h-150zM78 1503l237 344h168l-264 -344h-141z" />
    <glyph glyph-name="uni0302.case" 
d="M299 1503h-152l-153 213l-152 -213h-151l235 344h137z" />
    <glyph glyph-name="uni030C.case" 
d="M147 1847h152l-236 -344h-137l-235 344h151l152 -213z" />
    <glyph glyph-name="uni0306.case" 
d="M-6 1507q-149 0 -251.5 95.5t-102.5 228.5h133q0 -82 64 -140.5t157 -58.5t156 58t63 141h135q0 -133 -102.5 -228.5t-251.5 -95.5z" />
    <glyph glyph-name="uni030A.case" 
d="M-6 1415q-97 0 -162 64t-65 159q0 94 65 158t162 64q95 0 161 -64t66 -158q0 -95 -65.5 -159t-161.5 -64zM-2 1526q44 0 75 32.5t31 79.5q0 46 -31 77.5t-75 31.5q-49 0 -80 -30.5t-31 -78.5q0 -49 31.5 -80.5t79.5 -31.5z" />
    <glyph glyph-name="tildecomb.case" 
d="M139 1509q-70 0 -155 50q-86 47 -131 47q-72 0 -170 -68v139q84 67 170 70q60 0 155 -49q58 -29 82.5 -38t46.5 -9q72 0 170 65v-137q-84 -67 -168 -70z" />
    <glyph glyph-name="uni0304.case" 
d="M-295 1575v129h574v-129h-574z" />
    <glyph glyph-name="uni0327.cr" 
d="M-84 25h156v-281h-156v281z" />
    <glyph glyph-name="uni0304.i" 
d="M-233 1217v126h452v-126h-452z" />
    <glyph glyph-name="uni0328.long" 
d="M-162 -387q-110 0 -174.5 45t-64.5 123q0 83 71.5 160.5t259.5 197.5l64 -65l-172 -150q-47 -44 -61.5 -65.5t-14.5 -51.5q0 -83 127 -83h90v-105q-38 -6 -125 -6z" />
    <glyph glyph-name="uni030C.slovak" 
d="M-70 983l31 395h176l-84 -395h-123z" />
    <glyph glyph-name="brevecombcy" 
d="M-6 1151q-146 0 -227.5 86.5t-81.5 239.5h133q0 -201 176 -201q174 0 174 201h135q0 -152 -82 -239t-227 -87z" />
    <glyph glyph-name="brevecombcy.case" 
d="M-6 1507q-167 0 -268 85.5t-101 238.5h133q0 -91 64.5 -145t171.5 -54t170 54t63 145h135q0 -154 -100.5 -239t-267.5 -85z" />
    </font>
</defs>
</svg>
