<?xml version="1.0" standalone="no"?>
<!DOCTYPE svg PUBLIC "-//W3C//DTD SVG 1.1//EN" "http://www.w3.org/Graphics/SVG/1.1/DTD/svg11.dtd" >
<svg xmlns="http://www.w3.org/2000/svg" xmlns:xlink="http://www.w3.org/1999/xlink" version="1.1">
<metadata>
Created by FontForge 20170731 at Wed Aug 19 12:27:15 2020
 By Aleksey,,,
Exclusively designed for Red Bull TV. Copyright (C) 2015 by Red Bull Media House GmbH. All rights reserved.
</metadata>
<defs>
<font id="Bull-Medium" horiz-adv-x="0" >
  <font-face 
    font-family="Bull Medium"
    font-weight="500"
    font-stretch="normal"
    units-per-em="2048"
    panose-1="2 11 6 4 4 0 0 0 0 0"
    ascent="1638"
    descent="-410"
    x-height="1004"
    cap-height="1378"
    bbox="-436 -444 2527 1972"
    underline-thickness="163"
    underline-position="-388"
    unicode-range="U+0020-FB02"
  />
<missing-glyph horiz-adv-x="1470" 
d="M180 1378h1110v-1378h-1110v1378zM1139 131v1110h-815z" />
    <glyph glyph-name="fi" unicode="fi" horiz-adv-x="1173" 
d="M674 1198h-115q-83 0 -123.5 -38.5t-40.5 -117.5v-38h246v-183h-246v-821h-211v821h-141v183h141v45q0 329 357 329h133v-180zM913 1210q-57 0 -95 38t-38 95t38 93.5t95 36.5q59 0 97.5 -36.5t38.5 -93.5t-39 -95t-97 -38zM807 0v1004h211v-1004h-211z" />
    <glyph glyph-name="fl" unicode="fl" horiz-adv-x="1173" 
d="M674 1198h-115q-83 0 -123.5 -38.5t-40.5 -117.5v-38h246v-183h-246v-821h-211v821h-141v183h141v45q0 329 357 329h133v-180zM807 0v1378h211v-1378h-211z" />
    <glyph glyph-name=".notdef" horiz-adv-x="1470" 
d="M180 1378h1110v-1378h-1110v1378zM1139 131v1110h-815z" />
    <glyph glyph-name=".null" 
 />
    <glyph glyph-name="nonmarkingreturn" horiz-adv-x="682" 
 />
    <glyph glyph-name="space" unicode=" " horiz-adv-x="559" 
 />
    <glyph glyph-name="exclam" unicode="!" horiz-adv-x="608" 
d="M215 440l-33 938h244l-31 -938h-180zM301 -25q-59 0 -99 40t-40 98q0 59 40 98t99 39q62 0 102.5 -38.5t40.5 -98.5q0 -59 -41 -98.5t-102 -39.5z" />
    <glyph glyph-name="quotedbl" unicode="&#x22;" horiz-adv-x="870" 
d="M164 825l-25 553h203v-553h-178zM526 825v553h203l-24 -553h-179z" />
    <glyph glyph-name="numbersign" unicode="#" horiz-adv-x="1232" 
d="M1200 831h-199l-40 -303h192v-178h-217l-47 -350h-197l47 350h-336l-45 -350h-196l47 350h-174v178h198l39 303h-190v177h215l47 354h197l-47 -354h335l48 354h196l-47 -354h174v-177zM422 526h346l43 308h-346z" />
    <glyph glyph-name="dollar" unicode="$" horiz-adv-x="1075" 
d="M993 391q0 -139 -96.5 -230.5t-263.5 -113.5v-242h-201v244q-162 26 -258.5 125.5t-103.5 251.5h206q7 -98 79.5 -155.5t183.5 -57.5q118 0 181.5 43.5t63.5 124.5q0 73 -38 111.5t-148 76.5l-168 60q-164 59 -238.5 140t-74.5 202q0 126 85.5 211.5t229.5 109.5v242h201
v-242q145 -23 229.5 -111.5t95.5 -226.5h-206q-10 85 -68 130.5t-154 45.5q-99 0 -151.5 -40.5t-52.5 -116.5q0 -62 39.5 -99t146.5 -77l176 -64q168 -65 236.5 -141.5t68.5 -200.5z" />
    <glyph glyph-name="percent" unicode="%" horiz-adv-x="1753" 
d="M426 700q-152 0 -254 101t-102 250t102 249.5t254 100.5t255 -100.5t103 -249.5q0 -148 -103 -249.5t-255 -101.5zM371 0l817 1378h196l-819 -1378h-194zM428 866q80 0 132 52.5t52 134.5q0 81 -52 133.5t-132 52.5t-131 -51.5t-51 -134.5q0 -82 51 -134.5t131 -52.5z
M1325 -23q-152 0 -254 101t-102 250q0 150 101.5 250t254.5 100t255.5 -100.5t102.5 -249.5q0 -148 -103 -249.5t-255 -101.5zM1329 143q79 0 130.5 53t51.5 136q0 80 -52.5 132t-131.5 52q-80 0 -131 -51.5t-51 -132.5q0 -83 51 -136t133 -53z" />
    <glyph glyph-name="ampersand" unicode="&#x26;" horiz-adv-x="1290" 
d="M997 297l258 -297h-247l-125 143q-156 -166 -383 -166q-191 0 -307.5 100.5t-116.5 262.5q0 115 66.5 211.5t211.5 191.5q-81 93 -114 167.5t-33 158.5q0 149 95 240.5t249 91.5q148 0 244 -85t96 -218q0 -100 -61 -191.5t-193 -189.5l-4 -4l229 -264l168 296h225z
M551 1229q-67 0 -107.5 -44t-40.5 -116q0 -51 25 -99.5t90 -125.5l4 2q168 128 168 244q0 62 -39 100.5t-100 38.5zM512 160q139 0 246 125l-285 323q-99 -76 -139.5 -135t-40.5 -125q0 -86 59.5 -137t159.5 -51z" />
    <glyph glyph-name="quotesingle" unicode="'" horiz-adv-x="503" 
d="M164 825l-25 553h223l-24 -553h-174z" />
    <glyph glyph-name="parenleft" unicode="(" horiz-adv-x="733" 
d="M727 -166h-231q-160 170 -243 389.5t-83 468.5q0 246 84 466.5t242 389.5h231q-172 -161 -266 -385.5t-94 -470.5q0 -248 94 -472.5t266 -385.5z" />
    <glyph glyph-name="parenright" unicode=")" horiz-adv-x="733" 
d="M238 -166h-232q172 161 266.5 386t94.5 472q0 246 -94.5 470.5t-266.5 385.5h232q158 -168 241.5 -388.5t83.5 -467.5q0 -250 -83 -469t-242 -389z" />
    <glyph glyph-name="asterisk" unicode="*" horiz-adv-x="833" 
d="M760 1182l-213 -115l213 -117l-70 -125l-207 129l6 -245h-143l6 245l-209 -129l-71 125l215 117l-215 115l71 125l209 -129l-6 243h143l-6 -241l207 127z" />
    <glyph glyph-name="plus" unicode="+" horiz-adv-x="1187" 
d="M496 219v399h-392v183h392v399h200v-399h387v-183h-387v-399h-200z" />
    <glyph glyph-name="comma" unicode="," horiz-adv-x="544" 
d="M152 -330l24 559h227l-84 -559h-167z" />
    <glyph glyph-name="hyphen" unicode="-" horiz-adv-x="667" 
d="M86 543v188h494v-188h-494z" />
    <glyph glyph-name="period" unicode="." horiz-adv-x="559" 
d="M279 -25q-60 0 -102 41t-42 101q0 61 42 102t102 41q63 0 104 -40.5t41 -102.5q0 -60 -41 -101t-104 -41z" />
    <glyph glyph-name="slash" unicode="/" horiz-adv-x="1036" 
d="M106 -61l617 1501h207l-617 -1501h-207z" />
    <glyph glyph-name="zero" unicode="0" horiz-adv-x="1599" 
d="M799 -25q-148 0 -279 54.5t-224.5 149.5t-147.5 227.5t-54 283.5t54 283.5t147 226.5t224 148.5t280 54.5q150 0 281 -54.5t224.5 -148.5t147 -226.5t53.5 -283.5q0 -201 -92 -365t-253.5 -257t-360.5 -93zM801 174q209 0 347 147t138 371q0 221 -138.5 366.5
t-346.5 145.5q-209 0 -347.5 -145.5t-138.5 -366.5q0 -224 137.5 -371t348.5 -147z" />
    <glyph glyph-name="one" unicode="1" horiz-adv-x="751" 
d="M381 1378h178v-1378h-213v1165l-254 -80l-49 185z" />
    <glyph glyph-name="two" unicode="2" horiz-adv-x="1112" 
d="M319 190h709v-190h-930v96q0 78 23.5 149.5t58 124.5t88 105t99.5 86t106 72q62 38 91 56t71 46.5t60 45t41 40.5t31 45t14.5 47.5t6.5 57.5q0 113 -61.5 172t-159.5 59q-106 0 -171.5 -70t-65.5 -186h-215q0 209 124.5 333t331.5 124q197 0 317 -112.5t120 -305.5
q0 -50 -10 -94.5t-24.5 -79.5t-44 -70.5t-54.5 -60.5t-71 -58.5t-79 -55t-92 -58.5q-143 -88 -215.5 -157t-98.5 -161z" />
    <glyph glyph-name="three" unicode="3" horiz-adv-x="1132" 
d="M819 723q102 -45 156.5 -129.5t54.5 -200.5q0 -182 -134.5 -299t-340.5 -117q-210 0 -335 119t-132 328h211q5 -114 73 -183t177 -69q117 0 189.5 64t72.5 167q0 106 -69.5 165t-194.5 59h-139v180h135q109 0 168 52.5t59 150.5q0 94 -58.5 146t-162.5 52
q-103 0 -168 -57.5t-70 -151.5h-209q7 178 134.5 290t322.5 112q192 0 309 -103t117 -272q0 -103 -43 -180.5t-123 -122.5z" />
    <glyph glyph-name="four" unicode="4" horiz-adv-x="1167" 
d="M1104 432v-188h-189v-244h-213v244h-643v176l617 958h239v-946h189zM711 1118l-430 -686h430v686z" />
    <glyph glyph-name="five" unicode="5" horiz-adv-x="1177" 
d="M655 901q188 0 311.5 -129.5t123.5 -325.5q0 -209 -134 -339t-348 -130q-197 0 -324.5 114.5t-140.5 303.5h211q9 -97 81.5 -162t170.5 -65q117 0 192.5 80.5t75.5 204.5q0 116 -74 191t-190 75q-70 0 -133 -32t-104 -89h-195v780h823v-190h-622v-375q117 88 276 88z" />
    <glyph glyph-name="six" unicode="6" horiz-adv-x="1153" 
d="M602 907q192 0 323.5 -133.5t131.5 -327.5q0 -199 -140 -335t-344 -136q-206 0 -342.5 134.5t-136.5 336.5q0 92 36 180t132 234l348 518h250l-317 -475q40 4 59 4zM578 170q115 0 191.5 78.5t76.5 197.5t-75.5 196t-192.5 77t-194 -78t-77 -197t76.5 -196.5t194.5 -77.5
z" />
    <glyph glyph-name="seven" unicode="7" horiz-adv-x="1032" 
d="M63 1378h895v-184l-557 -1194h-231l567 1186h-674v192z" />
    <glyph glyph-name="eight" unicode="8" horiz-adv-x="1144" 
d="M825 725q104 -48 160.5 -137.5t56.5 -210.5q0 -180 -129 -291t-340 -111q-210 0 -339.5 110.5t-129.5 287.5q0 121 58 211.5t162 138.5q-89 46 -138 125.5t-49 181.5q0 162 123.5 267.5t314.5 105.5t313 -104.5t122 -266.5q0 -102 -48.5 -181.5t-136.5 -125.5zM575 1221
q-101 0 -164 -56t-63 -145q0 -94 63.5 -153.5t163.5 -59.5q98 0 161 59.5t63 153.5q0 89 -62 145t-162 56zM571 158q117 0 186.5 62t69.5 165q0 109 -69 175.5t-183 66.5q-117 0 -188.5 -68.5t-71.5 -177.5q0 -101 70 -162t186 -61z" />
    <glyph glyph-name="nine" unicode="9" horiz-adv-x="1153" 
d="M551 471q-192 0 -323.5 133.5t-131.5 327.5q0 199 140 335t344 136q206 0 342.5 -134.5t136.5 -336.5q0 -92 -36 -180t-132 -234l-348 -518h-250l317 475q-40 -4 -59 -4zM575 1208q-115 0 -191.5 -78.5t-76.5 -197.5t75.5 -196t192.5 -77t194 78t77 197t-76.5 196.5
t-194.5 77.5z" />
    <glyph glyph-name="colon" unicode=":" horiz-adv-x="600" 
d="M299 664q-60 0 -101.5 40.5t-41.5 100.5q0 61 41.5 102t101.5 41q63 0 104 -40.5t41 -102.5q0 -60 -41 -100.5t-104 -40.5zM299 -25q-60 0 -101.5 41t-41.5 101q0 61 41.5 102t101.5 41q63 0 104 -40.5t41 -102.5q0 -60 -41 -101t-104 -41z" />
    <glyph glyph-name="semicolon" unicode=";" horiz-adv-x="600" 
d="M299 664q-60 0 -101.5 40.5t-41.5 100.5q0 61 41.5 102t101.5 41q63 0 104 -40.5t41 -102.5q0 -60 -41 -100.5t-104 -40.5zM172 -330l25 559h227l-84 -559h-168z" />
    <glyph glyph-name="less" unicode="&#x3c;" horiz-adv-x="1187" 
d="M1073 1163v-207l-688 -262l688 -262v-209l-952 387v166z" />
    <glyph glyph-name="equal" unicode="=" horiz-adv-x="1187" 
d="M125 823v187h940v-187h-940zM125 385v184h940v-184h-940z" />
    <glyph glyph-name="greater" unicode="&#x3e;" horiz-adv-x="1187" 
d="M115 1163l952 -387v-166l-952 -387v209l688 262l-688 262v207z" />
    <glyph glyph-name="question" unicode="?" horiz-adv-x="821" 
d="M106 1378h269q175 0 271.5 -84.5t96.5 -238.5q0 -109 -64 -197.5t-261 -247.5v-170h-187v260q135 109 195 164.5t82 91.5t22 78q0 81 -46.5 118.5t-145.5 37.5h-232v188zM328 250q62 0 102.5 -38.5t40.5 -98.5q0 -59 -41 -98.5t-102 -39.5q-59 0 -99.5 40t-40.5 98
q0 59 40.5 98t99.5 39z" />
    <glyph glyph-name="at" unicode="@" horiz-adv-x="1916" 
d="M997 1358q175 0 328.5 -55t262.5 -151.5t172 -232t63 -290.5q0 -245 -147 -391t-384 -146h-96v113q-45 -64 -118 -99.5t-163 -35.5q-171 0 -285 122.5t-114 309.5q0 185 113.5 305.5t290.5 120.5q89 0 161 -34t115 -97v112h172v-645q130 15 203.5 110.5t73.5 252.5
q0 165 -82 293t-228.5 198t-333.5 70q-209 0 -373 -88t-255.5 -245.5t-91.5 -358.5t92.5 -355.5t259.5 -239.5t383 -85h209v-168h-213q-203 -2 -374.5 59.5t-290.5 172t-186 266t-67 337.5q0 249 118.5 449.5t325 313t459.5 112.5zM950 240q107 0 173.5 71.5t66.5 188.5
q0 116 -66 186t-174 70q-109 0 -176 -71t-67 -185q0 -116 67 -188t176 -72z" />
    <glyph glyph-name="A" unicode="A" horiz-adv-x="1376" 
d="M1096 0l-117 326h-578l-118 -326h-228l520 1378h230l518 -1378h-227zM690 1157l-227 -657h457z" />
    <glyph glyph-name="B" unicode="B" horiz-adv-x="1280" 
d="M981 731q211 -91 211 -348q0 -177 -123.5 -280t-335.5 -103h-553v1378h518q201 0 315.5 -92.5t114.5 -255.5q0 -209 -147 -299zM389 184h326q126 0 194 59.5t68 168.5q0 103 -71.5 161t-200.5 58h-316v-447zM694 1194h-305v-383h299q109 0 168 50.5t59 142.5
q0 190 -221 190z" />
    <glyph glyph-name="C" unicode="C" horiz-adv-x="1593" 
d="M815 -25q-204 0 -369 92.5t-258.5 256.5t-93.5 366q0 150 55 282.5t150.5 227t229.5 149t286 54.5q269 0 457.5 -148t226.5 -391h-229q-40 155 -163 246.5t-292 91.5q-212 0 -355 -147t-143 -365q0 -220 143 -367t355 -147q169 0 292 91.5t163 246.5h229
q-38 -243 -226.5 -391t-457.5 -148z" />
    <glyph glyph-name="D" unicode="D" horiz-adv-x="1482" 
d="M180 0v1378h455q340 0 547 -188.5t207 -497.5q0 -203 -94.5 -360.5t-266 -244.5t-393.5 -87h-455zM395 195h240q239 0 384.5 136.5t145.5 360.5q0 223 -144.5 357.5t-385.5 134.5h-240v-989z" />
    <glyph glyph-name="E" unicode="E" horiz-adv-x="1105" 
d="M180 0v1378h811v-190h-596v-381h576v-184h-576v-433h619v-190h-834z" />
    <glyph glyph-name="F" unicode="F" horiz-adv-x="1050" 
d="M180 0v1378h803v-194h-588v-414h570v-190h-570v-580h-215z" />
    <glyph glyph-name="G" unicode="G" horiz-adv-x="1607" 
d="M834 705h636v-392q-99 -164 -262 -250t-368 -86q-214 0 -384 92t-265 255.5t-95 369.5q0 152 54.5 283.5t150 224.5t230.5 146t290 53q238 0 408 -118.5t227 -324.5h-235q-51 118 -156 182t-246 64q-220 0 -362 -144t-142 -368q0 -229 148 -374.5t381 -145.5
q270 0 413 188v162h-423v183z" />
    <glyph glyph-name="H" unicode="H" horiz-adv-x="1415" 
d="M180 0v1378h215v-549h627v549h215v-1378h-215v635h-627v-635h-215z" />
    <glyph glyph-name="I" unicode="I" horiz-adv-x="573" 
d="M180 0v1378h215v-1378h-215z" />
    <glyph glyph-name="J" unicode="J" horiz-adv-x="749" 
d="M29 0v195h133q99 0 146.5 43t47.5 133v1007h215v-1030q0 -170 -95.5 -259t-278.5 -89h-168z" />
    <glyph glyph-name="K" unicode="K" horiz-adv-x="1216" 
d="M1212 0h-264l-553 668v-668h-215v1378h215v-596l527 596h254l-570 -647z" />
    <glyph glyph-name="L" unicode="L" horiz-adv-x="983" 
d="M180 0v1378h215v-1183h543v-195h-758z" />
    <glyph glyph-name="M" unicode="M" horiz-adv-x="1746" 
d="M1270 1378h297v-1378h-209v1057l-391 -1057h-187l-391 1057v-1057h-207l-2 1378h295l399 -1102z" />
    <glyph glyph-name="N" unicode="N" horiz-adv-x="1417" 
d="M1026 1378h213v-1378h-229l-619 1038v-1038h-211v1378h238l608 -1020v1020z" />
    <glyph glyph-name="O" unicode="O" horiz-adv-x="1632" 
d="M817 -25q-152 0 -286.5 54.5t-230 149.5t-151 227.5t-55.5 283.5q0 201 94 364.5t259.5 256t369.5 92.5q153 0 287 -54.5t229 -149t150 -227t55 -282.5q0 -151 -55 -283.5t-150.5 -227.5t-229.5 -149.5t-286 -54.5zM817 176q215 0 356.5 146.5t141.5 369.5
q0 220 -142 365t-356 145q-215 0 -357.5 -145t-142.5 -365q0 -223 141.5 -369.5t358.5 -146.5z" />
    <glyph glyph-name="P" unicode="P" horiz-adv-x="1150" 
d="M180 0v1378h449q212 0 334 -111.5t122 -305.5t-123 -309t-333 -115h-234v-537h-215zM393 721h228q114 0 178.5 63.5t64.5 173.5q0 109 -63.5 170.5t-179.5 61.5h-228v-469z" />
    <glyph glyph-name="Q" unicode="Q" horiz-adv-x="1632" 
d="M1077 55l516 -143v-188l-958 274q-250 70 -395.5 255t-145.5 431q0 149 56.5 282t152.5 229t231 152t285 56q202 0 369 -94t262.5 -256.5t95.5 -358.5q0 -227 -127.5 -398t-341.5 -241zM317 692q0 -221 143.5 -368.5t358.5 -147.5q140 0 255.5 67.5t181 186t65.5 262.5
q0 218 -144 364t-358 146q-215 0 -358.5 -146t-143.5 -364z" />
    <glyph glyph-name="R" unicode="R" horiz-adv-x="1234" 
d="M180 0v1378h449q212 0 334 -111.5t122 -305.5q0 -147 -72.5 -251t-203.5 -147l367 -563h-252l-342 537h-187v-537h-215zM393 721h228q114 0 178.5 63.5t64.5 173.5q0 109 -63.5 170.5t-179.5 61.5h-228v-469z" />
    <glyph glyph-name="S" unicode="S" horiz-adv-x="1122" 
d="M567 -25q-218 0 -349 118.5t-140 322.5h213q6 -118 79.5 -188t192.5 -70q118 0 187 55t69 149q0 75 -41.5 121.5t-148.5 87.5l-183 70q-165 63 -240 157t-75 236q0 164 121.5 265.5t318.5 101.5t315.5 -103.5t131.5 -287.5h-213q-6 100 -67.5 155.5t-166.5 55.5
q-103 0 -165 -48.5t-62 -130.5q0 -79 45 -131t148 -92l190 -71q165 -63 237 -150.5t72 -224.5q0 -183 -127.5 -290.5t-341.5 -107.5z" />
    <glyph glyph-name="T" unicode="T" horiz-adv-x="1144" 
d="M455 0v1184h-389v194h1011v-194h-407v-1184h-215z" />
    <glyph glyph-name="U" unicode="U" horiz-adv-x="1390" 
d="M694 -25q-243 0 -386.5 153t-143.5 411v839h215v-843q0 -166 84.5 -263.5t230.5 -97.5q149 0 233.5 96t84.5 265v843h215v-839q0 -259 -144 -411.5t-389 -152.5z" />
    <glyph glyph-name="V" unicode="V" horiz-adv-x="1312" 
d="M1026 1378h234l-488 -1378h-231l-486 1378h234l368 -1104z" />
    <glyph glyph-name="W" unicode="W" horiz-adv-x="2025" 
d="M1694 1378h233l-397 -1378h-240l-276 1079l-277 -1079h-239l-398 1378h234l293 -1093l268 1093h238l268 -1093z" />
    <glyph glyph-name="X" unicode="X" horiz-adv-x="1294" 
d="M1235 0h-246l-342 551l-340 -551h-248l451 711l-422 667h246l313 -508l309 508h248l-420 -667z" />
    <glyph glyph-name="Y" unicode="Y" horiz-adv-x="1255" 
d="M1196 1378l-461 -790v-588h-215v594l-459 784h248l322 -587l319 587h246z" />
    <glyph glyph-name="Z" unicode="Z" horiz-adv-x="1169" 
d="M348 195h731v-195h-983v182l717 1002h-682v194h940v-184z" />
    <glyph glyph-name="bracketleft" unicode="[" horiz-adv-x="720" 
d="M174 -186v1755h442v-174h-243v-1407h243v-174h-442z" />
    <glyph glyph-name="backslash" unicode="\" horiz-adv-x="1036" 
d="M930 -61h-207l-617 1501h207z" />
    <glyph glyph-name="bracketright" unicode="]" horiz-adv-x="720" 
d="M547 -186h-443v174h244v1407h-244v174h443v-1755z" />
    <glyph glyph-name="asciicircum" unicode="^" horiz-adv-x="983" 
d="M928 580h-211l-225 536l-222 -536h-213l342 798h183z" />
    <glyph glyph-name="underscore" unicode="_" horiz-adv-x="995" 
d="M66 -326v185h862v-185h-862z" />
    <glyph glyph-name="grave" unicode="`" horiz-adv-x="540" 
d="M287 1147l-230 356h244l182 -356h-196z" />
    <glyph glyph-name="a" unicode="a" horiz-adv-x="1095" 
d="M541 1028q191 0 302 -104.5t111 -288.5v-635h-194v113q-117 -136 -328 -136q-160 0 -253 79.5t-93 217.5q0 140 98 219.5t271 79.5h293v66q0 100 -58 155.5t-160 55.5q-84 0 -133.5 -37t-60.5 -106h-201q11 148 120 234.5t286 86.5zM473 137q119 0 197 69t78 177v37h-254
q-197 0 -197 -139q0 -69 45 -106.5t131 -37.5z" />
    <glyph glyph-name="b" unicode="b" horiz-adv-x="1290" 
d="M711 1028q211 0 348 -149.5t137 -378.5q0 -228 -137.5 -376.5t-349.5 -148.5q-115 0 -209 45.5t-150 126.5v-147h-196v1378h211v-512q58 76 147.5 119t198.5 43zM670 168q140 0 226.5 92.5t86.5 243.5q0 149 -87 241.5t-228 92.5q-139 0 -224.5 -92.5t-85.5 -243.5
q0 -150 86 -242t226 -92z" />
    <glyph glyph-name="c" unicode="c" horiz-adv-x="1198" 
d="M618 -25q-227 0 -379.5 151.5t-152.5 375.5t152.5 375t379.5 151q191 0 327 -104.5t165 -274.5h-209q-26 86 -103 136.5t-180 50.5q-138 0 -227.5 -94t-89.5 -240t89.5 -240t227.5 -94q104 0 179.5 50t103.5 136h209q-29 -170 -165 -274.5t-327 -104.5z" />
    <glyph glyph-name="d" unicode="d" horiz-adv-x="1290" 
d="M924 1378h211v-1378h-195v150q-55 -81 -149.5 -128t-210.5 -47q-212 0 -350 148.5t-138 376.5q0 229 137.5 378.5t348.5 149.5q109 0 198.5 -43t147.5 -119v512zM621 168q140 0 225.5 91.5t85.5 242.5t-85.5 243.5t-223.5 92.5q-141 0 -228.5 -92.5t-87.5 -241.5
q0 -150 87 -243t227 -93z" />
    <glyph glyph-name="e" unicode="e" horiz-adv-x="1193" 
d="M606 1028q154 0 273.5 -76t179.5 -210.5t47 -301.5h-803q17 -130 102.5 -206t215.5 -76q177 0 249 133h215q-54 -150 -176.5 -232t-292.5 -82q-227 0 -377.5 148.5t-150.5 374.5t148.5 377t369.5 151zM604 846q-109 0 -188.5 -67t-106.5 -177h584q-12 109 -91 176.5
t-198 67.5z" />
    <glyph glyph-name="f" unicode="f" horiz-adv-x="653" 
d="M674 1198h-115q-83 0 -123.5 -38.5t-40.5 -117.5v-38h246v-183h-246v-821h-211v821h-141v183h141v45q0 329 357 329h133v-180z" />
    <glyph glyph-name="g" unicode="g" horiz-adv-x="1288" 
d="M938 1006h197v-887q0 -227 -141 -351t-382 -124q-207 0 -334 85.5t-157 235.5h211q27 -71 99 -110t185 -39q144 0 226 73t82 217v87q-56 -76 -147.5 -120t-198.5 -44q-204 0 -345 144.5t-141 356.5t140.5 355t349.5 143q115 0 209 -46.5t147 -127.5v152zM621 209
q135 0 221 89.5t86 231.5q0 141 -85 228.5t-222 87.5q-139 0 -228.5 -88.5t-89.5 -225.5q0 -139 90.5 -231t227.5 -92z" />
    <glyph glyph-name="h" unicode="h" horiz-adv-x="1163" 
d="M653 1028q166 0 266.5 -109.5t100.5 -289.5v-629h-211v600q0 106 -58.5 170t-156.5 64q-100 0 -164.5 -65.5t-64.5 -168.5v-600h-211v1378h211v-469q106 119 288 119z" />
    <glyph glyph-name="i" unicode="i" horiz-adv-x="520" 
d="M260 1210q-57 0 -95 38t-38 95t38 93.5t95 36.5q59 0 97 -36.5t38 -93.5t-38.5 -95t-96.5 -38zM154 0v1004h211v-1004h-211z" />
    <glyph glyph-name="j" unicode="j" horiz-adv-x="520" 
d="M262 1210q-57 0 -95 38t-38 95t38 93.5t95 36.5q59 0 97 -36.5t38 -93.5t-38.5 -95t-96.5 -38zM-84 -334v180h68q92 0 132 39.5t40 128.5v990h211v-1008q0 -161 -85.5 -245.5t-246.5 -84.5h-119z" />
    <glyph glyph-name="k" unicode="k" horiz-adv-x="1005" 
d="M1026 0h-256l-405 455v-455h-211v1378h211v-819l372 445h244l-406 -492z" />
    <glyph glyph-name="l" unicode="l" horiz-adv-x="520" 
d="M154 0v1378h211v-1378h-211z" />
    <glyph glyph-name="m" unicode="m" horiz-adv-x="1785" 
d="M1260 1028q181 0 281.5 -105t100.5 -294v-629h-210v600q0 107 -55.5 170.5t-149.5 63.5q-95 0 -159 -63.5t-64 -158.5v-612h-211v600q0 107 -56 170.5t-151 63.5q-98 0 -159.5 -65.5t-61.5 -168.5v-600h-211v1004h196v-99q105 123 291 123q98 0 174.5 -41t122.5 -117
q55 74 139 116t183 42z" />
    <glyph glyph-name="n" unicode="n" horiz-adv-x="1165" 
d="M651 1028q169 0 270 -109t101 -290v-629h-213v600q0 106 -58.5 170t-156.5 64q-100 0 -164.5 -65.5t-64.5 -168.5v-600h-211v1004h196v-101q109 125 301 125z" />
    <glyph glyph-name="o" unicode="o" horiz-adv-x="1241" 
d="M621 -25q-148 0 -271 70t-193.5 191.5t-70.5 267.5q0 145 70 265.5t193 189.5t272 69q224 0 378 -151.5t154 -372.5q0 -146 -70 -267.5t-192.5 -191.5t-269.5 -70zM621 168q138 0 228.5 95t90.5 241q0 145 -90.5 239.5t-228.5 94.5t-229 -94.5t-91 -239.5q0 -146 91 -241
t229 -95z" />
    <glyph glyph-name="p" unicode="p" horiz-adv-x="1292" 
d="M707 1028q214 0 352.5 -148.5t138.5 -377.5t-137 -378t-348 -149q-108 0 -199 42.5t-149 117.5v-469h-211v1338h196v-148q55 80 149 126t208 46zM668 168q140 0 228.5 93t88.5 241t-89 242t-228 94q-138 0 -223 -92t-85 -242q0 -152 85 -244t223 -92z" />
    <glyph glyph-name="q" unicode="q" horiz-adv-x="1292" 
d="M586 1028q114 0 207.5 -46t148.5 -126v148h197v-1338h-211v469q-58 -75 -149 -117.5t-199 -42.5q-211 0 -348.5 149t-137.5 378t139 377.5t353 148.5zM625 168q138 0 222.5 92t84.5 244q0 151 -84.5 242.5t-222.5 91.5q-140 0 -229 -94t-89 -242q0 -147 89 -240.5
t229 -93.5z" />
    <glyph glyph-name="r" unicode="r" horiz-adv-x="745" 
d="M647 1004h74v-197h-78q-129 0 -203.5 -74.5t-74.5 -204.5v-528h-211v1004h196v-134q96 134 297 134z" />
    <glyph glyph-name="s" unicode="s" horiz-adv-x="921" 
d="M475 -23q-177 0 -287 89t-120 241h206q7 -72 60.5 -111.5t140.5 -39.5q80 0 127 32t47 88q0 47 -24 70t-95 45l-172 49q-125 35 -190.5 110.5t-65.5 182.5q0 133 100 214t263 81q157 0 257 -80.5t112 -216.5h-205q-7 55 -52 87t-114 32t-111.5 -30t-42.5 -81
q0 -44 26.5 -69.5t88.5 -44.5l174 -52q258 -73 258 -290q0 -140 -103.5 -223t-277.5 -83z" />
    <glyph glyph-name="t" unicode="t" horiz-adv-x="757" 
d="M582 184h129v-184h-162q-180 0 -266 78t-86 239v502h-164v185h164v258h211v-258h280v-185h-280v-475q0 -85 41 -122.5t133 -37.5z" />
    <glyph glyph-name="u" unicode="u" horiz-adv-x="1165" 
d="M799 1004h213v-1004h-197v100q-109 -125 -301 -125q-168 0 -269.5 110t-101.5 292v627h211v-601q0 -105 59.5 -169t157.5 -64q100 0 164 65t64 168v601z" />
    <glyph glyph-name="v" unicode="v" horiz-adv-x="1048" 
d="M791 1004h225l-375 -1004h-229l-377 1004h225l268 -766z" />
    <glyph glyph-name="w" unicode="w" horiz-adv-x="1722" 
d="M1442 1004h227l-338 -1004h-227l-242 766l-241 -766h-228l-338 1004h226l233 -758l234 758h227l233 -760z" />
    <glyph glyph-name="x" unicode="x" horiz-adv-x="1077" 
d="M1051 0h-242l-272 377l-271 -377h-241l381 522l-355 484h242l244 -342l245 342h242l-354 -486z" />
    <glyph glyph-name="y" unicode="y" horiz-adv-x="1052" 
d="M793 1004h225l-502 -1338h-233l129 338l-377 1000h225l268 -771z" />
    <glyph glyph-name="z" unicode="z" horiz-adv-x="960" 
d="M307 178h578v-178h-817v168l559 657h-533v179h776v-168z" />
    <glyph glyph-name="braceleft" unicode="{" horiz-adv-x="833" 
d="M723 1393h-105q-81 0 -119 -36.5t-38 -113.5q0 -49 25.5 -186t25.5 -191q0 -145 -143 -174q75 -15 109 -57t34 -117q0 -53 -25.5 -189.5t-25.5 -187.5q0 -78 38.5 -114.5t118.5 -36.5h105v-176h-148q-309 0 -309 282q0 70 25.5 207t25.5 178q0 64 -29.5 93.5t-94.5 29.5
h-97v174h97q64 0 94 30t30 93q0 41 -25.5 180.5t-25.5 208.5q0 279 309 279h148v-176z" />
    <glyph glyph-name="bar" unicode="|" horiz-adv-x="706" 
d="M258 -248v1845h193v-1845h-193z" />
    <glyph glyph-name="braceright" unicode="}" horiz-adv-x="833" 
d="M215 1393h-104v176h147q309 0 309 -279q0 -69 -25.5 -208.5t-25.5 -180.5q0 -63 30.5 -93t94.5 -30h96v-174h-96q-65 0 -95 -29.5t-30 -93.5q0 -41 25.5 -178t25.5 -207q0 -282 -309 -282h-147v176h104q80 0 119 37t39 114q0 51 -25.5 187.5t-25.5 189.5q0 75 34 117
t109 57q-143 29 -143 174q0 54 25.5 191t25.5 186q0 77 -38.5 113.5t-119.5 36.5z" />
    <glyph glyph-name="asciitilde" unicode="~" horiz-adv-x="1187" 
d="M827 526q-53 0 -105.5 16t-148.5 60q-100 45 -145 59.5t-82 14.5q-89 0 -237 -84v196q80 51 133.5 70t119.5 19q53 0 105.5 -16t148.5 -60q101 -45 145.5 -59.5t82.5 -14.5q89 0 237 84v-197q-79 -50 -133 -69t-121 -19z" />
    <glyph glyph-name="uni00A0" unicode="&#xa0;" horiz-adv-x="559" 
 />
    <glyph glyph-name="exclamdown" unicode="&#xa1;" horiz-adv-x="622" 
d="M211 604h180l31 -938h-244zM297 1069q61 0 102 -39t41 -98q0 -60 -40.5 -98.5t-102.5 -38.5q-59 0 -99 39t-40 98q0 58 40 97.5t99 39.5z" />
    <glyph glyph-name="cent" unicode="&#xa2;" horiz-adv-x="1200" 
d="M514 -195v349q-189 34 -307.5 176.5t-118.5 339.5q0 195 118.5 338t307.5 178v348h201v-346q157 -25 264 -124t133 -247h-209q-26 86 -102.5 136.5t-179.5 50.5q-138 0 -228 -94t-90 -240t90 -240t228 -94q104 0 179 49.5t103 136.5h209q-26 -148 -133.5 -247.5
t-263.5 -124.5v-345h-201z" />
    <glyph glyph-name="sterling" unicode="&#xa3;" horiz-adv-x="1087" 
d="M551 453q0 -168 -135 -275h602v-178h-928v150q135 57 197.5 128t62.5 166q0 53 -16 109h-223v176h153q-26 58 -40.5 94.5t-28 94t-13.5 112.5q0 168 116.5 270.5t309.5 102.5q199 0 314.5 -110.5t115.5 -299.5h-198q-2 98 -62 159.5t-157 61.5q-106 0 -164 -56t-58 -159
q0 -26 3.5 -50.5t15 -59t16.5 -48t25 -60t22 -52.5h373v-176h-313q10 -55 10 -100z" />
    <glyph glyph-name="currency" unicode="&#xa4;" horiz-adv-x="1337" 
d="M1311 154l-131 -131l-252 256q-119 -80 -271 -80q-146 0 -264 73l-233 -249l-131 131l231 245q-88 125 -88 277q0 145 86 272l-229 240l129 131l233 -244q121 78 264 78q150 0 275 -82l248 248l131 -131l-248 -246q82 -122 82 -266q0 -143 -82 -268zM657 387
q122 0 200.5 81.5t78.5 207.5t-78 207.5t-199 81.5q-123 0 -199.5 -80.5t-76.5 -208.5q0 -129 76 -209t198 -80z" />
    <glyph glyph-name="yen" unicode="&#xa5;" horiz-adv-x="1255" 
d="M1196 1378l-373 -639h299v-172h-387v-182h387v-172h-387v-213h-215v213h-383v172h383v182h-383v172h299l-375 639h248l322 -585l319 585h246z" />
    <glyph glyph-name="brokenbar" unicode="&#xa6;" horiz-adv-x="706" 
d="M258 942v655h193v-655h-193zM258 -248v656h193v-656h-193z" />
    <glyph glyph-name="section" unicode="&#xa7;" horiz-adv-x="1095" 
d="M1036 463q0 -184 -186 -287q27 -58 27 -123q0 -130 -99 -211.5t-256 -81.5h-256v183h254q63 0 101 30t38 80q0 44 -27.5 79.5t-96.5 78.5l-242 145q-128 77 -180 148.5t-52 171.5q0 94 47 162t144 118q-31 64 -31 129q0 131 98 212t256 81h256v-180h-253
q-62 0 -102 -31.5t-40 -79.5q0 -44 28.5 -79t98.5 -78l242 -146q126 -77 178.5 -149.5t52.5 -171.5zM408 520l262 -162q39 -24 80 -57q75 66 75 150q0 51 -28.5 87t-106.5 83l-264 161q-21 13 -76 56q-78 -63 -78 -148q0 -52 28 -87.5t108 -82.5z" />
    <glyph glyph-name="dieresis" unicode="&#xa8;" horiz-adv-x="774" 
d="M182 1210q-52 0 -89.5 37t-37.5 88q0 52 37 88.5t90 36.5q57 0 94 -35.5t37 -89.5q0 -53 -38 -89t-93 -36zM588 1210q-52 0 -89.5 37t-37.5 88q0 53 36.5 89t90.5 36q57 0 94 -35.5t37 -89.5q0 -53 -38 -89t-93 -36z" />
    <glyph glyph-name="copyright" unicode="&#xa9;" horiz-adv-x="1568" 
d="M803 -25q-147 0 -280 56.5t-229.5 151.5t-153 227t-56.5 278q0 195 96 359.5t262 260t363 95.5q148 0 282 -56.5t230.5 -152.5t153.5 -228t57 -278t-57 -278t-154 -227t-231.5 -151.5t-282.5 -56.5zM805 113q162 0 293.5 75t206.5 206.5t75 293.5q0 163 -75.5 295.5
t-207 207.5t-292.5 75q-120 0 -226.5 -44t-182 -120.5t-119.5 -184t-44 -229.5q0 -247 163 -411t409 -164zM805 295q-167 0 -279 110.5t-112 276.5q0 163 112.5 274t278.5 111q142 0 241.5 -83t122.5 -220h-161q-44 156 -205 156q-100 0 -161.5 -66t-61.5 -172
q0 -107 61 -172.5t162 -65.5q160 0 205 154h161q-23 -138 -123 -220.5t-241 -82.5z" />
    <glyph glyph-name="ordfeminine" unicode="&#xaa;" horiz-adv-x="874" 
d="M434 1393q158 0 249 -85.5t91 -236.5v-520h-170v92q-89 -106 -260 -106q-131 0 -208 64.5t-77 174.5q0 115 81.5 179.5t224.5 64.5h229v55q0 78 -43 120t-125 42q-66 0 -106.5 -28.5t-47.5 -82.5h-174q9 122 99 194.5t237 72.5zM381 678q95 0 154 51.5t59 138.5v19h-199
q-149 0 -149 -103q0 -52 35 -79t100 -27z" />
    <glyph glyph-name="guillemotleft" unicode="&#xab;" horiz-adv-x="972" 
d="M502 213h-221l-228 428l223 426h226l-221 -426zM922 213h-222l-227 428l223 426h226l-222 -426z" />
    <glyph glyph-name="logicalnot" unicode="&#xac;" horiz-adv-x="1187" 
d="M786 258v363h-690v186h897v-549h-207z" />
    <glyph glyph-name="uni00AD" unicode="&#xad;" horiz-adv-x="667" 
d="M86 543v188h494v-188h-494z" />
    <glyph glyph-name="registered" unicode="&#xae;" horiz-adv-x="978" 
d="M489 1403q180 0 301 -122t121 -302q0 -178 -121.5 -300t-300.5 -122q-175 0 -298 123.5t-123 298.5q0 178 122 301t299 123zM489 659q138 0 227 89.5t89 230.5q0 142 -88.5 231.5t-227.5 89.5q-138 0 -227.5 -90t-89.5 -231q0 -139 89.5 -229.5t227.5 -90.5zM674 1051
q0 -89 -80 -125l111 -162h-123l-99 145h-47v-145h-114v430h188q74 0 119 -39.5t45 -103.5zM436 1100v-103h64q57 0 57 52q0 24 -15 37.5t-42 13.5h-64z" />
    <glyph glyph-name="macron" unicode="&#xaf;" horiz-adv-x="675" 
d="M55 1206v162h563v-162h-563z" />
    <glyph glyph-name="degree" unicode="&#xb0;" horiz-adv-x="858" 
d="M430 662q-160 0 -268.5 106t-108.5 264q0 157 108 264t269 107t269 -106.5t108 -264.5t-108 -264t-269 -106zM430 823q91 0 149 58.5t58 150.5q0 91 -58 149t-149 58t-149 -58t-58 -149t58 -150t149 -59z" />
    <glyph glyph-name="plusminus" unicode="&#xb1;" horiz-adv-x="1187" 
d="M496 414v360h-392v184h392v361h200v-361h387v-184h-387v-360h-200zM127 106v183h938v-183h-938z" />
    <glyph glyph-name="uni00B2" unicode="&#xb2;" horiz-adv-x="692" 
d="M252 979h381v-131h-565v51q0 77 53 144.5t172 138.5q102 61 137 97t35 79q0 51 -31 80.5t-84 29.5q-50 0 -81 -35t-31 -90h-156q0 113 76.5 187t193.5 74q121 0 198 -67t77 -171q0 -75 -49.5 -135t-182.5 -146q-111 -68 -143 -106z" />
    <glyph glyph-name="uni00B3" unicode="&#xb3;" horiz-adv-x="688" 
d="M512 1237q102 -54 102 -164q0 -100 -76 -167.5t-190 -67.5q-129 0 -206 66t-81 181h152q3 -49 40 -80.5t91 -31.5q49 0 81 27.5t32 70.5q0 49 -31 76t-88 27h-72v118h70q96 0 96 88q0 43 -27.5 68t-74.5 25q-43 0 -75.5 -27.5t-35.5 -67.5h-149q3 98 77.5 162t186.5 64
q114 0 186 -61t72 -157q0 -97 -80 -149z" />
    <glyph glyph-name="acute" unicode="&#xb4;" horiz-adv-x="538" 
d="M55 1147l187 356h239l-229 -356h-197z" />
    <glyph glyph-name="uni00B5" unicode="&#xb5;" horiz-adv-x="1216" 
d="M1128 184h54v-184h-107q-149 0 -207 102q-96 -120 -274 -120q-146 0 -238 79v-395h-202v1338h211v-596q0 -109 60 -171.5t163 -62.5q97 0 160 65.5t63 166.5v598h211v-703q0 -117 106 -117z" />
    <glyph glyph-name="paragraph" unicode="&#xb6;" horiz-adv-x="1167" 
d="M676 492h-121q-219 0 -358.5 125t-139.5 321q0 195 138.5 317.5t359.5 122.5h121v-886zM461 -334v195h133q104 0 152.5 45.5t48.5 142.5v1329h213v-1351q0 -177 -94.5 -269t-276.5 -92h-176z" />
    <glyph glyph-name="periodcentered" unicode="&#xb7;" horiz-adv-x="559" 
d="M279 565q-60 0 -102 41t-42 101q0 61 42 102t102 41q63 0 104 -40.5t41 -102.5q0 -60 -41 -101t-104 -41z" />
    <glyph glyph-name="cedilla" unicode="&#xb8;" horiz-adv-x="540" 
d="M209 -393q-117 0 -152 6v141h123q64 0 98.5 31t34.5 90q0 75 -69 152l98 43q70 -39 106.5 -97t36.5 -125q0 -113 -73 -177t-203 -64z" />
    <glyph glyph-name="uni00B9" unicode="&#xb9;" horiz-adv-x="550" 
d="M262 1583h139v-735h-157v586l-164 -50l-35 132z" />
    <glyph glyph-name="ordmasculine" unicode="&#xba;" horiz-adv-x="1007" 
d="M504 537q-192 0 -317.5 121t-125.5 307t125.5 307t317.5 121t318 -121t126 -307t-126 -307t-318 -121zM502 702q112 0 184 74.5t72 190.5q0 113 -72 186.5t-184 73.5q-111 0 -183.5 -73t-72.5 -187q0 -116 72 -190.5t184 -74.5z" />
    <glyph glyph-name="guillemotright" unicode="&#xbb;" horiz-adv-x="972" 
d="M51 213l221 428l-221 426h225l224 -426l-228 -428h-221zM471 213l221 428l-221 426h225l224 -426l-228 -428h-221z" />
    <glyph glyph-name="onequarter" unicode="&#xbc;" horiz-adv-x="1462" 
d="M190 0l801 1378h193l-801 -1378h-193zM266 1378h140v-735h-158v586l-164 -49l-35 131zM1417 260v-131h-90v-129h-156v129h-374v107l346 505h184v-481h90zM1178 561l-205 -301h205v301z" />
    <glyph glyph-name="onehalf" unicode="&#xbd;" horiz-adv-x="1511" 
d="M190 0l801 1378h193l-801 -1378h-193zM266 1378h140v-735h-158v586l-164 -49l-35 131zM1073 131h381v-131h-565v51q0 77 53 144.5t172 138.5q102 61 137 97t35 79q0 51 -31 81t-84 30q-50 0 -81 -35t-31 -90h-156q0 112 77 186t194 74q121 0 197.5 -66.5t76.5 -171.5
q0 -75 -49 -134.5t-182 -145.5q-111 -69 -144 -107z" />
    <glyph glyph-name="threequarters" unicode="&#xbe;" horiz-adv-x="1593" 
d="M346 0l801 1378h192l-800 -1378h-193zM514 1032q102 -54 102 -164q0 -100 -76 -167.5t-190 -67.5q-129 0 -206 66.5t-81 181.5h152q3 -49 40 -81t91 -32q49 0 81 27.5t32 70.5q0 49 -31 76t-88 27h-72v118h70q96 0 96 89q0 43 -27.5 67.5t-74.5 24.5q-43 0 -75.5 -27
t-35.5 -67h-149q3 98 77.5 161.5t186.5 63.5q114 0 186 -61t72 -156q0 -98 -80 -150zM1548 260v-131h-90v-129h-155v129h-375v107l346 505h184v-481h90zM1309 561l-205 -301h205v301z" />
    <glyph glyph-name="questiondown" unicode="&#xbf;" horiz-adv-x="790" 
d="M715 -334h-269q-175 0 -271.5 85t-96.5 239q0 108 63.5 196t261.5 248v170h187v-260q-135 -109 -195 -164.5t-82 -91.5t-22 -78q0 -81 46.5 -118t145.5 -37h232v-189zM494 795q-62 0 -103 38.5t-41 98.5q0 59 41.5 98t102.5 39q59 0 99 -39.5t40 -97.5q0 -59 -40 -98
t-99 -39z" />
    <glyph glyph-name="Agrave" unicode="&#xc0;" horiz-adv-x="1376" 
d="M1096 0l-117 326h-578l-118 -326h-228l520 1378h230l518 -1378h-227zM690 1157l-227 -657h457zM598 1499l-231 354h247l181 -354h-197z" />
    <glyph glyph-name="Aacute" unicode="&#xc1;" horiz-adv-x="1376" 
d="M1096 0l-117 326h-578l-118 -326h-228l520 1378h230l518 -1378h-227zM690 1157l-227 -657h457zM588 1499l180 354h252l-236 -354h-196z" />
    <glyph glyph-name="Acircumflex" unicode="&#xc2;" horiz-adv-x="1376" 
d="M1096 0l-117 326h-578l-118 -326h-228l520 1378h230l518 -1378h-227zM690 1157l-227 -657h457zM1028 1499h-190l-150 199l-147 -199h-189l248 354h178z" />
    <glyph glyph-name="Atilde" unicode="&#xc3;" horiz-adv-x="1376" 
d="M1096 0l-117 326h-578l-118 -326h-228l520 1378h230l518 -1378h-227zM690 1157l-227 -657h457zM842 1497q-76 0 -166 49q-89 47 -137 47q-80 0 -183 -67v170q91 70 183 73q67 0 168 -49q59 -28 84.5 -36.5t50.5 -8.5q78 0 182 66v-170q-95 -71 -182 -74z" />
    <glyph glyph-name="Adieresis" unicode="&#xc4;" horiz-adv-x="1376" 
d="M1096 0l-117 326h-578l-118 -326h-228l520 1378h230l518 -1378h-227zM690 1157l-227 -657h457zM907 1528q-56 0 -95.5 38.5t-39.5 92.5t39 92.5t96 38.5q58 0 97.5 -37.5t39.5 -93.5q0 -55 -40 -93t-97 -38zM471 1528q-55 0 -94 38.5t-39 92.5t38 91.5t95 37.5
q60 0 98.5 -36.5t38.5 -92.5t-39.5 -93.5t-97.5 -37.5z" />
    <glyph glyph-name="Aring" unicode="&#xc5;" horiz-adv-x="1376" 
d="M1096 0l-117 326h-578l-118 -326h-228l520 1378h230l518 -1378h-227zM690 1157l-227 -657h457zM688 1501q-104 0 -173 67.5t-69 168.5t69 168t173 67q103 0 172.5 -67t69.5 -168t-69.5 -168.5t-172.5 -67.5zM690 1632q42 0 71.5 30.5t29.5 74.5t-29.5 73t-71.5 29
q-45 0 -73.5 -28.5t-28.5 -73.5q0 -46 29 -75.5t73 -29.5z" />
    <glyph glyph-name="AE" unicode="&#xc6;" horiz-adv-x="1728" 
d="M1163 190h475v-190h-647l-55 311h-543l-149 -311h-224l660 1378h934v-188h-621l64 -381h540v-184h-507zM791 1190l-314 -701h428z" />
    <glyph glyph-name="Ccedilla" unicode="&#xc7;" horiz-adv-x="1593" 
d="M731 -393q-116 0 -151 6v141h122q65 0 99.5 31.5t34.5 89.5q0 49 -31 100q-202 3 -365 96t-254.5 255.5t-91.5 363.5q0 150 55 282.5t150.5 227t229.5 149t286 54.5q269 0 457.5 -148t226.5 -391h-229q-40 155 -163 246.5t-292 91.5q-212 0 -355 -147t-143 -365
q0 -220 143 -367t355 -147q169 0 292 91.5t163 246.5h229q-34 -208 -178.5 -348.5t-359.5 -177.5q47 -62 47 -140q0 -113 -73.5 -177t-203.5 -64z" />
    <glyph glyph-name="Egrave" unicode="&#xc8;" horiz-adv-x="1105" 
d="M180 0v1378h811v-190h-596v-381h576v-184h-576v-433h619v-190h-834zM514 1499l-231 354h247l181 -354h-197z" />
    <glyph glyph-name="Eacute" unicode="&#xc9;" horiz-adv-x="1105" 
d="M180 0v1378h811v-190h-596v-381h576v-184h-576v-433h619v-190h-834zM504 1499l180 354h252l-236 -354h-196z" />
    <glyph glyph-name="Ecircumflex" unicode="&#xca;" horiz-adv-x="1105" 
d="M180 0v1378h811v-190h-596v-381h576v-184h-576v-433h619v-190h-834zM944 1499h-190l-150 199l-147 -199h-189l248 354h178z" />
    <glyph glyph-name="Edieresis" unicode="&#xcb;" horiz-adv-x="1105" 
d="M180 0v1378h811v-190h-596v-381h576v-184h-576v-433h619v-190h-834zM823 1528q-56 0 -95.5 38.5t-39.5 92.5t39 92.5t96 38.5q58 0 98 -37.5t40 -93.5q0 -55 -40.5 -93t-97.5 -38zM387 1528q-55 0 -94 38.5t-39 92.5t38 91.5t95 37.5q60 0 98.5 -36.5t38.5 -92.5
t-39.5 -93.5t-97.5 -37.5z" />
    <glyph glyph-name="Igrave" unicode="&#xcc;" horiz-adv-x="573" 
d="M180 0v1378h215v-1378h-215zM195 1499l-232 354h248l180 -354h-196z" />
    <glyph glyph-name="Iacute" unicode="&#xcd;" horiz-adv-x="573" 
d="M180 0v1378h215v-1378h-215zM184 1499l181 354h251l-235 -354h-197z" />
    <glyph glyph-name="Icircumflex" unicode="&#xce;" horiz-adv-x="573" 
d="M180 0v1378h215v-1378h-215zM625 1499h-191l-149 199l-148 -199h-188l248 354h178z" />
    <glyph glyph-name="Idieresis" unicode="&#xcf;" horiz-adv-x="573" 
d="M180 0v1378h215v-1378h-215zM504 1528q-56 0 -95.5 38.5t-39.5 92.5t39 92.5t96 38.5q58 0 97.5 -37.5t39.5 -93.5q0 -55 -40 -93t-97 -38zM68 1528q-55 0 -94.5 38.5t-39.5 92.5t38.5 91.5t95.5 37.5q60 0 98.5 -36.5t38.5 -92.5t-39.5 -93.5t-97.5 -37.5z" />
    <glyph glyph-name="Eth" unicode="&#xd0;" horiz-adv-x="1525" 
d="M221 1378h455q340 0 547 -188.5t207 -497.5q0 -203 -94.5 -360.5t-266 -244.5t-393.5 -87h-455v627h-184v180h184v571zM436 195h240q239 0 384.5 136.5t145.5 360.5q0 223 -144.5 357.5t-385.5 134.5h-240v-377h271v-180h-271v-432z" />
    <glyph glyph-name="Ntilde" unicode="&#xd1;" horiz-adv-x="1417" 
d="M1026 1378h213v-1378h-229l-619 1038v-1038h-211v1378h238l608 -1020v1020zM862 1497q-76 0 -166 49q-89 47 -137 47q-79 0 -182 -67v170q91 70 182 73q67 0 168 -49q59 -28 84.5 -36.5t50.5 -8.5q78 0 182 66v-170q-95 -71 -182 -74z" />
    <glyph glyph-name="Ograve" unicode="&#xd2;" horiz-adv-x="1632" 
d="M817 -25q-152 0 -286.5 54.5t-230 149.5t-151 227.5t-55.5 283.5q0 201 94 364.5t259.5 256t369.5 92.5q153 0 287 -54.5t229 -149t150 -227t55 -282.5q0 -151 -55 -283.5t-150.5 -227.5t-229.5 -149.5t-286 -54.5zM817 176q215 0 356.5 146.5t141.5 369.5
q0 220 -142 365t-356 145q-215 0 -357.5 -145t-142.5 -365q0 -223 141.5 -369.5t358.5 -146.5zM725 1499l-231 354h247l181 -354h-197z" />
    <glyph glyph-name="Oacute" unicode="&#xd3;" horiz-adv-x="1632" 
d="M817 -25q-152 0 -286.5 54.5t-230 149.5t-151 227.5t-55.5 283.5q0 201 94 364.5t259.5 256t369.5 92.5q153 0 287 -54.5t229 -149t150 -227t55 -282.5q0 -151 -55 -283.5t-150.5 -227.5t-229.5 -149.5t-286 -54.5zM817 176q215 0 356.5 146.5t141.5 369.5
q0 220 -142 365t-356 145q-215 0 -357.5 -145t-142.5 -365q0 -223 141.5 -369.5t358.5 -146.5zM715 1499l180 354h252l-236 -354h-196z" />
    <glyph glyph-name="Ocircumflex" unicode="&#xd4;" horiz-adv-x="1632" 
d="M817 -25q-152 0 -286.5 54.5t-230 149.5t-151 227.5t-55.5 283.5q0 201 94 364.5t259.5 256t369.5 92.5q153 0 287 -54.5t229 -149t150 -227t55 -282.5q0 -151 -55 -283.5t-150.5 -227.5t-229.5 -149.5t-286 -54.5zM817 176q215 0 356.5 146.5t141.5 369.5
q0 220 -142 365t-356 145q-215 0 -357.5 -145t-142.5 -365q0 -223 141.5 -369.5t358.5 -146.5zM1155 1499h-190l-150 199l-147 -199h-189l248 354h178z" />
    <glyph glyph-name="Otilde" unicode="&#xd5;" horiz-adv-x="1632" 
d="M817 -25q-152 0 -286.5 54.5t-230 149.5t-151 227.5t-55.5 283.5q0 201 94 364.5t259.5 256t369.5 92.5q153 0 287 -54.5t229 -149t150 -227t55 -282.5q0 -151 -55 -283.5t-150.5 -227.5t-229.5 -149.5t-286 -54.5zM817 176q215 0 356.5 146.5t141.5 369.5
q0 220 -142 365t-356 145q-215 0 -357.5 -145t-142.5 -365q0 -223 141.5 -369.5t358.5 -146.5zM969 1497q-76 0 -166 49q-89 47 -137 47q-80 0 -183 -67v170q91 70 183 73q67 0 168 -49q59 -28 84.5 -36.5t50.5 -8.5q78 0 182 66v-170q-95 -71 -182 -74z" />
    <glyph glyph-name="Odieresis" unicode="&#xd6;" horiz-adv-x="1632" 
d="M817 -25q-152 0 -286.5 54.5t-230 149.5t-151 227.5t-55.5 283.5q0 201 94 364.5t259.5 256t369.5 92.5q153 0 287 -54.5t229 -149t150 -227t55 -282.5q0 -151 -55 -283.5t-150.5 -227.5t-229.5 -149.5t-286 -54.5zM817 176q215 0 356.5 146.5t141.5 369.5
q0 220 -142 365t-356 145q-215 0 -357.5 -145t-142.5 -365q0 -223 141.5 -369.5t358.5 -146.5zM1034 1528q-56 0 -95.5 38.5t-39.5 92.5t39 92.5t96 38.5q58 0 97.5 -37.5t39.5 -93.5q0 -55 -40 -93t-97 -38zM598 1528q-55 0 -94 38.5t-39 92.5t38 91.5t95 37.5
q60 0 98.5 -36.5t38.5 -92.5t-39.5 -93.5t-97.5 -37.5z" />
    <glyph glyph-name="multiply" unicode="&#xd7;" horiz-adv-x="1187" 
d="M287 250l-133 131l307 309l-307 309l131 134l311 -310l307 310l133 -134l-309 -309l309 -307l-131 -133l-311 307z" />
    <glyph glyph-name="Oslash" unicode="&#xd8;" horiz-adv-x="1675" 
d="M1614 1440l-234 -275q176 -198 176 -475q0 -201 -94 -364.5t-259.5 -256t-368.5 -92.5q-220 0 -396 109l-127 -147h-250l230 270q-180 199 -180 481q0 201 94 364t259.5 255t369.5 92q221 0 401 -113l129 152h250zM834 1202q-214 0 -356 -145t-142 -365q0 -182 100 -319
l666 755q-120 74 -268 74zM834 176q215 0 357 146.5t142 369.5q0 181 -98 312l-664 -756q116 -72 263 -72z" />
    <glyph glyph-name="Ugrave" unicode="&#xd9;" horiz-adv-x="1390" 
d="M694 -25q-243 0 -386.5 153t-143.5 411v839h215v-843q0 -166 84.5 -263.5t230.5 -97.5q149 0 233.5 96t84.5 265v843h215v-839q0 -259 -144 -411.5t-389 -152.5zM606 1499l-231 354h248l180 -354h-197z" />
    <glyph glyph-name="Uacute" unicode="&#xda;" horiz-adv-x="1390" 
d="M694 -25q-243 0 -386.5 153t-143.5 411v839h215v-843q0 -166 84.5 -263.5t230.5 -97.5q149 0 233.5 96t84.5 265v843h215v-839q0 -259 -144 -411.5t-389 -152.5zM596 1499l180 354h252l-235 -354h-197z" />
    <glyph glyph-name="Ucircumflex" unicode="&#xdb;" horiz-adv-x="1390" 
d="M694 -25q-243 0 -386.5 153t-143.5 411v839h215v-843q0 -166 84.5 -263.5t230.5 -97.5q149 0 233.5 96t84.5 265v843h215v-839q0 -259 -144 -411.5t-389 -152.5zM1036 1499h-190l-150 199l-147 -199h-189l248 354h178z" />
    <glyph glyph-name="Udieresis" unicode="&#xdc;" horiz-adv-x="1390" 
d="M694 -25q-243 0 -386.5 153t-143.5 411v839h215v-843q0 -166 84.5 -263.5t230.5 -97.5q149 0 233.5 96t84.5 265v843h215v-839q0 -259 -144 -411.5t-389 -152.5zM915 1528q-56 0 -95.5 38.5t-39.5 92.5t39 92.5t96 38.5q58 0 98 -37.5t40 -93.5q0 -55 -40.5 -93
t-97.5 -38zM479 1528q-55 0 -94 38.5t-39 92.5t38 91.5t95 37.5q60 0 98.5 -36.5t38.5 -92.5t-39.5 -93.5t-97.5 -37.5z" />
    <glyph glyph-name="Yacute" unicode="&#xdd;" horiz-adv-x="1255" 
d="M1196 1378l-461 -790v-588h-215v594l-459 784h248l322 -587l319 587h246zM528 1499l181 354h252l-236 -354h-197z" />
    <glyph glyph-name="Thorn" unicode="&#xde;" horiz-adv-x="1220" 
d="M180 0v1378h217v-245h291q215 0 341 -115.5t126 -312.5q0 -198 -126.5 -315.5t-340.5 -117.5h-291v-272h-217zM397 469h285q115 0 180.5 62t65.5 171t-65.5 172.5t-180.5 63.5h-285v-469z" />
    <glyph glyph-name="germandbls" unicode="&#xdf;" horiz-adv-x="1144" 
d="M156 0v971q0 211 112 320.5t328 109.5q176 0 279.5 -78.5t103.5 -214.5q0 -70 -18 -123t-62 -111q-56 -76 -69 -99t-13 -50q0 -29 22 -58t97 -96q94 -88 126 -142.5t32 -127.5q0 -138 -103 -219.5t-278 -81.5h-146v182h135q168 0 168 121q0 36 -21 63.5t-114 114.5
q-74 66 -104.5 115.5t-30.5 103.5q0 49 19 92t67 107q40 52 57 89.5t17 76.5q0 147 -176 147q-113 0 -165 -59t-52 -188v-965h-211z" />
    <glyph glyph-name="agrave" unicode="&#xe0;" horiz-adv-x="1095" 
d="M541 1028q191 0 302 -104.5t111 -288.5v-635h-194v113q-117 -136 -328 -136q-160 0 -253 79.5t-93 217.5q0 140 98 219.5t271 79.5h293v66q0 100 -58 155.5t-160 55.5q-84 0 -133.5 -37t-60.5 -106h-201q11 148 120 234.5t286 86.5zM473 137q119 0 197 69t78 177v37h-254
q-197 0 -197 -139q0 -69 45 -106.5t131 -37.5zM451 1147l-230 356h244l182 -356h-196z" />
    <glyph glyph-name="aacute" unicode="&#xe1;" horiz-adv-x="1095" 
d="M541 1028q191 0 302 -104.5t111 -288.5v-635h-194v113q-117 -136 -328 -136q-160 0 -253 79.5t-93 217.5q0 140 98 219.5t271 79.5h293v66q0 100 -58 155.5t-160 55.5q-84 0 -133.5 -37t-60.5 -106h-201q11 148 120 234.5t286 86.5zM473 137q119 0 197 69t78 177v37h-254
q-197 0 -197 -139q0 -69 45 -106.5t131 -37.5zM432 1147l186 356h240l-229 -356h-197z" />
    <glyph glyph-name="acircumflex" unicode="&#xe2;" horiz-adv-x="1095" 
d="M541 1028q191 0 302 -104.5t111 -288.5v-635h-194v113q-117 -136 -328 -136q-160 0 -253 79.5t-93 217.5q0 140 98 219.5t271 79.5h293v66q0 100 -58 155.5t-160 55.5q-84 0 -133.5 -37t-60.5 -106h-201q11 148 120 234.5t286 86.5zM473 137q119 0 197 69t78 177v37h-254
q-197 0 -197 -139q0 -69 45 -106.5t131 -37.5zM870 1147h-190l-139 199l-140 -199h-190l242 356h174z" />
    <glyph glyph-name="atilde" unicode="&#xe3;" horiz-adv-x="1095" 
d="M541 1028q191 0 302 -104.5t111 -288.5v-635h-194v113q-117 -136 -328 -136q-160 0 -253 79.5t-93 217.5q0 140 98 219.5t271 79.5h293v66q0 100 -58 155.5t-160 55.5q-84 0 -133.5 -37t-60.5 -106h-201q11 148 120 234.5t286 86.5zM473 137q119 0 197 69t78 177v37h-254
q-197 0 -197 -139q0 -69 45 -106.5t131 -37.5zM659 1157q-59 0 -133 47q-50 30 -74.5 39.5t-50.5 9.5q-47 -2 -161 -73v170q64 42 101.5 57.5t76.5 15.5q52 0 137 -47q46 -30 71 -39.5t52 -9.5q51 2 162 74v-170q-62 -42 -101 -58t-80 -16z" />
    <glyph glyph-name="adieresis" unicode="&#xe4;" horiz-adv-x="1095" 
d="M541 1028q191 0 302 -104.5t111 -288.5v-635h-194v113q-117 -136 -328 -136q-160 0 -253 79.5t-93 217.5q0 140 98 219.5t271 79.5h293v66q0 100 -58 155.5t-160 55.5q-84 0 -133.5 -37t-60.5 -106h-201q11 148 120 234.5t286 86.5zM473 137q119 0 197 69t78 177v37h-254
q-197 0 -197 -139q0 -69 45 -106.5t131 -37.5zM336 1210q-52 0 -89.5 37t-37.5 88q0 52 37 88.5t90 36.5q57 0 94 -35.5t37 -89.5q0 -53 -38 -89t-93 -36zM741 1210q-52 0 -89.5 37t-37.5 88q0 53 36.5 89t90.5 36q57 0 94 -35.5t37 -89.5q0 -53 -38 -89t-93 -36z" />
    <glyph glyph-name="aring" unicode="&#xe5;" horiz-adv-x="1095" 
d="M541 1028q191 0 302 -104.5t111 -288.5v-635h-194v113q-117 -136 -328 -136q-160 0 -253 79.5t-93 217.5q0 140 98 219.5t271 79.5h293v66q0 100 -58 155.5t-160 55.5q-84 0 -133.5 -37t-60.5 -106h-201q11 148 120 234.5t286 86.5zM473 137q119 0 197 69t78 177v37h-254
q-197 0 -197 -139q0 -69 45 -106.5t131 -37.5zM541 1108q-103 0 -172.5 67t-69.5 168t69.5 168.5t172.5 67.5q104 0 173.5 -67.5t69.5 -168.5t-70 -168t-173 -67zM545 1239q41 0 70.5 30.5t29.5 73.5t-29.5 73t-70.5 30q-44 0 -73.5 -29.5t-29.5 -73.5t29.5 -74t73.5 -30z
" />
    <glyph glyph-name="ae" unicode="&#xe6;" horiz-adv-x="1857" 
d="M1268 1028q236 0 377.5 -168t121.5 -426h-804q20 -128 104.5 -202t214.5 -74q95 0 156 32t98 101h213q-57 -152 -178.5 -233t-292.5 -81q-136 0 -247 55.5t-179 155.5q-53 -102 -155 -156.5t-246 -54.5q-167 0 -266 79t-99 212q0 146 99.5 229t273.5 83h276v49
q0 104 -54.5 162.5t-152.5 58.5q-171 0 -192 -143h-201q10 149 118 235t282 86q248 0 346 -176q68 84 168 130t219 46zM1268 846q-115 0 -195.5 -69t-105.5 -185h592q-9 115 -88.5 184.5t-202.5 69.5zM479 137q113 0 184.5 66t71.5 170v55h-243q-195 0 -195 -139
q0 -152 182 -152z" />
    <glyph glyph-name="ccedilla" unicode="&#xe7;" horiz-adv-x="1198" 
d="M541 -393q-117 0 -152 6v141h123q64 0 98.5 31t34.5 90q0 49 -31 100q-226 2 -377 152.5t-151 374.5t152.5 375t379.5 151q191 0 327 -104.5t165 -274.5h-209q-26 86 -103 136.5t-180 50.5q-138 0 -227.5 -94t-89.5 -240t89.5 -240t227.5 -94q104 0 179.5 50t103.5 136
h209q-23 -135 -115.5 -230.5t-230.5 -129.5q53 -65 53 -146q0 -113 -73 -177t-203 -64z" />
    <glyph glyph-name="egrave" unicode="&#xe8;" horiz-adv-x="1193" 
d="M606 1028q154 0 273.5 -76t179.5 -210.5t47 -301.5h-803q17 -130 102.5 -206t215.5 -76q177 0 249 133h215q-54 -150 -176.5 -232t-292.5 -82q-227 0 -377.5 148.5t-150.5 374.5t148.5 377t369.5 151zM604 846q-109 0 -188.5 -67t-106.5 -177h584q-12 109 -91 176.5
t-198 67.5zM514 1147l-229 356h243l183 -356h-197z" />
    <glyph glyph-name="eacute" unicode="&#xe9;" horiz-adv-x="1193" 
d="M606 1028q154 0 273.5 -76t179.5 -210.5t47 -301.5h-803q17 -130 102.5 -206t215.5 -76q177 0 249 133h215q-54 -150 -176.5 -232t-292.5 -82q-227 0 -377.5 148.5t-150.5 374.5t148.5 377t369.5 151zM604 846q-109 0 -188.5 -67t-106.5 -177h584q-12 109 -91 176.5
t-198 67.5zM496 1147l186 356h240l-230 -356h-196z" />
    <glyph glyph-name="ecircumflex" unicode="&#xea;" horiz-adv-x="1193" 
d="M606 1028q154 0 273.5 -76t179.5 -210.5t47 -301.5h-803q17 -130 102.5 -206t215.5 -76q177 0 249 133h215q-54 -150 -176.5 -232t-292.5 -82q-227 0 -377.5 148.5t-150.5 374.5t148.5 377t369.5 151zM604 846q-109 0 -188.5 -67t-106.5 -177h584q-12 109 -91 176.5
t-198 67.5zM934 1147h-191l-139 199l-139 -199h-191l242 356h174z" />
    <glyph glyph-name="edieresis" unicode="&#xeb;" horiz-adv-x="1193" 
d="M606 1028q154 0 273.5 -76t179.5 -210.5t47 -301.5h-803q17 -130 102.5 -206t215.5 -76q177 0 249 133h215q-54 -150 -176.5 -232t-292.5 -82q-227 0 -377.5 148.5t-150.5 374.5t148.5 377t369.5 151zM604 846q-109 0 -188.5 -67t-106.5 -177h584q-12 109 -91 176.5
t-198 67.5zM399 1210q-52 0 -89.5 37t-37.5 88q0 52 37 88.5t90 36.5q57 0 94 -35.5t37 -89.5q0 -53 -38 -89t-93 -36zM805 1210q-52 0 -89.5 37t-37.5 88q0 53 36.5 89t90.5 36q57 0 94 -35.5t37 -89.5q0 -53 -38 -89t-93 -36z" />
    <glyph glyph-name="igrave" unicode="&#xec;" horiz-adv-x="520" 
d="M154 0v1004h211v-1004h-211zM170 1147l-229 356h243l183 -356h-197z" />
    <glyph glyph-name="iacute" unicode="&#xed;" horiz-adv-x="520" 
d="M154 0v1004h211v-1004h-211zM152 1147l186 356h240l-230 -356h-196z" />
    <glyph glyph-name="icircumflex" unicode="&#xee;" horiz-adv-x="520" 
d="M154 0v1004h211v-1004h-211zM590 1147h-191l-139 199l-139 -199h-191l242 356h174z" />
    <glyph glyph-name="idieresis" unicode="&#xef;" horiz-adv-x="520" 
d="M154 0v1004h211v-1004h-211zM55 1210q-52 0 -89.5 37t-37.5 88q0 52 37 88.5t90 36.5q57 0 94 -35.5t37 -89.5q0 -53 -38 -89t-93 -36zM461 1210q-52 0 -89.5 37t-37.5 88q0 53 36.5 89t90.5 36q57 0 94 -35.5t37 -89.5q0 -53 -38 -89t-93 -36z" />
    <glyph glyph-name="eth" unicode="&#xf0;" horiz-adv-x="1179" 
d="M733 1139l158 -207q111 -143 158 -251t47 -220q0 -214 -141 -349t-365 -135q-223 0 -362.5 131.5t-139.5 340.5q0 201 131.5 333.5t329.5 132.5q61 0 127 -16l-137 178l-326 -104v164l225 73l-129 168h238l82 -106l325 106v-170zM590 160q128 0 211.5 83t83.5 210
q0 123 -83 203.5t-212 80.5q-128 0 -210.5 -81t-82.5 -205q0 -126 83.5 -208.5t209.5 -82.5z" />
    <glyph glyph-name="ntilde" unicode="&#xf1;" horiz-adv-x="1165" 
d="M651 1028q169 0 270 -109t101 -290v-629h-213v600q0 106 -58.5 170t-156.5 64q-100 0 -164.5 -65.5t-64.5 -168.5v-600h-211v1004h196v-101q109 125 301 125zM711 1157q-59 0 -133 47q-50 30 -74.5 39.5t-50.5 9.5q-48 -2 -162 -73v170q64 42 101.5 57.5t76.5 15.5
q52 0 137 -47q46 -30 71 -39.5t52 -9.5q51 2 162 74v-170q-63 -42 -101 -58t-79 -16z" />
    <glyph glyph-name="ograve" unicode="&#xf2;" horiz-adv-x="1241" 
d="M621 -25q-148 0 -271 70t-193.5 191.5t-70.5 267.5q0 145 70 265.5t193 189.5t272 69q224 0 378 -151.5t154 -372.5q0 -146 -70 -267.5t-192.5 -191.5t-269.5 -70zM621 168q138 0 228.5 95t90.5 241q0 145 -90.5 239.5t-228.5 94.5t-229 -94.5t-91 -239.5q0 -146 91 -241
t229 -95zM535 1147l-230 356h244l182 -356h-196z" />
    <glyph glyph-name="oacute" unicode="&#xf3;" horiz-adv-x="1241" 
d="M621 -25q-148 0 -271 70t-193.5 191.5t-70.5 267.5q0 145 70 265.5t193 189.5t272 69q224 0 378 -151.5t154 -372.5q0 -146 -70 -267.5t-192.5 -191.5t-269.5 -70zM621 168q138 0 228.5 95t90.5 241q0 145 -90.5 239.5t-228.5 94.5t-229 -94.5t-91 -239.5q0 -146 91 -241
t229 -95zM516 1147l186 356h240l-229 -356h-197z" />
    <glyph glyph-name="ocircumflex" unicode="&#xf4;" horiz-adv-x="1241" 
d="M621 -25q-148 0 -271 70t-193.5 191.5t-70.5 267.5q0 145 70 265.5t193 189.5t272 69q224 0 378 -151.5t154 -372.5q0 -146 -70 -267.5t-192.5 -191.5t-269.5 -70zM621 168q138 0 228.5 95t90.5 241q0 145 -90.5 239.5t-228.5 94.5t-229 -94.5t-91 -239.5q0 -146 91 -241
t229 -95zM954 1147h-190l-139 199l-140 -199h-190l242 356h174z" />
    <glyph glyph-name="otilde" unicode="&#xf5;" horiz-adv-x="1241" 
d="M621 -25q-148 0 -271 70t-193.5 191.5t-70.5 267.5q0 145 70 265.5t193 189.5t272 69q224 0 378 -151.5t154 -372.5q0 -146 -70 -267.5t-192.5 -191.5t-269.5 -70zM621 168q138 0 228.5 95t90.5 241q0 145 -90.5 239.5t-228.5 94.5t-229 -94.5t-91 -239.5q0 -146 91 -241
t229 -95zM743 1157q-59 0 -133 47q-50 30 -74.5 39.5t-50.5 9.5q-47 -2 -161 -73v170q64 42 101.5 57.5t76.5 15.5q52 0 137 -47q46 -30 71 -39.5t52 -9.5q51 2 162 74v-170q-62 -42 -101 -58t-80 -16z" />
    <glyph glyph-name="odieresis" unicode="&#xf6;" horiz-adv-x="1241" 
d="M621 -25q-148 0 -271 70t-193.5 191.5t-70.5 267.5q0 145 70 265.5t193 189.5t272 69q224 0 378 -151.5t154 -372.5q0 -146 -70 -267.5t-192.5 -191.5t-269.5 -70zM621 168q138 0 228.5 95t90.5 241q0 145 -90.5 239.5t-228.5 94.5t-229 -94.5t-91 -239.5q0 -146 91 -241
t229 -95zM420 1210q-52 0 -89.5 37t-37.5 88q0 52 37 88.5t90 36.5q57 0 94 -35.5t37 -89.5q0 -53 -38 -89t-93 -36zM825 1210q-52 0 -89.5 37t-37.5 88q0 53 36.5 89t90.5 36q57 0 94 -35.5t37 -89.5q0 -53 -38 -89t-93 -36z" />
    <glyph glyph-name="divide" unicode="&#xf7;" horiz-adv-x="1187" 
d="M594 944q-57 0 -97 39t-40 94t40 92t97 37t97 -37t40 -92t-40 -94t-97 -39zM109 596v186h970v-186h-970zM594 172q-57 0 -97 37t-40 92t40 94t97 39t97 -39t40 -94t-40 -92t-97 -37z" />
    <glyph glyph-name="oslash" unicode="&#xf8;" horiz-adv-x="1304" 
d="M1245 1104l-201 -246q141 -151 138 -354q-3 -147 -73 -267.5t-192 -190t-270 -69.5q-146 0 -274 72l-94 -117h-218l181 224q-130 146 -127 348q2 146 71.5 266t191 189t269.5 69q141 0 266 -67l115 143h217zM319 504q-3 -111 52 -197l424 508q-74 33 -146 33
q-142 0 -234.5 -97t-95.5 -247zM649 156q143 0 236.5 98.5t93.5 249.5q0 115 -59 203l-428 -512q73 -39 157 -39z" />
    <glyph glyph-name="ugrave" unicode="&#xf9;" horiz-adv-x="1165" 
d="M799 1004h213v-1004h-197v100q-109 -125 -301 -125q-168 0 -269.5 110t-101.5 292v627h211v-601q0 -105 59.5 -169t157.5 -64q100 0 164 65t64 168v601zM489 1147l-229 356h244l182 -356h-197z" />
    <glyph glyph-name="uacute" unicode="&#xfa;" horiz-adv-x="1165" 
d="M799 1004h213v-1004h-197v100q-109 -125 -301 -125q-168 0 -269.5 110t-101.5 292v627h211v-601q0 -105 59.5 -169t157.5 -64q100 0 164 65t64 168v601zM471 1147l186 356h240l-229 -356h-197z" />
    <glyph glyph-name="ucircumflex" unicode="&#xfb;" horiz-adv-x="1165" 
d="M799 1004h213v-1004h-197v100q-109 -125 -301 -125q-168 0 -269.5 110t-101.5 292v627h211v-601q0 -105 59.5 -169t157.5 -64q100 0 164 65t64 168v601zM909 1147h-190l-139 199l-140 -199h-190l242 356h174z" />
    <glyph glyph-name="udieresis" unicode="&#xfc;" horiz-adv-x="1165" 
d="M799 1004h213v-1004h-197v100q-109 -125 -301 -125q-168 0 -269.5 110t-101.5 292v627h211v-601q0 -105 59.5 -169t157.5 -64q100 0 164 65t64 168v601zM375 1210q-52 0 -89.5 37t-37.5 88q0 52 37 88.5t90 36.5q57 0 94 -35.5t37 -89.5q0 -53 -38 -89t-93 -36zM780 1210
q-52 0 -89.5 37t-37.5 88q0 53 36.5 89t90.5 36q57 0 94 -35.5t37 -89.5q0 -53 -38 -89t-93 -36z" />
    <glyph glyph-name="yacute" unicode="&#xfd;" horiz-adv-x="1052" 
d="M793 1004h225l-502 -1338h-233l129 338l-377 1000h225l268 -771zM418 1147l186 356h240l-230 -356h-196z" />
    <glyph glyph-name="thorn" unicode="&#xfe;" horiz-adv-x="1292" 
d="M707 1028q214 0 352.5 -148.5t138.5 -377.5q0 -227 -138 -377t-347 -150q-108 0 -199 42.5t-149 117.5v-469h-211v1712h196v-522q55 80 149 126t208 46zM668 168q140 0 227.5 92.5t87.5 241.5q0 148 -88 242t-227 94t-224.5 -92t-85.5 -242q0 -152 85 -244t225 -92z" />
    <glyph glyph-name="ydieresis" unicode="&#xff;" horiz-adv-x="1052" 
d="M793 1004h225l-502 -1338h-233l129 338l-377 1000h225l268 -771zM322 1210q-52 0 -89.5 37t-37.5 88q0 52 37 88.5t90 36.5q57 0 94 -35.5t37 -89.5q0 -53 -38 -89t-93 -36zM727 1210q-52 0 -89.5 37t-37.5 88q0 53 36.5 89t90.5 36q57 0 94 -35.5t37 -89.5
q0 -53 -38 -89t-93 -36z" />
    <glyph glyph-name="Amacron" unicode="&#x100;" horiz-adv-x="1376" 
d="M1096 0l-117 326h-578l-118 -326h-228l520 1378h230l518 -1378h-227zM690 1157l-227 -657h457zM387 1563v166h604v-166h-604z" />
    <glyph glyph-name="amacron" unicode="&#x101;" horiz-adv-x="1095" 
d="M541 1028q191 0 302 -104.5t111 -288.5v-635h-194v113q-117 -136 -328 -136q-160 0 -253 79.5t-93 217.5q0 140 98 219.5t271 79.5h293v66q0 100 -58 155.5t-160 55.5q-84 0 -133.5 -37t-60.5 -106h-201q11 148 120 234.5t286 86.5zM473 137q119 0 197 69t78 177v37h-254
q-197 0 -197 -139q0 -69 45 -106.5t131 -37.5zM258 1206v162h563v-162h-563z" />
    <glyph glyph-name="Abreve" unicode="&#x102;" horiz-adv-x="1376" 
d="M1096 0l-117 326h-578l-118 -326h-228l520 1378h230l518 -1378h-227zM690 1157l-227 -657h457zM688 1501q-161 0 -269 97.5t-108 240.5h168q0 -76 61 -130t148 -54t147 54t60 130h170q0 -143 -108 -240.5t-269 -97.5z" />
    <glyph glyph-name="abreve" unicode="&#x103;" horiz-adv-x="1095" 
d="M541 1028q191 0 302 -104.5t111 -288.5v-635h-194v113q-117 -136 -328 -136q-160 0 -253 79.5t-93 217.5q0 140 98 219.5t271 79.5h293v66q0 100 -58 155.5t-160 55.5q-84 0 -133.5 -37t-60.5 -106h-201q11 148 120 234.5t286 86.5zM473 137q119 0 197 69t78 177v37h-254
q-197 0 -197 -139q0 -69 45 -106.5t131 -37.5zM541 1149q-145 0 -228.5 90.5t-83.5 247.5h166q0 -91 37.5 -139t108.5 -48q70 0 107.5 48t37.5 139h168q0 -157 -84 -247.5t-229 -90.5z" />
    <glyph glyph-name="Aogonek" unicode="&#x104;" horiz-adv-x="1376" 
d="M1182 -389q-117 0 -184.5 48t-67.5 130q0 121 160 225l-111 312h-578l-118 -326h-228l520 1378h230l518 -1378h-2l-88 -55q-63 -37 -85 -61t-22 -58q0 -70 113 -70h82v-137q-106 -8 -139 -8zM690 1157l-227 -657h457z" />
    <glyph glyph-name="aogonek" unicode="&#x105;" horiz-adv-x="1095" 
d="M811 -389q-117 0 -184.5 48t-67.5 130q0 136 201 250v74q-117 -136 -328 -136q-160 0 -253 79.5t-93 217.5q0 140 98 219.5t271 79.5h293v66q0 100 -58 155.5t-160 55.5q-84 0 -133.5 -37t-60.5 -106h-201q11 148 120 234.5t286 86.5q191 0 302 -104.5t111 -288.5v-635
h-4l-88 -55q-63 -37 -84.5 -61t-21.5 -58q0 -70 112 -70h82v-137q-106 -8 -139 -8zM473 137q119 0 197 69t78 177v37h-254q-197 0 -197 -139q0 -69 45 -106.5t131 -37.5z" />
    <glyph glyph-name="Cacute" unicode="&#x106;" horiz-adv-x="1593" 
d="M815 -25q-204 0 -369 92.5t-258.5 256.5t-93.5 366q0 150 55 282.5t150.5 227t229.5 149t286 54.5q269 0 457.5 -148t226.5 -391h-229q-40 155 -163 246.5t-292 91.5q-212 0 -355 -147t-143 -365q0 -220 143 -367t355 -147q169 0 292 91.5t163 246.5h229
q-38 -243 -226.5 -391t-457.5 -148zM715 1499l180 354h252l-236 -354h-196z" />
    <glyph glyph-name="cacute" unicode="&#x107;" horiz-adv-x="1198" 
d="M618 -25q-227 0 -379.5 151.5t-152.5 375.5t152.5 375t379.5 151q191 0 327 -104.5t165 -274.5h-209q-26 86 -103 136.5t-180 50.5q-138 0 -227.5 -94t-89.5 -240t89.5 -240t227.5 -94q104 0 179.5 50t103.5 136h209q-29 -170 -165 -274.5t-327 -104.5zM518 1147l187 356
h239l-229 -356h-197z" />
    <glyph glyph-name="Ccaron" unicode="&#x10c;" horiz-adv-x="1593" 
d="M815 -25q-204 0 -369 92.5t-258.5 256.5t-93.5 366q0 150 55 282.5t150.5 227t229.5 149t286 54.5q269 0 457.5 -148t226.5 -391h-229q-40 155 -163 246.5t-292 91.5q-212 0 -355 -147t-143 -365q0 -220 143 -367t355 -147q169 0 292 91.5t163 246.5h229
q-38 -243 -226.5 -391t-457.5 -148zM965 1853h190l-250 -354h-176l-250 354h189l149 -198z" />
    <glyph glyph-name="ccaron" unicode="&#x10d;" horiz-adv-x="1198" 
d="M618 -25q-227 0 -379.5 151.5t-152.5 375.5t152.5 375t379.5 151q191 0 327 -104.5t165 -274.5h-209q-26 86 -103 136.5t-180 50.5q-138 0 -227.5 -94t-89.5 -240t89.5 -240t227.5 -94q104 0 179.5 50t103.5 136h209q-29 -170 -165 -274.5t-327 -104.5zM766 1503h190
l-241 -356h-174l-244 356h190l140 -198z" />
    <glyph glyph-name="Dcaron" unicode="&#x10e;" horiz-adv-x="1482" 
d="M180 0v1378h455q340 0 547 -188.5t207 -497.5q0 -203 -94.5 -360.5t-266 -244.5t-393.5 -87h-455zM395 195h240q239 0 384.5 136.5t145.5 360.5q0 223 -144.5 357.5t-385.5 134.5h-240v-989zM760 1853h190l-250 -354h-176l-250 354h189l149 -198z" />
    <glyph glyph-name="dcaron" unicode="&#x10f;" horiz-adv-x="1619" 
d="M924 1378h211v-1378h-195v150q-55 -81 -149.5 -128t-210.5 -47q-212 0 -350 148.5t-138 376.5q0 229 137.5 378.5t348.5 149.5q109 0 198.5 -43t147.5 -119v512zM621 168q140 0 225.5 91.5t85.5 242.5t-85.5 243.5t-223.5 92.5q-141 0 -228.5 -92.5t-87.5 -241.5
q0 -150 87 -243t227 -93zM1313 983l24 395h228l-92 -395h-160z" />
    <glyph glyph-name="Dcroat" unicode="&#x110;" horiz-adv-x="1525" 
d="M221 1378h455q340 0 547 -188.5t207 -497.5q0 -203 -94.5 -360.5t-266 -244.5t-393.5 -87h-455v627h-184v180h184v571zM436 195h240q239 0 384.5 136.5t145.5 360.5q0 223 -144.5 357.5t-385.5 134.5h-240v-377h271v-180h-271v-432z" />
    <glyph glyph-name="dcroat" unicode="&#x111;" horiz-adv-x="1306" 
d="M1309 1262v-164h-166v-1098h-197v139q-55 -77 -147.5 -119.5t-214.5 -42.5q-212 0 -351 141.5t-139 356.5t138.5 357.5t347.5 142.5q111 0 202.5 -43t149.5 -119v285h-373v164h373v116h211v-116h166zM623 160q143 0 229 87t86 232q0 146 -86 233t-229 87
q-137 0 -225.5 -90.5t-88.5 -229.5t88.5 -229t225.5 -90z" />
    <glyph glyph-name="Emacron" unicode="&#x112;" horiz-adv-x="1105" 
d="M180 0v1378h811v-190h-596v-381h576v-184h-576v-433h619v-190h-834zM303 1563v166h604v-166h-604z" />
    <glyph glyph-name="emacron" unicode="&#x113;" horiz-adv-x="1193" 
d="M606 1028q154 0 273.5 -76t179.5 -210.5t47 -301.5h-803q17 -130 102.5 -206t215.5 -76q177 0 249 133h215q-54 -150 -176.5 -232t-292.5 -82q-227 0 -377.5 148.5t-150.5 374.5t148.5 377t369.5 151zM604 846q-109 0 -188.5 -67t-106.5 -177h584q-12 109 -91 176.5
t-198 67.5zM322 1206v162h563v-162h-563z" />
    <glyph glyph-name="Edotaccent" unicode="&#x116;" horiz-adv-x="1105" 
d="M180 0v1378h811v-190h-596v-381h576v-184h-576v-433h619v-190h-834zM606 1518q-60 0 -102.5 40.5t-42.5 100.5q0 58 42.5 98.5t102.5 40.5q61 0 103.5 -40t42.5 -99q0 -60 -42 -100.5t-104 -40.5z" />
    <glyph glyph-name="edotaccent" unicode="&#x117;" horiz-adv-x="1193" 
d="M606 1028q154 0 273.5 -76t179.5 -210.5t47 -301.5h-803q17 -130 102.5 -206t215.5 -76q177 0 249 133h215q-54 -150 -176.5 -232t-292.5 -82q-227 0 -377.5 148.5t-150.5 374.5t148.5 377t369.5 151zM604 846q-109 0 -188.5 -67t-106.5 -177h584q-12 109 -91 176.5
t-198 67.5zM604 1210q-58 0 -96.5 38t-38.5 95t38 93.5t97 36.5q57 0 95 -36.5t38 -93.5t-38 -95t-95 -38z" />
    <glyph glyph-name="Eogonek" unicode="&#x118;" horiz-adv-x="1105" 
d="M180 0v1378h811v-190h-596v-381h576v-184h-576v-433h619v-190h-2l-88 -55q-63 -37 -85 -61t-22 -58q0 -70 113 -70h82v-137q-106 -8 -140 -8q-117 0 -184 48t-67 130q0 114 137 211h-578z" />
    <glyph glyph-name="eogonek" unicode="&#x119;" horiz-adv-x="1193" 
d="M758 -389q-117 0 -184.5 47.5t-67.5 130.5q0 50 22.5 94t75.5 94q-223 5 -369.5 153t-146.5 370q0 226 148.5 377t369.5 151q154 0 273.5 -76t179.5 -210.5t47 -301.5h-803q17 -130 102.5 -206t215.5 -76q177 0 249 133h215q-57 -154 -178 -234l-137 -123
q-43 -40 -55.5 -59.5t-12.5 -48.5q0 -76 111 -76h84v-131q-47 -8 -139 -8zM604 846q-109 0 -188.5 -67t-106.5 -177h584q-12 109 -91 176.5t-198 67.5z" />
    <glyph glyph-name="Ecaron" unicode="&#x11a;" horiz-adv-x="1105" 
d="M180 0v1378h811v-190h-596v-381h576v-184h-576v-433h619v-190h-834zM754 1853h190l-250 -354h-176l-250 354h189l149 -198z" />
    <glyph glyph-name="ecaron" unicode="&#x11b;" horiz-adv-x="1193" 
d="M606 1028q154 0 273.5 -76t179.5 -210.5t47 -301.5h-803q17 -130 102.5 -206t215.5 -76q177 0 249 133h215q-54 -150 -176.5 -232t-292.5 -82q-227 0 -377.5 148.5t-150.5 374.5t148.5 377t369.5 151zM604 846q-109 0 -188.5 -67t-106.5 -177h584q-12 109 -91 176.5
t-198 67.5zM743 1503h191l-242 -356h-174l-244 356h191l139 -198z" />
    <glyph glyph-name="Gbreve" unicode="&#x11e;" horiz-adv-x="1607" 
d="M834 705h636v-392q-99 -164 -262 -250t-368 -86q-214 0 -384 92t-265 255.5t-95 369.5q0 152 54.5 283.5t150 224.5t230.5 146t290 53q238 0 408 -118.5t227 -324.5h-235q-51 118 -156 182t-246 64q-220 0 -362 -144t-142 -368q0 -229 148 -374.5t381 -145.5
q270 0 413 188v162h-423v183zM811 1501q-161 0 -269 97.5t-108 240.5h168q0 -76 61 -130t148 -54t147 54t60 130h170q0 -143 -108 -240.5t-269 -97.5z" />
    <glyph glyph-name="gbreve" unicode="&#x11f;" horiz-adv-x="1288" 
d="M938 1006h197v-887q0 -227 -141 -351t-382 -124q-207 0 -334 85.5t-157 235.5h211q27 -71 99 -110t185 -39q144 0 226 73t82 217v87q-56 -76 -147.5 -120t-198.5 -44q-204 0 -345 144.5t-141 356.5t140.5 355t349.5 143q115 0 209 -46.5t147 -127.5v152zM621 209
q135 0 221 89.5t86 231.5q0 141 -85 228.5t-222 87.5q-139 0 -228.5 -88.5t-89.5 -225.5q0 -139 90.5 -231t227.5 -92zM629 1149q-145 0 -228.5 90.5t-83.5 247.5h166q0 -91 37.5 -139t108.5 -48q70 0 107.5 48t37.5 139h168q0 -157 -84 -247.5t-229 -90.5z" />
    <glyph glyph-name="Gcommaaccent" unicode="&#x122;" horiz-adv-x="1607" 
d="M834 705h636v-392q-99 -164 -262 -250t-368 -86q-214 0 -384 92t-265 255.5t-95 369.5q0 152 54.5 283.5t150 224.5t230.5 146t290 53q238 0 408 -118.5t227 -324.5h-235q-51 118 -156 182t-246 64q-220 0 -362 -144t-142 -368q0 -229 148 -374.5t381 -145.5
q270 0 413 188v162h-423v183zM682 -444l25 346h196l-45 -346h-176z" />
    <glyph glyph-name="gcommaaccent" unicode="&#x123;" horiz-adv-x="1288" 
d="M938 1006h197v-887q0 -227 -141 -351t-382 -124q-207 0 -334 85.5t-157 235.5h211q27 -71 99 -110t185 -39q144 0 226 73t82 217v87q-56 -76 -147.5 -120t-198.5 -44q-204 0 -345 144.5t-141 356.5t140.5 355t349.5 143q115 0 209 -46.5t147 -127.5v152zM621 209
q135 0 221 89.5t86 231.5q0 141 -85 228.5t-222 87.5q-139 0 -228.5 -88.5t-89.5 -225.5q0 -139 90.5 -231t227.5 -92zM516 1147l49 356h178l-26 -356h-201z" />
    <glyph glyph-name="Imacron" unicode="&#x12a;" horiz-adv-x="573" 
d="M180 0v1378h215v-1378h-215zM-16 1563v166h604v-166h-604z" />
    <glyph glyph-name="imacron" unicode="&#x12b;" horiz-adv-x="520" 
d="M154 0v1004h211v-1004h-211zM16 1206v162h486v-162h-486z" />
    <glyph glyph-name="Iogonek" unicode="&#x12e;" horiz-adv-x="573" 
d="M254 -389q-117 0 -184.5 48t-67.5 130q0 131 178 236v1353h215v-1378h-2l-88 -55q-63 -37 -84.5 -61t-21.5 -58q0 -70 112 -70h82v-137q-106 -8 -139 -8z" />
    <glyph glyph-name="iogonek" unicode="&#x12f;" horiz-adv-x="520" 
d="M221 -389q-117 0 -184.5 48t-67.5 130q0 133 185 240v975h211v-1004h-5l-88 -55q-63 -37 -84.5 -61t-21.5 -58q0 -70 113 -70h81v-137q-106 -8 -139 -8zM260 1210q-58 0 -96.5 38t-38.5 95t38 93.5t97 36.5q57 0 95 -36.5t38 -93.5t-38 -95t-95 -38z" />
    <glyph glyph-name="Idotaccent" unicode="&#x130;" horiz-adv-x="573" 
d="M180 0v1378h215v-1378h-215zM287 1518q-60 0 -103 40.5t-43 100.5q0 58 43 98.5t103 40.5q61 0 103 -40t42 -99q0 -60 -41.5 -100.5t-103.5 -40.5z" />
    <glyph glyph-name="dotlessi" unicode="&#x131;" horiz-adv-x="520" 
d="M154 0v1004h211v-1004h-211z" />
    <glyph glyph-name="Kcommaaccent" unicode="&#x136;" horiz-adv-x="1216" 
d="M1212 0h-264l-553 668v-668h-215v1378h215v-596l527 596h254l-570 -647zM530 -444l25 346h197l-45 -346h-177z" />
    <glyph glyph-name="kcommaaccent" unicode="&#x137;" horiz-adv-x="1005" 
d="M1026 0h-256l-405 455v-455h-211v1378h211v-819l372 445h244l-406 -492zM399 -444l25 346h197l-46 -346h-176z" />
    <glyph glyph-name="Lacute" unicode="&#x139;" horiz-adv-x="983" 
d="M180 0v1378h215v-1183h543v-195h-758zM188 1499l181 354h252l-236 -354h-197z" />
    <glyph glyph-name="lacute" unicode="&#x13a;" horiz-adv-x="520" 
d="M154 0v1378h211v-1378h-211zM158 1499l180 354h252l-236 -354h-196z" />
    <glyph glyph-name="Lcommaaccent" unicode="&#x13b;" horiz-adv-x="983" 
d="M180 0v1378h215v-1183h543v-195h-758zM459 -444l24 346h197l-45 -346h-176z" />
    <glyph glyph-name="lcommaaccent" unicode="&#x13c;" horiz-adv-x="520" 
d="M154 0v1378h211v-1378h-211zM129 -444l25 346h196l-45 -346h-176z" />
    <glyph glyph-name="Lcaron" unicode="&#x13d;" horiz-adv-x="983" 
d="M180 0v1378h215v-1183h543v-195h-758zM618 983l25 395h227l-92 -395h-160z" />
    <glyph glyph-name="lcaron" unicode="&#x13e;" horiz-adv-x="858" 
d="M154 0v1378h211v-1378h-211zM551 983l24 395h228l-92 -395h-160z" />
    <glyph glyph-name="Ldot" unicode="&#x13f;" horiz-adv-x="1040" 
d="M180 0v1378h215v-1183h543v-195h-758zM797 696q-60 0 -102 41t-42 101q0 61 42 102t102 41q63 0 104 -40.5t41 -102.5q0 -60 -41 -101t-104 -41z" />
    <glyph glyph-name="ldot" unicode="&#x140;" horiz-adv-x="708" 
d="M154 0v1378h211v-1378h-211zM623 532q-60 0 -102 41t-42 101q0 61 42 102t102 41q63 0 104 -40.5t41 -102.5q0 -60 -41 -101t-104 -41z" />
    <glyph glyph-name="Lslash" unicode="&#x141;" horiz-adv-x="999" 
d="M197 0v526l-160 -69v200l160 70v651h215v-567l395 180v-200l-395 -179v-417h542v-195h-757z" />
    <glyph glyph-name="lslash" unicode="&#x142;" horiz-adv-x="616" 
d="M37 514v199l164 75v590h211v-508l170 78v-198l-170 -78v-672h-211v590z" />
    <glyph glyph-name="Nacute" unicode="&#x143;" horiz-adv-x="1417" 
d="M1026 1378h213v-1378h-229l-619 1038v-1038h-211v1378h238l608 -1020v1020zM608 1499l180 354h252l-235 -354h-197z" />
    <glyph glyph-name="nacute" unicode="&#x144;" horiz-adv-x="1165" 
d="M651 1028q169 0 270 -109t101 -290v-629h-213v600q0 106 -58.5 170t-156.5 64q-100 0 -164.5 -65.5t-64.5 -168.5v-600h-211v1004h196v-101q109 125 301 125zM483 1147l187 356h239l-229 -356h-197z" />
    <glyph glyph-name="Ncommaaccent" unicode="&#x145;" horiz-adv-x="1417" 
d="M1026 1378h213v-1378h-229l-619 1038v-1038h-211v1378h238l608 -1020v1020zM580 -444l24 346h197l-45 -346h-176z" />
    <glyph glyph-name="ncommaaccent" unicode="&#x146;" horiz-adv-x="1165" 
d="M651 1028q169 0 270 -109t101 -290v-629h-213v600q0 106 -58.5 170t-156.5 64q-100 0 -164.5 -65.5t-64.5 -168.5v-600h-211v1004h196v-101q109 125 301 125zM457 -444l24 346h197l-45 -346h-176z" />
    <glyph glyph-name="Ncaron" unicode="&#x147;" horiz-adv-x="1417" 
d="M1026 1378h213v-1378h-229l-619 1038v-1038h-211v1378h238l608 -1020v1020zM858 1853h191l-250 -354h-176l-250 354h188l150 -198z" />
    <glyph glyph-name="ncaron" unicode="&#x148;" horiz-adv-x="1165" 
d="M651 1028q169 0 270 -109t101 -290v-629h-213v600q0 106 -58.5 170t-156.5 64q-100 0 -164.5 -65.5t-64.5 -168.5v-600h-211v1004h196v-101q109 125 301 125zM731 1503h191l-242 -356h-174l-244 356h191l139 -198z" />
    <glyph glyph-name="Omacron" unicode="&#x14c;" horiz-adv-x="1632" 
d="M817 -25q-152 0 -286.5 54.5t-230 149.5t-151 227.5t-55.5 283.5q0 201 94 364.5t259.5 256t369.5 92.5q153 0 287 -54.5t229 -149t150 -227t55 -282.5q0 -151 -55 -283.5t-150.5 -227.5t-229.5 -149.5t-286 -54.5zM817 176q215 0 356.5 146.5t141.5 369.5
q0 220 -142 365t-356 145q-215 0 -357.5 -145t-142.5 -365q0 -223 141.5 -369.5t358.5 -146.5zM514 1563v166h604v-166h-604z" />
    <glyph glyph-name="omacron" unicode="&#x14d;" horiz-adv-x="1241" 
d="M621 -25q-148 0 -271 70t-193.5 191.5t-70.5 267.5q0 145 70 265.5t193 189.5t272 69q224 0 378 -151.5t154 -372.5q0 -146 -70 -267.5t-192.5 -191.5t-269.5 -70zM621 168q138 0 228.5 95t90.5 241q0 145 -90.5 239.5t-228.5 94.5t-229 -94.5t-91 -239.5q0 -146 91 -241
t229 -95zM342 1206v162h563v-162h-563z" />
    <glyph glyph-name="Ohungarumlaut" unicode="&#x150;" horiz-adv-x="1632" 
d="M817 -25q-152 0 -286.5 54.5t-230 149.5t-151 227.5t-55.5 283.5q0 201 94 364.5t259.5 256t369.5 92.5q153 0 287 -54.5t229 -149t150 -227t55 -282.5q0 -151 -55 -283.5t-150.5 -227.5t-229.5 -149.5t-286 -54.5zM817 176q215 0 356.5 146.5t141.5 369.5
q0 220 -142 365t-356 145q-215 0 -357.5 -145t-142.5 -365q0 -223 141.5 -369.5t358.5 -146.5zM559 1499l215 354h197l-226 -354h-186zM903 1499l223 354h215l-264 -354h-174z" />
    <glyph glyph-name="ohungarumlaut" unicode="&#x151;" horiz-adv-x="1241" 
d="M621 -25q-148 0 -271 70t-193.5 191.5t-70.5 267.5q0 145 70 265.5t193 189.5t272 69q224 0 378 -151.5t154 -372.5q0 -146 -70 -267.5t-192.5 -191.5t-269.5 -70zM621 168q138 0 228.5 95t90.5 241q0 145 -90.5 239.5t-228.5 94.5t-229 -94.5t-91 -239.5q0 -146 91 -241
t229 -95zM360 1147l222 356h196l-233 -356h-185zM700 1147l232 356h207l-267 -356h-172z" />
    <glyph glyph-name="OE" unicode="&#x152;" horiz-adv-x="2230" 
d="M1526 190h612v-190h-821v205q-84 -106 -217.5 -167t-288.5 -61q-201 0 -365.5 93t-258 256.5t-93.5 363.5t94 363t259 255.5t366 92.5q155 0 287.5 -60t216.5 -165v202h799v-190h-590v-381h569v-184h-569v-433zM817 176q140 0 254.5 67t179 184.5t64.5 262.5
q0 219 -142.5 365.5t-355.5 146.5q-215 0 -357.5 -146t-142.5 -366q0 -144 65 -262t180 -185t255 -67z" />
    <glyph glyph-name="oe" unicode="&#x153;" horiz-adv-x="2041" 
d="M1456 1026q241 0 380.5 -164t117.5 -422h-807q17 -132 103.5 -209t219.5 -77q182 0 250 133h213q-51 -146 -174 -228t-291 -82q-141 0 -252 58t-176 162q-67 -103 -178 -161.5t-248 -58.5q-144 0 -265 69.5t-191 190.5t-70 265q0 146 69.5 267t191 190t267.5 69
q138 0 248.5 -59t177.5 -164q64 104 171.5 162.5t242.5 58.5zM1454 852q-117 0 -196.5 -66.5t-104.5 -183.5h594q-15 116 -92 183t-201 67zM625 168q138 0 225.5 93t87.5 241t-86.5 242t-224.5 94q-141 0 -232.5 -95t-91.5 -241q0 -144 92 -239t230 -95z" />
    <glyph glyph-name="Racute" unicode="&#x154;" horiz-adv-x="1234" 
d="M180 0v1378h449q212 0 334 -111.5t122 -305.5q0 -147 -72.5 -251t-203.5 -147l367 -563h-252l-342 537h-187v-537h-215zM393 721h228q114 0 178.5 63.5t64.5 173.5q0 109 -63.5 170.5t-179.5 61.5h-228v-469zM471 1499l180 354h252l-235 -354h-197z" />
    <glyph glyph-name="racute" unicode="&#x155;" horiz-adv-x="745" 
d="M647 1004h74v-197h-78q-129 0 -203.5 -74.5t-74.5 -204.5v-528h-211v1004h196v-134q96 134 297 134zM252 1147l186 356h240l-229 -356h-197z" />
    <glyph glyph-name="Rcommaaccent" unicode="&#x156;" horiz-adv-x="1234" 
d="M180 0v1378h449q212 0 334 -111.5t122 -305.5q0 -147 -72.5 -251t-203.5 -147l367 -563h-252l-342 537h-187v-537h-215zM393 721h228q114 0 178.5 63.5t64.5 173.5q0 109 -63.5 170.5t-179.5 61.5h-228v-469zM485 -444l25 346h197l-45 -346h-177z" />
    <glyph glyph-name="rcommaaccent" unicode="&#x157;" horiz-adv-x="745" 
d="M647 1004h74v-197h-78q-129 0 -203.5 -74.5t-74.5 -204.5v-528h-211v1004h196v-134q96 134 297 134zM127 -444l25 346h196l-45 -346h-176z" />
    <glyph glyph-name="Rcaron" unicode="&#x158;" horiz-adv-x="1234" 
d="M180 0v1378h449q212 0 334 -111.5t122 -305.5q0 -147 -72.5 -251t-203.5 -147l367 -563h-252l-342 537h-187v-537h-215zM393 721h228q114 0 178.5 63.5t64.5 173.5q0 109 -63.5 170.5t-179.5 61.5h-228v-469zM721 1853h190l-249 -354h-177l-249 354h188l149 -198z" />
    <glyph glyph-name="rcaron" unicode="&#x159;" horiz-adv-x="745" 
d="M647 1004h74v-197h-78q-129 0 -203.5 -74.5t-74.5 -204.5v-528h-211v1004h196v-134q96 134 297 134zM500 1503h190l-241 -356h-175l-243 356h190l139 -198z" />
    <glyph glyph-name="Sacute" unicode="&#x15a;" horiz-adv-x="1122" 
d="M567 -25q-218 0 -349 118.5t-140 322.5h213q6 -118 79.5 -188t192.5 -70q118 0 187 55t69 149q0 75 -41.5 121.5t-148.5 87.5l-183 70q-165 63 -240 157t-75 236q0 164 121.5 265.5t318.5 101.5t315.5 -103.5t131.5 -287.5h-213q-6 100 -67.5 155.5t-166.5 55.5
q-103 0 -165 -48.5t-62 -130.5q0 -79 45 -131t148 -92l190 -71q165 -63 237 -150.5t72 -224.5q0 -183 -127.5 -290.5t-341.5 -107.5zM459 1499l180 354h252l-236 -354h-196z" />
    <glyph glyph-name="sacute" unicode="&#x15b;" horiz-adv-x="921" 
d="M475 -23q-177 0 -287 89t-120 241h206q7 -72 60.5 -111.5t140.5 -39.5q80 0 127 32t47 88q0 47 -24 70t-95 45l-172 49q-125 35 -190.5 110.5t-65.5 182.5q0 133 100 214t263 81q157 0 257 -80.5t112 -216.5h-205q-7 55 -52 87t-114 32t-111.5 -30t-42.5 -81
q0 -44 26.5 -69.5t88.5 -44.5l174 -52q258 -73 258 -290q0 -140 -103.5 -223t-277.5 -83zM362 1147l187 356h239l-229 -356h-197z" />
    <glyph glyph-name="Scedilla" unicode="&#x15e;" horiz-adv-x="1122" 
d="M475 -393q-116 0 -151 6v141h122q65 0 99.5 31.5t34.5 89.5q0 49 -31 100q-211 4 -336.5 122t-134.5 319h213q6 -118 79.5 -188t192.5 -70q118 0 187 55t69 149q0 75 -41.5 121.5t-148.5 87.5l-183 70q-165 63 -240 157t-75 236q0 164 121.5 265.5t318.5 101.5
t315.5 -103.5t131.5 -287.5h-213q-6 100 -67.5 155.5t-166.5 55.5q-103 0 -165 -48.5t-62 -130.5q0 -79 45 -131t148 -92l190 -71q165 -63 237 -150.5t72 -224.5q0 -151 -89 -252.5t-245 -132.5q50 -62 50 -140q0 -113 -73.5 -177t-203.5 -64z" />
    <glyph glyph-name="scedilla" unicode="&#x15f;" horiz-adv-x="921" 
d="M385 -393q-117 0 -152 6v141h123q64 0 98.5 31t34.5 90q0 56 -32 102q-169 5 -274 93t-115 237h206q7 -72 60.5 -111.5t140.5 -39.5q80 0 127 32t47 88q0 47 -24 70t-95 45l-172 49q-125 35 -190.5 110.5t-65.5 182.5q0 133 100 214t263 81q157 0 257 -80.5t112 -216.5
h-205q-7 55 -52 87t-114 32t-111.5 -30t-42.5 -81q0 -44 26.5 -69.5t88.5 -44.5l174 -52q258 -73 258 -290q0 -110 -65 -185.5t-181 -103.5q52 -68 52 -146q0 -113 -73.5 -177t-203.5 -64z" />
    <glyph glyph-name="Scaron" unicode="&#x160;" horiz-adv-x="1122" 
d="M567 -25q-218 0 -349 118.5t-140 322.5h213q6 -118 79.5 -188t192.5 -70q118 0 187 55t69 149q0 75 -41.5 121.5t-148.5 87.5l-183 70q-165 63 -240 157t-75 236q0 164 121.5 265.5t318.5 101.5t315.5 -103.5t131.5 -287.5h-213q-6 100 -67.5 155.5t-166.5 55.5
q-103 0 -165 -48.5t-62 -130.5q0 -79 45 -131t148 -92l190 -71q165 -63 237 -150.5t72 -224.5q0 -183 -127.5 -290.5t-341.5 -107.5zM709 1853h190l-250 -354h-176l-250 354h189l149 -198z" />
    <glyph glyph-name="scaron" unicode="&#x161;" horiz-adv-x="921" 
d="M475 -23q-177 0 -287 89t-120 241h206q7 -72 60.5 -111.5t140.5 -39.5q80 0 127 32t47 88q0 47 -24 70t-95 45l-172 49q-125 35 -190.5 110.5t-65.5 182.5q0 133 100 214t263 81q157 0 257 -80.5t112 -216.5h-205q-7 55 -52 87t-114 32t-111.5 -30t-42.5 -81
q0 -44 26.5 -69.5t88.5 -44.5l174 -52q258 -73 258 -290q0 -140 -103.5 -223t-277.5 -83zM610 1503h191l-242 -356h-174l-244 356h191l139 -198z" />
    <glyph glyph-name="uni0162" unicode="&#x162;" horiz-adv-x="1144" 
d="M455 0v1184h-389v194h1011v-194h-407v-1149q94 -76 94 -187q0 -113 -73.5 -177t-203.5 -64q-116 0 -151 6v141h123q64 0 98.5 31t34.5 90q0 64 -47 125h-90z" />
    <glyph glyph-name="uni0163" unicode="&#x163;" horiz-adv-x="757" 
d="M582 184h129v-184h-140q64 -67 64 -152q0 -113 -73.5 -177t-203.5 -64q-116 0 -151 6v141h125q64 0 98.5 31t34.5 90q0 67 -55 139q-213 51 -213 303v502h-164v185h164v258h211v-258h280v-185h-280v-475q0 -85 41 -122.5t133 -37.5z" />
    <glyph glyph-name="Tcaron" unicode="&#x164;" horiz-adv-x="1144" 
d="M455 0v1184h-389v194h1011v-194h-407v-1184h-215zM721 1853h190l-249 -354h-177l-249 354h188l149 -198z" />
    <glyph glyph-name="tcaron" unicode="&#x165;" horiz-adv-x="811" 
d="M582 184h129v-184h-162q-180 0 -266 78t-86 239v502h-164v185h164v258h211v-258h280v-185h-280v-475q0 -85 41 -122.5t133 -37.5zM616 1165l25 396h227l-92 -396h-160z" />
    <glyph glyph-name="Umacron" unicode="&#x16a;" horiz-adv-x="1390" 
d="M694 -25q-243 0 -386.5 153t-143.5 411v839h215v-843q0 -166 84.5 -263.5t230.5 -97.5q149 0 233.5 96t84.5 265v843h215v-839q0 -259 -144 -411.5t-389 -152.5zM395 1563v166h604v-166h-604z" />
    <glyph glyph-name="umacron" unicode="&#x16b;" horiz-adv-x="1165" 
d="M799 1004h213v-1004h-197v100q-109 -125 -301 -125q-168 0 -269.5 110t-101.5 292v627h211v-601q0 -105 59.5 -169t157.5 -64q100 0 164 65t64 168v601zM297 1206v162h563v-162h-563z" />
    <glyph glyph-name="Uring" unicode="&#x16e;" horiz-adv-x="1390" 
d="M694 -25q-243 0 -386.5 153t-143.5 411v839h215v-843q0 -166 84.5 -263.5t230.5 -97.5q149 0 233.5 96t84.5 265v843h215v-839q0 -259 -144 -411.5t-389 -152.5zM698 1409q-104 0 -172.5 67.5t-68.5 168.5t68.5 168t172.5 67q103 0 172.5 -67t69.5 -168t-69.5 -168.5
t-172.5 -67.5zM700 1540q42 0 71.5 30.5t29.5 74.5t-29.5 73t-71.5 29q-45 0 -73.5 -28.5t-28.5 -73.5q0 -46 29 -75.5t73 -29.5z" />
    <glyph glyph-name="uring" unicode="&#x16f;" horiz-adv-x="1165" 
d="M799 1004h213v-1004h-197v100q-109 -125 -301 -125q-168 0 -269.5 110t-101.5 292v627h211v-601q0 -105 59.5 -169t157.5 -64q100 0 164 65t64 168v601zM580 1108q-103 0 -172.5 67t-69.5 168t69.5 168.5t172.5 67.5q104 0 173.5 -67.5t69.5 -168.5t-70 -168t-173 -67z
M584 1239q41 0 70.5 30.5t29.5 73.5t-29.5 73t-70.5 30q-44 0 -73.5 -29.5t-29.5 -73.5t29.5 -74t73.5 -30z" />
    <glyph glyph-name="Uhungarumlaut" unicode="&#x170;" horiz-adv-x="1390" 
d="M694 -25q-243 0 -386.5 153t-143.5 411v839h215v-843q0 -166 84.5 -263.5t230.5 -97.5q149 0 233.5 96t84.5 265v843h215v-839q0 -259 -144 -411.5t-389 -152.5zM440 1499l215 354h197l-225 -354h-187zM784 1499l224 354h215l-265 -354h-174z" />
    <glyph glyph-name="uhungarumlaut" unicode="&#x171;" horiz-adv-x="1165" 
d="M799 1004h213v-1004h-197v100q-109 -125 -301 -125q-168 0 -269.5 110t-101.5 292v627h211v-601q0 -105 59.5 -169t157.5 -64q100 0 164 65t64 168v601zM315 1147l222 356h196l-233 -356h-185zM655 1147l232 356h207l-267 -356h-172z" />
    <glyph glyph-name="Uogonek" unicode="&#x172;" horiz-adv-x="1390" 
d="M694 -25q-243 0 -386.5 153t-143.5 411v839h215v-843q0 -166 84.5 -263.5t230.5 -97.5q149 0 233.5 96t84.5 265v843h215v-839q0 -161 -57.5 -284t-163.5 -194l-142 -127q-43 -40 -55 -59.5t-12 -48.5q0 -76 110 -76h84v-131q-47 -8 -139 -8q-117 0 -184.5 47.5
t-67.5 130.5q0 50 22 93.5t74 92.5h-2z" />
    <glyph glyph-name="uogonek" unicode="&#x173;" horiz-adv-x="1165" 
d="M868 -389q-117 0 -184.5 48t-67.5 130q0 138 199 248v63q-109 -125 -301 -125q-168 0 -269.5 110t-101.5 292v627h211v-601q0 -105 59.5 -169t157.5 -64q100 0 164 65t64 168v601h213v-1004h-4l-88 -55q-63 -37 -85 -61t-22 -58q0 -70 113 -70h82v-137q-106 -8 -140 -8z
" />
    <glyph glyph-name="Ydieresis" unicode="&#x178;" horiz-adv-x="1255" 
d="M1196 1378l-461 -790v-588h-215v594l-459 784h248l322 -587l319 587h246zM848 1528q-56 0 -95.5 38.5t-39.5 92.5t39 92.5t96 38.5q58 0 97.5 -37.5t39.5 -93.5q0 -55 -40 -93t-97 -38zM412 1528q-55 0 -94 38.5t-39 92.5t38 91.5t95 37.5q60 0 98.5 -36.5t38.5 -92.5
t-39.5 -93.5t-97.5 -37.5z" />
    <glyph glyph-name="Zacute" unicode="&#x179;" horiz-adv-x="1169" 
d="M348 195h731v-195h-983v182l717 1002h-682v194h940v-184zM483 1499l181 354h251l-235 -354h-197z" />
    <glyph glyph-name="zacute" unicode="&#x17a;" horiz-adv-x="960" 
d="M307 178h578v-178h-817v168l559 657h-533v179h776v-168zM371 1147l186 356h240l-230 -356h-196z" />
    <glyph glyph-name="Zdotaccent" unicode="&#x17b;" horiz-adv-x="1169" 
d="M348 195h731v-195h-983v182l717 1002h-682v194h940v-184zM586 1518q-60 0 -103 40.5t-43 100.5q0 58 43 98.5t103 40.5q61 0 103 -40t42 -99q0 -60 -41.5 -100.5t-103.5 -40.5z" />
    <glyph glyph-name="zdotaccent" unicode="&#x17c;" horiz-adv-x="960" 
d="M307 178h578v-178h-817v168l559 657h-533v179h776v-168zM479 1210q-58 0 -96.5 38t-38.5 95t38 93.5t97 36.5q57 0 95 -36.5t38 -93.5t-38 -95t-95 -38z" />
    <glyph glyph-name="Zcaron" unicode="&#x17d;" horiz-adv-x="1169" 
d="M348 195h731v-195h-983v182l717 1002h-682v194h940v-184zM733 1853h191l-250 -354h-176l-250 354h188l150 -198z" />
    <glyph glyph-name="zcaron" unicode="&#x17e;" horiz-adv-x="960" 
d="M307 178h578v-178h-817v168l559 657h-533v179h776v-168zM618 1503h191l-242 -356h-174l-243 356h190l139 -198z" />
    <glyph glyph-name="florin" unicode="&#x192;" horiz-adv-x="960" 
d="M786 1378h132v-192h-101q-88 0 -134 -41t-56 -133l-25 -193h203v-186h-225l-68 -557q-43 -348 -371 -348h-131v192h90q94 0 140.5 41t58.5 133l66 539h-150v186h172l27 211q43 348 372 348z" />
    <glyph glyph-name="Scommaaccent" unicode="&#x218;" horiz-adv-x="1122" 
d="M567 -25q-218 0 -349 118.5t-140 322.5h213q6 -118 79.5 -188t192.5 -70q118 0 187 55t69 149q0 75 -41.5 121.5t-148.5 87.5l-183 70q-165 63 -240 157t-75 236q0 164 121.5 265.5t318.5 101.5t315.5 -103.5t131.5 -287.5h-213q-6 100 -67.5 155.5t-166.5 55.5
q-103 0 -165 -48.5t-62 -130.5q0 -79 45 -131t148 -92l190 -71q165 -63 237 -150.5t72 -224.5q0 -183 -127.5 -290.5t-341.5 -107.5zM430 -444l25 346h196l-45 -346h-176z" />
    <glyph glyph-name="scommaaccent" unicode="&#x219;" horiz-adv-x="921" 
d="M475 -23q-177 0 -287 89t-120 241h206q7 -72 60.5 -111.5t140.5 -39.5q80 0 127 32t47 88q0 47 -24 70t-95 45l-172 49q-125 35 -190.5 110.5t-65.5 182.5q0 133 100 214t263 81q157 0 257 -80.5t112 -216.5h-205q-7 55 -52 87t-114 32t-111.5 -30t-42.5 -81
q0 -44 26.5 -69.5t88.5 -44.5l174 -52q258 -73 258 -290q0 -140 -103.5 -223t-277.5 -83zM340 -444l25 346h196l-45 -346h-176z" />
    <glyph glyph-name="uni021A" unicode="&#x21a;" horiz-adv-x="1144" 
d="M455 0v1184h-389v194h1011v-194h-407v-1184h-215zM442 -444l25 346h197l-46 -346h-176z" />
    <glyph glyph-name="uni021B" unicode="&#x21b;" horiz-adv-x="757" 
d="M582 184h129v-184h-162q-180 0 -266 78t-86 239v502h-164v185h164v258h211v-258h280v-185h-280v-475q0 -85 41 -122.5t133 -37.5zM326 -444l24 346h197l-45 -346h-176z" />
    <glyph glyph-name="uni0237" unicode="&#x237;" horiz-adv-x="520" 
d="M-84 -334v180h68q92 0 132 39.5t40 128.5v990h211v-1008q0 -161 -85.5 -245.5t-246.5 -84.5h-119z" />
    <glyph glyph-name="circumflex" unicode="&#x2c6;" horiz-adv-x="772" 
d="M717 1147h-191l-139 199l-139 -199h-191l242 356h174z" />
    <glyph glyph-name="caron" unicode="&#x2c7;" horiz-adv-x="772" 
d="M526 1503h191l-242 -356h-174l-244 356h191l139 -198z" />
    <glyph glyph-name="breve" unicode="&#x2d8;" horiz-adv-x="737" 
d="M369 1149q-145 0 -228.5 90.5t-83.5 247.5h166q0 -91 37.5 -139t108.5 -48q70 0 107.5 48t37.5 139h168q0 -157 -84 -247.5t-229 -90.5z" />
    <glyph glyph-name="dotaccent" unicode="&#x2d9;" horiz-adv-x="380" 
d="M190 1210q-58 0 -96.5 38t-38.5 95t38 93.5t97 36.5q57 0 95.5 -36.5t38.5 -93.5t-38.5 -95t-95.5 -38z" />
    <glyph glyph-name="ring" unicode="&#x2da;" horiz-adv-x="595" 
d="M297 1108q-103 0 -172.5 67t-69.5 168t69.5 168.5t172.5 67.5q104 0 174 -67.5t70 -168.5t-70.5 -168t-173.5 -67zM301 1239q41 0 70.5 30.5t29.5 73.5t-29.5 73t-70.5 30q-44 0 -73 -29.5t-29 -73.5t29 -74t73 -30z" />
    <glyph glyph-name="ogonek" unicode="&#x2db;" horiz-adv-x="503" 
d="M307 -389q-117 0 -184.5 48t-67.5 130q0 170 314 305l77 -94l-88 -55q-63 -37 -84.5 -61t-21.5 -58q0 -70 113 -70h81v-137q-106 -8 -139 -8z" />
    <glyph glyph-name="tilde" unicode="&#x2dc;" horiz-adv-x="712" 
d="M477 1157q-59 0 -133 47q-50 30 -74.5 39.5t-50.5 9.5q-48 -2 -162 -73v170q64 42 102 57.5t77 15.5q52 0 137 -47q46 -30 71 -39.5t52 -9.5q50 2 161 74v-170q-63 -42 -101 -58t-79 -16z" />
    <glyph glyph-name="hungarumlaut" unicode="&#x2dd;" horiz-adv-x="890" 
d="M57 1147l222 356h196l-233 -356h-185zM397 1147l232 356h207l-267 -356h-172z" />
    <glyph glyph-name="gravecomb" unicode="&#x300;" 
d="M-94 1147l-230 356h244l182 -356h-196z" />
    <glyph glyph-name="acutecomb" unicode="&#x301;" 
d="M-113 1147l187 356h239l-229 -356h-197z" />
    <glyph glyph-name="uni0302" unicode="&#x302;" 
d="M326 1147h-191l-139 199l-139 -199h-191l242 356h174z" />
    <glyph glyph-name="tildecomb" unicode="&#x303;" 
d="M115 1157q-59 0 -133 47q-50 30 -74.5 39.5t-50.5 9.5q-48 -2 -162 -73v170q64 42 101.5 57.5t76.5 15.5q52 0 137 -47q46 -30 71 -39.5t52 -9.5q51 2 162 74v-170q-63 -42 -101 -58t-79 -16z" />
    <glyph glyph-name="uni0304" unicode="&#x304;" 
d="M-289 1206v162h563v-162h-563z" />
    <glyph glyph-name="uni0306" unicode="&#x306;" 
d="M-6 1149q-145 0 -228 90.5t-83 247.5h165q0 -91 37.5 -139t108.5 -48q70 0 107.5 48t37.5 139h168q0 -157 -84 -247.5t-229 -90.5z" />
    <glyph glyph-name="uni0307" unicode="&#x307;" 
d="M-4 1210q-58 0 -96.5 38t-38.5 95t38 93.5t97 36.5q57 0 95 -36.5t38 -93.5t-38 -95t-95 -38z" />
    <glyph glyph-name="uni0308" unicode="&#x308;" 
d="M-211 1210q-52 0 -89.5 37t-37.5 88q0 52 37 88.5t90 36.5q57 0 94 -35.5t37 -89.5q0 -53 -38 -89t-93 -36zM195 1210q-52 0 -89.5 37t-37.5 88q0 53 36.5 89t90.5 36q57 0 94 -35.5t37 -89.5q0 -53 -38 -89t-93 -36z" />
    <glyph glyph-name="uni030A" unicode="&#x30a;" 
d="M-6 1108q-103 0 -172.5 67t-69.5 168t69.5 168.5t172.5 67.5q104 0 174 -67.5t70 -168.5t-70.5 -168t-173.5 -67zM-2 1239q41 0 70.5 30.5t29.5 73.5t-29.5 73t-70.5 30q-44 0 -73 -29.5t-29 -73.5t29 -74t73 -30z" />
    <glyph glyph-name="uni030B" unicode="&#x30b;" 
d="M-268 1147l221 356h197l-234 -356h-184zM72 1147l231 356h207l-266 -356h-172z" />
    <glyph glyph-name="uni030C" unicode="&#x30c;" 
d="M135 1503h191l-242 -356h-174l-244 356h191l139 -198z" />
    <glyph glyph-name="uni0312" unicode="&#x312;" 
d="M-117 1147l49 356h179l-27 -356h-201z" />
    <glyph glyph-name="uni0326" unicode="&#x326;" 
d="M-135 -444l24 346h197l-45 -346h-176z" />
    <glyph glyph-name="uni0327" unicode="&#x327;" 
d="M-90 -393q-117 0 -152 6v141h123q64 0 98.5 31t34.5 90q0 75 -69 152l98 43q70 -39 106.5 -97t36.5 -125q0 -113 -73 -177t-203 -64z" />
    <glyph glyph-name="uni0328" unicode="&#x328;" 
d="M-145 -389q-117 0 -184.5 48t-67.5 130q0 170 313 305l78 -94l-88 -55q-63 -37 -85 -61t-22 -58q0 -70 113 -70h82v-137q-106 -8 -139 -8z" />
    <glyph glyph-name="tonos" unicode="&#x384;" horiz-adv-x="454" 
d="M57 1147l117 356h225l-161 -356h-181z" />
    <glyph glyph-name="dieresistonos" unicode="&#x385;" horiz-adv-x="995" 
d="M344 1147l117 356h219l-162 -356h-174zM182 1200q-51 0 -88 36t-37 85q0 52 36 87.5t89 35.5q56 0 91.5 -34.5t35.5 -88.5q0 -51 -36.5 -86t-90.5 -35zM811 1200q-51 0 -88 35t-37 86q0 52 36 87.5t89 35.5q56 0 91.5 -34.5t35.5 -88.5q0 -51 -36 -86t-91 -35z" />
    <glyph glyph-name="Alphatonos" unicode="&#x386;" horiz-adv-x="1478" 
d="M109 983l24 395h227l-92 -395h-159zM1198 0l-117 326h-577l-119 -326h-227l520 1378h229l518 -1378h-227zM793 1157l-228 -657h457z" />
    <glyph glyph-name="Epsilontonos" unicode="&#x388;" horiz-adv-x="1515" 
d="M109 983l24 395h227l-92 -395h-159zM590 0v1378h811v-190h-596v-381h575v-184h-575v-433h618v-190h-833z" />
    <glyph glyph-name="Etatonos" unicode="&#x389;" horiz-adv-x="1804" 
d="M109 983l24 395h227l-92 -395h-159zM569 0v1378h215v-549h627v549h215v-1378h-215v635h-627v-635h-215z" />
    <glyph glyph-name="Iotatonos" unicode="&#x38a;" horiz-adv-x="962" 
d="M109 983l24 395h227l-92 -395h-159zM569 0v1378h215v-1378h-215z" />
    <glyph glyph-name="Omicrontonos" unicode="&#x38c;" horiz-adv-x="1898" 
d="M104 983l25 395h227l-92 -395h-160zM1083 -25q-152 0 -286.5 54.5t-230 149.5t-151 227.5t-55.5 283.5q0 201 94 364.5t259.5 256t369.5 92.5q153 0 287 -54.5t229 -149t150 -227t55 -282.5q0 -151 -55 -283.5t-150.5 -227.5t-229.5 -149.5t-286 -54.5zM1083 176
q215 0 356.5 146.5t141.5 369.5q0 220 -142 365t-356 145q-215 0 -357 -145t-142 -365q0 -223 141.5 -369.5t357.5 -146.5z" />
    <glyph glyph-name="Upsilontonos" unicode="&#x38e;" horiz-adv-x="1665" 
d="M109 983l24 395h227l-92 -395h-159zM1606 1378l-461 -790v-588h-215v594l-459 784h248l321 -587l320 587h246z" />
    <glyph glyph-name="Omegatonos" unicode="&#x38f;" horiz-adv-x="1945" 
d="M1823 729q0 -328 -293 -543h278v-186h-594v186q385 174 385 519q0 216 -139.5 356.5t-353.5 140.5t-354 -140t-140 -357q0 -345 385 -519v-186h-591v186h268q-285 214 -285 543q0 143 55 268.5t150 214t227.5 140t282.5 51.5q151 0 284.5 -51.5t229 -140.5t150.5 -214.5
t55 -267.5zM109 983l24 395h227l-92 -395h-159z" />
    <glyph glyph-name="iotadieresistonos" unicode="&#x390;" horiz-adv-x="557" 
d="M524 0h-116q-254 0 -254 270v734h211v-703q0 -60 25.5 -88.5t80.5 -28.5h53v-184zM168 1147l117 356h219l-162 -356h-174zM6 1200q-51 0 -88 36t-37 85q0 52 36 87.5t89 35.5q56 0 91.5 -34.5t35.5 -88.5q0 -51 -36.5 -86t-90.5 -35zM635 1200q-51 0 -88 35t-37 86
q0 52 36 87.5t89 35.5q56 0 91.5 -34.5t35.5 -88.5q0 -51 -36 -86t-91 -35z" />
    <glyph glyph-name="Alpha" unicode="&#x391;" horiz-adv-x="1376" 
d="M1096 0l-117 326h-578l-118 -326h-228l520 1378h230l518 -1378h-227zM690 1157l-227 -657h457z" />
    <glyph glyph-name="Beta" unicode="&#x392;" horiz-adv-x="1280" 
d="M981 731q211 -91 211 -348q0 -177 -123.5 -280t-335.5 -103h-553v1378h518q201 0 315.5 -92.5t114.5 -255.5q0 -209 -147 -299zM389 184h326q126 0 194 59.5t68 168.5q0 103 -71.5 161t-200.5 58h-316v-447zM694 1194h-305v-383h299q109 0 168 50.5t59 142.5
q0 190 -221 190z" />
    <glyph glyph-name="Gamma" unicode="&#x393;" horiz-adv-x="983" 
d="M180 1378h758v-194h-543v-1184h-215v1378z" />
    <glyph glyph-name="uni0394" unicode="&#x394;" horiz-adv-x="1370" 
d="M803 1378l454 -1196v-182h-1144l2 182l458 1196h230zM688 1157l-346 -969h694z" />
    <glyph glyph-name="Epsilon" unicode="&#x395;" horiz-adv-x="1105" 
d="M180 0v1378h811v-190h-596v-381h576v-184h-576v-433h619v-190h-834z" />
    <glyph glyph-name="Zeta" unicode="&#x396;" horiz-adv-x="1169" 
d="M348 195h731v-195h-983v182l717 1002h-682v194h940v-184z" />
    <glyph glyph-name="Eta" unicode="&#x397;" horiz-adv-x="1415" 
d="M180 0v1378h215v-549h627v549h215v-1378h-215v635h-627v-635h-215z" />
    <glyph glyph-name="Theta" unicode="&#x398;" horiz-adv-x="1634" 
d="M817 -23q-152 0 -286.5 54.5t-230 148.5t-151 226.5t-55.5 283.5q0 201 94 364t259.5 255t369.5 92q152 0 286.5 -54.5t230 -148.5t151 -226t55.5 -282q0 -151 -55.5 -283.5t-151 -226.5t-230 -148.5t-286.5 -54.5zM817 172q217 0 359.5 148t142.5 372q0 220 -143.5 367
t-358.5 147t-358.5 -146.5t-143.5 -367.5q0 -224 142.5 -372t359.5 -148zM471 602v186h692v-186h-692z" />
    <glyph glyph-name="Iota" unicode="&#x399;" horiz-adv-x="573" 
d="M180 0v1378h215v-1378h-215z" />
    <glyph glyph-name="Kappa" unicode="&#x39a;" horiz-adv-x="1216" 
d="M1212 0h-264l-553 668v-668h-215v1378h215v-596l527 596h254l-570 -647z" />
    <glyph glyph-name="Lambda" unicode="&#x39b;" horiz-adv-x="1335" 
d="M1282 0h-233l-379 1102l-381 -1102h-234l500 1378h229z" />
    <glyph glyph-name="Mu" unicode="&#x39c;" horiz-adv-x="1746" 
d="M1270 1378h297v-1378h-209v1057l-391 -1057h-187l-391 1057v-1057h-207l-2 1378h295l399 -1102z" />
    <glyph glyph-name="Nu" unicode="&#x39d;" horiz-adv-x="1417" 
d="M1026 1378h213v-1378h-229l-619 1038v-1038h-211v1378h238l608 -1020v1020z" />
    <glyph glyph-name="Xi" unicode="&#x39e;" horiz-adv-x="1214" 
d="M92 1184v194h1030v-194h-1030zM172 621v188h868v-188h-868zM92 0v195h1030v-195h-1030z" />
    <glyph glyph-name="Omicron" unicode="&#x39f;" horiz-adv-x="1632" 
d="M817 -25q-152 0 -286.5 54.5t-230 149.5t-151 227.5t-55.5 283.5q0 201 94 364.5t259.5 256t369.5 92.5q153 0 287 -54.5t229 -149t150 -227t55 -282.5q0 -151 -55 -283.5t-150.5 -227.5t-229.5 -149.5t-286 -54.5zM817 176q215 0 356.5 146.5t141.5 369.5
q0 220 -142 365t-356 145q-215 0 -357.5 -145t-142.5 -365q0 -223 141.5 -369.5t358.5 -146.5z" />
    <glyph glyph-name="Pi" unicode="&#x3a0;" horiz-adv-x="1366" 
d="M180 0v1378h1008v-1378h-215v1184h-580v-1184h-213z" />
    <glyph glyph-name="Rho" unicode="&#x3a1;" horiz-adv-x="1150" 
d="M180 0v1378h449q212 0 334 -111.5t122 -305.5t-123 -309t-333 -115h-234v-537h-215zM393 721h228q114 0 178.5 63.5t64.5 173.5q0 109 -63.5 170.5t-179.5 61.5h-228v-469z" />
    <glyph glyph-name="Sigma" unicode="&#x3a3;" horiz-adv-x="1083" 
d="M342 195h668v-195h-916v184l340 512l-340 498v184h891v-194h-639l336 -490z" />
    <glyph glyph-name="Tau" unicode="&#x3a4;" horiz-adv-x="1144" 
d="M455 0v1184h-389v194h1011v-194h-407v-1184h-215z" />
    <glyph glyph-name="Upsilon" unicode="&#x3a5;" horiz-adv-x="1255" 
d="M1196 1378l-461 -790v-588h-215v594l-459 784h248l322 -587l319 587h246z" />
    <glyph glyph-name="Phi" unicode="&#x3a6;" horiz-adv-x="1665" 
d="M1571 690q0 -125 -42.5 -239t-121 -203.5t-199.5 -148t-268 -70.5v-172h-215v172q-195 17 -340 112.5t-217 238t-72 310.5q0 125 42 238.5t119.5 203.5t198.5 148t269 70v172h215v-172q148 -12 269 -70.5t199.5 -148.5t120.5 -203t42 -238zM940 1147v-916
q129 15 223.5 83t139.5 165t45 211t-45 210.5t-139 164t-224 82.5zM319 690q0 -177 106.5 -306t299.5 -153v916q-193 -24 -299.5 -152t-106.5 -305z" />
    <glyph glyph-name="Chi" unicode="&#x3a7;" horiz-adv-x="1294" 
d="M1235 0h-246l-342 551l-340 -551h-248l451 711l-422 667h246l313 -508l309 508h248l-420 -667z" />
    <glyph glyph-name="Psi" unicode="&#x3a8;" horiz-adv-x="1519" 
d="M653 0v309q-271 0 -422 142t-151 397v530h215v-526q0 -174 88.5 -259t269.5 -85v917h213v-917q357 0 357 344v526h215v-530q0 -255 -150.5 -397t-421.5 -142v-309h-213z" />
    <glyph glyph-name="uni03A9" unicode="&#x3a9;" horiz-adv-x="1677" 
d="M1554 729q0 -329 -292 -543h278v-186h-594v186q385 174 385 519q0 216 -139.5 356.5t-353.5 140.5t-354 -140t-140 -357q0 -345 385 -519v-186h-592v186h269q-285 214 -285 543q0 143 55 268.5t150 214t227.5 140t282.5 51.5q202 0 366.5 -87.5t258 -242t93.5 -344.5z
" />
    <glyph glyph-name="Iotadieresis" unicode="&#x3aa;" horiz-adv-x="573" 
d="M504 1528q-56 0 -95.5 38.5t-39.5 92.5t39 92.5t96 38.5q58 0 97.5 -37.5t39.5 -93.5q0 -55 -40 -93t-97 -38zM68 1528q-55 0 -94.5 38.5t-39.5 92.5t38.5 91.5t95.5 37.5q60 0 98.5 -36.5t38.5 -92.5t-39.5 -93.5t-97.5 -37.5zM180 0v1378h215v-1378h-215z" />
    <glyph glyph-name="Upsilondieresis" unicode="&#x3ab;" horiz-adv-x="1255" 
d="M846 1528q-56 0 -95.5 38.5t-39.5 92.5t39 92.5t96 38.5q58 0 97.5 -37.5t39.5 -93.5q0 -55 -40 -93t-97 -38zM410 1528q-55 0 -94.5 38.5t-39.5 92.5t38.5 91.5t95.5 37.5q60 0 98.5 -36.5t38.5 -92.5t-39.5 -93.5t-97.5 -37.5zM1196 1378l-461 -790v-588h-215v594
l-459 784h248l322 -587l319 587h246z" />
    <glyph glyph-name="alphatonos" unicode="&#x3ac;" horiz-adv-x="1302" 
d="M1214 188h54v-188h-119q-171 0 -217 135q-58 -75 -148 -117.5t-198 -42.5q-213 0 -353.5 148t-140.5 379q0 226 137.5 376t341.5 150q110 0 199.5 -45t142.5 -125v146h197v-695q0 -63 25 -92t79 -29zM608 168q130 0 212.5 93t82.5 243t-82.5 242t-212.5 92t-215.5 -94.5
t-85.5 -241.5t85.5 -240.5t215.5 -93.5zM567 1147l117 356h225l-161 -356h-181z" />
    <glyph glyph-name="epsilontonos" unicode="&#x3ad;" horiz-adv-x="1005" 
d="M244 532q-52 37 -82.5 93t-30.5 123q0 132 108 206t259 74q163 0 278.5 -78.5t124.5 -224.5h-199q-13 63 -68 95t-130 32q-72 0 -121 -33t-49 -94q0 -55 40 -90t130 -35h149v-158h-159q-105 0 -157 -37t-52 -100q0 -74 61.5 -112.5t151.5 -38.5q84 0 148 37t75 120h201
q-3 -67 -27.5 -122.5t-64.5 -94t-94 -65.5t-115.5 -39.5t-128.5 -12.5q-111 0 -203 33t-152.5 105.5t-60.5 173.5q0 177 168 243zM422 1147l117 356h225l-162 -356h-180z" />
    <glyph glyph-name="etatonos" unicode="&#x3ae;" horiz-adv-x="1204" 
d="M659 1028q189 0 295.5 -108t106.5 -291v-963h-211v934q0 106 -59.5 170t-157.5 64q-100 0 -165 -66t-65 -168v-600h-213v700q0 62 -25.5 91.5t-80.5 29.5h-51v183h123q149 0 200 -105q56 62 134.5 95.5t168.5 33.5zM541 1147l116 356h226l-162 -356h-180z" />
    <glyph glyph-name="iotatonos" unicode="&#x3af;" horiz-adv-x="557" 
d="M524 0h-116q-254 0 -254 270v734h211v-703q0 -60 25.5 -88.5t80.5 -28.5h53v-184zM172 1147l117 356h225l-162 -356h-180z" />
    <glyph glyph-name="upsilondieresistonos" unicode="&#x3b0;" horiz-adv-x="1173" 
d="M594 -23q-224 0 -337.5 120.5t-113.5 357.5v549h211v-558q0 -276 250 -276q124 0 192 76.5t68 226.5q0 121 -31 266t-73 265h209q108 -277 108 -517q0 -245 -127.5 -377.5t-355.5 -132.5zM467 1147l117 356h219l-162 -356h-174zM305 1200q-51 0 -88 36t-37 85
q0 52 36 87.5t89 35.5q56 0 91.5 -34.5t35.5 -88.5q0 -51 -36.5 -86t-90.5 -35zM934 1200q-51 0 -88 35t-37 86q0 52 36 87.5t89 35.5q56 0 91.5 -34.5t35.5 -88.5q0 -51 -36 -86t-91 -35z" />
    <glyph glyph-name="alpha" unicode="&#x3b1;" horiz-adv-x="1302" 
d="M1214 188h54v-188h-119q-171 0 -217 135q-58 -75 -148 -117.5t-198 -42.5q-213 0 -353.5 148t-140.5 379q0 226 137.5 376t341.5 150q110 0 199.5 -45t142.5 -125v146h197v-695q0 -63 25 -92t79 -29zM608 168q130 0 212.5 93t82.5 243t-82.5 242t-212.5 92t-215.5 -94.5
t-85.5 -241.5t85.5 -240.5t215.5 -93.5z" />
    <glyph glyph-name="beta" unicode="&#x3b2;" horiz-adv-x="1214" 
d="M909 741q103 -50 161 -139.5t58 -204.5q0 -185 -127.5 -302.5t-328.5 -117.5q-176 0 -307 95v-406h-211l2 1258q0 223 123.5 351t336.5 128q197 0 321 -106.5t124 -272.5q0 -176 -152 -283zM655 168q116 0 187 65.5t71 169.5q0 107 -82 173.5t-217 66.5h-73v160h59
q115 0 181.5 56.5t66.5 148.5q0 89 -66.5 145.5t-169.5 56.5q-114 0 -180.5 -72t-66.5 -198v-668q128 -104 290 -104z" />
    <glyph glyph-name="gamma" unicode="&#x3b3;" horiz-adv-x="1075" 
d="M786 1004h213q0 -149 -35.5 -282t-129.5 -327l-203 -411v-318h-211v320l-385 1018h225l275 -777l118 256q78 165 105.5 274t27.5 247z" />
    <glyph glyph-name="delta" unicode="&#x3b4;" horiz-adv-x="1183" 
d="M473 1198l379 -305q123 -98 183.5 -202.5t60.5 -231.5q0 -213 -140.5 -348.5t-363.5 -135.5q-221 0 -363.5 133.5t-142.5 340.5q0 105 39 194t102.5 146.5t142 91t160.5 37.5l-356 290v170h842v-180h-543zM594 162q122 0 206.5 85.5t84.5 209.5q0 123 -83 203.5
t-208 80.5t-211 -81t-86 -207q0 -123 82.5 -207t214.5 -84z" />
    <glyph glyph-name="epsilon" unicode="&#x3b5;" horiz-adv-x="1005" 
d="M244 532q-52 37 -82.5 93t-30.5 123q0 132 108 206t259 74q163 0 278.5 -78.5t124.5 -224.5h-199q-13 63 -68 95t-130 32q-72 0 -121 -33t-49 -94q0 -55 40 -90t130 -35h149v-158h-159q-105 0 -157 -37t-52 -100q0 -74 61.5 -112.5t151.5 -38.5q84 0 148 37t75 120h201
q-3 -67 -27.5 -122.5t-64.5 -94t-94 -65.5t-115.5 -39.5t-128.5 -12.5q-111 0 -203 33t-152.5 105.5t-60.5 173.5q0 177 168 243z" />
    <glyph glyph-name="zeta" unicode="&#x3b6;" horiz-adv-x="901" 
d="M862 1198l-289 -301q-151 -161 -211.5 -265t-60.5 -208q0 -105 88 -175t248 -93l219 -33v-457h-209v301l-69 10q-234 35 -363 149t-129 286q0 126 73.5 258t252.5 327l176 193h-428v188h702v-180z" />
    <glyph glyph-name="eta" unicode="&#x3b7;" horiz-adv-x="1204" 
d="M659 1028q189 0 295.5 -108t106.5 -291v-963h-211v934q0 106 -59.5 170t-157.5 64q-100 0 -165 -66t-65 -168v-600h-213v700q0 62 -25.5 91.5t-80.5 29.5h-51v183h123q149 0 200 -105q56 62 134.5 95.5t168.5 33.5z" />
    <glyph glyph-name="theta" unicode="&#x3b8;" horiz-adv-x="1275" 
d="M637 1403q243 0 375.5 -184t132.5 -525q0 -344 -133 -531.5t-375 -187.5t-374 187.5t-132 531.5q0 341 131.5 525t374.5 184zM637 1217q-129 0 -204.5 -107.5t-88.5 -312.5h588q-15 205 -90.5 312.5t-204.5 107.5zM637 162q134 0 211 118.5t86 344.5h-592
q9 -226 85 -344.5t210 -118.5z" />
    <glyph glyph-name="iota" unicode="&#x3b9;" horiz-adv-x="557" 
d="M524 0h-116q-254 0 -254 270v734h211v-703q0 -60 25.5 -88.5t80.5 -28.5h53v-184z" />
    <glyph glyph-name="kappa" unicode="&#x3ba;" horiz-adv-x="1005" 
d="M1026 0h-258l-403 487v-487h-211v1004h211v-418l372 418h250l-412 -467z" />
    <glyph glyph-name="lambda" unicode="&#x3bb;" horiz-adv-x="1087" 
d="M1006 184h43v-184h-97q-88 0 -143 43.5t-92 142.5l-172 455l-256 -641h-226l373 915l-61 158q-26 65 -65.5 93t-102.5 28h-39v184h90q117 0 190 -51.5t119 -175.5l332 -885q18 -46 42 -64t65 -18z" />
    <glyph glyph-name="uni03BC" unicode="&#x3bc;" horiz-adv-x="1216" 
d="M1128 184h54v-184h-107q-149 0 -207 102q-96 -120 -274 -120q-146 0 -238 79v-395h-202v1338h211v-596q0 -109 60 -171.5t163 -62.5q97 0 160 65.5t63 166.5v598h211v-703q0 -117 106 -117z" />
    <glyph glyph-name="nu" unicode="&#x3bd;" horiz-adv-x="1075" 
d="M786 1004h213q0 -145 -37.5 -279.5t-132.5 -327.5l-188 -397h-229l-377 1004h225l275 -783l118 262q77 166 105 276t28 245z" />
    <glyph glyph-name="xi" unicode="&#x3be;" horiz-adv-x="1028" 
d="M303 403q0 -107 82 -161t260 -78l262 -37v-461h-209v299l-125 17q-246 34 -370.5 134.5t-124.5 276.5q0 111 61 198t172 140q-178 98 -178 297q0 160 122.5 266.5t305.5 106.5q178 0 294 -93t138 -253h-205q-25 77 -80.5 118t-138.5 41q-94 0 -156.5 -56.5t-62.5 -139.5
q0 -96 69.5 -155.5t186.5 -59.5h189v-185h-203q-140 0 -214.5 -56.5t-74.5 -158.5z" />
    <glyph glyph-name="omicron" unicode="&#x3bf;" horiz-adv-x="1241" 
d="M621 -25q-148 0 -271 70t-193.5 191.5t-70.5 267.5q0 145 70 265.5t193 189.5t272 69q224 0 378 -151.5t154 -372.5q0 -146 -70 -267.5t-192.5 -191.5t-269.5 -70zM621 168q138 0 228.5 95t90.5 241q0 145 -90.5 239.5t-228.5 94.5t-229 -94.5t-91 -239.5q0 -146 91 -241
t229 -95z" />
    <glyph glyph-name="pi" unicode="&#x3c0;" horiz-adv-x="1296" 
d="M215 0v821h-186v183h1212v-183h-184v-516q0 -121 106 -121h54v-184h-109q-128 0 -195 69t-67 201v551h-420v-821h-211z" />
    <glyph glyph-name="rho" unicode="&#x3c1;" horiz-adv-x="1302" 
d="M674 1028q232 0 384 -149.5t152 -376.5q0 -222 -143.5 -373.5t-357.5 -151.5q-106 0 -198.5 37t-156.5 103v-451h-211v807q0 247 149.5 401t381.5 154zM678 168q137 0 228 95t91 241q0 145 -90.5 239.5t-228.5 94.5q-137 0 -230.5 -94t-93.5 -240q0 -148 94 -242t230 -94
z" />
    <glyph glyph-name="uni03C2" unicode="&#x3c2;" horiz-adv-x="1159" 
d="M301 508q0 -75 25 -133.5t63.5 -95t96.5 -63t113.5 -40t125.5 -22.5l236 -33v-455h-209v293l-76 10q-590 88 -590 527q0 146 65 267.5t182.5 193t262.5 71.5q190 0 317.5 -109t157.5 -290h-209q-25 103 -95 155t-169 52q-133 0 -215 -94.5t-82 -233.5z" />
    <glyph glyph-name="sigma" unicode="&#x3c3;" horiz-adv-x="1306" 
d="M1286 1004v-183h-274q68 -62 105.5 -147.5t37.5 -181.5q0 -108 -41.5 -203.5t-112.5 -164t-170.5 -108t-212.5 -39.5q-227 0 -379.5 149.5t-152.5 373.5t154.5 364t412.5 140h633zM621 168q140 0 231.5 94t91.5 240q0 135 -91.5 226t-229.5 91t-230 -91t-92 -228
q0 -144 91.5 -238t228.5 -94z" />
    <glyph glyph-name="tau" unicode="&#x3c4;" horiz-adv-x="931" 
d="M885 821h-363v-477q0 -85 41 -122.5t133 -37.5h131v-184h-163q-180 0 -266.5 78t-86.5 239v504h-313v183h887v-183z" />
    <glyph glyph-name="upsilon" unicode="&#x3c5;" horiz-adv-x="1173" 
d="M594 -23q-224 0 -337.5 120.5t-113.5 357.5v549h211v-558q0 -276 250 -276q124 0 192 76.5t68 226.5q0 121 -31 266t-73 265h209q108 -277 108 -517q0 -245 -127.5 -377.5t-355.5 -132.5z" />
    <glyph glyph-name="phi" unicode="&#x3c6;" horiz-adv-x="1499" 
d="M643 -334v318q-251 2 -404 144.5t-153 375.5q0 229 154.5 372.5t402.5 145.5v356h211v-356q250 -1 404.5 -144.5t154.5 -373.5q0 -234 -153.5 -377t-405.5 -143v-318h-211zM643 164v678q-163 -6 -253.5 -95t-90.5 -243q0 -155 91.5 -245t252.5 -95zM856 842v-678
q160 5 252 95t92 245q0 152 -91.5 242t-252.5 96z" />
    <glyph glyph-name="chi" unicode="&#x3c7;" horiz-adv-x="1060" 
d="M1008 -150h45v-184h-107q-89 0 -139 29.5t-92 105.5l-189 346l-293 -481h-219l404 672l-217 416q-18 38 -45.5 52.5t-75.5 14.5h-53v183h110q89 0 140.5 -30t89.5 -104l174 -346l286 480h217l-397 -664l227 -416q25 -43 53 -58.5t81 -15.5z" />
    <glyph glyph-name="psi" unicode="&#x3c8;" horiz-adv-x="1564" 
d="M690 -334v311q-253 0 -400 137t-147 373v517h211v-502q0 -157 89 -245.5t247 -88.5v1145h211v-1145q170 0 262 85.5t92 242.5q0 209 -104 508h209q108 -269 108 -490q0 -253 -150 -395t-417 -142v-311h-211z" />
    <glyph glyph-name="omega" unicode="&#x3c9;" horiz-adv-x="1605" 
d="M1100 1006h231q85 -89 130.5 -222.5t45.5 -291.5q0 -240 -104.5 -377.5t-288.5 -137.5q-221 0 -311 173q-93 -173 -311 -173q-186 0 -291 137.5t-105 377.5q0 156 47 290.5t133 223.5h232q-93 -102 -145 -240t-52 -285t53 -229t148 -82q86 0 137 66t51 176v399h205v-408
q0 -105 51.5 -169t137.5 -64q94 0 146 82.5t52 228.5q0 153 -50 290t-142 235z" />
    <glyph glyph-name="iotadieresis" unicode="&#x3ca;" horiz-adv-x="557" 
d="M524 0h-116q-254 0 -254 270v734h211v-703q0 -60 25.5 -88.5t80.5 -28.5h53v-184zM55 1210q-52 0 -89.5 37t-37.5 88q0 52 37 88.5t90 36.5q57 0 94 -35.5t37 -89.5q0 -53 -38 -89t-93 -36zM461 1210q-52 0 -89.5 37t-37.5 88q0 53 36.5 89t90.5 36q57 0 94 -35.5
t37 -89.5q0 -53 -38 -89t-93 -36z" />
    <glyph glyph-name="upsilondieresis" unicode="&#x3cb;" horiz-adv-x="1173" 
d="M594 -23q-224 0 -337.5 120.5t-113.5 357.5v549h211v-558q0 -276 250 -276q124 0 192 76.5t68 226.5q0 121 -31 266t-73 265h209q108 -277 108 -517q0 -245 -127.5 -377.5t-355.5 -132.5zM354 1210q-52 0 -89.5 37t-37.5 88q0 52 37 88.5t90 36.5q57 0 94 -35.5t37 -89.5
q0 -53 -38 -89t-93 -36zM760 1210q-52 0 -89.5 37t-37.5 88q0 53 36.5 89t90.5 36q57 0 94 -35.5t37 -89.5q0 -53 -38 -89t-93 -36z" />
    <glyph glyph-name="omicrontonos" unicode="&#x3cc;" horiz-adv-x="1241" 
d="M526 1147l117 356h225l-161 -356h-181zM621 -25q-148 0 -271 70t-193.5 191.5t-70.5 267.5q0 145 70 265.5t193 189.5t272 69q224 0 378 -151.5t154 -372.5q0 -146 -70 -267.5t-192.5 -191.5t-269.5 -70zM621 168q138 0 228.5 95t90.5 241q0 145 -90.5 239.5t-228.5 94.5
t-229 -94.5t-91 -239.5q0 -146 91 -241t229 -95z" />
    <glyph glyph-name="upsilontonos" unicode="&#x3cd;" horiz-adv-x="1173" 
d="M594 -23q-224 0 -337.5 120.5t-113.5 357.5v549h211v-558q0 -276 250 -276q124 0 192 76.5t68 226.5q0 121 -31 266t-73 265h209q108 -277 108 -517q0 -245 -127.5 -377.5t-355.5 -132.5zM471 1147l117 356h225l-162 -356h-180z" />
    <glyph glyph-name="omegatonos" unicode="&#x3ce;" horiz-adv-x="1605" 
d="M1100 1006h231q85 -89 130.5 -222.5t45.5 -291.5q0 -240 -104.5 -377.5t-288.5 -137.5q-221 0 -311 173q-93 -173 -311 -173q-186 0 -291 137.5t-105 377.5q0 156 47 290.5t133 223.5h232q-93 -102 -145 -240t-52 -285t53 -229t148 -82q86 0 137 66t51 176v399h205v-408
q0 -105 51.5 -169t137.5 -64q94 0 146 82.5t52 228.5q0 153 -50 290t-142 235zM715 1147l116 356h226l-162 -356h-180z" />
    <glyph glyph-name="uni0400" unicode="&#x400;" horiz-adv-x="1105" 
d="M180 0v1378h811v-190h-596v-381h576v-184h-576v-433h619v-190h-834zM514 1499l-231 354h247l181 -354h-197z" />
    <glyph glyph-name="uni0401" unicode="&#x401;" horiz-adv-x="1105" 
d="M180 0v1378h811v-190h-596v-381h576v-184h-576v-433h619v-190h-834zM823 1528q-56 0 -95.5 38.5t-39.5 92.5t39 92.5t96 38.5q58 0 98 -37.5t40 -93.5q0 -55 -40.5 -93t-97.5 -38zM387 1528q-55 0 -94 38.5t-39 92.5t38 91.5t95 37.5q60 0 98.5 -36.5t38.5 -92.5
t-39.5 -93.5t-97.5 -37.5z" />
    <glyph glyph-name="uni0402" unicode="&#x402;" horiz-adv-x="1421" 
d="M846 848q225 0 357 -115.5t132 -312.5q0 -215 -144 -326t-415 -106v188q172 0 255 59t83 181q0 115 -74.5 177t-214.5 62q-128 0 -264 -53v-602h-215v1184h-278v194h878v-194h-385v-383q139 47 285 47z" />
    <glyph glyph-name="uni0403" unicode="&#x403;" horiz-adv-x="983" 
d="M180 1378h758v-194h-543v-1184h-215v1378zM426 1499l180 354h252l-235 -354h-197z" />
    <glyph glyph-name="uni0404" unicode="&#x404;" horiz-adv-x="1591" 
d="M815 176q172 0 293.5 90.5t161.5 247.5h229q-38 -244 -226 -390.5t-460 -146.5q-206 0 -370 91t-255.5 253.5t-91.5 366.5q0 205 92 368t255.5 254t369.5 91q272 0 460 -147t226 -390h-229q-38 157 -161 247.5t-296 90.5q-185 0 -318 -111t-167 -292h678v-189h-682
q25 -193 161 -313.5t330 -120.5z" />
    <glyph glyph-name="uni0405" unicode="&#x405;" horiz-adv-x="1122" 
d="M567 -25q-218 0 -349 118.5t-140 322.5h213q6 -118 79.5 -188t192.5 -70q118 0 187 55t69 149q0 75 -41.5 121.5t-148.5 87.5l-183 70q-165 63 -240 157t-75 236q0 164 121.5 265.5t318.5 101.5t315.5 -103.5t131.5 -287.5h-213q-6 100 -67.5 155.5t-166.5 55.5
q-103 0 -165 -48.5t-62 -130.5q0 -79 45 -131t148 -92l190 -71q165 -63 237 -150.5t72 -224.5q0 -183 -127.5 -290.5t-341.5 -107.5z" />
    <glyph glyph-name="uni0406" unicode="&#x406;" horiz-adv-x="573" 
d="M180 0v1378h215v-1378h-215z" />
    <glyph glyph-name="uni0407" unicode="&#x407;" horiz-adv-x="573" 
d="M492 1528q-56 0 -96 38.5t-40 92.5t39.5 92.5t96.5 38.5q58 0 97.5 -37.5t39.5 -93.5q0 -55 -40 -93t-97 -38zM55 1528q-55 0 -94 38.5t-39 92.5t38 91.5t95 37.5q60 0 99 -36.5t39 -92.5t-40 -93.5t-98 -37.5zM180 0v1378h215v-1378h-215z" />
    <glyph glyph-name="uni0408" unicode="&#x408;" horiz-adv-x="749" 
d="M29 0v195h133q99 0 146.5 43t47.5 133v1007h215v-1030q0 -170 -95.5 -259t-278.5 -89h-168z" />
    <glyph glyph-name="uni0409" unicode="&#x409;" horiz-adv-x="1847" 
d="M-18 -10v203q67 0 116.5 27t81.5 76t51.5 127.5t27 171t7.5 216.5v567h789v-510h258q207 0 326.5 -116t119.5 -316q0 -201 -121 -318.5t-325 -117.5h-473v1184h-365v-375q0 -203 -25.5 -350.5t-82.5 -254.5t-152.5 -160.5t-232.5 -53.5zM1057 193h243q112 0 176 64
t64 177q0 114 -63 178t-177 64h-243v-483z" />
    <glyph glyph-name="uni040A" unicode="&#x40a;" horiz-adv-x="2056" 
d="M180 0v1378h215v-532h592v532h217v-514h322q205 0 324.5 -117t119.5 -315q0 -202 -117.5 -317t-326.5 -115h-539v651h-592v-651h-215zM1204 193h305q115 0 177.5 61.5t62.5 175.5t-63 178t-177 64h-305v-479z" />
    <glyph glyph-name="uni040B" unicode="&#x40b;" horiz-adv-x="1429" 
d="M819 848q241 0 372.5 -130.5t131.5 -367.5v-350h-215v340q0 313 -301 313q-115 0 -246 -49v-604h-215v1184h-278v194h878v-194h-385v-379q134 43 258 43z" />
    <glyph glyph-name="uni040C" unicode="&#x40c;" horiz-adv-x="1216" 
d="M524 1499l181 354h251l-235 -354h-197zM1212 0h-264l-553 668v-668h-215v1378h215v-596l527 596h254l-570 -647z" />
    <glyph glyph-name="uni040D" unicode="&#x40d;" horiz-adv-x="1417" 
d="M1016 1378h223v-1378h-217v1049l-629 -1049h-213v1378h215v-1032zM616 1499l-231 354h248l180 -354h-197z" />
    <glyph glyph-name="uni040E" unicode="&#x40e;" horiz-adv-x="1263" 
d="M995 1378h236l-651 -1378h-236l209 426l-512 952h248l379 -729zM651 1501q-161 0 -269 97.5t-108 240.5h168q0 -76 61 -130t148 -54t147 54t60 130h170q0 -143 -108 -240.5t-269 -97.5z" />
    <glyph glyph-name="uni040F" unicode="&#x40f;" horiz-adv-x="1372" 
d="M1194 1378v-1378h-406v-256h-202v256h-406v1378h215v-1183h584v1183h215z" />
    <glyph glyph-name="uni0410" unicode="&#x410;" horiz-adv-x="1376" 
d="M1096 0l-117 326h-578l-118 -326h-228l520 1378h230l518 -1378h-227zM690 1157l-227 -657h457z" />
    <glyph glyph-name="uni0411" unicode="&#x411;" horiz-adv-x="1249" 
d="M180 0v1378h879v-186h-666v-328h336q197 0 314.5 -117t117.5 -317q0 -194 -120 -312t-312 -118h-549zM393 186h320q113 0 174 63.5t61 182.5q0 123 -60 185.5t-175 62.5h-320v-494z" />
    <glyph glyph-name="uni0412" unicode="&#x412;" horiz-adv-x="1280" 
d="M981 731q211 -91 211 -348q0 -177 -123.5 -280t-335.5 -103h-553v1378h518q201 0 315.5 -92.5t114.5 -255.5q0 -209 -147 -299zM389 184h326q126 0 194 59.5t68 168.5q0 103 -71.5 161t-200.5 58h-316v-447zM694 1194h-305v-383h299q109 0 168 50.5t59 142.5
q0 190 -221 190z" />
    <glyph glyph-name="uni0413" unicode="&#x413;" horiz-adv-x="983" 
d="M180 1378h758v-194h-543v-1184h-215v1378z" />
    <glyph glyph-name="uni0414" unicode="&#x414;" horiz-adv-x="1402" 
d="M1178 195h178v-451h-203v256h-913v-256h-201v451h29q123 0 193.5 162.5t70.5 467.5v553h846v-1183zM539 1184v-359q0 -451 -164 -630h590v989h-426z" />
    <glyph glyph-name="uni0415" unicode="&#x415;" horiz-adv-x="1105" 
d="M180 0v1378h811v-190h-596v-381h576v-184h-576v-433h619v-190h-834z" />
    <glyph glyph-name="uni0416" unicode="&#x416;" horiz-adv-x="1781" 
d="M1776 0h-260l-517 674v-674h-215v682l-520 -682h-260l565 727l-530 651h256l489 -608v608h215v-600l488 600h256l-535 -649z" />
    <glyph glyph-name="uni0417" unicode="&#x417;" horiz-adv-x="1126" 
d="M817 731q113 -50 170 -141t57 -213q0 -80 -31.5 -151.5t-90 -127.5t-150 -88.5t-203.5 -32.5q-221 0 -346.5 117.5t-134.5 325.5h209q7 -117 80 -184.5t192 -67.5q120 0 191 64t71 161q0 43 -15 82.5t-46.5 75.5t-89 58t-133.5 22h-137v37h-2v143h135q122 0 178.5 58
t56.5 139q0 88 -63.5 150.5t-175.5 62.5q-102 0 -165.5 -58t-70.5 -162h-205q12 188 132 294t315 106q104 0 189 -31.5t138.5 -84t82 -120t28.5 -141.5q0 -96 -42.5 -172t-123.5 -121z" />
    <glyph glyph-name="uni0418" unicode="&#x418;" horiz-adv-x="1417" 
d="M1016 1378h223v-1378h-217v1049l-629 -1049h-213v1378h215v-1032z" />
    <glyph glyph-name="uni0419" unicode="&#x419;" horiz-adv-x="1417" 
d="M1016 1378h223v-1378h-217v1049l-629 -1049h-213v1378h215v-1032zM709 1501q-178 0 -285 89t-107 249h168q0 -83 61.5 -133.5t162.5 -50.5q100 0 159.5 50.5t59.5 133.5h170q0 -160 -106 -249t-283 -89z" />
    <glyph glyph-name="uni041A" unicode="&#x41a;" horiz-adv-x="1216" 
d="M1212 0h-264l-553 668v-668h-215v1378h215v-596l527 596h254l-570 -647z" />
    <glyph glyph-name="uni041B" unicode="&#x41b;" horiz-adv-x="1286" 
d="M-18 -10v205q56 0 98.5 17.5t71.5 55.5t48 87t29.5 122.5t14.5 151.5t4 184v565h858v-1376h-215v1182h-432v-375q0 -163 -14 -287t-47.5 -227t-88 -168.5t-136.5 -101t-191 -35.5z" />
    <glyph glyph-name="uni041C" unicode="&#x41c;" horiz-adv-x="1746" 
d="M1270 1378h297v-1378h-209v1057l-391 -1057h-187l-391 1057v-1057h-207l-2 1378h295l399 -1102z" />
    <glyph glyph-name="uni041D" unicode="&#x41d;" horiz-adv-x="1415" 
d="M180 0v1378h215v-549h627v549h215v-1378h-215v635h-627v-635h-215z" />
    <glyph glyph-name="uni041E" unicode="&#x41e;" horiz-adv-x="1632" 
d="M817 -25q-152 0 -286.5 54.5t-230 149.5t-151 227.5t-55.5 283.5q0 201 94 364.5t259.5 256t369.5 92.5q153 0 287 -54.5t229 -149t150 -227t55 -282.5q0 -151 -55 -283.5t-150.5 -227.5t-229.5 -149.5t-286 -54.5zM817 176q215 0 356.5 146.5t141.5 369.5
q0 220 -142 365t-356 145q-215 0 -357.5 -145t-142.5 -365q0 -223 141.5 -369.5t358.5 -146.5z" />
    <glyph glyph-name="uni041F" unicode="&#x41f;" horiz-adv-x="1366" 
d="M180 0v1378h1008v-1378h-217v1184h-572v-1184h-219z" />
    <glyph glyph-name="uni0420" unicode="&#x420;" horiz-adv-x="1150" 
d="M180 0v1378h449q212 0 334 -111.5t122 -305.5t-123 -309t-333 -115h-234v-537h-215zM393 721h228q114 0 178.5 63.5t64.5 173.5q0 109 -63.5 170.5t-179.5 61.5h-228v-469z" />
    <glyph glyph-name="uni0421" unicode="&#x421;" horiz-adv-x="1593" 
d="M815 -25q-204 0 -369 92.5t-258.5 256.5t-93.5 366q0 150 55 282.5t150.5 227t229.5 149t286 54.5q269 0 457.5 -148t226.5 -391h-229q-40 155 -163 246.5t-292 91.5q-212 0 -355 -147t-143 -365q0 -220 143 -367t355 -147q169 0 292 91.5t163 246.5h229
q-38 -243 -226.5 -391t-457.5 -148z" />
    <glyph glyph-name="uni0422" unicode="&#x422;" horiz-adv-x="1144" 
d="M455 0v1184h-389v194h1011v-194h-407v-1184h-215z" />
    <glyph glyph-name="uni0423" unicode="&#x423;" horiz-adv-x="1263" 
d="M995 1378h236l-651 -1378h-236l209 426l-512 952h248l379 -729z" />
    <glyph glyph-name="uni0424" unicode="&#x424;" horiz-adv-x="1673" 
d="M1577 717q0 -255 -171 -409.5t-462 -160.5v-147h-215v147q-289 4 -461 160t-172 410q0 250 172.5 403.5t460.5 157.5v100h215v-100q292 -6 462.5 -157.5t170.5 -403.5zM313 711q0 -174 108.5 -272.5t307.5 -102.5v754q-197 -5 -306.5 -104.5t-109.5 -274.5zM944 1090
v-754q199 4 307.5 102.5t108.5 272.5q0 175 -109 275t-307 104z" />
    <glyph glyph-name="uni0425" unicode="&#x425;" horiz-adv-x="1294" 
d="M1235 0h-246l-342 551l-340 -551h-248l451 711l-422 667h246l313 -508l309 508h248l-420 -667z" />
    <glyph glyph-name="uni0426" unicode="&#x426;" horiz-adv-x="1402" 
d="M1153 -256v256h-973v1378h215v-1183h568v1183h215v-1183h178v-451h-203z" />
    <glyph glyph-name="uni0427" unicode="&#x427;" horiz-adv-x="1265" 
d="M870 1378h215v-1378h-215v530q-121 -41 -258 -41q-251 0 -378.5 130t-127.5 385v374h216v-360q0 -169 78 -249.5t243 -80.5q120 0 227 45v645z" />
    <glyph glyph-name="uni0428" unicode="&#x428;" horiz-adv-x="1884" 
d="M180 0v1378h219v-1183h435v1183h219v-1183h436v1183h217v-1378h-1526z" />
    <glyph glyph-name="uni0429" unicode="&#x429;" horiz-adv-x="1929" 
d="M1673 -256v256h-1493v1378h219v-1183h435v1183h219v-1183h436v1183h217v-1183h176v-451h-209z" />
    <glyph glyph-name="uni042A" unicode="&#x42a;" horiz-adv-x="1286" 
d="M258 0v1184h-297v194h512v-510h272q206 0 330.5 -118t124.5 -316t-124 -316t-331 -118h-487zM471 193h260q114 0 181 65t67 174q0 114 -67 179t-181 65h-260v-483z" />
    <glyph glyph-name="uni042B" unicode="&#x42b;" horiz-adv-x="1677" 
d="M180 0v1378h215v-510h275q206 0 330 -118t124 -316t-124 -316t-330 -118h-490zM393 193h262q114 0 181 65t67 174q0 114 -67 179t-181 65h-262v-483zM1282 0v1378h215v-1378h-215z" />
    <glyph glyph-name="uni042C" unicode="&#x42c;" horiz-adv-x="1210" 
d="M180 0v1378h215v-510h275q206 0 330 -118t124 -316t-124 -316t-330 -118h-490zM393 193h262q114 0 181 65t67 174q0 114 -67 179t-181 65h-262v-483z" />
    <glyph glyph-name="uni042D" unicode="&#x42d;" horiz-adv-x="1591" 
d="M776 176q195 0 331 121t161 313h-682v189h678q-34 181 -167.5 292t-318.5 111q-173 0 -295.5 -90.5t-160.5 -247.5h-230q38 243 226 390t460 147q206 0 369.5 -91t255.5 -254t92 -368q0 -204 -91.5 -366.5t-255.5 -253.5t-370 -91q-272 0 -460 146.5t-226 390.5h230
q40 -157 161 -247.5t293 -90.5z" />
    <glyph glyph-name="uni042E" unicode="&#x42e;" horiz-adv-x="2168" 
d="M1354 -25q-284 0 -485.5 176t-233.5 447h-240v-598h-215v1378h215v-585h242q23 176 121 314.5t253.5 217t342.5 78.5q153 0 287 -54.5t229 -149t150 -227t55 -282.5q0 -151 -55 -283.5t-150.5 -227.5t-229.5 -149.5t-286 -54.5zM1354 176q215 0 356 146.5t141 369.5
q0 220 -141.5 365t-355.5 145q-215 0 -357.5 -145t-142.5 -365q0 -223 141.5 -369.5t358.5 -146.5z" />
    <glyph glyph-name="uni042F" unicode="&#x42f;" horiz-adv-x="1234" 
d="M557 1378h498v-1378h-215v522h-164l-363 -522h-254l375 532q-163 32 -251.5 142t-88.5 276q0 200 123 314t340 114zM842 705v487h-279q-119 0 -184.5 -63.5t-65.5 -178.5q0 -117 65.5 -181t184.5 -64h279z" />
    <glyph glyph-name="uni0430" unicode="&#x430;" horiz-adv-x="1095" 
d="M541 1028q191 0 302 -104.5t111 -288.5v-635h-194v113q-117 -136 -328 -136q-160 0 -253 79.5t-93 217.5q0 140 98 219.5t271 79.5h293v66q0 100 -58 155.5t-160 55.5q-84 0 -133.5 -37t-60.5 -106h-201q11 148 120 234.5t286 86.5zM473 137q119 0 197 69t78 177v37h-254
q-197 0 -197 -139q0 -69 45 -106.5t131 -37.5z" />
    <glyph glyph-name="uni0431" unicode="&#x431;" horiz-adv-x="1210" 
d="M662 922q196 0 329 -132t133 -329q0 -209 -143.5 -346.5t-359.5 -137.5q-228 0 -372.5 153.5t-144.5 399.5v80q0 140 20 244.5t60.5 183.5t109 136t157 96.5t213.5 70.5l378 95v-197l-358 -86q-96 -24 -161 -52.5t-113.5 -72t-73 -104t-31.5 -144.5q68 67 161.5 104.5
t195.5 37.5zM625 160q125 0 207.5 88.5t82.5 212.5q0 120 -81.5 199t-204.5 79q-127 0 -217 -81.5t-90 -204.5q0 -121 89 -207t214 -86z" />
    <glyph glyph-name="uni0432" unicode="&#x432;" horiz-adv-x="1110" 
d="M848 535q170 -69 170 -240q0 -132 -96.5 -213.5t-253.5 -81.5h-500v1004h448q154 0 245 -71t91 -192q0 -133 -104 -206zM369 838v-238h241q71 0 108.5 31.5t37.5 89.5q0 117 -146 117h-241zM369 168h280q83 0 126.5 36.5t43.5 104.5q0 133 -170 133h-280v-274z" />
    <glyph glyph-name="uni0433" unicode="&#x433;" horiz-adv-x="827" 
d="M168 0v1004h653v-187h-442v-817h-211z" />
    <glyph glyph-name="uni0434" unicode="&#x434;" horiz-adv-x="1241" 
d="M1010 180h168v-436h-199v256h-741v-256h-201v436h39q105 0 145.5 100t40.5 336v390h748v-826zM473 825v-219q0 -161 -22.5 -264t-77.5 -162h426v645h-326z" />
    <glyph glyph-name="uni0435" unicode="&#x435;" horiz-adv-x="1193" 
d="M606 1028q154 0 273.5 -76t179.5 -210.5t47 -301.5h-803q17 -130 102.5 -206t215.5 -76q177 0 249 133h215q-54 -150 -176.5 -232t-292.5 -82q-227 0 -377.5 148.5t-150.5 374.5t148.5 377t369.5 151zM604 846q-109 0 -188.5 -67t-106.5 -177h584q-12 109 -91 176.5
t-198 67.5z" />
    <glyph glyph-name="uni0436" unicode="&#x436;" horiz-adv-x="1443" 
d="M1464 0h-243l-394 475v-475h-211v473l-393 -473h-241l436 524l-406 480h238l366 -437v437h211v-441l371 441h238l-408 -478z" />
    <glyph glyph-name="uni0437" unicode="&#x437;" horiz-adv-x="1005" 
d="M762 532q168 -66 168 -243q0 -101 -60.5 -173.5t-152.5 -105.5t-203 -33q-67 0 -128.5 12.5t-115.5 39.5t-94 65.5t-64.5 94t-27.5 122.5h201q11 -83 75 -120t148 -37q90 0 151.5 38.5t61.5 112.5q0 63 -52 100t-157 37h-160v158h150q90 0 130 35t40 90q0 61 -49 94
t-121 33q-75 0 -130.5 -32t-68.5 -95h-199q9 146 125 224.5t279 78.5q151 0 258.5 -74t107.5 -206q0 -67 -30.5 -123t-81.5 -93z" />
    <glyph glyph-name="uni0438" unicode="&#x438;" horiz-adv-x="1226" 
d="M864 1016h197v-1016h-213v700l-488 -712h-192v1018h211v-701z" />
    <glyph glyph-name="uni0439" unicode="&#x439;" horiz-adv-x="1226" 
d="M864 1016h197v-1016h-213v700l-488 -712h-192v1018h211v-701zM612 1149q-155 0 -242 89.5t-87 248.5h166q0 -187 163 -187q80 0 121 47.5t41 139.5h168q0 -158 -87.5 -248t-242.5 -90z" />
    <glyph glyph-name="uni043A" unicode="&#x43a;" horiz-adv-x="1007" 
d="M1026 0h-258l-389 446v-446h-211v1004h211v-447l364 447h246l-407 -494z" />
    <glyph glyph-name="uni043B" unicode="&#x43b;" horiz-adv-x="1130" 
d="M16 -6v186q53 0 89.5 18t60.5 51.5t37.5 92.5t18.5 129.5t5 173.5v359h736v-1004h-211v825h-318v-207q0 -329 -93 -476.5t-325 -147.5z" />
    <glyph glyph-name="uni043C" unicode="&#x43c;" horiz-adv-x="1478" 
d="M1053 1004h258v-1004h-189v713l-307 -713h-153l-306 713v-713h-188v1004h256l317 -748z" />
    <glyph glyph-name="uni043D" unicode="&#x43d;" horiz-adv-x="1206" 
d="M168 0v1004h211v-383h448v383h211v-1004h-211v436h-448v-436h-211z" />
    <glyph glyph-name="uni043E" unicode="&#x43e;" horiz-adv-x="1241" 
d="M621 -25q-148 0 -271 70t-193.5 191.5t-70.5 267.5q0 145 70 265.5t193 189.5t272 69q224 0 378 -151.5t154 -372.5q0 -146 -70 -267.5t-192.5 -191.5t-269.5 -70zM621 168q138 0 228.5 95t90.5 241q0 145 -90.5 239.5t-228.5 94.5t-229 -94.5t-91 -239.5q0 -146 91 -241
t229 -95z" />
    <glyph glyph-name="uni043F" unicode="&#x43f;" horiz-adv-x="1185" 
d="M168 0v1004h850v-1004h-211v821h-428v-821h-211z" />
    <glyph glyph-name="uni0440" unicode="&#x440;" horiz-adv-x="1292" 
d="M707 1028q214 0 352.5 -148.5t138.5 -377.5t-137 -378t-348 -149q-108 0 -199 42.5t-149 117.5v-469h-211v1338h196v-148q55 80 149 126t208 46zM668 168q140 0 228.5 93t88.5 241t-89 242t-228 94q-138 0 -223 -92t-85 -242q0 -152 85 -244t223 -92z" />
    <glyph glyph-name="uni0441" unicode="&#x441;" horiz-adv-x="1198" 
d="M618 -25q-227 0 -379.5 151.5t-152.5 375.5t152.5 375t379.5 151q191 0 327 -104.5t165 -274.5h-209q-26 86 -103 136.5t-180 50.5q-138 0 -227.5 -94t-89.5 -240t89.5 -240t227.5 -94q104 0 179.5 50t103.5 136h209q-29 -170 -165 -274.5t-327 -104.5z" />
    <glyph glyph-name="uni0442" unicode="&#x442;" horiz-adv-x="927" 
d="M356 0v823h-336v185h885v-185h-336v-823h-213z" />
    <glyph glyph-name="uni0443" unicode="&#x443;" horiz-adv-x="1052" 
d="M793 1004h225l-502 -1338h-233l129 338l-377 1000h225l268 -771z" />
    <glyph glyph-name="uni0444" unicode="&#x444;" horiz-adv-x="1499" 
d="M643 -334v318q-251 2 -404 144.5t-153 375.5q0 229 154.5 372.5t402.5 145.5v356h211v-356q250 -1 404.5 -144.5t154.5 -373.5q0 -234 -153.5 -377t-405.5 -143v-318h-211zM643 164v678q-163 -6 -253.5 -95t-90.5 -243q0 -155 91.5 -245t252.5 -95zM856 842v-678
q160 5 252 95t92 245q0 152 -91.5 242t-252.5 96z" />
    <glyph glyph-name="uni0445" unicode="&#x445;" horiz-adv-x="1077" 
d="M1051 0h-242l-272 377l-271 -377h-241l381 522l-355 484h242l244 -342l245 342h242l-354 -486z" />
    <glyph glyph-name="uni0446" unicode="&#x446;" horiz-adv-x="1249" 
d="M985 -256v256h-817v1004h211v-820h428v820h211v-820h168v-440h-201z" />
    <glyph glyph-name="uni0447" unicode="&#x447;" horiz-adv-x="1110" 
d="M731 1004h211v-1004h-211v352q-104 -33 -192 -33q-204 0 -318.5 117.5t-114.5 333.5v234h218v-216q0 -135 62 -203.5t177 -68.5q86 0 168 31v457z" />
    <glyph glyph-name="uni0448" unicode="&#x448;" horiz-adv-x="1585" 
d="M168 0v1006h211v-826h309v826h211v-826h309v826h211v-1006h-1251z" />
    <glyph glyph-name="uni0449" unicode="&#x449;" horiz-adv-x="1650" 
d="M1386 -256v256h-1218v1006h211v-826h309v826h211v-826h309v826h211v-826h168v-436h-201z" />
    <glyph glyph-name="uni044A" unicode="&#x44a;" horiz-adv-x="1093" 
d="M221 0v821h-246v183h457v-295h189q186 0 294.5 -94.5t108.5 -258.5q0 -165 -108.5 -260.5t-294.5 -95.5h-400zM430 176h174q209 0 209 178q0 86 -54 132t-155 46h-174v-356z" />
    <glyph glyph-name="uni044B" unicode="&#x44b;" horiz-adv-x="1486" 
d="M168 0v1004h211v-295h180q186 0 295 -95.5t109 -257.5q0 -164 -109 -260t-295 -96h-391zM377 176h166q209 0 209 178q0 87 -54.5 134t-154.5 47h-166v-359zM1108 0v1004h211v-1004h-211z" />
    <glyph glyph-name="uni044C" unicode="&#x44c;" horiz-adv-x="1032" 
d="M168 0v1004h211v-295h180q186 0 295 -95.5t109 -257.5q0 -164 -109 -260t-295 -96h-391zM377 176h166q209 0 209 178q0 87 -54.5 134t-154.5 47h-166v-359z" />
    <glyph glyph-name="uni044D" unicode="&#x44d;" horiz-adv-x="1198" 
d="M575 162q125 0 213 73t111 193h-426v168h420q-28 111 -114 178.5t-204 67.5q-103 0 -180.5 -52.5t-103.5 -140.5h-205q32 170 167 274.5t322 104.5q149 0 272.5 -68.5t194 -189.5t70.5 -268t-70.5 -267.5t-194 -189t-272.5 -68.5q-187 0 -322 104t-167 273h205
q28 -89 104.5 -140.5t179.5 -51.5z" />
    <glyph glyph-name="uni044E" unicode="&#x44e;" horiz-adv-x="1724" 
d="M1104 -25q-206 0 -355.5 129.5t-175.5 327.5h-194v-432h-211v1006h211v-385h203q39 179 183 293t339 114q224 0 378 -151.5t154 -372.5q0 -146 -70 -267.5t-192.5 -191.5t-269.5 -70zM1104 168q138 0 228.5 95t90.5 241q0 145 -90.5 239.5t-228.5 94.5t-229 -94.5
t-91 -239.5q0 -146 91 -241t229 -95z" />
    <glyph glyph-name="uni044F" unicode="&#x44f;" horiz-adv-x="1095" 
d="M549 1004h379v-1004h-211v307h-174l-221 -307h-244l262 346q-91 40 -140.5 117.5t-49.5 183.5q0 168 106 262.5t293 94.5zM719 473v358h-158q-96 0 -147.5 -46t-51.5 -136q0 -85 52 -130.5t147 -45.5h158z" />
    <glyph glyph-name="uni0450" unicode="&#x450;" horiz-adv-x="1193" 
d="M606 1028q154 0 273.5 -76t179.5 -210.5t47 -301.5h-803q17 -130 102.5 -206t215.5 -76q177 0 249 133h215q-54 -150 -176.5 -232t-292.5 -82q-227 0 -377.5 148.5t-150.5 374.5t148.5 377t369.5 151zM604 846q-109 0 -188.5 -67t-106.5 -177h584q-12 109 -91 176.5
t-198 67.5zM514 1147l-229 356h243l183 -356h-197z" />
    <glyph glyph-name="uni0451" unicode="&#x451;" horiz-adv-x="1193" 
d="M606 1028q154 0 273.5 -76t179.5 -210.5t47 -301.5h-803q17 -130 102.5 -206t215.5 -76q177 0 249 133h215q-54 -150 -176.5 -232t-292.5 -82q-227 0 -377.5 148.5t-150.5 374.5t148.5 377t369.5 151zM604 846q-109 0 -188.5 -67t-106.5 -177h584q-12 109 -91 176.5
t-198 67.5zM399 1210q-52 0 -89.5 37t-37.5 88q0 52 37 88.5t90 36.5q57 0 94 -35.5t37 -89.5q0 -53 -38 -89t-93 -36zM805 1210q-52 0 -89.5 37t-37.5 88q0 53 36.5 89t90.5 36q57 0 94 -35.5t37 -89.5q0 -53 -38 -89t-93 -36z" />
    <glyph glyph-name="uni0452" unicode="&#x452;" horiz-adv-x="1185" 
d="M678 928q165 0 265.5 -110t100.5 -290v-544q0 -169 -86.5 -255.5t-255.5 -86.5h-108v182h59q94 0 136 42t42 136v500q0 106 -57.5 168.5t-155.5 62.5q-100 0 -164.5 -65t-64.5 -166v-502h-211v1059h-166v170h166v149h211v-149h422v-170h-422v-250q106 119 289 119z" />
    <glyph glyph-name="uni0453" unicode="&#x453;" horiz-adv-x="827" 
d="M168 0v1004h653v-187h-442v-817h-211zM412 1147l186 356h240l-230 -356h-196z" />
    <glyph glyph-name="uni0454" unicode="&#x454;" horiz-adv-x="1198" 
d="M623 162q103 0 179.5 51.5t104.5 140.5h205q-32 -169 -167 -273t-322 -104q-149 0 -272.5 68.5t-194 189t-70.5 267.5t70.5 268t194 189.5t272.5 68.5q187 0 322 -104.5t167 -274.5h-205q-26 88 -103.5 140.5t-180.5 52.5q-118 0 -204 -67.5t-114 -178.5h420v-168h-426
q23 -120 111 -193t213 -73z" />
    <glyph glyph-name="uni0455" unicode="&#x455;" horiz-adv-x="921" 
d="M475 -23q-177 0 -287 89t-120 241h206q7 -72 60.5 -111.5t140.5 -39.5q80 0 127 32t47 88q0 47 -24 70t-95 45l-172 49q-125 35 -190.5 110.5t-65.5 182.5q0 133 100 214t263 81q157 0 257 -80.5t112 -216.5h-205q-7 55 -52 87t-114 32t-111.5 -30t-42.5 -81
q0 -44 26.5 -69.5t88.5 -44.5l174 -52q258 -73 258 -290q0 -140 -103.5 -223t-277.5 -83z" />
    <glyph glyph-name="uni0456" unicode="&#x456;" horiz-adv-x="520" 
d="M260 1210q-57 0 -95 38t-38 95t38 93.5t95 36.5q59 0 97 -36.5t38 -93.5t-38.5 -95t-96.5 -38zM154 0v1004h211v-1004h-211z" />
    <glyph glyph-name="uni0457" unicode="&#x457;" horiz-adv-x="520" 
d="M154 0v1004h211v-1004h-211zM55 1210q-52 0 -89.5 37t-37.5 88q0 52 37 88.5t90 36.5q57 0 94 -35.5t37 -89.5q0 -53 -38 -89t-93 -36zM461 1210q-52 0 -89.5 37t-37.5 88q0 53 36.5 89t90.5 36q57 0 94 -35.5t37 -89.5q0 -53 -38 -89t-93 -36z" />
    <glyph glyph-name="uni0458" unicode="&#x458;" horiz-adv-x="520" 
d="M262 1210q-57 0 -95 38t-38 95t38 93.5t95 36.5q59 0 97 -36.5t38 -93.5t-38.5 -95t-96.5 -38zM-84 -334v180h68q92 0 132 39.5t40 128.5v990h211v-1008q0 -161 -85.5 -245.5t-246.5 -84.5h-119z" />
    <glyph glyph-name="uni0459" unicode="&#x459;" horiz-adv-x="1656" 
d="M16 -6v186q128 0 179 103t51 329v392h749v-304h189q185 0 294 -93.5t109 -250.5q0 -164 -108.5 -260t-294.5 -96h-400v825h-331v-241q0 -301 -102 -445.5t-335 -144.5zM993 176h174q209 0 209 178q0 82 -54 127t-155 45h-174v-350z" />
    <glyph glyph-name="uni045A" unicode="&#x45a;" horiz-adv-x="1685" 
d="M168 0v1004h211v-363h434v363h211v-332h201q183 0 287 -89t104 -245t-105.5 -247t-285.5 -91h-412v457h-434v-457h-211zM1022 178h186q98 0 147.5 40.5t49.5 117.5q0 76 -51 117t-146 41h-186v-316z" />
    <glyph glyph-name="uni045B" unicode="&#x45b;" horiz-adv-x="1187" 
d="M678 946q166 0 266 -109.5t100 -291.5v-545h-210v518q0 106 -59 170t-157 64q-100 0 -164.5 -65.5t-64.5 -168.5v-518h-211v1059h-166v170h166v149h211v-149h422v-170h-422v-234q105 121 289 121z" />
    <glyph glyph-name="uni045C" unicode="&#x45c;" horiz-adv-x="1007" 
d="M1026 0h-258l-389 446v-446h-211v1004h211v-447l364 447h246l-407 -494zM442 1147l187 356h239l-229 -356h-197z" />
    <glyph glyph-name="uni045D" unicode="&#x45d;" horiz-adv-x="1226" 
d="M864 1016h197v-1016h-213v700l-488 -712h-192v1018h211v-701zM522 1147l-229 356h244l182 -356h-197z" />
    <glyph glyph-name="uni045E" unicode="&#x45e;" horiz-adv-x="1052" 
d="M793 1004h225l-502 -1338h-233l129 338l-377 1000h225l268 -771zM526 1149q-155 0 -242 89.5t-87 248.5h165q0 -187 164 -187q80 0 121 47.5t41 139.5h168q0 -158 -87.5 -248t-242.5 -90z" />
    <glyph glyph-name="uni045F" unicode="&#x45f;" horiz-adv-x="1185" 
d="M1018 1004v-1004h-326v-256h-200v256h-324v1004h211v-820h428v820h211z" />
    <glyph glyph-name="uni0462" unicode="&#x462;" horiz-adv-x="1366" 
d="M291 0v1016h-264v180h264v186h213v-186h504v-180h-504v-160h313q207 0 331 -117t124 -313q0 -195 -123 -310.5t-332 -115.5h-526zM504 188h301q114 0 181 64.5t67 173.5q0 112 -67 177t-181 65h-301v-480z" />
    <glyph glyph-name="uni0463" unicode="&#x463;" horiz-adv-x="1114" 
d="M217 0v897h-205v170h205v311h213v-311h367v-170h-367v-197h205q184 0 292.5 -94t108.5 -254q0 -161 -109 -256.5t-292 -95.5h-418zM428 174h190q207 0 207 176q0 86 -53 131t-154 45h-190v-352z" />
    <glyph glyph-name="uni0472" unicode="&#x472;" horiz-adv-x="1634" 
d="M819 1401q152 0 286.5 -54.5t230 -148.5t151 -226t55.5 -282q0 -151 -55.5 -283.5t-151 -226.5t-230 -148.5t-286.5 -54.5t-286.5 54.5t-230 148.5t-151 226.5t-55.5 283.5q0 201 94 364t259.5 255t369.5 92zM817 1202q-191 0 -326.5 -117.5t-164.5 -304.5q132 60 256 60
q89 0 236 -44t237 -44q117 0 252 53q-36 176 -170.5 286.5t-319.5 110.5zM817 176q196 0 333.5 124t162.5 318q-137 -61 -258 -61q-93 0 -241 44t-232 44q-119 0 -254 -55q33 -185 166.5 -299.5t322.5 -114.5z" />
    <glyph glyph-name="uni0473" unicode="&#x473;" horiz-adv-x="1241" 
d="M621 1028q224 0 378 -151.5t154 -372.5q0 -146 -70 -267t-192.5 -190.5t-269.5 -69.5q-148 0 -271 69.5t-193.5 190.5t-70.5 267q0 145 70 265.5t193 189.5t272 69zM621 844q-119 0 -205.5 -69.5t-112.5 -184.5q71 28 148 28q63 0 166 -30.5t165 -30.5q68 0 156 31
q-27 115 -112.5 185.5t-204.5 70.5zM621 160q124 0 211.5 76t107.5 200q-78 -37 -158 -37q-66 0 -168 32t-163 32q-68 0 -150 -29q22 -123 109.5 -198.5t210.5 -75.5z" />
    <glyph glyph-name="uni0474" unicode="&#x474;" horiz-adv-x="1372" 
d="M1243 1378h127v-194h-70q-55 0 -90 -32.5t-61 -107.5l-369 -1044h-231l-494 1378h234l379 -1116l299 885q41 125 105.5 178t170.5 53z" />
    <glyph glyph-name="uni0475" unicode="&#x475;" horiz-adv-x="1087" 
d="M967 1004h104v-187h-61q-41 0 -64 -17t-37 -57l-268 -743h-229l-377 1004h225l266 -781l211 600q34 100 86 140.5t144 40.5z" />
    <glyph glyph-name="uni0490" unicode="&#x490;" horiz-adv-x="974" 
d="M180 0v1378h537v254h215v-448h-537v-1184h-215z" />
    <glyph glyph-name="uni0491" unicode="&#x491;" horiz-adv-x="888" 
d="M168 0v1004h512v260h201v-447h-502v-817h-211z" />
    <glyph glyph-name="uni0492" unicode="&#x492;" horiz-adv-x="1048" 
d="M979 1184h-543v-418h447v-195h-447v-571h-215v571h-184v195h184v612h758v-194z" />
    <glyph glyph-name="uni0493" unicode="&#x493;" horiz-adv-x="974" 
d="M872 815h-460v-266h460v-184h-460v-365h-211v365h-164v184h164v455h671v-189z" />
    <glyph glyph-name="uni0496" unicode="&#x496;" horiz-adv-x="1869" 
d="M1618 -256v256h-102l-517 674v-674h-215v682l-520 -682h-260l565 727l-530 651h256l489 -608v608h215v-600l488 600h256l-535 -649l416 -534h199v-451h-205z" />
    <glyph glyph-name="uni0497" unicode="&#x497;" horiz-adv-x="1568" 
d="M1307 -256v256h-86l-394 475v-475h-211v473l-393 -473h-241l436 524l-406 480h238l366 -437v437h211v-441l371 441h238l-408 -478l287 -346h192v-436h-200z" />
    <glyph glyph-name="uni0498" unicode="&#x498;" horiz-adv-x="1126" 
d="M817 731q113 -50 170 -141t57 -213q0 -143 -95.5 -252t-264.5 -137v-244h-199v240q-184 22 -286.5 135.5t-110.5 300.5h209q7 -117 80 -184.5t192 -67.5q120 0 191 64t71 161q0 43 -15 82.5t-46.5 75.5t-89 58t-133.5 22h-137v37h-2v143h135q122 0 178.5 58t56.5 139
q0 88 -63.5 150.5t-175.5 62.5q-102 0 -165.5 -58t-70.5 -162h-205q12 188 132 294t315 106q104 0 189 -31.5t138.5 -84t82 -120t28.5 -141.5q0 -96 -42.5 -172t-123.5 -121z" />
    <glyph glyph-name="uni0499" unicode="&#x499;" horiz-adv-x="1005" 
d="M762 532q168 -66 168 -243q0 -125 -88.5 -203t-225.5 -100v-242h-198v242q-144 20 -236 102t-98 223h201q11 -83 75 -120t148 -37q90 0 151.5 38.5t61.5 112.5q0 63 -52 100t-157 37h-160v158h150q90 0 130 35t40 90q0 61 -49 94t-121 33q-75 0 -130.5 -32t-68.5 -95
h-199q9 146 125 224.5t279 78.5q151 0 258.5 -74t107.5 -206q0 -67 -30.5 -123t-81.5 -93z" />
    <glyph glyph-name="uni049A" unicode="&#x49a;" horiz-adv-x="1294" 
d="M1044 -256v256h-96l-553 668v-668h-215v1378h215v-596l527 596h254l-570 -647l445 -536h196v-451h-203z" />
    <glyph glyph-name="uni049B" unicode="&#x49b;" horiz-adv-x="1128" 
d="M866 -256v256h-98l-389 446v-446h-211v1004h211v-447l364 447h246l-407 -494l286 -330h197v-436h-199z" />
    <glyph glyph-name="uni04A0" unicode="&#x4a0;" horiz-adv-x="1271" 
d="M-39 1184v194h490v-596l526 596h254l-569 -647l606 -731h-264l-553 668v-668h-215v1184h-275z" />
    <glyph glyph-name="uni04A1" unicode="&#x4a1;" horiz-adv-x="1032" 
d="M1053 0h-252l-400 467v-467h-213v821h-213v183h426v-429l377 429h248l-416 -474z" />
    <glyph glyph-name="uni04A2" unicode="&#x4a2;" horiz-adv-x="1462" 
d="M1239 195h176v-451h-203v256h-188v633h-629v-633h-215v1378h215v-551h629v551h215v-1183z" />
    <glyph glyph-name="uni04A3" unicode="&#x4a3;" horiz-adv-x="1269" 
d="M1006 -256v256h-179v434h-448v-434h-211v1004h211v-381h448v381h211v-820h168v-440h-200z" />
    <glyph glyph-name="uni04AA" unicode="&#x4aa;" horiz-adv-x="1593" 
d="M918 -256h-199v238q-181 21 -323 117.5t-222 250.5t-80 340q0 150 55 282.5t150.5 227t229.5 149t286 54.5q269 0 457.5 -148t226.5 -391h-229q-40 155 -163 246.5t-292 91.5q-212 0 -355 -147t-143 -365q0 -220 143 -367t355 -147q169 0 292 91.5t163 246.5h229
q-35 -219 -192 -361.5t-389 -170.5v-238z" />
    <glyph glyph-name="uni04AB" unicode="&#x4ab;" horiz-adv-x="1198" 
d="M727 -256h-199v240q-194 29 -318 173.5t-124 344.5q0 224 152.5 375t379.5 151q191 0 327 -104.5t165 -274.5h-209q-26 86 -103 136.5t-180 50.5q-138 0 -227.5 -94t-89.5 -240t89.5 -240t227.5 -94q104 0 179.5 50t103.5 136h209q-24 -145 -127.5 -242.5t-255.5 -125.5
v-242z" />
    <glyph glyph-name="uni04AE" unicode="&#x4ae;" horiz-adv-x="1255" 
d="M1196 1378l-461 -790v-588h-215v594l-459 784h248l322 -587l319 587h246z" />
    <glyph glyph-name="uni04AF" unicode="&#x4af;" horiz-adv-x="1048" 
d="M1016 1004l-385 -998v-368h-211v368l-385 998h227l264 -754l262 754h228z" />
    <glyph glyph-name="uni04B0" unicode="&#x4b0;" horiz-adv-x="1304" 
d="M1221 1378l-439 -751h338v-191h-360v-436h-215v436h-365v191h344l-438 751h248l321 -587l320 587h246z" />
    <glyph glyph-name="uni04B1" unicode="&#x4b1;" horiz-adv-x="1110" 
d="M1047 1006l-385 -1000h311v-178h-314v-190h-210v190h-310v178h310v4l-383 996h227l264 -756l262 756h228z" />
    <glyph glyph-name="uni04B2" unicode="&#x4b2;" horiz-adv-x="1347" 
d="M1096 -256v256h-107l-342 551l-340 -551h-248l451 711l-422 667h246l313 -508l309 508h248l-420 -667l328 -516h186v-451h-202z" />
    <glyph glyph-name="uni04B3" unicode="&#x4b3;" horiz-adv-x="1179" 
d="M922 180h196v-436h-200v256h-109l-272 377l-271 -377h-241l381 522l-355 484h242l244 -342l245 342h242l-354 -486z" />
    <glyph glyph-name="uni04B6" unicode="&#x4b6;" horiz-adv-x="1310" 
d="M1085 195h179v-451h-203v256h-191v530q-121 -41 -258 -41q-251 0 -378.5 130t-127.5 385v374h216v-360q0 -169 78 -249.5t243 -80.5q120 0 227 45v645h215v-1183z" />
    <glyph glyph-name="uni04B7" unicode="&#x4b7;" horiz-adv-x="1208" 
d="M973 184h172v-440h-201v256h-182v352q-112 -33 -207 -33q-219 0 -334 115t-115 334v236h211v-220q0 -270 263 -270q88 0 182 33v457h211v-820z" />
    <glyph glyph-name="uni04BA" unicode="&#x4ba;" horiz-adv-x="1265" 
d="M395 0h-215v1378h215v-530q121 41 258 41q251 0 378.5 -129.5t127.5 -384.5v-375h-215v360q0 169 -78 249.5t-243 80.5q-121 0 -228 -45v-645z" />
    <glyph glyph-name="uni04BB" unicode="&#x4bb;" horiz-adv-x="1163" 
d="M653 1028q166 0 266.5 -109.5t100.5 -289.5v-629h-211v600q0 106 -58.5 170t-156.5 64q-100 0 -164.5 -65.5t-64.5 -168.5v-600h-211v1378h211v-469q106 119 288 119z" />
    <glyph glyph-name="uni04C0" unicode="&#x4c0;" horiz-adv-x="573" 
d="M180 0v1378h215v-1378h-215z" />
    <glyph glyph-name="uni04CF" unicode="&#x4cf;" horiz-adv-x="546" 
d="M168 0v1378h211v-1378h-211z" />
    <glyph glyph-name="uni04D4" unicode="&#x4d4;" horiz-adv-x="1728" 
d="M1163 190h475v-190h-647l-55 311h-543l-149 -311h-224l660 1378h934v-188h-621l64 -381h540v-184h-507zM791 1190l-314 -701h428z" />
    <glyph glyph-name="uni04D5" unicode="&#x4d5;" horiz-adv-x="1857" 
d="M1268 1028q236 0 377.5 -168t121.5 -426h-804q20 -128 104.5 -202t214.5 -74q95 0 156 32t98 101h213q-57 -152 -178.5 -233t-292.5 -81q-136 0 -247 55.5t-179 155.5q-53 -102 -155 -156.5t-246 -54.5q-167 0 -266 79t-99 212q0 146 99.5 229t273.5 83h276v49
q0 104 -54.5 162.5t-152.5 58.5q-171 0 -192 -143h-201q10 149 118 235t282 86q248 0 346 -176q68 84 168 130t219 46zM1268 846q-115 0 -195.5 -69t-105.5 -185h592q-9 115 -88.5 184.5t-202.5 69.5zM479 137q113 0 184.5 66t71.5 170v55h-243q-195 0 -195 -139
q0 -152 182 -152z" />
    <glyph glyph-name="uni04D8" unicode="&#x4d8;" horiz-adv-x="1601" 
d="M797 1401q154 0 286.5 -53t226 -146t146.5 -225.5t53 -286.5q0 -202 -91.5 -365.5t-254 -255.5t-364.5 -92q-163 0 -300 59.5t-229.5 163t-139 250t-32.5 314.5h1184q-23 201 -153.5 319.5t-333.5 118.5q-139 0 -244.5 -55.5t-159.5 -157.5h-235q71 192 241 302t400 110z
M799 176q186 0 316 111t163 293h-956q19 -178 151 -291t326 -113z" />
    <glyph glyph-name="uni04D9" unicode="&#x4d9;" horiz-adv-x="1193" 
d="M588 -25q-154 0 -273.5 76t-179.5 210.5t-47 301.5h803q-17 130 -102.5 206.5t-215.5 76.5q-177 0 -249 -133h-215q54 149 176.5 231t292.5 82q228 0 378 -148.5t150 -373.5q0 -226 -148.5 -377.5t-369.5 -151.5zM590 158q109 0 188.5 66.5t106.5 176.5h-584
q12 -109 91 -176t198 -67z" />
    <glyph glyph-name="uni04E2" unicode="&#x4e2;" horiz-adv-x="1417" 
d="M1016 1378h223v-1378h-217v1049l-629 -1049h-213v1378h215v-1032zM406 1563v166h604v-166h-604z" />
    <glyph glyph-name="uni04E3" unicode="&#x4e3;" horiz-adv-x="1226" 
d="M864 1016h197v-1016h-213v700l-488 -712h-192v1018h211v-701zM330 1206v162h563v-162h-563z" />
    <glyph glyph-name="uni04E6" unicode="&#x4e6;" horiz-adv-x="1632" 
d="M1026 1528q-56 0 -95.5 38.5t-39.5 92.5t39 92.5t96 38.5q58 0 97.5 -37.5t39.5 -93.5q0 -55 -40 -93t-97 -38zM590 1528q-55 0 -94 38.5t-39 92.5t38 91.5t95 37.5q60 0 98.5 -36.5t38.5 -92.5t-39.5 -93.5t-97.5 -37.5zM817 -25q-152 0 -286.5 54.5t-230 149.5
t-151 227.5t-55.5 283.5q0 201 94 364.5t259.5 256t369.5 92.5q153 0 287 -54.5t229 -149t150 -227t55 -282.5q0 -151 -55 -283.5t-150.5 -227.5t-229.5 -149.5t-286 -54.5zM817 176q215 0 356.5 146.5t141.5 369.5q0 220 -142 365t-356 145q-215 0 -357.5 -145t-142.5 -365
q0 -223 141.5 -369.5t358.5 -146.5z" />
    <glyph glyph-name="uni04E7" unicode="&#x4e7;" horiz-adv-x="1241" 
d="M418 1210q-52 0 -89.5 37t-37.5 88q0 52 37 88.5t90 36.5q57 0 94 -35.5t37 -89.5q0 -53 -38 -89t-93 -36zM823 1210q-52 0 -89.5 37t-37.5 88q0 53 36.5 89t90.5 36q57 0 94 -35.5t37 -89.5q0 -53 -38 -89t-93 -36zM621 -25q-148 0 -271 70t-193.5 191.5t-70.5 267.5
q0 145 70 265.5t193 189.5t272 69q224 0 378 -151.5t154 -372.5q0 -146 -70 -267.5t-192.5 -191.5t-269.5 -70zM621 168q138 0 228.5 95t90.5 241q0 145 -90.5 239.5t-228.5 94.5t-229 -94.5t-91 -239.5q0 -146 91 -241t229 -95z" />
    <glyph glyph-name="uni04E8" unicode="&#x4e8;" horiz-adv-x="1634" 
d="M819 1401q152 0 286.5 -54.5t230 -148.5t151 -226t55.5 -282q0 -151 -55.5 -283.5t-151 -226.5t-230 -148.5t-286.5 -54.5t-286.5 54.5t-230 148.5t-151 226.5t-55.5 283.5q0 201 94 364t259.5 255t369.5 92zM817 1202q-183 0 -315.5 -107.5t-169.5 -283.5h973
q-37 176 -170 283.5t-318 107.5zM817 176q198 0 336 125.5t160 323.5h-989q22 -199 159 -324t334 -125z" />
    <glyph glyph-name="uni04E9" unicode="&#x4e9;" horiz-adv-x="1241" 
d="M621 1028q224 0 378 -151.5t154 -372.5q0 -146 -70 -267t-192.5 -190.5t-269.5 -69.5q-148 0 -271 69.5t-193.5 190.5t-70.5 267q0 145 70 265.5t193 189.5t272 69zM621 844q-117 0 -202.5 -68t-113.5 -180h631q-28 112 -113 180t-202 68zM621 160q122 0 209 74.5
t110 195.5h-639q23 -121 110.5 -195.5t209.5 -74.5z" />
    <glyph glyph-name="uni04EE" unicode="&#x4ee;" horiz-adv-x="1263" 
d="M995 1378h236l-651 -1378h-236l209 426l-512 952h248l379 -729zM350 1563v166h604v-166h-604z" />
    <glyph glyph-name="uni04EF" unicode="&#x4ef;" horiz-adv-x="1052" 
d="M240 1206v162h563v-162h-563zM793 1004h225l-502 -1338h-233l129 338l-377 1000h225l268 -771z" />
    <glyph glyph-name="uni04F2" unicode="&#x4f2;" horiz-adv-x="1263" 
d="M995 1378h236l-651 -1378h-236l209 426l-512 952h248l379 -729zM395 1499l215 354h197l-225 -354h-187zM739 1499l224 354h215l-265 -354h-174z" />
    <glyph glyph-name="uni04F3" unicode="&#x4f3;" horiz-adv-x="1052" 
d="M258 1147l221 356h197l-234 -356h-184zM598 1147l231 356h207l-266 -356h-172zM793 1004h225l-502 -1338h-233l129 338l-377 1000h225l268 -771z" />
    <glyph glyph-name="endash" unicode="&#x2013;" horiz-adv-x="1013" 
d="M76 543v188h862v-188h-862z" />
    <glyph glyph-name="emdash" unicode="&#x2014;" horiz-adv-x="2037" 
d="M98 543v186h1844v-186h-1844z" />
    <glyph glyph-name="quoteleft" unicode="&#x2018;" horiz-adv-x="550" 
d="M139 825l84 553h178l-24 -553h-238z" />
    <glyph glyph-name="quoteright" unicode="&#x2019;" horiz-adv-x="550" 
d="M150 823l24 555h238l-84 -555h-178z" />
    <glyph glyph-name="quotesinglbase" unicode="&#x201a;" horiz-adv-x="550" 
d="M150 -332l24 555h238l-84 -555h-178z" />
    <glyph glyph-name="quotedblleft" unicode="&#x201c;" horiz-adv-x="923" 
d="M774 1378l-24 -555h-224l66 555h182zM414 1378l-62 -555h-213l84 555h191z" />
    <glyph glyph-name="quotedblright" unicode="&#x201d;" horiz-adv-x="923" 
d="M150 823l24 555h223l-65 -555h-182zM510 823l61 555h213l-84 -555h-190z" />
    <glyph glyph-name="quotedblbase" unicode="&#x201e;" horiz-adv-x="923" 
d="M150 -332l24 555h223l-65 -555h-182zM510 -332l61 555h213l-84 -555h-190z" />
    <glyph glyph-name="dagger" unicode="&#x2020;" horiz-adv-x="964" 
d="M373 369v522h-301v184h301v303h202v-303h312v-184h-312v-522h-202z" />
    <glyph glyph-name="daggerdbl" unicode="&#x2021;" horiz-adv-x="993" 
d="M373 184v283h-301v180h303v275h-303v180h301v276h202v-276h312v-180h-314v-275h314v-180h-312v-283h-202z" />
    <glyph glyph-name="bullet" unicode="&#x2022;" horiz-adv-x="784" 
d="M393 381q-121 0 -210 83t-89 208q0 126 88.5 209.5t210.5 83.5t209.5 -83t87.5 -210q0 -126 -87.5 -208.5t-209.5 -82.5z" />
    <glyph glyph-name="ellipsis" unicode="&#x2026;" horiz-adv-x="1683" 
d="M840 -25q-60 0 -102 41t-42 101q0 61 42 102t102 41q63 0 104 -40.5t41 -102.5q0 -60 -41 -101t-104 -41zM297 -25q-60 0 -101.5 41t-41.5 101q0 61 41.5 102t101.5 41q63 0 104 -40.5t41 -102.5q0 -60 -41 -101t-104 -41zM1380 -25q-60 0 -101.5 41t-41.5 101
q0 61 41.5 102t101.5 41q63 0 104.5 -40.5t41.5 -102.5q0 -60 -41.5 -101t-104.5 -41z" />
    <glyph glyph-name="perthousand" unicode="&#x2030;" horiz-adv-x="2598" 
d="M2169 -23q-152 0 -254.5 101t-102.5 250q0 150 102 250t255 100t255.5 -100.5t102.5 -249.5q0 -148 -103 -249.5t-255 -101.5zM2173 143q79 0 130.5 53t51.5 136q0 80 -52.5 132t-131.5 52q-80 0 -131 -51.5t-51 -132.5q0 -85 51 -137t133 -52zM426 700q-152 0 -254 101
t-102 250t102 249.5t254 100.5t255 -100.5t103 -249.5q0 -148 -103 -249.5t-255 -101.5zM371 0l817 1378h196l-819 -1378h-194zM428 866q80 0 132 52.5t52 134.5q0 81 -52 133.5t-132 52.5t-131 -51.5t-51 -134.5q0 -82 51 -134.5t131 -52.5zM1325 -23q-152 0 -254 101
t-102 250q0 150 101.5 250t254.5 100t255.5 -100.5t102.5 -249.5q0 -148 -103 -249.5t-255 -101.5zM1329 143q79 0 130.5 53t51.5 136q0 80 -52.5 132t-131.5 52q-80 0 -131 -51.5t-51 -132.5q0 -83 51 -136t133 -53z" />
    <glyph glyph-name="minute" unicode="&#x2032;" horiz-adv-x="550" 
d="M119 727l96 651h240l-154 -651h-182z" />
    <glyph glyph-name="second" unicode="&#x2033;" horiz-adv-x="935" 
d="M119 727l96 651h236l-146 -651h-186zM492 727l122 651h228l-154 -651h-196z" />
    <glyph glyph-name="guilsinglleft" unicode="&#x2039;" horiz-adv-x="552" 
d="M502 213h-221l-228 428l223 426h226l-221 -426z" />
    <glyph glyph-name="guilsinglright" unicode="&#x203a;" horiz-adv-x="552" 
d="M51 213l221 428l-221 426h225l224 -426l-228 -428h-221z" />
    <glyph glyph-name="fraction" unicode="&#x2044;" horiz-adv-x="477" 
d="M-250 0l801 1378h192l-800 -1378h-193z" />
    <glyph glyph-name="uni2074" unicode="&#x2074;" horiz-adv-x="706" 
d="M662 1108v-131h-91v-129h-155v129h-375v106l346 506h184v-481h91zM422 1409l-205 -301h205v301z" />
    <glyph glyph-name="Euro" unicode="&#x20ac;" horiz-adv-x="1697" 
d="M907 170q177 0 305.5 102.5t169.5 274.5h222q-40 -256 -231.5 -413t-465.5 -157q-239 0 -420.5 123.5t-255.5 329.5h-219v168h181q-7 54 -7 92q0 24 4 74h-176v168h211q71 213 255.5 341t426.5 128q275 0 466 -156.5t231 -413.5h-222q-40 172 -168 274.5t-305 102.5
q-150 0 -267.5 -74t-178.5 -202h639l-45 -168h-643q-4 -50 -4 -74q0 -46 6 -92h600l-45 -168h-500q62 -120 177 -190t259 -70z" />
    <glyph glyph-name="uni20AE" unicode="&#x20ae;" horiz-adv-x="1257" 
d="M1192 1184h-455v-332l350 109v-179l-350 -108v-182l350 106v-176l-350 -109v-313h-213v262l-348 -108v178l348 108v181l-348 -109v180l348 107v385h-456v194h1124v-194z" />
    <glyph glyph-name="uni20B4" unicode="&#x20b4;" horiz-adv-x="1171" 
d="M1110 782h-203q-70 -58 -192 -110l-146 -62h541v-159h-745q-17 -38 -17 -86q0 -95 71.5 -153t188.5 -58q106 0 180.5 47t96.5 129h209q-22 -164 -153 -259.5t-335 -95.5q-217 0 -342 105t-125 287q0 48 8 84h-86v159h191q66 55 197 111l145 61h-531v162h744q18 43 18 98
q0 80 -62 131.5t-159 51.5q-94 0 -156 -42.5t-79 -119.5h-207q20 157 138.5 247.5t301.5 90.5q192 0 310 -99t118 -260q0 -52 -12 -98h92v-162z" />
    <glyph glyph-name="uni20B8" unicode="&#x20b8;" horiz-adv-x="1257" 
d="M68 1188v190h1124v-190h-1124zM524 0v817h-456v191h1124v-191h-455v-817h-213z" />
    <glyph glyph-name="uni20BA" unicode="&#x20ba;" horiz-adv-x="1095" 
d="M846 602h192v-104q0 -243 -156.5 -370.5t-451.5 -127.5h-182v510l-187 -72v178l187 72v180l-187 -71v180l187 72v329h213v-264l366 139v-178l-366 -139v-180l366 139v-178l-366 -139v-390q190 3 287.5 87t97.5 241v86z" />
    <glyph glyph-name="uni20BD" unicode="&#x20bd;" horiz-adv-x="1206" 
d="M229 0l2 254h-165v174h165l-2 178h-163v176h163v596h486q193 0 308.5 -104t115.5 -277q0 -174 -116.5 -282.5t-305.5 -108.5h-273v-178h527v-174h-527v-254h-215zM442 782h246q109 0 171.5 56t62.5 157q0 98 -62 152.5t-172 54.5h-246v-420z" />
    <glyph glyph-name="uni2113" unicode="&#x2113;" horiz-adv-x="847" 
d="M365 379q9 -197 206 -197h168v-182h-196q-293 0 -355 244q-74 -56 -159 -111v217q13 10 65.5 47t77.5 56v553q0 192 84 294.5t242 102.5q143 0 222 -86t79 -242q0 -176 -102.5 -342.5t-331.5 -353.5zM365 1018v-406q130 121 187.5 226t57.5 213q0 161 -110 161
q-135 0 -135 -194z" />
    <glyph glyph-name="uni2116" unicode="&#x2116;" horiz-adv-x="2258" 
d="M1796 662q-160 0 -268.5 106t-108.5 264q0 157 108 263t269 106t269 -105.5t108 -263.5t-108.5 -264t-268.5 -106zM1026 358v1020h213v-1378h-229l-619 1038v-1038h-211v1378h238zM1794 1239q-89 0 -147 -58t-58 -149q0 -90 58 -149.5t147 -59.5q92 0 150.5 58.5
t58.5 150.5q0 91 -58.5 149t-150.5 58zM1489 334v174h614v-174h-614z" />
    <glyph glyph-name="trademark" unicode="&#x2122;" horiz-adv-x="1294" 
d="M39 1257v121h440v-121h-155v-419h-134v419h-151zM991 1378h187v-540h-134v372l-141 -372h-96l-145 374v-374h-132v540h193l133 -368z" />
    <glyph glyph-name="uni2126" unicode="&#x2126;" horiz-adv-x="1677" 
d="M1554 729q0 -329 -292 -543h278v-186h-594v186q385 174 385 519q0 216 -139.5 356.5t-353.5 140.5t-354 -140t-140 -357q0 -345 385 -519v-186h-592v186h269q-285 214 -285 543q0 143 55 268.5t150 214t227.5 140t282.5 51.5q202 0 366.5 -87.5t258 -242t93.5 -344.5z
" />
    <glyph glyph-name="estimated" unicode="&#x212e;" horiz-adv-x="1746" 
d="M905 -25q-215 0 -395.5 95.5t-285.5 260.5t-105 361q0 144 60 275.5t161.5 227t242 152t294.5 56.5q153 0 292.5 -56.5t240.5 -152t160.5 -227t59.5 -275.5v-24h-1175q-27 0 -27 -25v-405q0 -24 16 -35q205 -160 465 -160q157 0 295.5 58.5t239.5 168.5h86
q-113 -141 -275.5 -218t-349.5 -77zM455 733h843q10 0 17.5 7.5t7.5 17.5v391q0 17 -3 24.5t-13 14.5q-185 147 -430 147q-255 0 -433 -143q-10 -7 -13 -14.5t-3 -26.5v-393q0 -11 7.5 -18t19.5 -7z" />
    <glyph glyph-name="uni2153" unicode="&#x2153;" horiz-adv-x="1542" 
d="M190 0l801 1378h193l-801 -1378h-193zM266 1378h140v-735h-158v586l-164 -49l-35 131zM1368 389q102 -54 102 -164q0 -100 -76 -167.5t-190 -67.5q-129 0 -205 66t-81 182h151q3 -49 40 -81t91 -32q49 0 81 27.5t32 70.5q0 49 -31 76t-88 27h-72v118h70q96 0 96 88
q0 43 -27.5 68t-74.5 25q-43 0 -75.5 -27.5t-35.5 -67.5h-149q3 98 77.5 162t186.5 64q114 0 186 -61t72 -156q0 -98 -80 -150z" />
    <glyph glyph-name="uni2154" unicode="&#x2154;" horiz-adv-x="1783" 
d="M434 0l801 1378h192l-800 -1378h-193zM254 774h381v-131h-565v51q0 77 53 144.5t172 138.5q102 61 137 97t35 79q0 51 -31 81t-84 30q-50 0 -81 -35t-31 -90h-156q0 113 76.5 186.5t193.5 73.5q121 0 198 -67t77 -171q0 -75 -49 -134.5t-183 -145.5q-109 -67 -143 -107z
M1610 389q102 -54 102 -164q0 -100 -76 -167.5t-190 -67.5q-129 0 -206 66.5t-81 181.5h152q3 -49 40 -81t91 -32q49 0 80.5 27.5t31.5 70.5q0 50 -30.5 76.5t-87.5 26.5h-72v118h70q96 0 96 88q0 43 -28 68t-75 25q-43 0 -75 -27.5t-35 -67.5h-150q3 98 78 162t187 64
q114 0 186 -61t72 -156q0 -98 -80 -150z" />
    <glyph glyph-name="partialdiff" unicode="&#x2202;" horiz-adv-x="1181" 
d="M592 1403q245 0 373.5 -165t128.5 -476q0 -364 -155.5 -576.5t-422.5 -212.5q-199 0 -321.5 113.5t-122.5 298.5q0 218 130.5 338.5t366.5 120.5q169 0 308 -43q-12 413 -293 413q-91 0 -153.5 -46.5t-76.5 -123.5h-204q15 160 137.5 259.5t304.5 99.5zM524 164
q144 0 234 121t112 342q-128 41 -278 41q-147 0 -226 -70t-79 -199q0 -110 63.5 -172.5t173.5 -62.5z" />
    <glyph glyph-name="uni2206" unicode="&#x2206;" horiz-adv-x="1370" 
d="M803 1378l454 -1196v-182h-1144l2 182l458 1196h230zM688 1157l-346 -969h694z" />
    <glyph glyph-name="product" unicode="&#x220f;" horiz-adv-x="1415" 
d="M180 -254v1632h1057v-1632h-215v1438h-627v-1438h-215z" />
    <glyph glyph-name="summation" unicode="&#x2211;" horiz-adv-x="1046" 
d="M344 -61h645v-193h-913v141l448 691l-448 659v141h889v-192h-615l381 -543v-127z" />
    <glyph glyph-name="minus" unicode="&#x2212;" horiz-adv-x="1187" 
d="M109 598v188h968v-188h-968z" />
    <glyph glyph-name="uni2219" unicode="&#x2219;" horiz-adv-x="552" 
d="M274 565q-60 0 -101.5 41t-41.5 101q0 61 41.5 102t101.5 41q63 0 104.5 -40.5t41.5 -102.5q0 -60 -41.5 -101t-104.5 -41z" />
    <glyph glyph-name="radical" unicode="&#x221a;" horiz-adv-x="1474" 
d="M1272 1536h215l-995 -1808h-179v680h-276v184h459v-492z" />
    <glyph glyph-name="infinity" unicode="&#x221e;" horiz-adv-x="1748" 
d="M1292 1059q179 0 288.5 -108.5t109.5 -286.5q0 -175 -108 -283.5t-286 -108.5q-72 0 -134.5 18.5t-113.5 54.5t-90 75t-81 92q-41 -53 -80 -92t-90.5 -75t-115 -54.5t-136.5 -18.5q-179 0 -287.5 107.5t-108.5 284.5q0 179 109 287t289 108q71 0 133.5 -18.5t113.5 -53.5
t90 -74t80 -92q88 112 185.5 175t232.5 63zM475 465q84 0 149 52t138 151q-72 97 -137.5 147.5t-151.5 50.5q-92 0 -149.5 -54t-57.5 -144q0 -92 58 -147.5t151 -55.5zM1278 465q92 0 149.5 56t57.5 147q0 90 -58 144t-151 54q-84 0 -149 -50.5t-138 -147.5q36 -48 64 -79.5
t64.5 -62.5t76.5 -46t84 -15z" />
    <glyph glyph-name="integral" unicode="&#x222b;" horiz-adv-x="663" 
d="M2 -254v191h102q99 0 151 50t52 148q0 100 -41.5 322.5t-83 451.5t-41.5 344q0 170 96.5 260.5t276.5 90.5h150v-191h-101q-105 0 -155 -48.5t-50 -152.5q2 -95 43.5 -318t82 -452.5t40.5 -345.5q0 -165 -98 -257.5t-274 -92.5h-150z" />
    <glyph glyph-name="approxequal" unicode="&#x2248;" horiz-adv-x="1187" 
d="M817 750q-52 0 -103 16t-143 59q-96 45 -139 59.5t-78 14.5q-87 0 -229 -84v197q76 50 128 69t116 19q51 0 101 -16t144 -60q97 -45 139 -59.5t78 -14.5q88 0 230 84v-196q-76 -50 -128 -69t-116 -19zM817 301q-51 0 -102 16t-144 60q-96 45 -139 59.5t-78 14.5
q-87 0 -229 -84v196q76 50 128 69t116 19q51 0 101 -16t144 -60q96 -44 138 -58.5t79 -14.5q88 0 230 84v-197q-76 -50 -128 -69t-116 -19z" />
    <glyph glyph-name="notequal" unicode="&#x2260;" horiz-adv-x="1187" 
d="M125 823v187h516l121 223h192l-120 -223h231v-187h-332l-135 -254h467v-184h-567l-113 -211h-192l112 211h-180v184h281l135 254h-416z" />
    <glyph glyph-name="lessequal" unicode="&#x2264;" horiz-adv-x="1187" 
d="M1059 1296v-200l-656 -222l656 -223v-200l-938 346v153zM1059 94h-924v185h924v-185z" />
    <glyph glyph-name="greaterequal" unicode="&#x2265;" horiz-adv-x="1187" 
d="M129 1296l938 -346v-153l-938 -346v200l655 223l-655 222v200zM129 94v185h924v-185h-924z" />
    <glyph glyph-name="lozenge" unicode="&#x25ca;" horiz-adv-x="1067" 
d="M584 1378l458 -696l-458 -682h-101l-458 682l458 696h101zM539 246l276 436l-283 446l-280 -446z" />
    <glyph glyph-name="uniF8FF" unicode="&#xf8ff;" horiz-adv-x="2471" 
d="M1397 -158l22 6l-24 -4q151 35 252 133q1 0 6 5v2q14 14 41.5 47t27.5 41q-17 -12 -40 -43t-37 -43q14 16 14 20h-4v2l-8 -4q-96 -83 -183.5 -120.5t-206.5 -37.5q-54 0 -91 10.5t-117 45.5q4 -1 36.5 -13t49.5 -16q17 -3 22 -2q-14 4 -86 33q62 -11 92 -4
q-116 3 -182 69q29 -18 45 -20q-45 28 -84 67q85 -71 215 -71q98 0 201 41q-91 -5 -232 37l48 -29q0 -3 -19 1.5t-43.5 13t-38.5 16.5l-16 10l-2 2q21 11 59 16q2 -2 4 -2h31q9 0 17 2t12 4.5t10.5 6.5t9.5 6l6 2q4 0 4 -2q41 -35 95 -35q14 2 22 6.5t8.5 9t-0.5 8.5
q0 3 2 7t4 4q8 0 16.5 6t8.5 12q100 23 145 94q-18 -12 -26 -12q-6 0 -6 4q0 9 43 35q26 15 43.5 36t24.5 34.5t19.5 48t18.5 49.5q-23 4 -57 4q-39 1 -88.5 -9.5t-98.5 -25.5t-65 -18q0 -6 -14 -6q-4 0 -7 -3h-20v3q0 12 14 14l58 20h6q0 4 4 4l8 2q3 0 8 5l6 4l15 4h4
q4 1 22 10q1 0 5 1t6 1l41 4h2q10 0 16 2q3 3 6 0h2q2 2 4 2q2 2 6 2l2 -2q2 2 5 2h14q4 0 6 4h10q2 0 17 5q20 8 28 14q5 0 6 4q1 1 -2 2q-3 0 -9.5 1t-10.5 1h-19q-10 0 -14 -2q-2 0 -5 -1t-5 -1h-6q-5 1 -9.5 3t-8 4t-9.5 6t-10 7q-12 7 -14 7l-9 -2q-3 0 -6 -3l-22 -6
l-29 -4h-4q-4 0 -10.5 2t-10.5 2q-2 0 -13.5 -5t-14.5 -5t-8.5 -2t-8.5 -2t-17.5 -4t-16.5 -4q-1 1 -3 2q-1 0 -1.5 0.5t-0.5 1.5q4 11 63.5 34t74.5 21q4 -1 -5 -6q-18 -10 -18 -12h4q4 0 23.5 4.5t30.5 5.5q26 0 36 -2h13q21 0 28 14q0 2 -6 2h-8q-2 -2 -6 -2l-10 -2
q-13 0 -17 2q-4 4 -37 4q-2 0 -2 2t41 2l27 7l20 2q2 2 10 2t9 -2q7 -2 17.5 -0.5t10.5 4.5t-16 8q-2 2 -43 2q-1 0 -2 -1t-2 -1h-4q-51 -1 -53 -6q-2 0 -2 2q0 3 19 7.5t24 2.5q-4 4 -27 4q-164 0 -303 -71l-2 -3l-12 13q-43 49 -80 86q-32 32 -72.5 58.5t-62.5 29.5
q75 71 174.5 112t195.5 41q157 0 273 -73q-84 49 -203 49q-76 0 -125 -19q47 9 102 9q89 0 166.5 -26.5t130.5 -74.5q-36 22 -54 29t-58 18q116 -38 176.5 -142t60.5 -228q0 -182 -108 -314q-57 -67 -119.5 -108t-159.5 -64l8 4q-20 -4 -24 -4zM207 -18l-39 6q3 33 16 49
q13 0 21 8q9 9 16 23q36 15 47 34l25 48l2 2l33 2l28 10q0 1 9 10q7 11 4 16l-15 41l-4 60q0 4 -4 4q-37 -9 -67 -6q-39 5 -64 30t-25 64q0 25 14.5 48t31.5 37t32.5 27t16.5 19q0 6 -9 10q-13 3 -26.5 3t-20.5 3q-20 6 -34 23t-17 39q0 20 8 31l54 -27q63 -15 79 -31
q11 -18 11 -35q0 -18 -16 -36.5t-35.5 -33t-35.5 -35t-16 -40.5q0 -61 64 -61q33 0 88 32q77 57 90 60q11 4 35 6t35 6q12 2 22 8.5t39 32.5q27 24 72 27q22 2 74 35t83 42l64 35q24 8 39 8q19 0 31 -6q50 -18 121.5 -87t111.5 -134q9 -17 12 -41q9 -81 39 -155l21 -23
l67 -74q2 0 2 -2l-4 -4q-34 -6 -71 37q-18 40 -45 49q-3 0 -3 -2q1 -3 6.5 -9t6.5 -9q18 -35 20 -43q3 -19 37 -37l21 -10q5 -6 2 -9l-4 -2q-54 0 -89 35q-6 12 -20 12q-25 -25 -49 -28q-6 2 -27 2t-49 -10.5t-39 -10.5q-19 0 -22 13v41l10 14q0 4 -4 4q-12 6 -15 6
q0 8 31 39q6 23 21 41l-4 4q-30 -9 -50 -6q-23 -15 -47 -8q-2 2 -2 8q25 39 19 84q-2 4 -6 4q-3 0 -7 -4q-8 -52 -22 -74q-2 -2 -1 -3l-5 -2l-35 -9q-8 -4 -8 -10l10 -25l33 -57q0 -10 -11 -49q3 -4 7 0q13 10 24 38q0 15 -4 21l-33 63l11 7l22 -7q10 -32 29 -57q4 -6 4 -20
q0 -13 -4 -17q-17 -30 -25 -41q-8 -8 -33 -8h-10q-41 -23 -92 -35q-4 -2 -14 -2q-19 0 -27 8q-4 3 -22 33q-4 6 -17 6q-10 0 -16 2l-25 43q0 3 4 11q20 4 35 4h8q14 0 23 -9q4 -5 11.5 -19t14.5 -21.5t17 -12.5h6q23 0 43 10q18 13 18 25q-3 29 -32 51q-32 14 -56 41
q-4 6 -8 18t-4 13q-6 6 -10 2q-4 0 -2 -8.5t2 -9.5q2 -4 -2 -17q-4 -4 -17 -4q-2 0 -49 1t-49 -1q-7 0 -23.5 -2t-23.5 -2q-20 0 -31 8l-8 8q-4 8 -4 27q0 21 8 57q0 4 -8 4q-4 4 -10 -2q-3 -14 -7.5 -42t-7.5 -42q-16 -36 -51 -53q-28 -15 -71 -18q-85 0 -119 -51
q-6 -12 -6 -19h6q47 50 121 47q51 0 73 9t45 38l19 27q2 2 12 -8l-14 -33q-12 -28 -27 -37q-9 -2 -41 -20q-17 -7 -31 -7q-10 0 -16 3q-29 4 -35 4q-15 0 -33 -7q-5 -3 -14 -11t-14 -11q-38 -18 -39 -17q0 1 -2 1q-23 5 -27 5t-8 -5l-31 -39q-8 -4 -18 -4zM1352 877v501h170
q159 0 159 -129q0 -56 -43 -102q46 -22 66 -51t20 -76q0 -60 -44 -101.5t-107 -41.5h-221zM1014 872q-63 0 -106.5 47.5t-43.5 116.5q0 68 43.5 116t106.5 48q57 0 98 -41v248h102v-533h-100v41q-43 -43 -100 -43zM127 877v501h192q63 0 106.5 -43t43.5 -106
q0 -51 -33 -92.5t-82 -51.5l148 -208h-125l-107 163v121h25q29 0 49.5 19t20.5 47q0 26 -19.5 44.5t-48.5 18.5h-64v-413h-106zM653 864q-68 0 -117 49.5t-49 118.5t49 118.5t117 49.5q73 0 117.5 -46.5t44.5 -121.5v-20h-223q0 -1 1 -2t1 -2q0 -26 20 -45t48 -19
q20 0 38 11t25 28l80 -39q-22 -37 -62.5 -58.5t-89.5 -21.5zM1923 215v410h-176v82h440v-82h-178v-410h-86zM2103 215v371h84v-246l111 166q41 62 41 121q0 53 -43 80q41 0 77 -33.5t40 -77.5q3 -62 -46 -133l-155 -234q-11 -14 -27 -14h-82zM1919 860q-72 0 -115 34.5
t-43 94.5v195h99v-180q0 -28 15.5 -43t43.5 -15q55 0 55 58v180h101v-195q0 -58 -42.5 -93.5t-113.5 -35.5zM2298 874v529h102v-529h-102zM2130 874v529h100v-529h-100zM1458 963h96q29 1 45.5 18.5t18.5 46.5q0 28 -19 47t-45 19h-63v90h35q51 0 51 55q0 22 -14.5 37.5
t-36.5 15.5h-68v-329zM1042 952q30 0 51 24t21 58q0 32 -21.5 55t-50.5 23q-31 0 -53 -23t-22 -55q0 -34 21.5 -58t53.5 -24zM594 1069h123q0 25 -19 42t-45 17q-25 0 -42 -17t-17 -42zM1552 178q10 5 19 0q6 7 23.5 21.5t25.5 27.5q18 29 31 82l-2 -2q0 -4 -6 -15t-15 -11
q-12 0 -12 6q-5 -18 -27.5 -42t-27.5 -36q4 -4 4 -6q0 -3 -6.5 -12t-6.5 -13zM1188 227q2 -2 4 0q3 0 6 6l2 3v4q2 4 2 14q0 23 -20 43l-6 6l-5 8q-4 7 -12 13q-9 6 -16 -7l-2 -6v-2l-4 -8l-4 -8l-7 -6q0 -2 -1 -6.5t-1 -6.5q0 -4 2 -6v-2q7 0 7 2l4 6l6 5q2 4 10 8
q7 0 12 -8q7 -7 9 -7l4 -8q6 -3 6 -14l2 -14v-5q0 -2 2 -4zM807 70q-4 4 -8 15.5t-8 16.5q-1 4 -7.5 8t-5.5 7l4 4q27 0 41 2q6 0 9 -4.5t4.5 -12t3.5 -10.5q1 -2 3 -5.5t2 -5t-1 -5.5q-21 -12 -37 -10zM147 -14l-28 8v8q5 5 6.5 9.5t2.5 15t1 12.5q3 9 14 16q10 -3 19 -16
v-4q-3 -7 -7.5 -24.5t-7.5 -24.5zM979 406h6v2q4 16 4 28q0 20 -6 35q-9 13 -18 18q-7 4 -13 -2q-3 -5 2 -16l4 -4v-2l5 -8q5 -9 10 -28t6 -23zM172 57q-6 6 -6 11q0 12 2 14q22 13 29 22h10q8 -8 10 -14q-19 -28 -29 -33q-8 -3 -16 0zM1389 395l-5 8q2 2 25 13q17 7 53 10
l-4 -2q-12 -6 -23.5 -12t-16 -8t-11 -5t-7.5 -3t-5.5 -1.5t-5.5 0.5zM1116 123h14q13 0 19 2q6 4 6 18v7q0 2 -4 6h-4l-33 -27q0 -1 1 -3t1 -3z" />
    <glyph glyph-name="CR" horiz-adv-x="559" 
 />
    <glyph glyph-name="Iacute_J.loclNLD" horiz-adv-x="1323" 
d="M602 0v195h133q100 0 147.5 43.5t47.5 132.5v1007h215v-1030q0 -170 -96 -259t-279 -89h-168zM930 1499l180 354h252l-236 -354h-196zM180 0v1378h215v-1378h-215zM184 1499l181 354h251l-235 -354h-197z" />
    <glyph glyph-name="Idotaccent.loclTRK" horiz-adv-x="573" 
d="M180 0v1378h215v-1378h-215zM287 1518q-60 0 -103 40.5t-43 100.5q0 58 43 98.5t103 40.5q61 0 103 -40t42 -99q0 -60 -41.5 -100.5t-103.5 -40.5z" />
    <glyph glyph-name="A.ordn" horiz-adv-x="874" 
d="M651 551l-57 172h-315l-58 -172h-186l299 827h205l301 -827h-189zM438 1219l-112 -355h223z" />
    <glyph glyph-name="C.ordn" horiz-adv-x="989" 
d="M504 537q-191 0 -316 122t-125 308t125 306t316 120q171 0 289 -96.5t137 -249.5h-187q-20 83 -85.5 132.5t-153.5 49.5q-109 0 -182.5 -74.5t-73.5 -187.5q0 -114 73.5 -189.5t182.5 -75.5q88 0 153.5 50.5t85.5 134.5h187q-22 -157 -139.5 -253.5t-286.5 -96.5z" />
    <glyph glyph-name="D.ordn" horiz-adv-x="935" 
d="M117 551v827h305q201 0 326.5 -114t125.5 -297t-126.5 -299.5t-325.5 -116.5h-305zM297 711h123q122 0 195 69.5t73 186.5q0 115 -73 183.5t-195 68.5h-123v-508z" />
    <glyph glyph-name="E.ordn" horiz-adv-x="692" 
d="M117 551v827h501v-155h-321v-172h309v-148h-309v-196h334v-156h-514z" />
    <glyph glyph-name="G.ordn" horiz-adv-x="993" 
d="M512 1006h393v-261q-57 -98 -162 -153t-233 -55q-196 0 -322.5 122t-126.5 310q0 185 125 304.5t318 119.5q157 0 265.5 -79.5t133.5 -211.5h-188q-23 61 -78.5 93t-128.5 32q-117 0 -188.5 -72t-71.5 -188q0 -117 73.5 -192t190.5 -75q65 0 121 23.5t92 64.5v70h-213
v148z" />
    <glyph glyph-name="H.ordn" horiz-adv-x="901" 
d="M117 551v827h180v-315h307v315h180v-827h-180v352h-307v-352h-180z" />
    <glyph glyph-name="I.ordn" horiz-adv-x="413" 
d="M117 551v827h180v-827h-180z" />
    <glyph glyph-name="J.ordn" horiz-adv-x="493" 
d="M18 551v160h88q48 0 70.5 21.5t22.5 68.5v577h178v-598q0 -229 -250 -229h-109z" />
    <glyph glyph-name="K.ordn" horiz-adv-x="800" 
d="M793 551h-209l-287 389v-389h-180v827h180v-350l266 350h209l-303 -393z" />
    <glyph glyph-name="M.ordn" horiz-adv-x="1105" 
d="M752 1378h237v-827h-176v545l-192 -545h-138l-190 549v-549h-176v827h235l201 -583z" />
    <glyph glyph-name="N.ordn" horiz-adv-x="901" 
d="M606 1378h178v-827h-188l-301 528v-528h-178v827h188l301 -532v532z" />
    <glyph glyph-name="P.ordn" horiz-adv-x="741" 
d="M117 551v827h286q138 0 216.5 -71.5t78.5 -194.5q0 -122 -79 -193t-216 -71h-106v-297h-180zM297 1001h102q56 0 87.5 29t31.5 82q0 52 -31.5 81.5t-87.5 29.5h-102v-222z" />
    <glyph glyph-name="R.ordn" horiz-adv-x="794" 
d="M756 551h-207l-172 297h-80v-297h-180v827h286q138 0 216.5 -71.5t78.5 -194.5q0 -81 -36.5 -141.5t-102.5 -91.5zM297 1223v-222h102q56 0 87.5 29t31.5 82q0 52 -31.5 81.5t-87.5 29.5h-102z" />
    <glyph glyph-name="S.ordn" horiz-adv-x="708" 
d="M356 537q-140 0 -221.5 72.5t-85.5 203.5h174q6 -133 133 -133q55 0 87 25t32 71q0 34 -19.5 53.5t-72.5 38.5l-107 39q-198 72 -198 246q0 110 76.5 175t203.5 65q125 0 198.5 -66t82.5 -188h-174q-6 110 -107 110q-47 0 -75.5 -23t-28.5 -65q0 -35 21.5 -57.5
t68.5 -40.5l109 -39q200 -70 200 -240q0 -115 -79.5 -181t-217.5 -66z" />
    <glyph glyph-name="T.ordn" horiz-adv-x="712" 
d="M260 551v666h-219v161h629v-161h-232v-666h-178z" />
    <glyph glyph-name="U.ordn" horiz-adv-x="882" 
d="M442 537q-153 0 -244.5 92.5t-91.5 247.5v501h181v-501q0 -80 41.5 -127.5t111.5 -47.5q72 0 114 46.5t42 128.5v501h180v-501q0 -156 -90.5 -248t-243.5 -92z" />
    <glyph glyph-name="Z.ordn" horiz-adv-x="720" 
d="M270 709h389v-158h-596v145l377 523h-362v159h577v-145z" />
    <glyph glyph-name="iacute_j.loclNLD" horiz-adv-x="1040" 
d="M154 0v1004h211v-1004h-211zM152 1147l186 356h240l-230 -356h-196zM436 -334v180h68q92 0 132 39.5t40 128.5v990h211v-1008q0 -161 -85.5 -245.5t-246.5 -84.5h-119zM674 1147l186 356h240l-230 -356h-196z" />
    <glyph glyph-name="i.loclTRK.loclTRK" horiz-adv-x="520" 
d="M154 0v1004h211v-1004h-211zM260 1210q-58 0 -96.5 38t-38.5 95t38 93.5t97 36.5q57 0 95 -36.5t38 -93.5t-38 -95t-95 -38z" />
    <glyph glyph-name="uni0414.loclBGR" horiz-adv-x="1492" 
d="M1313 195h133v-451h-203v256h-995v-256h-201v451h137l447 1183h235zM752 1122l-338 -927h673z" />
    <glyph glyph-name="uni041B.loclBGR" horiz-adv-x="1312" 
d="M1260 0h-234l-362 1100l-375 -1100h-234l492 1378h229z" />
    <glyph glyph-name="uni0413.ordn" horiz-adv-x="626" 
d="M117 1378h479v-161h-299v-666h-180v827z" />
    <glyph glyph-name="uni0415.ordn" horiz-adv-x="692" 
d="M117 551v827h501v-155h-321v-172h309v-148h-309v-196h334v-156h-514z" />
    <glyph glyph-name="uni0419.ordn" horiz-adv-x="901" 
d="M451 1444q-116 0 -184 59.5t-68 161.5h135q0 -48 30.5 -75t86.5 -27q55 0 84.5 27t29.5 75h135q0 -103 -66.5 -162t-182.5 -59zM602 1378h182v-827h-178v549l-309 -549h-180v827h178v-542z" />
    <glyph glyph-name="uni041C.ordn" horiz-adv-x="1105" 
d="M752 1378h237v-827h-176v545l-192 -545h-138l-190 549v-549h-176v827h235l201 -583z" />
    <glyph glyph-name="uni041E.ordn" horiz-adv-x="1007" 
d="M504 537q-192 0 -317.5 121t-125.5 307t125.5 307t317.5 121t318 -121t126 -307t-126 -307t-318 -121zM502 702q112 0 184 74.5t72 190.5q0 113 -72 186.5t-184 73.5q-111 0 -183.5 -73t-72.5 -187q0 -116 72 -190.5t184 -74.5z" />
    <glyph glyph-name="uni0425.ordn" horiz-adv-x="831" 
d="M793 551h-205l-172 301l-172 -301h-205l262 426l-248 401h203l162 -274l153 274h205l-244 -403z" />
    <glyph glyph-name="uni042F.ordn" horiz-adv-x="792" 
d="M377 1378h301v-827h-180v287h-86l-166 -287h-207l192 313q-72 31 -111.5 94t-39.5 150q0 123 79.5 196.5t217.5 73.5zM498 987v236h-115q-58 0 -89.5 -31.5t-31.5 -87.5q0 -55 31 -86t90 -31h115z" />
    <glyph glyph-name="uni0432.loclBGR" horiz-adv-x="1179" 
d="M864 750q110 -43 171 -135t61 -220q0 -186 -133.5 -302t-346.5 -116q-220 0 -346.5 125t-126.5 342v506q0 212 118 331.5t325 119.5q188 0 303 -98t115 -259q0 -194 -140 -294zM575 1214q-107 0 -165 -66.5t-58 -189.5v-147h191q120 0 184 53.5t64 153.5q0 92 -58 144
t-158 52zM612 164q123 0 196 64t73 173q0 107 -79.5 169.5t-215.5 62.5h-234v-191q0 -135 67.5 -206.5t192.5 -71.5z" />
    <glyph glyph-name="uni0433.loclBGR" horiz-adv-x="921" 
d="M446 -23q-177 0 -278.5 80.5t-101.5 218.5q0 208 258 293l180 58q59 19 83.5 44t24.5 68q0 51 -40.5 81t-108.5 30q-69 0 -114.5 -32.5t-53.5 -86.5h-203q10 136 110.5 216.5t258.5 80.5q160 0 259 -81t99 -212q0 -211 -250 -291l-176 -57q-65 -20 -92 -46.5t-27 -68.5
q0 -57 44 -86.5t128 -29.5q88 0 141.5 39.5t59.5 111.5h207q-9 -152 -119 -241t-289 -89z" />
    <glyph glyph-name="uni0453.loclBGR" horiz-adv-x="921" 
d="M446 -23q-177 0 -278.5 80.5t-101.5 218.5q0 208 258 293l180 58q59 19 83.5 44t24.5 68q0 51 -40.5 81t-108.5 30q-69 0 -114.5 -32.5t-53.5 -86.5h-203q10 136 110.5 216.5t258.5 80.5q160 0 259 -81t99 -212q0 -211 -250 -291l-176 -57q-65 -20 -92 -46.5t-27 -68.5
q0 -57 44 -86.5t128 -29.5q88 0 141.5 39.5t59.5 111.5h207q-9 -152 -119 -241t-289 -89zM350 1147l187 356h239l-229 -356h-197z" />
    <glyph glyph-name="uni0491.loclBGR" horiz-adv-x="921" 
d="M446 -23q-177 0 -278.5 80.5t-101.5 218.5q0 208 258 293l180 58q59 19 83.5 44t24.5 68q0 51 -40.5 81t-108.5 30q-69 0 -114.5 -32.5t-53.5 -86.5h-203q7 110 76 185t182 100v239h205v-235q121 -23 192.5 -99.5t71.5 -185.5q0 -211 -250 -291l-176 -57
q-65 -20 -92 -46.5t-27 -68.5q0 -57 44 -86.5t128 -29.5q88 0 141.5 39.5t59.5 111.5h207q-9 -152 -119 -241t-289 -89z" />
    <glyph glyph-name="uni0434.loclBGR" horiz-adv-x="1288" 
d="M938 1006h197v-887q0 -227 -141 -351t-382 -124q-207 0 -334 85.5t-157 235.5h211q27 -71 99 -110t185 -39q144 0 226 73t82 217v87q-56 -76 -147.5 -120t-198.5 -44q-204 0 -345 144.5t-141 356.5t140.5 355t349.5 143q115 0 209 -46.5t147 -127.5v152zM621 209
q135 0 221 89.5t86 231.5q0 141 -85 228.5t-222 87.5q-139 0 -228.5 -88.5t-89.5 -225.5q0 -139 90.5 -231t227.5 -92z" />
    <glyph glyph-name="uni0436.loclBGR" horiz-adv-x="1443" 
d="M1464 0h-243l-394 475v-475h-211v473l-393 -473h-241l430 526l-400 478h238l366 -437v811h211v-815l371 441h238l-404 -478z" />
    <glyph glyph-name="uni0437.loclBGR" horiz-adv-x="999" 
d="M707 369q104 -43 160.5 -128t56.5 -204q0 -178 -123 -285.5t-322 -107.5q-189 0 -303 100.5t-127 280.5h205q6 -91 65.5 -142t157.5 -51q108 0 172 62t64 167q0 98 -70.5 156.5t-189.5 58.5h-121v175h119q103 0 165 53.5t62 142.5q0 92 -54 143.5t-151 51.5
q-93 0 -146.5 -49t-60.5 -142h-205q12 173 125.5 275t296.5 102q181 0 292.5 -98.5t111.5 -257.5q0 -102 -47 -180t-133 -123z" />
    <glyph glyph-name="uni0438.loclBGR" horiz-adv-x="1165" 
d="M799 1004h213v-1004h-197v100q-109 -125 -301 -125q-168 0 -269.5 110t-101.5 292v627h211v-601q0 -105 59.5 -169t157.5 -64q100 0 164 65t64 168v601z" />
    <glyph glyph-name="uni0439.loclBGR" horiz-adv-x="1165" 
d="M799 1004h213v-1004h-197v100q-109 -125 -301 -125q-168 0 -269.5 110t-101.5 292v627h211v-601q0 -105 59.5 -169t157.5 -64q100 0 164 65t64 168v601zM580 1149q-155 0 -242.5 90t-87.5 248h166q0 -187 164 -187q161 0 161 187h168q0 -159 -87 -248.5t-242 -89.5z" />
    <glyph glyph-name="uni045D.loclBGR" horiz-adv-x="1165" 
d="M477 1147l-229 356h244l182 -356h-197zM799 1004h213v-1004h-197v100q-109 -125 -301 -125q-168 0 -269.5 110t-101.5 292v627h211v-601q0 -105 59.5 -169t157.5 -64q100 0 164 65t64 168v601z" />
    <glyph glyph-name="uni043A.loclBGR" horiz-adv-x="1005" 
d="M1026 0h-256l-405 455v-455h-211v1378h211v-819l372 445h244l-406 -492z" />
    <glyph glyph-name="uni045C.loclBGR" horiz-adv-x="1005" 
d="M506 1147l186 356h240l-230 -356h-196zM1026 0h-256l-405 455v-455h-211v1378h211v-819l372 445h244l-406 -492z" />
    <glyph glyph-name="uni043B.loclBGR" horiz-adv-x="1048" 
d="M791 0l-263 766l-268 -766h-225l377 1004h229l375 -1004h-225z" />
    <glyph glyph-name="uni043F.loclBGR" horiz-adv-x="1165" 
d="M651 1028q169 0 270 -109t101 -290v-629h-213v600q0 106 -58.5 170t-156.5 64q-100 0 -164.5 -65.5t-64.5 -168.5v-600h-211v1004h196v-101q109 125 301 125z" />
    <glyph glyph-name="uni0442.loclBGR" horiz-adv-x="1785" 
d="M1260 1028q181 0 281.5 -105t100.5 -294v-629h-210v600q0 107 -55.5 170.5t-149.5 63.5q-95 0 -159 -63.5t-64 -158.5v-612h-211v600q0 107 -56 170.5t-151 63.5q-98 0 -159.5 -65.5t-61.5 -168.5v-600h-211v1004h196v-99q105 123 291 123q98 0 174.5 -41t122.5 -117
q55 74 139 116t183 42z" />
    <glyph glyph-name="uni0447.loclBGR" horiz-adv-x="1138" 
d="M760 1004h211v-1004h-211v332q-116 -33 -209 -33q-215 0 -330 116.5t-115 334.5v254h211v-238q0 -134 66 -203t195 -69q91 0 182 32v478z" />
    <glyph glyph-name="uni0446.loclBGR" horiz-adv-x="1236" 
d="M1116 184h58v-440h-199v264q-87 18 -135 90q-111 -123 -320 -123q-169 0 -273 111t-104 291v627h211v-601q0 -106 58.5 -169.5t156.5 -63.5q100 0 164 65t64 168v601h213v-693q0 -66 25.5 -96.5t80.5 -30.5z" />
    <glyph glyph-name="uni0448.loclBGR" horiz-adv-x="1798" 
d="M526 -25q-181 0 -282 105.5t-101 294.5v629h211v-601q0 -107 55.5 -170t149.5 -63q95 0 159 63t64 158v613h211v-601q0 -107 56 -170t151 -63q98 0 159.5 65t61.5 168v601h211v-1004h-196v98q-105 -123 -291 -123q-98 0 -174.5 41t-122.5 117q-55 -74 -139 -116t-183 -42
z" />
    <glyph glyph-name="uni0449.loclBGR" horiz-adv-x="1859" 
d="M1739 184h57v-440h-201v264q-87 21 -133 90q-104 -123 -286 -123q-107 0 -190.5 42.5t-131.5 119.5q-57 -76 -146 -119t-200 -43q-167 0 -266 109t-99 293v627h211v-601q0 -106 55 -169.5t150 -63.5t158 63t63 158v613h213v-601q0 -107 56 -170t151 -63q98 0 159.5 65
t61.5 168v601h211v-693q0 -67 25.5 -97t81.5 -30z" />
    <glyph glyph-name="uni044C.loclBGR" horiz-adv-x="1034" 
d="M354 711h187q193 0 309.5 -98t116.5 -261q0 -169 -109.5 -273t-292.5 -104q-196 0 -309 117t-113 314v598h211v-293zM565 164q94 0 142.5 49t48.5 137t-59 136.5t-165 48.5h-180v-140q0 -111 53 -171t160 -60z" />
    <glyph glyph-name="uni044A.loclBGR" horiz-adv-x="1114" 
d="M645 -25q-197 0 -309.5 117t-112.5 314v415h-248v183h459v-293h187q192 0 307.5 -98t115.5 -261q0 -169 -108 -273t-291 -104zM643 164q94 0 142.5 49t48.5 137t-58.5 136.5t-163.5 48.5h-182v-140q0 -111 53.5 -171t159.5 -60z" />
    <glyph glyph-name="uni044B.loclBGR" horiz-adv-x="1482" 
d="M354 711h187q193 0 309.5 -98t116.5 -261q0 -169 -109.5 -273t-292.5 -104q-196 0 -309 117t-113 314v598h211v-293zM565 164q94 0 142.5 49t48.5 137t-59 136.5t-165 48.5h-180v-140q0 -111 53 -171t160 -60zM1104 0v1004h211v-1004h-211z" />
    <glyph glyph-name="uni044E.loclBGR" horiz-adv-x="1722" 
d="M1102 -25q-207 0 -355.5 130.5t-175.5 328.5h-192v-434h-211v1378h211v-760h201q39 180 183 295t339 115q224 0 378 -151.5t154 -372.5q0 -146 -70 -267.5t-192.5 -191.5t-269.5 -70zM1102 168q138 0 228.5 95t90.5 241q0 145 -90.5 239.5t-228.5 94.5t-229 -94.5
t-91 -239.5q0 -146 91 -241t229 -95z" />
    <glyph glyph-name="uni0431.loclSRB" horiz-adv-x="1179" 
d="M504 1065l276 -152q160 -89 237 -202t77 -256q0 -211 -140.5 -344.5t-361.5 -133.5q-222 0 -364 131.5t-142 340.5q0 175 103 296.5t251 155.5l-78 43q-174 91 -174 230q0 86 71.5 145t184.5 59h547v-178h-477q-47 0 -71.5 -9.5t-24.5 -41.5q0 -17 9.5 -30t20.5 -20.5
t46 -27.5q6 -4 10 -6zM592 160q122 0 206.5 85.5t84.5 209.5q0 123 -83 203.5t-208 80.5t-211 -82t-86 -206q0 -125 82.5 -208t214.5 -83z" />
    <glyph glyph-name="uni0438.loclSRB" horiz-adv-x="1200" 
d="M821 1004h211v-1004h-211v582l-442 -426v-156h-211v1004h211v-588l442 426v162z" />
    <glyph glyph-name="Eta.ordn" horiz-adv-x="901" 
d="M117 551v827h180v-315h307v315h180v-827h-180v352h-307v-352h-180z" />
    <glyph glyph-name="Nu.ordn" horiz-adv-x="901" 
d="M606 1378h178v-827h-188l-301 528v-528h-178v827h188l301 -532v532z" />
    <glyph glyph-name="Omicron.ordn" horiz-adv-x="1007" 
d="M504 537q-192 0 -317.5 121t-125.5 307t125.5 307t317.5 121t318 -121t126 -307t-126 -307t-318 -121zM502 702q112 0 184 74.5t72 190.5q0 113 -72 186.5t-184 73.5q-111 0 -183.5 -73t-72.5 -187q0 -116 72 -190.5t184 -74.5z" />
    <glyph glyph-name="Sigma.ordn" horiz-adv-x="677" 
d="M266 711h363v-160h-568v149l177 269l-177 260v149h553v-159h-344l172 -248z" />
    <glyph glyph-name="zero.tf" horiz-adv-x="1187" 
d="M594 -25q-223 0 -355.5 140.5t-132.5 376.5v395q0 236 132.5 376t355.5 140q224 0 354.5 -139t130.5 -377v-395q0 -237 -130.5 -377t-354.5 -140zM594 170q128 0 200 84.5t72 234.5v400q0 150 -72 234.5t-200 84.5q-129 0 -202 -85t-73 -234v-400q0 -149 73 -234t202 -85
z" />
    <glyph glyph-name="one.tf" horiz-adv-x="1187" 
d="M770 195h303v-195h-864v195h348v968l-332 -104l-49 184l416 135h178v-1183z" />
    <glyph glyph-name="two.tf" horiz-adv-x="1187" 
d="M358 190h709v-190h-930v96q0 78 23.5 149.5t58 124.5t88 105t99.5 86t106 72q62 38 91 56t71 46.5t60 45t41 40.5t31 45t14.5 47.5t6.5 57.5q0 113 -61.5 172t-159.5 59q-106 0 -171.5 -70t-65.5 -186h-215q0 209 124.5 333t331.5 124q197 0 317 -112.5t120 -305.5
q0 -50 -10 -94.5t-24.5 -79.5t-44 -70.5t-54.5 -60.5t-71 -58.5t-79 -55t-92 -58.5q-143 -88 -215.5 -157t-98.5 -161z" />
    <glyph glyph-name="three.tf" horiz-adv-x="1187" 
d="M858 723q102 -45 156.5 -129.5t54.5 -200.5q0 -182 -134.5 -299t-340.5 -117q-210 0 -335 119t-132 328h211q5 -114 73 -183t177 -69q117 0 189.5 64t72.5 167q0 106 -69.5 165t-194.5 59h-140v180h136q109 0 168 52.5t59 150.5q0 94 -58.5 146t-162.5 52
q-103 0 -168 -57.5t-70 -151.5h-209q7 178 134.5 290t322.5 112q192 0 309 -103t117 -272q0 -103 -43 -180.5t-123 -122.5z" />
    <glyph glyph-name="four.tf" horiz-adv-x="1187" 
d="M1114 432v-188h-184v-244h-213v244h-641v176l610 958h244v-946h184zM725 1122l-432 -690h432v690z" />
    <glyph glyph-name="five.tf" horiz-adv-x="1187" 
d="M662 901q187 0 310.5 -129t123.5 -326q0 -209 -134 -339t-348 -130q-196 0 -323 114.5t-141 303.5h210q9 -97 81.5 -162t170.5 -65q117 0 193 80.5t76 204.5q0 116 -74 191t-191 75q-70 0 -133 -32t-104 -89h-195v780h824v-190h-623v-375q117 88 277 88z" />
    <glyph glyph-name="six.tf" horiz-adv-x="1187" 
d="M623 907q192 0 323 -133.5t131 -327.5q0 -199 -139.5 -335t-343.5 -136q-206 0 -342.5 134.5t-136.5 336.5q0 92 36 180t132 234l348 518h250l-318 -475q40 4 60 4zM598 170q115 0 191.5 78.5t76.5 197.5t-75.5 196t-192.5 77t-193.5 -78t-76.5 -197t76 -196.5t194 -77.5
z" />
    <glyph glyph-name="seven.tf" horiz-adv-x="1187" 
d="M121 1378h915v-184l-557 -1194h-231l567 1186h-694v192z" />
    <glyph glyph-name="eight.tf" horiz-adv-x="1187" 
d="M846 725q104 -48 160.5 -137.5t56.5 -210.5q0 -180 -129 -291t-340 -111q-210 0 -339.5 110.5t-129.5 287.5q0 122 57.5 212t161.5 138q-89 46 -137.5 125.5t-48.5 181.5q0 162 123.5 267.5t314.5 105.5t312.5 -104.5t121.5 -266.5q0 -102 -48 -181.5t-136 -125.5z
M596 1221q-101 0 -164 -56t-63 -145q0 -94 63.5 -153.5t163.5 -59.5q98 0 160.5 59.5t62.5 153.5q0 89 -61.5 145t-161.5 56zM592 158q117 0 186.5 62t69.5 165q0 109 -69 175.5t-183 66.5q-117 0 -188.5 -68.5t-71.5 -177.5q0 -101 70 -162t186 -61z" />
    <glyph glyph-name="nine.tf" horiz-adv-x="1187" 
d="M565 471q-192 0 -323 133.5t-131 327.5q0 199 139.5 335t343.5 136q206 0 342.5 -134.5t136.5 -336.5q0 -92 -36 -180t-132 -234l-348 -518h-250l318 475q-40 -4 -60 -4zM590 1208q-115 0 -191.5 -78.5t-76.5 -197.5t75.5 -196t192.5 -77t193.5 78t76.5 197t-76 196.5
t-194 77.5z" />
    <glyph glyph-name="zero.zero" horiz-adv-x="1599" 
d="M799 1401q150 0 281 -54t224.5 -148t147 -226t53.5 -283q0 -201 -92 -364.5t-253.5 -256t-360.5 -92.5q-148 0 -279 54.5t-224.5 148.5t-147.5 226.5t-54 283.5t54 283t147 226t224 148t280 54zM801 1208q-211 0 -350.5 -146.5t-139.5 -369.5q0 -160 74 -289l709 709
q-126 96 -293 96zM801 170q212 0 350.5 148t138.5 374q0 158 -73 285l-711 -711q129 -96 295 -96z" />
    <glyph glyph-name="exclamdown.case" horiz-adv-x="608" 
d="M215 938h180l31 -938h-244zM301 1403q61 0 102 -39t41 -98q0 -60 -40.5 -99t-102.5 -39q-59 0 -99 39t-40 99q0 58 40 97.5t99 39.5z" />
    <glyph glyph-name="questiondown.case" horiz-adv-x="821" 
d="M715 0h-269q-175 0 -271.5 85t-96.5 239q0 108 63.5 196t261.5 248v170h187v-260q-135 -109 -195 -164.5t-82 -91.5t-22 -78q0 -81 46.5 -118.5t145.5 -37.5h232v-188zM494 1128q-62 0 -103 39t-41 99q0 59 41.5 98t102.5 39q59 0 99 -39.5t40 -97.5q0 -60 -40 -99
t-99 -39z" />
    <glyph glyph-name="emdash.down" horiz-adv-x="2037" 
d="M98 461v186h1844v-186h-1844z" />
    <glyph glyph-name="endash.down" horiz-adv-x="1013" 
d="M76 461v188h862v-188h-862z" />
    <glyph glyph-name="hyphen.down" horiz-adv-x="667" 
d="M86 461v188h494v-188h-494z" />
    <glyph glyph-name="uni0308.case" 
d="M213 1528q-56 0 -95.5 38.5t-39.5 92.5t39 92.5t96 38.5q58 0 97.5 -37.5t39.5 -93.5q0 -55 -40 -93t-97 -38zM-223 1528q-55 0 -94 38.5t-39 92.5t38 91.5t95 37.5q60 0 98.5 -36.5t38.5 -92.5t-39.5 -93.5t-97.5 -37.5z" />
    <glyph glyph-name="uni0307.case" 
d="M-4 1518q-60 0 -103 40.5t-43 100.5q0 58 43 98.5t103 40.5q61 0 103 -40t42 -99q0 -60 -41.5 -100.5t-103.5 -40.5z" />
    <glyph glyph-name="gravecomb.case" 
d="M-96 1499l-232 354h248l180 -354h-196z" />
    <glyph glyph-name="acutecomb.case" 
d="M-109 1499l181 354h252l-236 -354h-197z" />
    <glyph glyph-name="uni030B.case" 
d="M-264 1499l215 354h196l-225 -354h-186zM80 1499l223 354h215l-264 -354h-174z" />
    <glyph glyph-name="uni0302.case" 
d="M334 1499h-191l-149 199l-148 -199h-188l248 354h178z" />
    <glyph glyph-name="uni030C.case" 
d="M143 1853h191l-250 -354h-176l-250 354h188l150 -198z" />
    <glyph glyph-name="uni0306.case" 
d="M-6 1501q-161 0 -269 97.5t-108 240.5h168q0 -76 61 -130t148 -54t147 54t60 130h170q0 -143 -108 -240.5t-269 -97.5z" />
    <glyph glyph-name="uni030A.case" 
d="M-4 1409q-104 0 -173 67.5t-69 168.5t69 168t173 67q103 0 172.5 -67t69.5 -168t-69.5 -168.5t-172.5 -67.5zM-2 1540q41 0 70.5 30.5t29.5 74.5t-29 73t-71 29q-45 0 -73.5 -28.5t-28.5 -73.5q0 -46 29 -75.5t73 -29.5z" />
    <glyph glyph-name="tildecomb.case" 
d="M147 1497q-75 0 -165 49q-89 47 -138 47q-79 0 -182 -67v170q91 70 182 73q67 0 168 -49q58 -28 84 -36.5t51 -8.5q79 0 183 66v-170q-95 -71 -183 -74z" />
    <glyph glyph-name="uni0304.case" 
d="M-307 1563v166h604v-166h-604z" />
    <glyph glyph-name="uni0327.cr" 
d="M-102 25h198v-281h-198v281z" />
    <glyph glyph-name="uni0304.i" 
d="M-248 1206v162h486v-162h-486z" />
    <glyph glyph-name="uni0328.long" 
d="M-184 -389q-117 0 -184.5 47.5t-67.5 130.5q0 85 73.5 162.5t270.5 200.5l86 -68l-166 -150q-43 -40 -55.5 -59.5t-12.5 -48.5q0 -76 111 -76h84v-131q-47 -8 -139 -8z" />
    <glyph glyph-name="uni030C.slovak" 
d="M-88 983l25 395h227l-92 -395h-160z" />
    <glyph glyph-name="brevecombcy" 
d="M-6 1149q-155 0 -242.5 90t-87.5 248h166q0 -187 164 -187q80 0 121 47.5t41 139.5h168q0 -158 -87.5 -248t-242.5 -90z" />
    <glyph glyph-name="brevecombcy.case" 
d="M-4 1501q-178 0 -284.5 89t-106.5 249h168q0 -83 61 -133.5t162 -50.5q100 0 159.5 50.5t59.5 133.5h170q0 -160 -106 -249t-283 -89z" />
    </font>
</defs>
</svg>
